<?xml version="1.0" encoding="UTF-8"?>
<svg width="142px" height="294px" viewBox="0 0 142 294" version="1.1" xmlns="http://www.w3.org/2000/svg" xmlns:xlink="http://www.w3.org/1999/xlink">
    <!-- Generator: Sketch 52.3 (67297) - http://www.bohemiancoding.com/sketch -->
    <title>3 steps-arrow 2</title>
    <desc>Created with Sketch.</desc>
    <g id="Page-1" stroke="none" stroke-width="1" fill="none" fill-rule="evenodd">
        <g id="Sport-1440---Design" transform="translate(-580.000000, -2070.000000)" fill="#EF1C3B" fill-rule="nonzero">
            <g id="3-steps-arrow-2" transform="translate(582.000000, 2071.000000)">
                <path id="Line-4" d="M1.42257705,288.459195 L7.85903482,291.839328 L8.30170568,292.071799 L7.83676477,292.95714 L7.39409391,292.72467 L-0.732262798,288.45708 L-1.51923321,288.043799 L-0.757379516,287.585866 L7.10961876,282.857194 L7.53816146,282.599607 L8.05333581,283.456692 L7.62479311,283.71428 L1.39375944,287.459611 L4.78948729,287.361713 L5.28927963,287.347305 L5.31809724,288.346889 L4.81830489,288.361298 L1.42257705,288.459195 Z M138.647805,-0.354906503 L139.002711,-0.707101583 L139.707102,0.00271142266 L139.352195,0.354906503 C138.159162,1.538825 136.990355,2.7221076 135.845774,3.90475313 L135.49805,4.26404122 L134.779474,3.56859297 L135.127198,3.20930488 C136.276484,2.02179789 137.45002,0.833727823 138.647805,-0.354906503 Z M131.680622,6.8471974 L132.020535,6.48051081 L132.753908,7.1603371 L132.413995,7.52702369 C131.271106,8.75993359 130.154605,9.99214541 129.064493,11.2236578 L128.733088,11.5980508 L127.984301,10.9352392 L128.315707,10.5608461 C129.41092,9.32357179 130.532558,8.08568935 131.680622,6.8471974 Z M125.036298,14.357524 L125.358412,13.9751073 L126.123245,14.6193355 L125.801131,15.0017522 C124.718066,16.2875764 123.663838,17.5726313 122.638445,18.8569153 L122.326475,19.2476514 L121.545002,18.6237114 L121.856972,18.2329753 C122.887854,16.941817 123.947629,15.6500005 125.036298,14.357524 Z M118.783187,22.1944389 L119.084056,21.7950922 L119.88275,22.3968302 L119.581881,22.796177 C118.570769,24.1382368 117.591225,25.4794469 116.643246,26.8198056 L116.354529,27.2280249 L115.538091,26.6505925 L115.826807,26.2423733 C116.780613,24.8937762 117.766073,23.5444653 118.783187,22.1944389 Z M112.987757,30.3959625 L113.263105,29.9786099 L114.097811,30.5293069 L113.822462,30.9466595 C112.896825,32.3496711 112.005864,33.7517415 111.149576,35.1528691 L110.888841,35.5795041 L110.035571,35.0580349 L110.296306,34.6313999 C111.158648,33.2203654 112.0558,31.8085535 112.987757,30.3959625 Z M107.761779,38.954592 L108.00653,38.518591 L108.878532,39.0080932 L108.633781,39.4440942 C107.811679,40.9085918 107.02756,42.3720521 106.281419,43.8344741 L106.054182,44.2798541 L105.163422,43.8253802 L105.390659,43.3800002 C106.142854,41.9057117 106.933229,40.4305759 107.761779,38.954592 Z M103.199341,47.9078388 L103.407426,47.4531956 L104.316713,47.8693667 L104.108627,48.3240099 C103.410572,49.8491809 102.753939,51.3732187 102.138723,52.8961243 L101.95144,53.3597243 L101.024239,52.9851582 L101.211522,52.5215581 C101.832425,50.984577 102.495033,49.4466702 103.199341,47.9078388 Z M99.4366657,57.2363664 L99.6013678,56.7642719 L100.545557,57.093676 L100.380855,57.5657705 C99.8296319,59.1457702 99.3231157,60.7245545 98.8612986,62.3021278 L98.7208245,62.7819892 L97.7611016,62.501041 L97.9015757,62.0211795 C98.3681802,60.4272524 98.8798793,58.8323133 99.4366657,57.2363664 Z M96.6112817,66.9092141 L96.7257404,66.4224912 L97.6991862,66.6514087 L97.5847275,67.1381316 C97.2026473,68.7628846 96.8681171,70.3863681 96.5811302,72.0085906 L96.4940278,72.5009453 L95.5093183,72.3267406 L95.5964207,71.8343859 C95.8866626,70.1937647 96.2249519,68.5520379 96.6112817,66.9092141 Z M94.8682838,76.7661026 L94.9270421,76.2695672 L95.920113,76.3870839 L95.8613547,76.8836194 C95.6658969,78.5353278 95.5198697,80.1857568 95.4232689,81.8349186 L95.3940311,82.3340631 L94.3957423,82.2755876 L94.42498,81.7764432 C94.5227383,80.1075203 94.6705076,78.4374027 94.8682838,76.7661026 Z M94.2817973,86.8148227 L94.2809056,86.3148235 L95.280904,86.31304 L95.2817957,86.8130392 C95.284751,88.4700788 95.3377558,90.1258758 95.4408108,91.7804437 L95.4718931,92.2794767 L94.4738272,92.3416414 L94.4427448,91.8426084 C94.3384379,90.1679396 94.2847885,88.4920064 94.2817973,86.8148227 Z M94.7665056,96.845693 L94.7341841,96.3467388 L95.7320926,96.2820959 L95.764414,96.7810501 C95.8932554,98.7700063 95.9897732,100.273567 96.0846035,101.775612 L96.1161079,102.274618 L95.1180949,102.337627 L95.0865905,101.83862 C94.9918006,100.337216 94.8953146,98.8341512 94.7665056,96.845693 Z M95.3935132,106.818641 L95.3636213,106.319536 L96.3618326,106.259752 L96.3917245,106.758858 C96.4946593,108.47756 96.5903563,110.133668 96.6802428,111.757777 L96.7078731,112.257013 L95.7094012,112.312274 L95.6817709,111.813038 C95.591971,110.190495 95.4963607,108.535887 95.3935132,106.818641 Z M95.9443509,116.803834 L95.9195258,116.304451 L96.9182925,116.254801 L96.9431175,116.754184 C97.0271825,118.445243 97.1045972,120.108335 97.1754781,121.752231 L97.1970169,122.251767 L96.1979452,122.294845 L96.1764064,121.795309 C96.1056219,120.15365 96.0283091,118.492746 95.9443509,116.803834 Z M96.3731043,126.780234 L96.3552861,126.280552 L97.3546509,126.244915 L97.3724691,126.744598 C97.4324595,128.426925 97.4851048,130.091012 97.5302597,131.740566 L97.5439415,132.240379 L96.544316,132.267743 L96.5306341,131.76793 C96.4855559,130.121174 96.4329977,128.459843 96.3731043,126.780234 Z M96.6450804,136.768385 L96.6359479,136.268469 L97.635781,136.250204 L97.6449136,136.75012 C97.6756515,138.432722 97.698065,140.100466 97.7119314,141.755229 L97.7161211,142.255211 L96.7161562,142.263591 L96.7119665,141.763608 C96.6981281,140.11218 96.6757589,138.44773 96.6450804,136.768385 Z M96.7274493,146.76539 L96.7286113,146.265391 L97.7286086,146.267715 L97.7274466,146.767714 C97.7235377,148.449602 97.7102568,150.117695 97.6873555,151.773022 L97.6804387,152.272974 L96.6805344,152.259141 L96.6874512,151.759188 C96.7102989,150.107737 96.7235493,148.44348 96.7274493,146.76539 Z M96.587913,156.750242 L96.6010078,156.250413 L97.6006648,156.276603 L97.58757,156.776431 C97.5434799,158.459345 97.4888804,160.128363 97.4235129,161.784067 L97.4037882,162.283678 L96.4045666,162.244228 L96.4242913,161.744618 C96.4894827,160.093375 96.5439377,158.428775 96.587913,156.750242 Z M96.1922389,166.733354 L96.2190594,166.234074 L97.2176197,166.287715 L97.1907992,166.786995 C97.1005622,168.466819 96.998634,170.132043 96.8847523,171.782984 L96.8503441,172.281799 L95.8527147,172.212983 L95.8871229,171.714168 C96.0006528,170.068329 96.1022713,168.408161 96.1922389,166.733354 Z M95.5037665,176.688296 L95.5462911,176.190108 L96.5426679,176.275157 L96.5001433,176.773345 C96.3569774,178.450577 96.2008025,180.112015 96.0313515,181.757806 L95.9801421,182.255177 L94.9854007,182.152758 L95.0366101,181.655387 C95.2054603,180.015433 95.3610911,178.359783 95.5037665,176.688296 Z M94.4785059,186.623719 L94.539031,186.127396 L95.5316774,186.248447 L95.4711523,186.74477 C95.2670144,188.418757 95.0483737,190.07534 94.8149564,191.714547 L94.7444692,192.209553 L93.754456,192.068579 L93.8249432,191.573572 C94.0574078,189.941056 94.2751721,188.291113 94.4785059,186.623719 Z M93.0670283,196.517069 L93.1482062,196.023703 L94.1349385,196.186059 L94.0537606,196.679425 C93.7798392,198.344207 93.489781,199.989663 93.1833043,201.615729 L93.0906961,202.107078 L92.1079983,201.921862 L92.2006065,201.430513 C92.5056375,199.812117 92.7943527,198.174281 93.0670283,196.517069 Z M91.2180913,206.312206 L91.3229284,205.82332 L92.3006997,206.032994 L92.1958626,206.52188 C91.8421073,208.171543 91.4703927,209.799618 91.0804265,211.405974 L90.9624703,211.891861 L89.990696,211.655949 L90.1086522,211.170062 C90.4964832,209.572501 90.8662013,207.95317 91.2180913,206.312206 Z M88.8603489,216.00763 L88.9924061,215.525384 L89.9568974,215.789499 L89.8248402,216.271744 C89.3784385,217.901911 88.9119446,219.507763 88.4250512,221.089105 L88.2779181,221.566967 L87.3221946,221.272701 L87.4693277,220.794839 C87.9531137,219.223589 88.4166883,217.627787 88.8603489,216.00763 Z M85.9233091,225.532441 L86.0865702,225.059847 L87.0317598,225.386369 L86.8684987,225.858963 C86.3163929,227.457155 85.7418554,229.027968 85.1445629,230.57115 L84.9640838,231.037441 L84.0315018,230.676483 L84.2119809,230.210192 C84.8048222,228.67851 85.3751613,227.119176 85.9233091,225.532441 Z M82.3230998,234.820267 L82.5219218,234.361497 L83.4394615,234.759141 L83.2406395,235.217911 C82.5680509,236.769869 81.8704542,238.291009 81.1475079,239.781026 L80.9292456,240.230872 L80.0295533,239.794348 L80.2478157,239.344502 C80.9644835,237.867425 81.656136,236.359246 82.3230998,234.820267 Z M77.963115,243.79134 L78.2019775,243.352085 L79.0804869,243.82981 L78.8416244,244.269065 C78.0331615,245.755782 77.1969389,247.20794 76.3325983,248.625177 L76.072257,249.052052 L75.2185067,248.531369 L75.4788481,248.104494 C76.3345139,246.701481 77.1624885,245.263647 77.963115,243.79134 Z M72.7796113,252.28003 L73.0622069,251.86755 L73.8871668,252.432741 L73.6045712,252.845221 C72.6498455,254.23875 71.664785,255.594103 70.649023,256.910875 L70.3436277,257.306771 L69.5518356,256.69598 L69.8572309,256.300084 C70.8614322,254.998299 71.8354401,253.658153 72.7796113,252.28003 Z M66.7026089,260.148639 L67.0310628,259.771654 L67.7850336,260.428562 L67.4565797,260.805547 C66.3492455,262.076498 65.2093878,263.306051 64.0366429,264.493771 L63.6853396,264.84956 L62.9737612,264.146954 L63.3250645,263.791164 C64.483131,262.61831 65.6088574,261.404 66.7026089,260.148639 Z M59.7087108,267.224779 L60.0823285,266.8925 L60.7468881,267.639735 L60.3732704,267.972015 C59.1174359,269.088901 57.8277246,270.162158 56.5037912,271.191344 L56.1090371,271.498214 L55.4952972,270.708706 L55.8900513,270.401836 C57.1965295,269.386219 58.4692952,268.327063 59.7087108,267.224779 Z M51.8737397,273.314515 L52.2880761,273.034648 L52.8478093,273.863321 L52.4334728,274.143188 C51.0469289,275.079739 49.6263697,275.971977 48.1714824,276.819479 L47.7394403,277.071153 L47.2360931,276.207068 L47.6681352,275.955395 C49.1038244,275.119076 50.5055785,274.238649 51.8737397,273.314515 Z M43.2872778,278.31751 L43.7349057,278.094734 L44.180458,278.989989 L43.73283,279.212766 C42.2412064,279.955119 40.7166044,280.654054 39.1587496,281.309192 L38.6978472,281.503019 L38.3101926,280.581215 L38.771095,280.387387 C40.3094012,279.74047 41.8146936,279.050388 43.2872778,278.31751 Z M34.1183385,282.176761 L34.5902684,282.011588 L34.9206147,282.955448 L34.4486848,283.120621 C32.8820808,283.668924 31.2844682,284.176034 29.6556125,284.641626 L29.1748665,284.779042 L28.9000337,283.81755 L29.3807797,283.680134 C30.9910225,283.219862 32.5701224,282.718629 34.1183385,282.176761 Z M24.5355384,284.919798 L25.0231451,284.809165 L25.2444115,285.784378 L24.7568048,285.895012 C23.142615,286.261256 21.4998906,286.589314 19.8284347,286.878916 L19.3357749,286.964276 L19.165055,285.978957 L19.6577148,285.893597 C21.3123113,285.606916 22.9381818,285.282223 24.5355384,284.919798 Z M14.7308201,286.6241 L15.2270176,286.562553 L15.3501109,287.554948 L14.8539133,287.616495 C13.214313,287.819865 11.5487912,287.988343 9.85718445,288.121704 L9.35873106,288.161 L9.28013805,287.164093 L9.77859144,287.124797 C11.4554077,286.992602 13.1060936,286.825625 14.7308201,286.6241 Z"></path>
            </g>
        </g>
    </g>
</svg>