<?xml version="1.0" encoding="UTF-8"?>
<svg width="208px" height="230px" viewBox="0 0 208 230" version="1.1" xmlns="http://www.w3.org/2000/svg" xmlns:xlink="http://www.w3.org/1999/xlink">
    <!-- Generator: Sketch 52.3 (67297) - http://www.bohemiancoding.com/sketch -->
    <title>3 steps-step 1 icon</title>
    <desc>Created with Sketch.</desc>
    <defs>
        <linearGradient x1="1.20662332%" y1="2.14292466%" x2="90.267142%" y2="79.7543246%" id="linearGradient-1">
            <stop stop-color="#0497F4" offset="0%"></stop>
            <stop stop-color="#0BCBF9" offset="100%"></stop>
        </linearGradient>
        <polygon id="path-2" points="0.967158662 0.0617481711 2.987 0.0617481711 2.987 3.0645 0.967158662 3.0645"></polygon>
        <polygon id="path-4" points="0.804373077 0.74754326 3.77450734 0.74754326 3.77450734 3 0.804373077 3"></polygon>
        <polygon id="path-6" points="0 0.206693937 74.7575571 0.206693937 74.7575571 41.5987798 0 41.5987798"></polygon>
        <polygon id="path-8" points="0 0.206693937 74.7575571 0.206693937 74.7575571 41.5987798 0 41.5987798"></polygon>
        <polygon id="path-10" points="0 0.206693937 74.7575571 0.206693937 74.7575571 41.5987798 0 41.5987798"></polygon>
    </defs>
    <g id="Page-1" stroke="none" stroke-width="1" fill="none" fill-rule="evenodd">
        <g id="Sport-1440---Design" transform="translate(-1082.000000, -1573.000000)">
            <g id="Group-13" transform="translate(994.000000, 1503.000000)">
                <g id="3-steps-step-1-icon" transform="translate(88.000000, 70.000000)">
                    <g id="men-icons" fill="url(#linearGradient-1)">
                        <g id="Group-6" transform="translate(4.000000, 44.000000)">
                            <g id="Group-3" transform="translate(0.000000, 19.583333)">
                                <path d="M35.7961333,14.5958667 L33.9281333,10.4243111 C31.1290222,4.17231111 24.9179111,0.148311111 18.0676889,0.148311111 C11.2174667,0.148311111 5.0068,4.17231111 2.20724444,10.4243111 L0.339244444,14.5958667 C-0.7972,17.1336444 1.06013333,19.9998667 3.84057778,19.9998667 L32.2948,19.9998667 C35.0756889,19.9998667 36.9325778,17.1336444 35.7961333,14.5958667" id="Fill-1"></path>
                            </g>
                            <path d="M18.0677333,17.7777778 C22.9770667,17.7777778 26.9566222,13.7982222 26.9566222,8.88888889 C26.9566222,3.97955556 22.9770667,0 18.0677333,0 C13.1584,0 9.17884444,3.97955556 9.17884444,8.88888889 C9.17884444,13.7982222 13.1584,17.7777778 18.0677333,17.7777778" id="Fill-4"></path>
                        </g>
                        <g id="Group-6-Copy-2" transform="translate(0.000000, 131.000000)">
                            <g id="Group-3" transform="translate(0.000000, 19.583333)">
                                <path d="M35.7961333,14.5958667 L33.9281333,10.4243111 C31.1290222,4.17231111 24.9179111,0.148311111 18.0676889,0.148311111 C11.2174667,0.148311111 5.0068,4.17231111 2.20724444,10.4243111 L0.339244444,14.5958667 C-0.7972,17.1336444 1.06013333,19.9998667 3.84057778,19.9998667 L32.2948,19.9998667 C35.0756889,19.9998667 36.9325778,17.1336444 35.7961333,14.5958667" id="Fill-1"></path>
                            </g>
                            <path d="M18.0677333,17.7777778 C22.9770667,17.7777778 26.9566222,13.7982222 26.9566222,8.88888889 C26.9566222,3.97955556 22.9770667,0 18.0677333,0 C13.1584,0 9.17884444,3.97955556 9.17884444,8.88888889 C9.17884444,13.7982222 13.1584,17.7777778 18.0677333,17.7777778" id="Fill-4"></path>
                        </g>
                        <g id="Group-6-Copy" transform="translate(171.000000, 47.000000)">
                            <g id="Group-3" transform="translate(0.000000, 19.583333)">
                                <path d="M33.9281333,10.4243111 C31.1290222,4.17231111 24.9179111,0.148311111 18.0676889,0.148311111 C11.2174667,0.148311111 5.0068,4.17231111 2.20724444,10.4243111 L0.339244444,14.5958667 C-0.7972,17.1336444 1.06013333,19.9998667 3.84057778,19.9998667 L32.2948,19.9998667 C35.0756889,19.9998667 36.9325778,17.1336444 35.7961333,14.5958667 L33.9281333,10.4243111 Z" id="Fill-1"></path>
                            </g>
                            <path d="M18.0677333,17.7777778 C22.9770667,17.7777778 26.9566222,13.7982222 26.9566222,8.88888889 C26.9566222,3.97955556 22.9770667,0 18.0677333,0 C13.1584,0 9.17884444,3.97955556 9.17884444,8.88888889 C9.17884444,13.7982222 13.1584,17.7777778 18.0677333,17.7777778" id="Fill-4"></path>
                        </g>
                        <g id="Group-6-Copy-4" transform="translate(84.000000, 0.000000)">
                            <g id="Group-3" transform="translate(0.000000, 19.583333)">
                                <path d="M35.7961333,14.5958667 L33.9281333,10.4243111 C31.1290222,4.17231111 24.9179111,0.148311111 18.0676889,0.148311111 C11.2174667,0.148311111 5.0068,4.17231111 2.20724444,10.4243111 L0.339244444,14.5958667 C-0.7972,17.1336444 1.06013333,19.9998667 3.84057778,19.9998667 L32.2948,19.9998667 C35.0756889,19.9998667 36.9325778,17.1336444 35.7961333,14.5958667" id="Fill-1"></path>
                            </g>
                            <path d="M18.0677333,17.7777778 C22.9770667,17.7777778 26.9566222,13.7982222 26.9566222,8.88888889 C26.9566222,3.97955556 22.9770667,0 18.0677333,0 C13.1584,0 9.17884444,3.97955556 9.17884444,8.88888889 C9.17884444,13.7982222 13.1584,17.7777778 18.0677333,17.7777778" id="Fill-4"></path>
                        </g>
                        <g id="Group-6-Copy-5" transform="translate(84.000000, 190.000000)">
                            <g id="Group-3" transform="translate(0.000000, 19.583333)">
                                <path d="M35.7961333,14.5958667 L33.9281333,10.4243111 C31.1290222,4.17231111 24.9179111,0.148311111 18.0676889,0.148311111 C11.2174667,0.148311111 5.0068,4.17231111 2.20724444,10.4243111 L0.339244444,14.5958667 C-0.7972,17.1336444 1.06013333,19.9998667 3.84057778,19.9998667 L32.2948,19.9998667 C35.0756889,19.9998667 36.9325778,17.1336444 35.7961333,14.5958667" id="Fill-1"></path>
                            </g>
                            <path d="M18.0677333,17.7777778 C22.9770667,17.7777778 26.9566222,13.7982222 26.9566222,8.88888889 C26.9566222,3.97955556 22.9770667,0 18.0677333,0 C13.1584,0 9.17884444,3.97955556 9.17884444,8.88888889 C9.17884444,13.7982222 13.1584,17.7777778 18.0677333,17.7777778" id="Fill-4"></path>
                        </g>
                        <g id="Group-6-Copy-3" transform="translate(167.000000, 131.000000)">
                            <g id="Group-3" transform="translate(0.000000, 19.583333)">
                                <path d="M35.7961333,14.5958667 L33.9281333,10.4243111 C31.1290222,4.17231111 24.9179111,0.148311111 18.0676889,0.148311111 C11.2174667,0.148311111 5.0068,4.17231111 2.20724444,10.4243111 L0.339244444,14.5958667 C-0.7972,17.1336444 1.06013333,19.9998667 3.84057778,19.9998667 L32.2948,19.9998667 C35.0756889,19.9998667 36.9325778,17.1336444 35.7961333,14.5958667" id="Fill-1"></path>
                            </g>
                            <path d="M18.0677333,17.7777778 C22.9770667,17.7777778 26.9566222,13.7982222 26.9566222,8.88888889 C26.9566222,3.97955556 22.9770667,0 18.0677333,0 C13.1584,0 9.17884444,3.97955556 9.17884444,8.88888889 C9.17884444,13.7982222 13.1584,17.7777778 18.0677333,17.7777778" id="Fill-4"></path>
                        </g>
                    </g>
                    <g id="dash-circle" transform="translate(3.000000, 23.000000)">
                        <path d="M160.416,17.9203 L159.617,17.3073 C159.176,16.9713 158.549,17.0573 158.216,17.4963 C157.881,17.9353 157.966,18.5633 158.404,18.8983 L159.191,19.5023 C159.374,19.6423 159.589,19.7113 159.803,19.7113 C160.102,19.7113 160.397,19.5773 160.595,19.3233 C160.933,18.8863 160.853,18.2583 160.416,17.9203" id="Fill-1" fill="#EF1C3B"></path>
                        <path d="M169.5215,25.9095 C169.2835,25.6725 169.0425,25.4365 168.8005,25.2015 C168.4055,24.8165 167.7705,24.8265 167.3865,25.2225 C167.0005,25.6185 167.0105,26.2515 167.4065,26.6365 C167.6435,26.8665 167.8785,27.0975 168.1135,27.3295 C168.3085,27.5225 168.5625,27.6195 168.8175,27.6195 C169.0745,27.6195 169.3325,27.5205 169.5275,27.3235 C169.9165,26.9315 169.9145,26.2985 169.5215,25.9095" id="Fill-3" fill="#EF1C3B"></path>
                        <path d="M145.5469,9.4969 C145.7999,9.0059 145.6079,8.4029 145.1169,8.1489 C144.8179,7.9949 144.5189,7.8419 144.2169,7.6909 C143.7249,7.4409 143.1219,7.6409 142.8739,8.1339 C142.6259,8.6279 142.8239,9.2289 143.3179,9.4769 C143.6119,9.6249 143.9059,9.7749 144.1989,9.9269 C144.3459,10.0019 144.5029,10.0379 144.6569,10.0379 C145.0199,10.0379 145.3689,9.8409 145.5469,9.4969" id="Fill-5" fill="#EF1C3B"></path>
                        <path d="M150.7578,12.4642 C151.0398,11.9892 150.8848,11.3762 150.4098,11.0932 C150.1208,10.9212 149.8308,10.7502 149.5398,10.5802 C149.0638,10.3042 148.4508,10.4642 148.1728,10.9432 C147.8948,11.4202 148.0568,12.0322 148.5338,12.3102 C148.8198,12.4752 149.1038,12.6432 149.3868,12.8122 C149.5468,12.9072 149.7238,12.9522 149.8978,12.9522 C150.2378,12.9522 150.5708,12.7782 150.7578,12.4642" id="Fill-7" fill="#EF1C3B"></path>
                        <path d="M165.0889,21.7762 L164.3269,21.1152 C163.9099,20.7552 163.2769,20.8012 162.9169,21.2212 C162.5569,21.6402 162.6039,22.2712 163.0229,22.6312 L163.7709,23.2812 C163.9609,23.4472 164.1949,23.5282 164.4299,23.5282 C164.7079,23.5282 164.9849,23.4132 165.1819,23.1872 C165.5459,22.7722 165.5039,22.1402 165.0889,21.7762" id="Fill-9" fill="#EF1C3B"></path>
                        <path d="M155.7803,15.745 C156.0923,15.288 155.9733,14.666 155.5173,14.355 L154.6823,13.79 C154.2233,13.484 153.6033,13.606 153.2953,14.065 C152.9873,14.524 153.1103,15.145 153.5693,15.453 L154.3903,16.007 C154.5623,16.125 154.7593,16.181 154.9533,16.181 C155.2723,16.181 155.5863,16.029 155.7803,15.745" id="Fill-11" fill="#EF1C3B"></path>
                        <path d="M140.1631,6.8519 C140.3861,6.3469 140.1561,5.7559 139.6511,5.5339 L138.7301,5.1319 C138.2201,4.9129 137.6341,5.1469 137.4151,5.6529 C137.1961,6.1599 137.4291,6.7479 137.9351,6.9679 L138.8451,7.3639 C138.9761,7.4209 139.1131,7.4489 139.2471,7.4489 C139.6321,7.4489 139.9981,7.2259 140.1631,6.8519" id="Fill-13" fill="#EF1C3B"></path>
                        <path d="M134.6289,4.5428 C134.8209,4.0248 134.5569,3.4498 134.0389,3.2578 L133.0919,2.9128 C132.5689,2.7258 131.9989,2.9948 131.8119,3.5148 C131.6249,4.0348 131.8949,4.6068 132.4139,4.7938 L133.3439,5.1338 C133.4589,5.1758 133.5759,5.1958 133.6919,5.1958 C134.0979,5.1958 134.4799,4.9458 134.6289,4.5428" id="Fill-15" fill="#EF1C3B"></path>
                        <path d="M128.9639,2.577 C129.1239,2.049 128.8249,1.491 128.2959,1.331 C127.9749,1.233 127.6519,1.138 127.3289,1.044 C126.7899,0.89 126.2439,1.195 126.0899,1.725 C125.9359,2.256 126.2399,2.81 126.7709,2.965 C127.0869,3.056 127.4019,3.15 127.7179,3.245 C127.8149,3.274 127.9109,3.288 128.0069,3.288 C128.4369,3.288 128.8329,3.01 128.9639,2.577" id="Fill-17" fill="#EF1C3B"></path>
                        <path d="M196.6445,88.2352 C196.6715,88.5632 196.6985,88.8922 196.7225,89.2212 C196.7605,89.7472 197.1995,90.1482 197.7185,90.1482 C197.7435,90.1482 197.7675,90.1472 197.7925,90.1452 C198.3435,90.1052 198.7575,89.6252 198.7165,89.0742 C198.6925,88.7372 198.6655,88.4012 198.6365,88.0652 C198.5905,87.5152 198.1075,87.0992 197.5555,87.1532 C197.0045,87.2012 196.5975,87.6852 196.6445,88.2352" id="Fill-19" fill="#EF1C3B"></path>
                        <path d="M195.9629,82.3343 L196.1009,83.3163 C196.1689,83.8173 196.5979,84.1813 197.0909,84.1813 C197.1359,84.1813 197.1809,84.1783 197.2269,84.1723 C197.7739,84.0983 198.1569,83.5943 198.0829,83.0463 L197.9419,82.0473 C197.8609,81.5003 197.3509,81.1233 196.8089,81.2013 C196.2619,81.2803 195.8829,81.7873 195.9629,82.3343" id="Fill-21" fill="#EF1C3B"></path>
                        <g id="Group-25" transform="translate(196.000000, 93.077000)">
                            <mask id="mask-3" fill="white">
                                <use xlink:href="#path-2"></use>
                            </mask>
                            <g id="Clip-24"></g>
                            <path d="M1.9444,0.0645 C1.3924,0.0775 0.9554,0.5355 0.9674,1.0875 L0.9874,2.0795 C0.9954,2.6275 1.4414,3.0645 1.9874,3.0645 L2.0024,3.0645 C2.5534,3.0565 2.9954,2.6025 2.9874,2.0505 L2.9674,1.0405 C2.9544,0.4885 2.5074,0.0215 1.9444,0.0645" id="Fill-23" fill="#EF1C3B" mask="url(#mask-3)"></path>
                        </g>
                        <path d="M195.7168,71.1639 L195.4638,70.2219 C195.3178,69.6879 194.7628,69.3769 194.2358,69.5199 C193.7028,69.6659 193.3888,70.2159 193.5338,70.7489 L193.7828,71.6739 C193.9018,72.1219 194.3058,72.4189 194.7488,72.4189 C194.8338,72.4189 194.9188,72.4089 195.0048,72.3859 C195.5388,72.2449 195.8578,71.6979 195.7168,71.1639" id="Fill-26" fill="#EF1C3B"></path>
                        <path d="M196.9444,111.0912 C196.3944,111.0062 195.8874,111.3782 195.8004,111.9242 C195.7504,112.2492 195.6974,112.5742 195.6414,112.8992 C195.5494,113.4432 195.9164,113.9592 196.4614,114.0512 C196.5174,114.0612 196.5734,114.0662 196.6294,114.0662 C197.1084,114.0662 197.5314,113.7202 197.6144,113.2332 C197.6704,112.9002 197.7244,112.5672 197.7774,112.2342 C197.8624,111.6892 197.4904,111.1772 196.9444,111.0912" id="Fill-28" fill="#EF1C3B"></path>
                        <path d="M196.2979,78.2445 C196.8389,78.1365 197.1909,77.6095 197.0819,77.0675 L196.8799,76.0785 C196.7669,75.5375 196.2379,75.1905 195.6959,75.3055 C195.1549,75.4185 194.8099,75.9485 194.9229,76.4895 L195.1209,77.4605 C195.2159,77.9355 195.6339,78.2645 196.1009,78.2645 C196.1649,78.2645 196.2319,78.2575 196.2979,78.2445" id="Fill-30" fill="#EF1C3B"></path>
                        <path d="M197.6406,105.1327 C197.0816,105.0777 196.6016,105.4817 196.5486,106.0307 L196.4496,107.0177 C196.3906,107.5667 196.7876,108.0587 197.3376,108.1177 C197.3736,108.1207 197.4096,108.1227 197.4446,108.1227 C197.9496,108.1227 198.3826,107.7417 198.4376,107.2287 L198.5386,106.2247 C198.5926,105.6747 198.1906,105.1857 197.6406,105.1327" id="Fill-32" fill="#EF1C3B"></path>
                        <path d="M197.9707,99.1415 C197.4547,99.1175 196.9547,99.5535 196.9367,100.1055 L196.8967,101.0965 C196.8717,101.6485 197.2997,102.1155 197.8517,102.1395 C197.8667,102.1405 197.8817,102.1405 197.8967,102.1405 C198.4287,102.1405 198.8707,101.7215 198.8947,101.1845 L198.9347,100.1765 C198.9537,99.6235 198.5227,99.1615 197.9707,99.1415" id="Fill-34" fill="#EF1C3B"></path>
                        <g id="Group-38" transform="translate(122.000000, 190.077000)">
                            <mask id="mask-5" fill="white">
                                <use xlink:href="#path-4"></use>
                            </mask>
                            <g id="Clip-37"></g>
                            <path d="M2.5166,0.7822 C2.1986,0.8662 1.8796,0.9492 1.5596,1.0302 C1.0246,1.1662 0.7006,1.7102 0.8346,2.2452 C0.9506,2.6982 1.3576,3.0002 1.8036,3.0002 C1.8846,3.0002 1.9676,2.9902 2.0496,2.9702 C2.3776,2.8862 2.7056,2.8022 3.0326,2.7142 C3.5656,2.5722 3.8826,2.0242 3.7406,1.4902 C3.5986,0.9562 3.0506,0.6382 2.5166,0.7822" id="Fill-36" fill="#EF1C3B" mask="url(#mask-5)"></path>
                        </g>
                        <path d="M165.7256,168.1537 C165.4856,168.3767 165.2436,168.5987 164.9986,168.8207 C164.5896,169.1917 164.5596,169.8237 164.9306,170.2327 C165.1276,170.4507 165.3986,170.5607 165.6706,170.5607 C165.9116,170.5607 166.1516,170.4757 166.3426,170.3017 C166.5926,170.0747 166.8426,169.8467 167.0886,169.6167 C167.4936,169.2397 167.5156,168.6077 167.1386,168.2037 C166.7616,167.7987 166.1286,167.7777 165.7256,168.1537" id="Fill-39" fill="#EF1C3B"></path>
                        <path d="M156.5449,175.6776 C156.2789,175.8706 156.0109,176.0616 155.7409,176.2516 C155.2899,176.5706 155.1829,177.1946 155.5019,177.6456 C155.6959,177.9216 156.0049,178.0686 156.3189,178.0686 C156.5189,178.0686 156.7199,178.0096 156.8959,177.8856 C157.1709,177.6906 157.4449,177.4946 157.7189,177.2966 C158.1659,176.9726 158.2659,176.3476 157.9409,175.9006 C157.6179,175.4526 156.9939,175.3536 156.5449,175.6776" id="Fill-41" fill="#EF1C3B"></path>
                        <path d="M130.21,189.1639 C129.898,189.2679 129.585,189.3699 129.271,189.4699 C128.744,189.6379 128.454,190.1999 128.621,190.7259 C128.757,191.1519 129.15,191.4229 129.574,191.4229 C129.675,191.4229 129.777,191.4079 129.878,191.3759 C130.2,191.2719 130.522,191.1679 130.843,191.0599 C131.366,190.8869 131.649,190.3199 131.475,189.7959 C131.301,189.2719 130.737,188.9879 130.21,189.1639" id="Fill-43" fill="#EF1C3B"></path>
                        <path d="M161.2529,172.0521 L160.4819,172.6771 C160.0519,173.0221 159.9819,173.6521 160.3279,174.0821 C160.5259,174.3281 160.8159,174.4561 161.1089,174.4561 C161.3289,174.4561 161.5499,174.3851 161.7339,174.2361 L162.5189,173.6011 C162.9459,173.2511 163.0099,172.6211 162.6599,172.1941 C162.3119,171.7671 161.6799,171.7011 161.2529,172.0521" id="Fill-45" fill="#EF1C3B"></path>
                        <path d="M151.6289,179.0062 L150.7889,179.5332 C150.3189,179.8242 150.1759,180.4412 150.4669,180.9102 C150.6559,181.2152 150.9829,181.3822 151.3169,181.3822 C151.4969,181.3822 151.6799,181.3342 151.8439,181.2322 L152.6989,180.6952 C153.1659,180.4002 153.3049,179.7822 153.0089,179.3162 C152.7139,178.8502 152.0979,178.7102 151.6289,179.0062" id="Fill-47" fill="#EF1C3B"></path>
                        <path d="M177.5947,154.9793 C177.4107,155.2263 177.2247,155.4723 177.0367,155.7173 C176.7017,156.1563 176.7857,156.7843 177.2247,157.1193 C177.4067,157.2573 177.6187,157.3243 177.8307,157.3243 C178.1317,157.3243 178.4297,157.1893 178.6267,156.9313 C178.8187,156.6803 179.0087,156.4283 179.1987,156.1753 C179.5287,155.7323 179.4377,155.1063 178.9937,154.7763 C178.5537,154.4443 177.9257,154.5363 177.5947,154.9793" id="Fill-49" fill="#EF1C3B"></path>
                        <path d="M141.2334,184.7406 L140.3344,185.1616 C139.8334,185.3936 139.6144,185.9886 139.8464,186.4896 C140.0154,186.8546 140.3774,187.0696 140.7544,187.0696 C140.8954,187.0696 141.0384,187.0396 141.1734,186.9766 L142.0874,186.5486 C142.5874,186.3136 142.7994,185.7176 142.5644,185.2176 C142.3284,184.7186 141.7324,184.5046 141.2334,184.7406" id="Fill-51" fill="#EF1C3B"></path>
                        <path d="M169.961,163.9872 L169.274,164.6992 C168.888,165.0942 168.896,165.7272 169.291,166.1132 C169.485,166.3032 169.737,166.3972 169.989,166.3972 C170.249,166.3972 170.509,166.2962 170.705,166.0952 L171.406,165.3702 C171.788,164.9712 171.774,164.3382 171.375,163.9562 C170.978,163.5742 170.343,163.5882 169.961,163.9872" id="Fill-53" fill="#EF1C3B"></path>
                        <path d="M173.9336,159.5741 C173.7206,159.8251 173.5066,160.0761 173.2906,160.3251 C172.9296,160.7421 172.9766,161.3741 173.3936,161.7351 C173.5826,161.8991 173.8156,161.9791 174.0476,161.9791 C174.3286,161.9791 174.6066,161.8621 174.8046,161.6331 C175.0246,161.3781 175.2446,161.1211 175.4606,160.8641 C175.8176,160.4421 175.7646,159.8111 175.3426,159.4551 C174.9176,159.0981 174.2876,159.1521 173.9336,159.5741" id="Fill-55" fill="#EF1C3B"></path>
                        <path d="M146.5176,182.0331 C146.2286,182.1921 145.9396,182.3501 145.6486,182.5071 C145.1626,182.7691 144.9796,183.3751 145.2416,183.8621 C145.4216,184.1971 145.7666,184.3871 146.1226,184.3871 C146.2836,184.3871 146.4456,184.3491 146.5956,184.2681 C146.8926,184.1081 147.1896,183.9471 147.4846,183.7841 C147.9676,183.5171 148.1436,182.9091 147.8766,182.4261 C147.6106,181.9421 147.0026,181.7651 146.5176,182.0331" id="Fill-57" fill="#EF1C3B"></path>
                        <path d="M135.791,187.1209 C135.484,187.2439 135.178,187.3659 134.869,187.4859 C134.354,187.6849 134.1,188.2659 134.3,188.7799 C134.453,189.1759 134.831,189.4179 135.231,189.4179 C135.353,189.4179 135.475,189.3959 135.594,189.3499 C135.908,189.2269 136.223,189.1029 136.535,188.9779 C137.048,188.7719 137.297,188.1899 137.092,187.6779 C136.886,187.1649 136.304,186.9169 135.791,187.1209" id="Fill-59" fill="#EF1C3B"></path>
                        <path d="M33.8194,168.659 C33.4144,168.288 32.7804,168.316 32.4074,168.723 C32.0344,169.132 32.0634,169.764 32.4714,170.137 C32.7204,170.364 32.9694,170.589 33.2214,170.814 C33.4134,170.984 33.6504,171.068 33.8874,171.068 C34.1624,171.068 34.4364,170.955 34.6334,170.733 C35.0024,170.321 34.9654,169.689 34.5534,169.322 C34.3074,169.102 34.0624,168.881 33.8194,168.659" id="Fill-61" fill="#EF1C3B"></path>
                        <path d="M38.3252,172.5248 C37.8952,172.1788 37.2642,172.2478 36.9192,172.6768 C36.5732,173.1078 36.6402,173.7368 37.0712,174.0838 L37.8582,174.7118 C38.0422,174.8568 38.2622,174.9278 38.4782,174.9278 C38.7732,174.9278 39.0662,174.7978 39.2632,174.5488 C39.6062,174.1158 39.5332,173.4868 39.1002,173.1438 L38.3252,172.5248 Z" id="Fill-63" fill="#EF1C3B"></path>
                        <path d="M43.0576,176.1112 C42.6066,175.7912 41.9836,175.8972 41.6626,176.3472 C41.3436,176.7982 41.4496,177.4222 41.8996,177.7422 L42.7246,178.3222 C42.8986,178.4442 43.0976,178.5022 43.2946,178.5022 C43.6116,178.5022 43.9216,178.3522 44.1166,178.0732 C44.4326,177.6202 44.3206,176.9972 43.8676,176.6812 L43.0576,176.1112 Z" id="Fill-65" fill="#EF1C3B"></path>
                        <path d="M29.5547,164.5262 C29.1707,164.1302 28.5357,164.1202 28.1407,164.5052 C27.7447,164.8902 27.7357,165.5242 28.1207,165.9202 L28.8267,166.6402 C29.0227,166.8382 29.2807,166.9372 29.5377,166.9372 C29.7917,166.9372 30.0467,166.8402 30.2417,166.6482 C30.6337,166.2592 30.6377,165.6262 30.2487,165.2332 L29.5547,164.5262 Z" id="Fill-67" fill="#EF1C3B"></path>
                        <path d="M21.8135,155.5252 C21.4775,155.0852 20.8515,155.0002 20.4125,155.3352 C19.9725,155.6692 19.8875,156.2962 20.2215,156.7362 L20.8355,157.5372 C21.0335,157.7912 21.3295,157.9242 21.6275,157.9242 C21.8415,157.9242 22.0565,157.8562 22.2395,157.7152 C22.6755,157.3772 22.7555,156.7492 22.4175,156.3122 L21.8135,155.5252 Z" id="Fill-69" fill="#EF1C3B"></path>
                        <path d="M25.5479,160.1439 C25.1859,159.7229 24.5549,159.6779 24.1379,160.0389 C23.7189,160.3989 23.6719,161.0299 24.0319,161.4489 L24.6939,162.2109 C24.8929,162.4359 25.1689,162.5509 25.4459,162.5509 C25.6809,162.5509 25.9159,162.4699 26.1059,162.3029 C26.5209,161.9389 26.5629,161.3069 26.1979,160.8919 L25.5479,160.1439 Z" id="Fill-71" fill="#EF1C3B"></path>
                        <path d="M59.3291,185.4662 C59.0291,185.3312 58.7301,185.1942 58.4331,185.0552 C57.9341,184.8212 57.3391,185.0392 57.1041,185.5392 C56.8711,186.0402 57.0881,186.6342 57.5881,186.8682 C57.8941,187.0102 58.2011,187.1512 58.5091,187.2902 C58.6421,187.3492 58.7811,187.3782 58.9181,187.3782 C59.3001,187.3782 59.6641,187.1592 59.8311,186.7882 C60.0581,186.2852 59.8331,185.6932 59.3291,185.4662" id="Fill-73" fill="#EF1C3B"></path>
                        <path d="M54.002,182.8548 C53.711,182.7008 53.421,182.5458 53.131,182.3888 C52.646,182.1258 52.038,182.3058 51.775,182.7918 C51.512,183.2768 51.692,183.8838 52.178,184.1468 C52.474,184.3078 52.772,184.4668 53.068,184.6238 C53.217,184.7018 53.377,184.7388 53.534,184.7388 C53.894,184.7388 54.24,184.5458 54.419,184.2068 C54.678,183.7178 54.49,183.1128 54.002,182.8548" id="Fill-75" fill="#EF1C3B"></path>
                        <path d="M64.8096,187.7469 L63.8876,187.3909 C63.3716,187.1889 62.7926,187.4439 62.5916,187.9579 C62.3906,188.4729 62.6446,189.0529 63.1596,189.2539 L64.0986,189.6159 C64.2156,189.6609 64.3356,189.6819 64.4546,189.6819 C64.8576,189.6819 65.2376,189.4359 65.3886,189.0369 C65.5846,188.5209 65.3266,187.9429 64.8096,187.7469" id="Fill-77" fill="#EF1C3B"></path>
                        <path d="M70.417,189.6883 C70.104,189.5903 69.79,189.4923 69.478,189.3903 C68.949,189.2193 68.387,189.5083 68.218,190.0333 C68.048,190.5583 68.335,191.1233 68.86,191.2923 C69.181,191.3963 69.502,191.4993 69.823,191.5983 C69.922,191.6283 70.022,191.6433 70.12,191.6433 C70.547,191.6433 70.941,191.3693 71.075,190.9403 C71.239,190.4133 70.944,189.8523 70.417,189.6883" id="Fill-79" fill="#EF1C3B"></path>
                        <path d="M48.8389,179.9212 C48.5579,179.7502 48.2779,179.5782 47.9989,179.4042 C47.5329,179.1112 46.9149,179.2542 46.6209,179.7222 C46.3289,180.1912 46.4719,180.8082 46.9409,181.1002 C47.2259,181.2792 47.5129,181.4562 47.8019,181.6312 C47.9639,181.7302 48.1429,181.7762 48.3189,181.7762 C48.6569,181.7762 48.9869,181.6052 49.1759,181.2952 C49.4619,180.8222 49.3109,180.2072 48.8389,179.9212" id="Fill-81" fill="#EF1C3B"></path>
                        <path d="M1.1494,91.0223 C1.1714,91.0233 1.1934,91.0243 1.2144,91.0243 C1.7374,91.0243 2.1774,90.6183 2.2114,90.0883 C2.2334,89.7593 2.2554,89.4313 2.2814,89.1043 C2.3234,88.5533 1.9114,88.0723 1.3604,88.0303 C0.8224,87.9833 0.3294,88.4003 0.2874,88.9513 C0.2614,89.2873 0.2374,89.6233 0.2154,89.9603 C0.1804,90.5113 0.5984,90.9863 1.1494,91.0223" id="Fill-83" fill="#EF1C3B"></path>
                        <path d="M0.9942,97.0169 L1.0002,97.0169 C1.5502,97.0169 1.9972,96.5729 2.0002,96.0229 L2.0112,95.0329 C2.0182,94.4799 1.5782,94.0259 1.0252,94.0179 L1.0112,94.0179 C0.4652,94.0179 0.0182,94.4559 0.0112,95.0029 L0.0002,96.0109 C-0.0028,96.5629 0.4412,97.0139 0.9942,97.0169" id="Fill-85" fill="#EF1C3B"></path>
                        <path d="M6.3027,64.6107 C5.7727,64.4357 5.2117,64.7217 5.0387,65.2457 L4.7267,66.2057 C4.5577,66.7317 4.8477,67.2947 5.3737,67.4627 C5.4757,67.4947 5.5777,67.5107 5.6787,67.5107 C6.1027,67.5107 6.4947,67.2397 6.6307,66.8147 L6.9377,65.8737 C7.1117,65.3497 6.8257,64.7837 6.3027,64.6107" id="Fill-87" fill="#EF1C3B"></path>
                        <path d="M4.5303,70.3412 C4.0053,70.2022 3.4493,70.5182 3.3083,71.0522 L3.0543,72.0292 C2.9193,72.5652 3.2433,73.1092 3.7783,73.2442 C3.8613,73.2652 3.9433,73.2752 4.0253,73.2752 C4.4713,73.2752 4.8793,72.9742 4.9943,72.5212 L5.2423,71.5632 C5.3833,71.0292 5.0643,70.4822 4.5303,70.3412" id="Fill-89" fill="#EF1C3B"></path>
                        <path d="M1.4346,106.0033 C0.8856,106.0613 0.4876,106.5543 0.5456,107.1033 L0.6566,108.1063 C0.7146,108.6163 1.1476,108.9923 1.6486,108.9923 C1.6866,108.9923 1.7246,108.9903 1.7636,108.9853 C2.3126,108.9223 2.7056,108.4263 2.6426,107.8783 L2.5346,106.8923 C2.4766,106.3433 1.9976,105.9543 1.4346,106.0033" id="Fill-91" fill="#EF1C3B"></path>
                        <path d="M1.1963,103.013 C1.7483,102.984 2.1713,102.513 2.1423,101.962 L2.0933,100.972 C2.0693,100.421 1.6013,99.996 1.0503,100.017 C0.4993,100.041 0.0713,100.508 0.0953,101.06 L0.1443,102.067 C0.1733,102.601 0.6143,103.014 1.1423,103.014 C1.1603,103.014 1.1783,103.014 1.1963,103.013" id="Fill-93" fill="#EF1C3B"></path>
                        <path d="M2.0557,82.0731 C1.5057,81.9991 1.0037,82.3821 0.9297,82.9281 L0.7977,83.9281 C0.7287,84.4761 1.1167,84.9761 1.6637,85.0461 C1.7067,85.0521 1.7487,85.0541 1.7907,85.0541 C2.2867,85.0541 2.7177,84.6851 2.7827,84.1801 L2.9117,83.1991 C2.9867,82.6521 2.6037,82.1481 2.0557,82.0731" id="Fill-95" fill="#EF1C3B"></path>
                        <path d="M3.1143,76.1693 C2.5733,76.0623 2.0473,76.4113 1.9373,76.9533 L1.7443,77.9433 C1.6403,78.4853 1.9973,79.0093 2.5393,79.1133 C2.6023,79.1253 2.6653,79.1303 2.7273,79.1303 C3.1983,79.1303 3.6173,78.7973 3.7093,78.3183 L3.8983,77.3463 C4.0073,76.8053 3.6563,76.2773 3.1143,76.1693" id="Fill-97" fill="#EF1C3B"></path>
                        <path d="M69.2451,3.8832 L70.1891,3.5802 C70.7171,3.4142 71.0091,2.8532 70.8441,2.3262 C70.6781,1.8002 70.1171,1.5062 69.5901,1.6722 L68.6261,1.9812 C68.1011,2.1522 67.8131,2.7162 67.9841,3.2412 C68.1221,3.6642 68.5141,3.9322 68.9351,3.9322 C69.0381,3.9322 69.1411,3.9162 69.2451,3.8832" id="Fill-99" fill="#EF1C3B"></path>
                        <path d="M57.7822,8.3431 C57.9242,8.3431 58.0682,8.3131 58.2052,8.2491 C58.5042,8.1091 58.8032,7.9701 59.1032,7.8341 C59.6062,7.6051 59.8282,7.0121 59.5992,6.5101 C59.3712,6.0071 58.7782,5.7841 58.2752,6.0131 C57.9692,6.1531 57.6622,6.2951 57.3572,6.4371 C56.8572,6.6711 56.6412,7.2661 56.8752,7.7671 C57.0452,8.1301 57.4052,8.3431 57.7822,8.3431" id="Fill-101" fill="#EF1C3B"></path>
                        <path d="M52.4287,11.0526 C52.5907,11.0526 52.7547,11.0126 52.9077,10.9296 C53.1967,10.7726 53.4867,10.6156 53.7787,10.4606 C54.2657,10.2016 54.4507,9.5966 54.1917,9.1086 C53.9317,8.6206 53.3277,8.4346 52.8387,8.6956 C52.5407,8.8536 52.2427,9.0136 51.9487,9.1756 C51.4637,9.4406 51.2847,10.0476 51.5507,10.5326 C51.7327,10.8646 52.0747,11.0526 52.4287,11.0526" id="Fill-103" fill="#EF1C3B"></path>
                        <path d="M63.6563,5.8973 L64.5823,5.5373 C65.0973,5.3383 65.3553,4.7603 65.1573,4.2453 C64.9603,3.7293 64.3823,3.4703 63.8653,3.6693 L62.9243,4.0363 C62.4103,4.2383 62.1573,4.8183 62.3593,5.3333 C62.5143,5.7263 62.8913,5.9673 63.2903,5.9673 C63.4123,5.9673 63.5363,5.9443 63.6563,5.8973" id="Fill-105" fill="#EF1C3B"></path>
                        <path d="M32.9492,24.9793 C33.1902,24.9793 33.4322,24.8923 33.6252,24.7163 C33.8682,24.4933 34.1132,24.2713 34.3582,24.0513 C34.7692,23.6823 34.8032,23.0503 34.4342,22.6393 C34.0652,22.2263 33.4322,22.1943 33.0222,22.5623 C32.7712,22.7883 32.5222,23.0143 32.2732,23.2423 C31.8662,23.6153 31.8392,24.2483 32.2122,24.6553 C32.4092,24.8703 32.6782,24.9793 32.9492,24.9793" id="Fill-107" fill="#EF1C3B"></path>
                        <path d="M75.4268,0.0301 C75.0998,0.1121 74.7728,0.1951 74.4458,0.2801 C73.9108,0.4181 73.5908,0.9641 73.7298,1.4991 C73.8468,1.9491 74.2518,2.2471 74.6968,2.2471 C74.7808,2.2471 74.8648,2.2371 74.9488,2.2151 C75.2688,2.1321 75.5878,2.0511 75.9088,1.9711 C76.4458,1.8381 76.7718,1.2961 76.6388,0.7591 C76.5048,0.2231 75.9588,-0.1029 75.4268,0.0301" id="Fill-109" fill="#EF1C3B"></path>
                        <path d="M47.2481,14.0838 C47.4301,14.0838 47.6121,14.0348 47.7771,13.9318 L48.6201,13.4088 C49.0911,13.1198 49.2391,12.5038 48.9501,12.0338 C48.6611,11.5618 48.0441,11.4148 47.5751,11.7038 L46.7171,12.2358 C46.2481,12.5288 46.1061,13.1468 46.3991,13.6148 C46.5891,13.9178 46.9151,14.0838 47.2481,14.0838" id="Fill-111" fill="#EF1C3B"></path>
                        <path d="M37.4932,21.0604 C37.7142,21.0604 37.9352,20.9874 38.1212,20.8384 L38.8952,20.2164 C39.3272,19.8734 39.3982,19.2444 39.0552,18.8114 C38.7112,18.3794 38.0832,18.3064 37.6492,18.6524 L36.8632,19.2824 C36.4332,19.6294 36.3672,20.2594 36.7152,20.6884 C36.9122,20.9334 37.2012,21.0604 37.4932,21.0604" id="Fill-113" fill="#EF1C3B"></path>
                        <path d="M42.8467,17.2362 C43.1147,17.0442 43.3837,16.8542 43.6547,16.6652 C44.1077,16.3482 44.2167,15.7242 43.9007,15.2722 C43.5837,14.8192 42.9587,14.7102 42.5077,15.0262 C42.2317,15.2202 41.9557,15.4142 41.6827,15.6102 C41.2337,15.9322 41.1297,16.5572 41.4517,17.0062 C41.6477,17.2782 41.9537,17.4232 42.2657,17.4232 C42.4667,17.4232 42.6707,17.3622 42.8467,17.2362" id="Fill-115" fill="#EF1C3B"></path>
                    </g>
                    <g id="data-icon" transform="translate(65.000000, 69.000000)">
                        <g id="Group-3" transform="translate(0.000000, 61.215854)">
                            <mask id="mask-7" fill="white">
                                <use xlink:href="#path-6"></use>
                            </mask>
                            <g id="Clip-2"></g>
                            <path d="M21.3128748,2.21383506 C26.181232,0.927197802 31.6313221,0.206693937 37.3804035,0.206693937 C43.1294849,0.206693937 48.5763251,0.927197802 53.4446823,2.21383506 L74.7575571,2.21383506 L74.7575571,20.4172011 L74.7478074,20.4172011 C74.7543072,20.5787214 74.7575571,20.7405666 74.7575571,20.9027369 C74.7575571,32.3251768 58.0075484,41.5987798 37.3804035,41.5987798 C16.7500087,41.5987798 0,32.3251768 0,20.9027369 C0,20.7405666 0.00324990467,20.5787214 0.0129996187,20.4172011 L0,20.4172011 L0,2.21383506 L21.3128748,2.21383506 Z" id="Fill-1" fill="url(#linearGradient-1)" mask="url(#mask-7)"></path>
                        </g>
                        <path d="M37.3771536,42.2487607 C58.0198981,42.2487607 74.7543072,51.5142389 74.7543072,62.9441536 C74.7543072,74.3737434 58.0198981,83.6395466 37.3771536,83.6395466 C16.7344091,83.6395466 0,74.3737434 0,62.9441536 C0,51.5142389 16.7344091,42.2487607 37.3771536,42.2487607" id="Fill-4" fill="#FFFFFF"></path>
                        <g id="Group-8" transform="translate(0.000000, 40.091474)">
                            <mask id="mask-9" fill="white">
                                <use xlink:href="#path-8"></use>
                            </mask>
                            <g id="Clip-7"></g>
                            <path d="M21.3128748,2.21383506 C26.181232,0.927197802 31.6313221,0.206693937 37.3804035,0.206693937 C43.1294849,0.206693937 48.5763251,0.927197802 53.4446823,2.21383506 L74.7575571,2.21383506 L74.7575571,20.4172011 L74.7478074,20.4172011 C74.7543072,20.5787214 74.7575571,20.7405666 74.7575571,20.9027369 C74.7575571,32.3251768 58.0075484,41.5987798 37.3804035,41.5987798 C16.7500087,41.5987798 0,32.3251768 0,20.9027369 C0,20.7405666 0.00324990467,20.5787214 0.0129996187,20.4172011 L0,20.4172011 L0,2.21383506 L21.3128748,2.21383506 Z" id="Fill-6" fill="url(#linearGradient-1)" mask="url(#mask-9)"></path>
                        </g>
                        <path d="M37.3771536,21.1243804 C58.0198981,21.1243804 74.7543072,30.3898586 74.7543072,41.8197733 C74.7543072,53.249363 58.0198981,62.5151662 37.3771536,62.5151662 C16.7344091,62.5151662 0,53.249363 0,41.8197733 C0,30.3898586 16.7344091,21.1243804 37.3771536,21.1243804" id="Fill-9" fill="#FFFFFF"></path>
                        <g id="Group-13" transform="translate(0.000000, 18.967094)">
                            <mask id="mask-11" fill="white">
                                <use xlink:href="#path-10"></use>
                            </mask>
                            <g id="Clip-12"></g>
                            <path d="M21.3128748,2.21383506 C26.181232,0.927197802 31.6313221,0.206693937 37.3804035,0.206693937 C43.1294849,0.206693937 48.5763251,0.927197802 53.4446823,2.21383506 L74.7575571,2.21383506 L74.7575571,20.4172011 L74.7478074,20.4172011 C74.7543072,20.5787214 74.7575571,20.7405666 74.7575571,20.9027369 C74.7575571,32.3251768 58.0075484,41.5987798 37.3804035,41.5987798 C16.7500087,41.5987798 0,32.3251768 0,20.9027369 C0,20.7405666 0.00324990467,20.5787214 0.0129996187,20.4172011 L0,20.4172011 L0,2.21383506 C0,2.21383506 21.3128748,2.21383506 21.3128748,2.21383506" id="Fill-11" fill="url(#linearGradient-1)" mask="url(#mask-11)"></path>
                        </g>
                        <path d="M37.3771536,0 C58.0198981,0 74.7543072,9.26547821 74.7543072,20.6953929 C74.7543072,32.1249827 58.0198981,41.3907859 37.3771536,41.3907859 C16.7344091,41.3907859 0,32.1249827 0,20.6953929 C0,9.26547821 16.7344091,0 37.3771536,0" id="Fill-14" fill="#98E5FC"></path>
                        <path d="M39.5731142,51.1946758 C39.5731142,52.5601853 38.4660962,53.6672033 37.1005867,53.6672033 C35.7350772,53.6672033 34.6280592,52.5601853 34.6280592,51.1946758 C34.6280592,49.8291663 35.7350772,48.7221483 37.1005867,48.7221483 C38.4660962,48.7221483 39.5731142,49.8291663 39.5731142,51.1946758" id="Fill-16" fill="#EF1C3B"></path>
                        <path d="M39.5731142,72.0365094 C39.5731142,73.4020189 38.4660962,74.5090369 37.1005867,74.5090369 C35.7350772,74.5090369 34.6280592,73.4020189 34.6280592,72.0365094 C34.6280592,70.6709999 35.7350772,69.563982 37.1005867,69.563982 C38.4660962,69.563982 39.5731142,70.6709999 39.5731142,72.0365094" id="Fill-18" fill="#EF1C3B"></path>
                        <path d="M39.5731142,92.9442511 C39.5731142,94.3097606 38.4660962,95.4167786 37.1005867,95.4167786 C35.7350772,95.4167786 34.6280592,94.3097606 34.6280592,92.9442511 C34.6280592,91.5787416 35.7350772,90.4717237 37.1005867,90.4717237 C38.4660962,90.4717237 39.5731142,91.5787416 39.5731142,92.9442511" id="Fill-20" fill="#EF1C3B"></path>
                    </g>
                </g>
            </g>
        </g>
    </g>
</svg>