<?xml version="1.0" encoding="UTF-8"?>
<svg width="46px" height="66px" viewBox="0 0 46 66" version="1.1" xmlns="http://www.w3.org/2000/svg" xmlns:xlink="http://www.w3.org/1999/xlink">
    <!-- Generator: Sketch 52.3 (67297) - http://www.bohemiancoding.com/sketch -->
    <title>3 step-step icon red</title>
    <desc>Created with Sketch.</desc>
    <g id="Page-1" stroke="none" stroke-width="1" fill="none" fill-rule="evenodd">
        <g id="Sport-1440---Design" transform="translate(-260.000000, -1546.000000)" fill="#EF1C3B" fill-rule="nonzero">
            <path d="M304.913275,1562.42677 C304.675592,1561.54628 304.192931,1560.6081 303.835864,1559.78669 C299.56317,1549.63733 290.227423,1546 282.689274,1546 C272.598097,1546 261.483846,1552.68819 260,1566.47411 L260,1569.29065 C260,1569.40819 260.040985,1570.46407 260.099203,1570.99224 C260.931013,1577.56227 266.176016,1584.54477 270.093195,1591.1148 C274.307516,1598.15392 278.680499,1605.07842 283.012963,1612 C285.684445,1607.4831 288.346301,1602.90682 290.956926,1598.50685 C291.668421,1597.21559 292.494332,1595.92509 293.206603,1594.69259 C293.681346,1593.87195 294.588296,1593.05131 295.002649,1592.28776 C299.216815,1584.66154 306,1576.9764 306,1569.40804 L306,1566.29887 C306.000155,1565.47839 304.971182,1562.60369 304.913275,1562.42677 Z" id="3-step-step-icon-red"></path>
        </g>
    </g>
</svg>