<?xml version="1.0" encoding="UTF-8"?>
<svg width="592px" height="398px" viewBox="0 0 592 398" version="1.1" xmlns="http://www.w3.org/2000/svg" xmlns:xlink="http://www.w3.org/1999/xlink">
    <!-- Generator: Sketch 52.3 (67297) - http://www.bohemiancoding.com/sketch -->
    <title>3 steps-arrow 1</title>
    <desc>Created with Sketch.</desc>
    <g id="Page-1" stroke="none" stroke-width="1" fill="none" fill-rule="evenodd">
        <g id="Sport-1440---Design" transform="translate(-327.000000, -1582.000000)" fill="#EF1C3B" fill-rule="nonzero">
            <g id="3-steps-arrow-1" transform="translate(625.682485, 1779.020152) rotate(-1.000000) translate(-625.682485, -1779.020152) translate(330.682485, 1577.020152)">
                <path d="M384.846476,402.054263 L384.332932,402.178237 L384.699903,402.572734 L384.846476,402.054263 Z M384.977347,401.591332 L386.955084,394.595488 L387.091104,394.114345 L388.05339,394.386385 L387.91737,394.867528 L385.420376,403.700139 L385.178563,404.555504 L384.573139,403.90467 L378.321453,397.184073 L377.980902,396.817978 L378.713091,396.136876 L379.053642,396.502971 L384.005272,401.826 L383.986332,401.747546 L382.812991,396.887169 L382.695657,396.401131 L383.667732,396.166463 L383.785067,396.6525 L384.958408,401.512878 L384.977347,401.591332 Z M0.54937994,0.818409398 L0.0494560929,0.809683195 L0.0669084993,-0.1901645 L0.566832347,-0.181438297 C3.06834587,-0.137774216 3.06834587,-0.137774216 5.56257365,-0.0942373079 L6.0624975,-0.0855111046 L6.04504509,0.914336591 L5.54512124,0.905610387 C3.05089346,0.862073479 3.05089346,0.862073479 0.54937994,0.818409398 Z M10.5408684,0.992811478 L10.0409445,0.984085275 L10.0583969,-0.0157624206 L10.5583208,-0.00703621739 C13.0681061,0.0367722492 13.0681061,0.0367722492 15.5704272,0.0804504261 L16.0703511,0.0891766293 L16.0528987,1.08902432 L15.5529748,1.08029812 C13.0506537,1.03661994 13.0506537,1.03661994 10.5408684,0.992811478 Z M20.5528862,1.1675719 L20.0529623,1.1588457 L20.0704148,0.158998001 L20.5703386,0.167724204 C23.0643873,0.211257986 23.0643873,0.211257986 25.5509315,0.254660777 L26.0508554,0.26338698 L26.033403,1.26323468 L25.5334791,1.25450847 C23.0469349,1.21110568 23.0469349,1.21110568 20.5528862,1.1675719 Z M30.561036,1.3422648 L30.0611121,1.3335386 L30.0785645,0.333690904 L30.5784884,0.342417108 C33.0755007,0.38600262 33.0755007,0.38600262 35.5648519,0.429454407 L36.0647758,0.438180611 L36.0473234,1.43802831 L35.5473995,1.4293021 C33.0580483,1.38585031 33.0580483,1.38585031 30.561036,1.3422648 Z M40.5629558,1.51684896 L40.063032,1.50812276 L40.0804844,0.508275066 L40.5804083,0.517001269 C43.0775863,0.560589674 43.0775863,0.560589674 45.5669584,0.604041825 L46.0668822,0.612768028 L46.0494298,1.61261572 L45.549506,1.60388952 C43.0601339,1.56043737 43.0601339,1.56043737 40.5629558,1.51684896 Z M50.5562637,1.6912828 L50.0563399,1.6825566 L50.0737923,0.682708903 L50.5737161,0.691435107 C53.0682931,0.734978109 53.0682931,0.734978109 55.5549314,0.778382542 L56.0548552,0.787108745 L56.0374028,1.78695644 L55.537479,1.77823024 C53.0508407,1.7348258 53.0508407,1.7348258 50.5562637,1.6912828 Z M60.5385571,1.86552438 L60.0386332,1.85679818 L60.0560856,0.856950482 L60.5560095,0.865676685 C63.0643105,0.909459243 63.0643105,0.909459243 65.564429,0.953098973 L66.0643528,0.961825176 L66.0469004,1.96167287 L65.5469766,1.95294667 C63.0468581,1.90930694 63.0468581,1.90930694 60.5385571,1.86552438 Z M70.5487454,2.04025287 L70.0488216,2.03152667 L70.066274,1.03167897 L70.5661979,1.04040517 C73.0657042,1.08403422 73.0657042,1.08403422 75.5569234,1.12751861 L76.0568472,1.13624481 L76.0393948,2.13609251 L75.539471,2.12736631 C73.0482518,2.08388191 73.0482518,2.08388191 70.5487454,2.04025287 Z M80.5422303,2.2146898 L80.0423064,2.20596359 L80.0597589,1.2061159 L80.5596827,1.2148421 C83.0658084,1.25858669 83.0658084,1.25858669 85.563434,1.3021829 L86.0633578,1.31090911 L86.0459054,2.3107568 L85.5459816,2.3020306 C83.048356,2.25843438 83.048356,2.25843438 80.5422303,2.2146898 Z M90.5165378,2.38879198 L90.016614,2.38006578 L90.0340664,1.38021808 L90.5339902,1.38894429 C93.0431362,1.43274159 93.0431362,1.43274159 95.5435855,1.4763871 L96.0435093,1.4851133 L96.0260569,2.48496099 L95.5261331,2.47623479 C93.0256838,2.43258929 93.0256838,2.43258929 90.5165378,2.38879198 Z M100.54934,2.56391519 L100.049416,2.55518898 L100.066868,1.55534129 L100.566792,1.56406749 C103.074837,1.60784559 103.074837,1.60784559 105.574009,1.65146879 L106.073933,1.660195 L106.056481,2.66004269 L105.556557,2.65131649 C103.057385,2.60769328 103.057385,2.60769328 100.54934,2.56391519 Z M110.516603,2.73789441 L110.016679,2.72916821 L110.034131,1.72932051 L110.534055,1.73804671 C113.037774,1.78174929 113.037774,1.78174929 115.532459,1.82529419 L116.032383,1.83402039 L116.014931,2.83386808 L115.515007,2.82514188 C113.020321,2.78159699 113.020321,2.78159699 110.516603,2.73789441 Z M120.53474,2.91276165 L120.034816,2.90403544 L120.052268,1.90418775 L120.552192,1.91291395 C123.063683,1.95675219 123.063683,1.95675219 125.565883,2.00042825 L126.065807,2.00915445 L126.048354,3.00900215 L125.548431,3.00027594 C123.046231,2.95659988 123.046231,2.95659988 120.53474,2.91276165 Z M130.521,3.08707247 L130.021076,3.07834627 L130.038529,2.07849857 L130.538453,2.08722477 C133.037688,2.1308491 133.037688,2.1308491 135.527516,2.1743092 L136.02744,2.18303541 L136.009988,3.1828831 L135.510064,3.1741569 C133.020236,3.13069679 133.020236,3.13069679 130.521,3.08707247 Z M140.51113,3.26145084 L140.011207,3.25272464 L140.028659,2.25287694 L140.528583,2.26160315 C143.027092,2.30521479 143.027092,2.30521479 145.515982,2.34865852 L146.015906,2.35738472 L145.998453,3.35723242 L145.498529,3.34850621 C143.00964,3.30506248 143.00964,3.30506248 140.51113,3.26145084 Z M150.539082,3.43648939 L150.039159,3.42776319 L150.056611,2.42791549 L150.556535,2.4366417 C153.064156,2.48041238 153.064156,2.48041238 155.561856,2.52400991 L156.06178,2.53273612 L156.044328,3.53258381 L155.544404,3.52385761 C153.046703,3.48026008 153.046703,3.48026008 150.539082,3.43648939 Z M160.524592,3.61078711 L160.024668,3.60206091 L160.042121,2.60221321 L160.542044,2.61093942 C163.053643,2.65477953 163.053643,2.65477953 165.555049,2.69844175 L166.054973,2.70716795 L166.037521,3.70701564 L165.537597,3.69828944 C163.036191,3.65462723 163.036191,3.65462723 160.524592,3.61078711 Z M170.538965,3.78558864 L170.039041,3.77686243 L170.056493,2.77701474 L170.556417,2.78574094 C173.066313,2.82955135 173.066313,2.82955135 175.565778,2.87317966 L176.065702,2.88190587 L176.048249,3.88175356 L175.548326,3.87302736 C173.048861,3.82939904 173.048861,3.82939904 170.538965,3.78558864 Z M180.540186,3.96016061 L180.040262,3.9514344 L180.057715,2.95158671 L180.557639,2.96031291 C183.060546,3.00400132 183.060546,3.00400132 185.552815,3.04750405 L186.052739,3.05623025 L186.035287,4.05607794 L185.535363,4.04735174 C183.043093,4.00384902 183.043093,4.00384902 180.540186,3.96016061 Z M190.524103,4.13443052 L190.024179,4.12570432 L190.041631,3.12585662 L190.541555,3.13458283 C193.04507,3.17828183 193.04507,3.17828183 195.537663,3.22179022 L196.037587,3.23051642 L196.020135,4.23036412 L195.520211,4.22163791 C193.027617,4.17812953 193.027617,4.17812953 190.524103,4.13443052 Z M200.522115,4.30894647 L200.022191,4.30022026 L200.039643,3.30037257 L200.539567,3.30909877 C203.049634,3.35291216 203.049634,3.35291216 205.548429,3.39652878 L206.048353,3.40525498 L206.0309,4.40510268 L205.530977,4.39637648 C203.032182,4.35275985 203.032182,4.35275985 200.522115,4.30894647 Z M210.528541,4.48360929 L210.028617,4.47488309 L210.04607,3.47503539 L210.545994,3.4837616 C213.055397,3.52756339 213.055397,3.52756339 215.553222,3.57116309 L216.053146,3.5798893 L216.035693,4.57973699 L215.53577,4.57101079 C213.037944,4.52741108 213.037944,4.52741108 210.528541,4.48360929 Z M220.502988,4.65771391 L220.003064,4.64898771 L220.020517,3.64914001 L220.520441,3.65786622 C223.02243,3.7015386 223.02243,3.7015386 225.512584,3.74500441 L226.012508,3.75373061 L225.995056,4.75357831 L225.495132,4.7448521 C223.004977,4.70138629 223.004977,4.70138629 220.502988,4.65771391 Z M230.50937,4.83237596 L230.009447,4.82364976 L230.026899,3.82380206 L230.526823,3.83252827 C233.035911,3.87632457 233.035911,3.87632457 235.53275,3.91990706 L236.032674,3.92863326 L236.015222,4.92848096 L235.515298,4.91975475 C233.018459,4.87617227 233.018459,4.87617227 230.50937,4.83237596 Z M240.506644,5.00687902 L240.00672,4.99815282 L240.024172,3.99830512 L240.524096,4.00703133 C243.031593,4.05079984 243.031593,4.05079984 245.526487,4.09434839 L246.026411,4.10307459 L246.008959,5.10292228 L245.509035,5.09419608 C243.01414,5.05064753 243.01414,5.05064753 240.506644,5.00687902 Z M250.521933,5.18169654 L250.022009,5.17297034 L250.039462,4.17312264 L250.539385,4.18184885 C253.046382,4.22560864 253.046382,4.22560864 255.540391,4.26914173 L256.040315,4.27786793 L256.022863,5.27771563 L255.522939,5.26898942 C253.02893,5.22545633 253.02893,5.22545633 250.521933,5.18169654 Z M260.514989,5.35612599 L260.015066,5.34739979 L260.032518,4.34755209 L260.532442,4.3562783 C263.039208,4.40003406 263.039208,4.40003406 265.532573,4.44355592 L266.032497,4.45228212 L266.015045,5.45212981 L265.515121,5.44340361 C263.021755,5.39988175 263.021755,5.39988175 260.514989,5.35612599 Z M270.511714,5.53061947 L270.01179,5.52189327 L270.029243,4.52204557 L270.529167,4.53077178 C273.03442,4.57450114 273.03442,4.57450114 275.525847,4.61798916 L276.025771,4.62671537 L276.008319,5.62656306 L275.508395,5.61783686 C273.016968,5.57434884 273.016968,5.57434884 270.511714,5.53061947 Z M280.504243,5.70503971 L280.004319,5.69631351 L280.021772,4.69646581 L280.521696,4.70519202 C283.031644,4.74900334 283.031644,4.74900334 285.527241,4.79256414 L286.027165,4.80129034 L286.009712,5.80113804 L285.509789,5.79241183 C283.014192,5.74885103 283.014192,5.74885103 280.504243,5.70503971 Z M290.5156,5.87978859 L290.015676,5.87106239 L290.033128,4.87121469 L290.533052,4.8799409 C293.042856,4.92374969 293.042856,4.92374969 295.537801,4.96729911 L296.037725,4.97602531 L296.020272,5.97587301 L295.520348,5.96714681 C293.025404,5.92359738 293.025404,5.92359738 290.5156,5.87978859 Z M300.505549,6.05416381 L300.005626,6.04543761 L300.023078,5.04558991 L300.523002,5.05431612 C303.02719,5.09802688 303.02719,5.09802688 305.516043,5.14146997 L306.015967,5.15019618 L305.998514,6.15004387 L305.498591,6.14131767 C303.009737,6.09787457 303.009737,6.09787457 300.505549,6.05416381 Z M310.495722,6.22854293 L309.995799,6.21981673 L310.013251,5.21996903 L310.513175,5.22869524 C313.019419,5.27244189 313.019419,5.27244189 315.509719,5.31591024 L316.009643,5.32463644 L315.992191,6.32448414 L315.492267,6.31575794 C313.001967,6.27228959 313.001967,6.27228959 310.495722,6.22854293 Z M320.505338,6.40326143 L320.005415,6.39453522 L320.022867,5.39468753 L320.522791,5.40341373 C323.027857,5.44713982 323.027857,5.44713982 325.516362,5.49057684 L326.016286,5.49930305 L325.998834,6.49915074 L325.49891,6.49042454 C323.010404,6.44698751 323.010404,6.44698751 320.505338,6.40326143 Z M330.493611,6.57760738 L329.993687,6.56888117 L330.01114,5.56903348 L330.511064,5.57775968 C333.016399,5.62149047 333.016399,5.62149047 335.504488,5.66492023 L336.004412,5.67364643 L335.986959,6.67349413 L335.487036,6.66476792 C332.998946,6.62133816 332.998946,6.62133816 330.493611,6.57760738 Z M340.506331,6.75238006 L340.006407,6.74365385 L340.02386,5.74380616 L340.523784,5.75253236 C343.032441,5.79632114 343.032441,5.79632114 345.523063,5.8397951 L346.022986,5.8485213 L346.005534,6.848369 L345.50561,6.8396428 C343.014989,6.79616883 343.014989,6.79616883 340.506331,6.75238006 Z M350.501629,6.92684862 L350.001705,6.91812242 L350.019157,5.91827472 L350.519081,5.92700093 C353.030043,5.97082994 353.030043,5.97082994 355.522126,6.01432939 L356.02205,6.0230556 L356.004597,7.02290329 L355.504673,7.01417709 C353.012591,6.97067763 353.012591,6.97067763 350.501629,6.92684862 Z M360.493628,7.10125961 L359.993704,7.09253341 L360.011156,6.09268571 L360.51108,6.10141192 C363.018443,6.1451781 363.018443,6.1451781 365.506096,6.18860024 L366.006019,6.19732644 L365.988567,7.19717414 L365.488643,7.18844793 C363.000991,7.1450258 363.000991,7.1450258 360.493628,7.10125961 Z M370.493661,7.27581085 L369.993737,7.26708465 L370.01119,6.26723695 L370.511114,6.27596315 C373.022988,6.31980808 373.022988,6.31980808 375.514104,6.36329068 L376.014028,6.37201688 L375.996576,7.37186458 L375.496652,7.36313837 C373.005535,7.31965578 373.005535,7.31965578 370.493661,7.27581085 Z M380.484505,7.45020167 L379.984581,7.44147547 L380.002033,6.44162777 L380.501957,6.45035398 C383.013212,6.49418809 383.013212,6.49418809 385.502643,6.53764127 L386.002567,6.54636747 L385.985114,7.54621517 L385.48519,7.53748896 C382.995759,7.49403578 382.995759,7.49403578 380.484505,7.45020167 Z M390.498428,7.62499535 L389.998504,7.61626915 L390.015957,6.61642145 L390.51588,6.62514766 C393.028237,6.669001 393.028237,6.669001 395.517553,6.71245217 L396.017476,6.72117837 L396.000024,7.72102607 L395.5001,7.71229986 C393.010784,7.66884869 393.010784,7.66884869 390.498428,7.62499535 Z M400.488997,7.79938137 L399.989073,7.79065517 L400.006525,6.79080748 L400.506449,6.79953368 C403.017378,6.8433621 403.017378,6.8433621 405.50396,6.88676556 L406.003884,6.89549177 L405.986432,7.89533946 L405.486508,7.88661326 C402.999925,7.8432098 402.999925,7.8432098 400.488997,7.79938137 Z M410.482655,7.97382134 L409.982732,7.96509514 L410.000184,6.96524744 L410.500108,6.97397364 C413.013571,7.01784631 413.013571,7.01784631 415.50114,7.06126699 L416.001064,7.06999319 L415.983612,8.06984089 L415.483688,8.06111469 C412.996119,8.01769401 412.996119,8.01769401 410.482655,7.97382134 Z M420.476696,8.14826797 L419.976772,8.13954176 L419.994225,7.13969407 L420.494148,7.14842027 C423.008337,7.1923056 423.008337,7.1923056 425.49492,7.23570906 L425.994844,7.24443527 L425.977391,8.24428296 L425.477468,8.23555676 C422.990885,8.19215329 422.990885,8.19215329 420.476696,8.14826797 Z M430.486733,8.32299382 L429.98681,8.31426761 L430.004262,7.31441992 L430.504186,7.32314612 C433.018518,7.36703395 433.018518,7.36703395 435.503304,7.41040605 L436.003227,7.41913225 L435.985775,8.41897995 L435.485851,8.41025374 C433.001065,8.36688165 433.001065,8.36688165 430.486733,8.32299382 Z M440.478715,8.4974045 L439.978791,8.4886783 L439.996243,7.48883061 L440.496167,7.49755681 C443.012239,7.541475 443.012239,7.541475 445.496494,7.58483784 L445.996418,7.59356405 L445.978966,8.59341174 L445.479042,8.58468554 C442.994786,8.5413227 442.994786,8.5413227 440.478715,8.4974045 Z M450.478863,8.67195773 L449.978939,8.66323153 L449.996391,7.66338384 L450.496315,7.67211004 C453.012884,7.71603691 453.012884,7.71603691 455.495029,7.75936292 L455.994953,7.76808912 L455.977501,8.76793682 L455.477577,8.75921061 C452.995432,8.71588461 452.995432,8.71588461 450.478863,8.67195773 Z M460.482542,8.8465726 L459.982618,8.8378464 L460.00007,7.8379987 L460.499994,7.84672491 C463.017962,7.8906762 463.017962,7.8906762 465.498407,7.93397253 L465.998331,7.94269874 L465.980879,8.94254643 L465.480955,8.93382023 C463.00051,8.89052389 463.00051,8.89052389 460.482542,8.8465726 Z M470.476437,9.02101669 L469.976513,9.01229049 L469.993966,8.01244279 L470.493889,8.021169 C473.014394,8.06516457 473.014394,8.06516457 475.49364,8.10843997 L475.993564,8.11716617 L475.976111,9.11701387 L475.476188,9.10828766 C472.996942,9.06501227 472.996942,9.06501227 470.476437,9.02101669 Z M480.473468,9.19551551 L479.973544,9.18678931 L479.990996,8.18694161 L480.49092,8.19566782 C483.013532,8.23970018 483.013532,8.23970018 485.490357,8.28293332 L485.990281,8.29165952 L485.972829,9.29150722 L485.472905,9.28278101 C482.99608,9.23954787 482.99608,9.23954787 480.473468,9.19551551 Z M490.468589,9.369981 L489.968665,9.36125479 L489.986117,8.3614071 L490.486041,8.3701333 C493.011362,8.41421295 493.011362,8.41421295 495.485248,8.45739479 L495.985172,8.46612099 L495.96772,9.46596869 L495.467796,9.45724248 C492.99391,9.41406064 492.99391,9.41406064 490.468589,9.369981 Z M500.43717,9.64808284 L499.938082,9.61790303 L499.998441,8.61972634 L500.49753,8.64990615 C502.187441,8.75209486 503.857753,8.89159189 505.508273,9.06813358 L506.005437,9.12131086 L505.899083,10.1156391 L505.401919,10.0624619 C503.766749,9.88756216 502.111773,9.74934587 500.43717,9.64808284 Z M510.357216,10.7140145 L509.863235,10.6366647 L510.017935,9.64870313 L510.511916,9.72605302 C512.180025,9.98725356 513.826338,10.2878953 515.450621,10.6276455 L515.94003,10.7300147 L515.735291,11.7088315 L515.245883,11.6064622 C513.638243,11.2701934 512.008615,10.9725985 510.357216,10.7140145 Z M520.095103,12.7554616 L519.611841,12.6271744 L519.868415,11.6606499 L520.351678,11.7889372 C521.981193,12.2215099 523.586609,12.6952739 525.167643,13.2098087 L525.643099,13.3645418 L525.333632,14.3154523 L524.858177,14.1607192 C523.294657,13.6518841 521.706879,13.1833251 520.095103,12.7554616 Z M529.563449,15.8418163 L529.097636,15.660107 L529.461054,14.7284811 L529.926867,14.9101904 C531.494069,15.5215414 533.034989,16.175007 534.549299,16.8700639 L535.003718,17.0786387 L534.586569,17.9874765 L534.13215,17.7789017 C532.635535,17.0919667 531.112533,16.4460997 529.563449,15.8418163 Z M538.584589,19.9848161 L538.143381,19.7495823 L538.613848,18.867165 L539.055057,19.1023988 C540.539319,19.8937444 541.995278,20.7272809 543.422563,21.6023659 L543.848825,21.8637114 L543.326133,22.7162336 L542.899872,22.454888 C541.48968,21.5902826 540.051136,20.7667164 538.584589,19.9848161 Z M547.059147,25.1810674 L546.649431,24.8944801 L547.222605,24.0750469 L547.632322,24.3616341 C549.006342,25.3227296 550.350639,26.3246886 551.664813,27.3667505 L552.056593,27.6774086 L551.435277,28.4609686 L551.043497,28.1503105 C549.744977,27.1206618 548.416734,26.1306677 547.059147,25.1810674 Z M554.870891,31.376635 L554.498374,31.0431225 L555.165399,30.2980872 L555.537916,30.6315997 C556.785371,31.748437 558.002107,32.9038475 559.187718,34.0969522 L559.540155,34.4516178 L558.830824,35.1564932 L558.478386,34.8018276 C557.306445,33.6224775 556.103813,32.4804613 554.870891,31.376635 Z M561.877767,38.4239873 L561.546063,38.0498587 L562.29432,37.3864499 L562.626024,37.7605785 C563.733779,39.0100121 564.810428,40.2947671 565.855569,41.6138605 L566.166077,42.0057591 L565.38228,42.6267758 L565.071772,42.2348771 C564.038042,40.9301863 562.97324,39.6595691 561.877767,38.4239873 Z M568.033552,46.1855932 L567.744315,45.7777431 L568.560015,45.1992682 L568.849253,45.6071183 C569.813285,46.9664882 570.746214,48.3574249 571.64766,49.778853 L571.915442,50.2011003 L571.070947,50.7366644 L570.803165,50.3144172 C569.910909,48.9074788 568.987577,47.5308515 568.033552,46.1855932 Z M573.374542,54.6043008 L573.128227,54.1691816 L573.998465,53.6765509 L574.244781,54.1116701 C575.06549,55.5614634 575.855312,57.0388425 576.613901,58.5426479 L576.839094,58.9890647 L575.94626,59.4394512 L575.721067,58.9930343 C574.969641,57.5034288 574.18735,56.0401357 573.374542,54.6043008 Z M577.867703,63.5068285 L577.663396,63.0504752 L578.576102,62.6418597 L578.78041,63.098213 C579.460959,64.6183247 580.111035,66.1619352 580.730338,67.7278139 L580.914227,68.1927705 L579.984314,68.5605496 L579.800424,68.095593 C579.186533,66.5433961 578.542191,65.0134012 577.867703,63.5068285 Z M581.536601,72.7776628 L581.372764,72.3052673 L582.317555,71.9775939 L582.481392,72.4499894 C583.02757,74.0248018 583.54373,75.619097 584.029623,77.2315818 L584.173882,77.7103191 L583.216407,77.9988368 L583.072149,77.5200995 C582.590199,75.9207033 582.078266,74.3394627 581.536601,72.7776628 Z M584.420227,82.3421874 L584.295191,81.8580739 L585.263418,81.6080015 L585.388454,82.0921151 C585.805399,83.7064369 586.192852,85.3362824 586.550626,86.9803101 L586.656947,87.468875 L585.679817,87.6815182 L585.573496,87.1929532 C585.218441,85.5614173 584.833954,83.9440503 584.420227,82.3421874 Z M586.540253,92.0732318 L586.452202,91.5810458 L587.436574,91.4049445 L587.524625,91.8971305 C587.817854,93.5362229 588.082204,95.1869691 588.317553,96.8479973 L588.387697,97.3430527 L587.397586,97.4833404 L587.327443,96.988285 C587.093785,95.3391967 586.831346,93.7003902 586.540253,92.0732318 Z M587.940079,101.947378 L587.88757,101.450143 L588.88204,101.345124 L588.93455,101.842359 C589.109528,103.499296 589.256101,105.164176 589.374212,106.8356 L589.409457,107.334356 L588.411944,107.404846 L588.376699,106.906089 C588.259401,105.24617 588.113842,103.592801 587.940079,101.947378 Z M588.643173,111.888191 L588.62497,111.388522 L589.624307,111.352116 L589.64251,111.851785 C589.70324,113.518802 589.735966,115.190141 589.7407,116.864386 L589.742114,117.364384 L588.742118,117.367212 L588.740704,116.867214 C588.736001,115.20415 588.703495,113.544005 588.643173,111.888191 Z M588.672028,121.843503 L588.687215,121.343734 L589.686753,121.374106 L589.671567,121.873875 C589.620775,123.545418 589.542261,125.217717 589.436109,126.889344 L589.404422,127.388339 L588.406432,127.324964 L588.438119,126.825969 C588.543573,125.165328 588.621571,123.504031 588.672028,121.843503 Z M588.041344,131.785087 L588.089396,131.287401 L589.084767,131.383504 L589.036716,131.88119 C588.875989,133.5459 588.687913,135.207811 588.472641,136.865502 L588.408251,137.361339 L587.416578,137.232558 L587.480968,136.736721 C587.694828,135.089904 587.881671,133.438887 588.041344,131.785087 Z M586.761517,141.644662 L586.842161,141.151208 L587.829068,141.312495 L587.748425,141.805949 C587.478601,143.456986 587.181745,145.10167 586.858077,146.738601 L586.761091,147.229104 L585.780084,147.035131 L585.87707,146.544628 C586.198589,144.918569 586.493478,143.284782 586.761517,141.644662 Z M584.828867,151.415332 L584.942274,150.928363 L585.916212,151.155177 L585.802805,151.642146 C585.422677,153.274416 585.015713,154.896707 584.582199,156.507644 L584.452268,156.990467 L583.486622,156.730606 L583.616553,156.247783 C584.04711,154.647832 584.451311,153.036558 584.828867,151.415332 Z M582.235803,161.045872 L582.382432,160.567855 L583.338466,160.861113 L583.191837,161.339129 C582.700053,162.942368 582.18166,164.531942 581.637006,166.106513 L581.473556,166.579043 L580.528497,166.252141 L580.691948,165.779612 C581.232736,164.216216 581.747471,162.637858 582.235803,161.045872 Z M578.977006,170.461763 L579.157499,169.995478 L580.09007,170.356465 L579.909576,170.82275 C579.303336,172.388905 578.670648,173.937584 578.011918,175.467495 L577.814184,175.926735 L576.895704,175.531268 L577.093438,175.072028 C577.747243,173.553555 578.375235,172.016372 578.977006,170.461763 Z M575.02132,179.640642 L575.236656,179.189388 L576.139165,179.62006 L575.923829,180.071314 C575.199871,181.588429 574.449646,183.084138 573.673612,184.557205 L573.440566,184.999573 L572.55583,184.533481 L572.788876,184.091113 C573.558731,182.629775 574.303032,181.145875 575.02132,179.640642 Z M570.372103,188.459658 L570.623142,188.027247 L571.487964,188.529326 L571.236925,188.961737 C570.392552,190.416154 569.522139,191.845153 568.626186,193.247565 L568.356998,193.668917 L567.514293,193.130542 L567.783481,192.709189 C568.671776,191.318765 569.534817,189.901868 570.372103,188.459658 Z M564.998211,196.864107 L565.285823,196.455109 L566.103819,197.030333 L565.816207,197.439331 C564.847764,198.816502 563.85353,200.164127 562.83404,201.481107 L562.527974,201.876484 L561.737219,201.264351 L562.043285,200.868974 C563.053374,199.564138 564.038529,198.22882 564.998211,196.864107 Z M558.883548,204.755654 L559.20823,204.375415 L559.968708,205.02478 L559.644025,205.405018 C558.550199,206.68601 557.430969,207.933358 556.286896,209.146047 L555.943781,209.50974 L555.216396,208.823511 L555.55951,208.459818 C556.692202,207.259193 557.800402,206.024138 558.883548,204.755654 Z M552.040306,212.003521 L552.401717,211.658004 L553.092752,212.380826 L552.731341,212.726343 C551.514871,213.889317 550.273632,215.014821 549.008192,216.101934 L548.628927,216.427753 L547.977289,215.669223 L548.356555,215.343404 C549.608495,214.267888 550.836601,213.154292 552.040306,212.003521 Z M544.491352,218.484333 L544.88795,218.179849 L545.496917,218.973045 L545.100319,219.277528 C543.766638,220.301447 542.409063,221.284488 541.028157,222.22583 L540.615018,222.50746 L540.051757,221.681181 L540.464896,221.399551 C541.830207,220.46884 543.172543,219.496833 544.491352,218.484333 Z M536.269878,224.085424 L536.698613,223.828158 L537.213145,224.68563 L536.784409,224.942895 C535.344477,225.806936 533.881843,226.627412 532.397046,227.403607 L531.953939,227.635246 L531.490661,226.749033 L531.933768,226.517394 C533.40116,225.750298 534.846704,224.939408 536.269878,224.085424 Z M527.45481,228.691886 L527.910909,228.487012 L528.320658,229.39921 L527.864558,229.604084 C526.335992,230.290698 524.786267,230.93211 523.215883,231.527715 L522.748379,231.705027 L522.393755,230.770018 L522.861259,230.592706 C524.413022,230.004164 525.944364,229.37036 527.45481,228.691886 Z M518.163744,232.216146 L518.64096,232.066931 L518.93939,233.021362 L518.462175,233.170577 C516.867323,233.669254 515.253148,234.122307 513.620093,234.529239 L513.134929,234.650134 L512.893138,233.679805 L513.378302,233.55891 C514.992325,233.156721 516.587612,232.708969 518.163744,232.216146 Z M508.537637,234.617513 L509.028957,234.524756 L509.214472,235.507397 L508.723151,235.600155 C507.085088,235.909408 505.429677,236.17373 503.7573,236.392721 L503.261532,236.45764 L503.131695,235.466105 L503.627462,235.401186 C505.281222,235.184633 506.918067,234.923275 508.537637,234.617513 Z M498.674653,235.91159 L499.173229,235.873879 L499.248651,236.871031 L498.750075,236.908742 C497.091918,237.03416 495.41843,237.116325 493.729928,237.15492 L493.230059,237.166346 L493.207207,236.166607 L493.707077,236.155181 C495.378073,236.116986 497.034032,236.035682 498.674653,235.91159 Z M488.756054,236.149068 L489.255995,236.156741 L489.240648,237.156623 L488.740707,237.14895 C487.035251,237.122774 485.372414,237.10668 483.745479,237.100944 L483.245482,237.099181 L483.249008,236.099187 L483.749005,236.10095 C485.379964,236.1067 487.046735,236.122832 488.756054,236.149068 Z M478.738407,236.117411 L479.238379,236.112175 L479.248851,237.11212 L478.748879,237.117356 C477.049894,237.135148 475.387509,237.165683 473.757452,237.209408 L473.257632,237.222815 L473.230817,236.223175 L473.730638,236.209767 C475.366237,236.165894 477.034063,236.135259 478.738407,236.117411 Z M468.724628,236.390309 L469.224106,236.367454 L469.269816,237.366409 L468.770339,237.389264 C467.077261,237.466736 465.41775,237.560189 463.78882,237.670197 L463.289957,237.703887 L463.222576,236.70616 L463.72144,236.67247 C465.3577,236.561966 467.024427,236.468107 468.724628,236.390309 Z M458.722997,237.070921 L459.220873,237.024891 L459.312933,238.020645 L458.815056,238.066675 C457.131657,238.222308 455.480401,238.397724 453.859074,238.593607 L453.362683,238.653579 L453.242739,237.660798 L453.73913,237.600826 C455.369866,237.403807 457.030411,237.227404 458.722997,237.070921 Z M448.758719,238.281223 L449.252959,238.205548 L449.404308,239.194029 L448.910068,239.269703 C447.242626,239.52501 445.60692,239.80449 444.001243,240.108934 L443.509995,240.202077 L443.323709,239.219581 L443.814957,239.126438 C445.432388,238.819766 447.079735,238.538297 448.758719,238.281223 Z M438.897374,240.158212 L439.384554,240.045715 L439.609547,241.020076 L439.122367,241.132572 C437.483215,241.511075 435.875946,241.918617 434.299218,242.356089 L433.817419,242.489767 L433.550063,241.526169 L434.031862,241.392491 C435.622783,240.951081 437.244172,240.539959 438.897374,240.158212 Z M429.224167,242.849683 L429.698997,242.693041 L430.012279,243.642701 L429.537449,243.799343 C427.945069,244.324651 426.384886,244.884076 424.855848,245.478598 L424.389835,245.659794 L424.027444,244.727768 L424.493457,244.546572 C426.038853,243.94569 427.615409,243.380394 429.224167,242.849683 Z M419.840407,246.506685 L420.295478,246.299536 L420.709777,247.209677 L420.254706,247.416826 C418.736199,248.108055 417.24987,248.838083 415.79491,249.60795 L415.352965,249.841798 L414.88527,248.957908 L415.327215,248.72406 C416.799821,247.944856 418.303958,247.206082 419.840407,246.506685 Z M410.945269,251.219469 L411.371783,250.958536 L411.89365,251.811563 L411.467136,252.072496 C410.051659,252.93846 408.667662,253.846805 407.314555,254.798585 L406.905594,255.086249 L406.330265,254.268327 L406.739227,253.980662 C408.109835,253.016573 409.511662,252.096524 410.945269,251.219469 Z M402.719335,257.007073 L403.108852,256.693581 L403.735835,257.472613 L403.346319,257.786105 C402.060463,258.820993 400.804515,259.900076 399.57807,261.024356 L399.209499,261.362225 L398.533762,260.625083 L398.902333,260.287214 C400.144581,259.148446 401.416788,258.055394 402.719335,257.007073 Z M395.30256,263.802687 L395.649179,263.442333 L396.369887,264.135572 L396.023267,264.495926 C394.884196,265.680131 393.772694,266.908354 392.688504,268.181496 L392.364329,268.562168 L391.602986,267.913818 L391.927161,267.533147 C393.02441,266.244671 394.149461,265.001475 395.30256,263.802687 Z M388.768727,271.468951 L389.070379,271.070195 L389.86789,271.673499 L389.566239,272.072255 C388.577958,273.37867 387.614494,274.727305 386.675694,276.118926 L386.396069,276.533426 L385.56707,275.974176 L385.846695,275.559676 C386.795548,274.153153 387.769507,272.789827 388.768727,271.468951 Z M383.133645,279.81277 L383.391905,279.384633 L384.24818,279.901153 L383.989919,280.329291 C383.145003,281.72997 382.322109,283.170096 381.521154,284.650304 L381.283202,285.090053 L380.403705,284.614148 L380.641657,284.1744 C381.449994,282.680549 382.280627,281.22688 383.133645,279.81277 Z M378.335839,288.669239 L378.554483,288.219579 L379.453804,288.656866 L379.235161,289.106527 C378.520039,290.57724 377.824337,292.084239 377.148015,293.628041 L376.94738,294.086021 L376.03142,293.68475 L376.232056,293.22677 C376.913653,291.670927 377.614897,290.151921 378.335839,288.669239 Z M374.363797,297.887811 L374.523329,297.413944 L375.471062,297.733009 L375.31153,298.206875 C374.814547,299.683089 374.380233,301.273442 374.008774,302.977895 L373.902306,303.466428 L372.92524,303.253492 L373.031708,302.764959 C373.410783,301.02556 373.854751,299.399857 374.363797,297.887811 Z M372.166554,307.731795 L372.233478,307.236294 L373.22448,307.370142 L373.157556,307.865643 C372.945376,309.436618 372.775853,311.08449 372.649032,312.809221 L372.612366,313.307874 L371.615058,313.234541 L371.651725,312.735888 C371.780003,310.991342 371.951598,309.323324 372.166554,307.731795 Z M371.406781,317.778503 L371.419527,317.278665 L372.419202,317.304157 L372.406456,317.803994 C372.365569,319.40741 372.356202,321.067379 372.378366,322.783881 L372.384822,323.28384 L371.384905,323.296751 L371.37845,322.796793 C371.356122,321.067697 371.365562,319.39494 371.406781,317.778503 Z M371.524265,327.792061 L371.502021,327.292556 L372.501031,327.248068 L372.523275,327.747573 C372.595184,329.362336 372.69186,331.021437 372.813309,332.724865 L372.848867,333.223599 L371.851399,333.294715 L371.815841,332.795981 C371.693768,331.083802 371.596575,329.415832 371.524265,327.792061 Z M372.231506,337.799646 L372.184566,337.301854 L373.18015,337.207975 L373.227089,337.705767 C373.379698,339.324174 373.552609,340.978881 373.745824,342.669881 L373.802585,343.166648 L372.80905,343.280171 L372.752289,342.783403 C372.558334,341.085935 372.384739,339.424685 372.231506,337.799646 Z M373.36655,347.767576 L373.301181,347.271868 L374.292598,347.14113 L374.357967,347.636838 C374.571245,349.254174 374.801657,350.90212 375.049203,352.580673 L375.122152,353.075323 L374.132852,353.22122 L374.059903,352.726571 C373.81162,351.043019 373.580502,349.390021 373.36655,347.767576 Z M374.826482,357.684865 L374.746768,357.19126 L375.733978,357.031832 L375.813692,357.525437 C376.074521,359.140544 376.350154,360.782083 376.640589,362.450054 L376.726361,362.942643 L375.741184,363.114186 L375.655412,362.621598 C375.364281,360.949627 375.08797,359.304049 374.826482,357.684865 Z M376.535478,367.513237 L376.44427,367.021626 L377.427491,366.83921 L377.518699,367.33082 C377.817843,368.943202 378.130013,370.578837 378.455211,372.237727 L378.551397,372.728388 L377.570075,372.920759 L377.473889,372.430098 C377.148046,370.767919 376.835243,369.128965 376.535478,367.513237 Z M378.461411,377.344839 L378.360671,376.855093 L379.340164,376.653613 L379.440904,377.143359 C379.771844,378.752219 380.114395,380.381802 380.468557,382.032105 L380.573471,382.520975 L379.595732,382.730801 L379.490819,382.241932 C379.136064,380.588867 378.792929,378.956503 378.461411,377.344839 Z M380.561501,387.13569 L380.452736,386.647663 L381.428789,386.430133 L381.537554,386.91816 C381.895391,388.523768 382.263698,390.14806 382.642476,391.791037 L382.754802,392.278256 L381.780362,392.502907 L381.668037,392.015688 C381.288715,390.370354 380.91987,388.743688 380.561501,387.13569 Z" id="Line-3"></path>
            </g>
        </g>
    </g>
</svg>