<?xml version="1.0" encoding="UTF-8"?>
<svg width="207px" height="179px" viewBox="0 0 207 179" version="1.1" xmlns="http://www.w3.org/2000/svg" xmlns:xlink="http://www.w3.org/1999/xlink">
    <!-- Generator: Sketch 52.3 (67297) - http://www.bohemiancoding.com/sketch -->
    <title>3 steps-step 2 icon</title>
    <desc>Created with Sketch.</desc>
    <defs>
        <linearGradient x1="6.93118268%" y1="85.478884%" x2="84.5425827%" y2="-3.58163471%" id="linearGradient-1">
            <stop stop-color="#0497F4" offset="0%"></stop>
            <stop stop-color="#0BCBF9" offset="100%"></stop>
        </linearGradient>
        <linearGradient x1="1.20662332%" y1="2.14292466%" x2="90.267142%" y2="79.7543246%" id="linearGradient-2">
            <stop stop-color="#0497F4" offset="0%"></stop>
            <stop stop-color="#0BCBF9" offset="100%"></stop>
        </linearGradient>
    </defs>
    <g id="Page-1" stroke="none" stroke-width="1" fill="none" fill-rule="evenodd">
        <g id="Sport-1440---Design" transform="translate(-313.000000, -1955.000000)">
            <g id="3-steps-step-2-icon" transform="translate(314.000000, 1942.000000)">
                <g id="bg">
                    <path d="M102.5,-1.42108547e-14 L191.267604,51.25 L191.267604,153.75 L102.5,205 L13.7323961,153.75 L13.7323961,51.25 L102.5,-1.42108547e-14 Z" id="Polygon" stroke="url(#linearGradient-1)" stroke-dasharray="2,4" transform="translate(102.500000, 102.500000) rotate(90.000000) translate(-102.500000, -102.500000) "></path>
                    <polygon id="Path-10" fill="#98E5FC" points="55 16 62.2122685 99.5708694 59 169.402911 140 176.410156 196.067602 104.537185 143 36.6450325"></polygon>
                    <circle id="Oval" fill="#EF1C3B" cx="55.5" cy="17.5" r="3.5"></circle>
                    <circle id="Oval" fill="#EF1C3B" cx="142.5" cy="35.5" r="3.5"></circle>
                    <circle id="Oval" fill="#EF1C3B" cx="195.5" cy="103.5" r="3.5"></circle>
                    <circle id="Oval" fill="#EF1C3B" cx="140.5" cy="175.5" r="3.5"></circle>
                    <circle id="Oval" fill="#EF1C3B" cx="63.5" cy="100.5" r="3.5"></circle>
                    <circle id="Oval" fill="#EF1C3B" cx="59.5" cy="170.5" r="3.5"></circle>
                </g>
                <g id="sportsman" transform="translate(53.000000, 41.000000)">
                    <path d="M78.5700741,77.1764444 L63.436,74.2157037 C62.4648889,74.0260741 61.7641481,73.1697778 61.7641481,72.1734815 L61.7641481,64.5371852 L49.9997037,65.7408889 L38.236,64.5371852 L38.236,72.1734815 C38.236,73.1697778 37.5352593,74.0260741 36.5641481,74.2157037 L21.4300741,77.1764444 C9.20044444,79.569037 0.370074074,90.3586667 0.370074074,102.909037 L0.370074074,119.814963 L49.9997037,119.814963 L99.6293333,119.814963 L99.6293333,102.909037 C99.6293333,90.3586667 90.7997037,79.569037 78.5700741,77.1764444 Z" id="Stroke-1" stroke="url(#linearGradient-2)" stroke-width="2" fill="#FFFFFF"></path>
                    <path d="M74.6296296,40.0925926 C74.6296296,56.5074074 63.7681481,69.8148148 50.3703704,69.8148148 C36.9725926,69.8148148 26.1111111,56.5074074 26.1111111,40.0925926 C26.1111111,9.90740741 36.9725926,10.3703704 50.3703704,10.3703704 C63.7681481,10.3703704 74.6296296,11.8518519 74.6296296,40.0925926 Z" id="Stroke-7" stroke="url(#linearGradient-2)" stroke-width="2" fill="#FFFFFF"></path>
                    <path d="M33.2407407,74.9074074 C33.2407407,74.9074074 33.6111111,90.0925926 50.462963,90.0925926 C67.3148148,90.0925926 66.9444444,75.0925926 66.9444444,75.0925926 L73.2407407,76.3888889 L79.1666667,105.648148 L79.1666667,119.537037 L20.8333333,119.537037 L20.8333333,103.055556 L27.5,75.8333333 L33.2407407,74.9074074 Z" id="Fill-3" stroke="url(#linearGradient-2)" stroke-width="2" fill="url(#linearGradient-2)"></path>
                    <path d="M50.995037,0 L49.9076296,0 L49.815037,0 L48.7268889,0 C33.3217037,0 20.8335556,12.4881481 20.8335556,27.8940741 L20.8335556,39.217037 C19.5076296,45.6251852 28.2535556,51.5303704 29.5372593,50.3703704 L30.3187407,49.5237037 C31.2446667,48.52 31.7594815,47.2044444 31.7594815,45.8392593 L31.7594815,40.8333333 C31.7594815,39.9222222 31.5298519,39.0251852 31.0928148,38.2259259 L29.740963,35.7555556 C29.3031852,34.9562963 29.0742963,34.0592593 29.0742963,33.1481481 L29.0742963,27.4111111 C29.0742963,22.5125926 34.2246667,19.322963 38.6098519,21.5059259 L49.815037,27.0837037 L49.815037,27.1296296 L49.860963,27.1066667 L49.9076296,27.1296296 L49.9076296,27.0837037 L61.1128148,21.5059259 C65.498,19.322963 70.6483704,22.5125926 70.6483704,27.4111111 L70.6483704,33.1481481 C70.6483704,34.0592593 70.4187407,34.9562963 69.9817037,35.7555556 L68.6298519,38.2259259 C68.1920741,39.0251852 67.9631852,39.9222222 67.9631852,40.8333333 L67.9631852,45.8392593 C67.9631852,47.2044444 68.4772593,48.52 69.4039259,49.5237037 L70.1854074,50.3703704 C73.0683704,50.9992593 80.4839259,44.782963 78.8891111,39.217037 L78.8891111,27.8940741 C78.8891111,12.4881481 66.4002222,0 50.995037,0" id="Fill-5" fill="url(#linearGradient-2)"></path>
                    <rect id="Rectangle" fill="#EF1C3B" x="21" y="21" width="58" height="10" rx="2"></rect>
                </g>
            </g>
        </g>
    </g>
</svg>