<?xml version="1.0" encoding="UTF-8"?>
<svg width="125px" height="407px" viewBox="0 0 125 407" version="1.1" xmlns="http://www.w3.org/2000/svg" xmlns:xlink="http://www.w3.org/1999/xlink">
    <!-- Generator: Sketch 52.3 (67297) - http://www.bohemiancoding.com/sketch -->
    <title>3 steps-arrow 1 (320)</title>
    <desc>Created with Sketch.</desc>
    <g id="Page-1" stroke="none" stroke-width="1" fill="none" fill-rule="evenodd">
        <g id="Sport-320" transform="translate(-186.000000, -1282.000000)" fill="#EF1C3B" fill-rule="nonzero">
            <g id="3-steps-arrow-1-(320)" transform="translate(186.000000, 1283.000000)">
                <path d="M7.08642388,4.66459955 L6.91357612,3.679651 C8.57765641,3.38762301 10.2235129,3.11089644 11.8511467,2.84947177 L12.0097305,3.83681728 C10.3868868,4.09747259 8.74578426,4.37339985 7.08642388,4.66459955 Z M16.9469662,3.08277997 L16.8038096,2.09307992 C18.4772017,1.85102972 20.1304217,1.62592335 21.7634709,1.41776158 L21.8899159,2.40973519 C20.2624814,2.61718128 18.614831,2.84152928 16.9469662,3.08277997 Z M26.8512272,1.82285923 L26.7429946,0.828733633 C28.4278152,0.645303558 30.0900392,0.480863175 31.7296684,0.33541377 L31.8180301,1.33150222 C30.1850801,1.47635913 28.5294786,1.64014437 26.8512272,1.82285923 Z M36.7887254,0.944338121 L36.7221215,-0.0534413708 C38.4151969,-0.16645783 40.0827647,-0.258024276 41.7248271,-0.32813853 L41.7674872,0.670951117 C40.1334759,0.740721594 38.4738879,0.83184987 36.7887254,0.944338121 Z M46.7577786,0.522966457 L46.7416068,-0.476902771 C48.4416357,-0.504398874 50.112497,-0.507346123 51.7541936,-0.485740746 L51.7410343,0.514172667 C50.1092017,0.492697104 48.4481155,0.495627111 46.7577786,0.522966457 Z M56.7257426,0.659826644 L56.7715939,-0.33912163 C58.4740931,-0.260977567 60.1428027,-0.154362581 61.7777262,-0.0192700368 L61.6953775,0.977333546 C60.0727233,0.843254796 58.4161772,0.73741695 56.7257426,0.659826644 Z M66.6534086,1.48794962 L66.7767303,0.495582879 C68.472854,0.706360761 70.1292995,0.950619018 71.7460688,1.22836923 L71.5767557,2.21393155 C69.9754231,1.93883326 68.3343067,1.69683542 66.6534086,1.48794962 Z M76.4702835,3.18562718 L76.6914723,2.21039617 C78.36225,2.58933958 79.9859759,3.00804876 81.5626454,3.46654245 L81.2834134,4.42676613 C79.7261473,3.97391493 78.1217722,3.56019571 76.4702835,3.18562718 Z M86.0279732,5.98081283 L86.3723144,5.04196824 C87.9818512,5.63230004 89.535583,6.26985062 91.0334862,6.95464307 L90.617708,7.86410912 C89.1434723,7.1901367 87.6135685,6.56236358 86.0279732,5.98081283 Z M95.007382,10.1001663 L95.4999686,9.22990291 C96.9881928,10.0722679 98.4116519,10.9693898 99.77029,11.9212755 L99.1964882,12.7402697 C97.8642907,11.8069087 96.4679407,10.9268721 95.007382,10.1001663 Z M103.111401,15.7962667 L103.767502,15.0415937 C105.047996,16.1548346 106.25747,17.3278456 107.395857,18.5605827 L106.661195,19.2390158 C105.547654,18.0331839 104.364413,16.8856154 103.111401,15.7962667 Z M109.827136,23.0780362 L110.633016,22.4859583 C111.625626,23.8370048 112.547236,25.2473732 113.397821,26.7169873 L112.532333,27.2179159 C111.699888,25.7796436 110.798164,24.3997091 109.827136,23.0780362 Z M114.868834,31.6288876 L115.766902,31.1890291 C116.506211,32.698491 117.196301,34.2267345 117.838,35.7749018 L116.914211,36.157803 C116.280485,34.6288726 115.598973,33.1196244 114.868834,31.6288876 Z M118.676942,40.8166677 L119.622773,40.4920086 C120.165171,42.0721793 120.660766,43.6737847 121.110317,45.2981334 L120.146546,45.5648645 C119.702367,43.9599274 119.21275,42.3776404 118.676942,40.8166677 Z M121.332441,50.3973543 L122.3101,50.1871541 C122.659322,51.8114144 122.965879,53.459071 123.230408,55.131567 L122.242686,55.2877889 C121.980998,53.6332546 121.677789,52.0035956 121.332441,50.3973543 Z M122.895681,60.2505129 L123.890124,60.1452378 C124.064132,61.7889425 124.200531,63.4572769 124.299799,65.1517847 L123.301511,65.2102667 C123.20315,63.5312483 123.068027,61.8785114 122.895681,60.2505129 Z M123.484146,70.1566418 L124.484018,70.1406533 C124.510358,71.787846 124.504097,73.4603955 124.465555,75.1599316 L123.465812,75.1372594 C123.504065,73.4504775 123.510277,71.7908118 123.484146,70.1566418 Z M123.263917,80.1309994 L124.262264,80.1884661 C124.167789,81.8297517 124.045259,83.4968411 123.89484,85.1914592 L122.898756,85.1030439 C123.048271,83.4186153 123.170043,81.7618378 123.263917,80.1309994 Z M122.386182,90.0784716 L123.379433,90.194451 C123.18915,91.8240493 122.974717,93.479775 122.736153,95.1634762 L121.746042,95.0231874 C121.983473,93.3474809 122.196857,91.699854 122.386182,90.0784716 Z M120.986874,99.9827251 L121.973686,100.144594 C121.708201,101.763089 121.421712,103.408182 121.114091,105.081909 L120.130565,104.901143 C120.437044,103.233626 120.722437,101.594829 120.986874,99.9827251 Z M119.193103,109.76682 L120.173456,109.964071 C119.850453,111.569422 119.50898,113.20198 119.148758,114.864052 L118.171447,114.652239 C118.530634,112.994949 118.871091,111.367242 119.193103,109.76682 Z M117.084611,119.510559 L118.059081,119.735077 C117.691611,121.33 117.307578,122.953164 116.906512,124.607302 L115.934671,124.371668 C116.334851,122.721178 116.718009,121.101716 117.084611,119.510559 Z M114.731948,129.22403 L115.701395,129.469331 C115.300411,131.054055 114.884232,132.668583 114.452141,134.316318 L113.484847,134.062661 C113.916219,132.417666 114.33168,130.805921 114.731948,129.22403 Z M112.199729,138.888287 L113.165111,139.149129 C112.739543,140.724165 112.299581,142.331415 111.844126,143.975412 L110.880425,143.708427 C111.335323,142.066441 111.774725,140.461237 112.199729,138.888287 Z M109.530039,148.530557 L110.492281,148.802752 C110.049544,150.36788 109.592534,151.969053 109.11948,153.612921 L108.158479,153.336376 C108.631124,151.693928 109.087722,150.094202 109.530039,148.530557 Z M106.763524,158.148833 L107.723484,158.428972 C107.270146,159.982439 106.801649,161.578442 106.314782,163.228312 L105.35567,162.945284 C105.84226,161.296353 106.310475,159.701311 106.763524,158.148833 Z M103.933414,167.743172 L104.891855,168.028463 C104.435232,169.5625 103.960691,171.151221 103.460731,172.82009 L102.502794,172.533111 C103.002591,170.864785 103.476965,169.276624 103.933414,167.743172 Z M101.062771,177.328516 L102.020357,177.616664 C101.575308,179.095673 101.106458,180.651417 100.577601,182.404351 L99.6202231,182.115512 C100.149015,180.362793 100.617798,178.807274 101.062771,177.328516 Z M98.1996968,186.917817 L99.1633214,187.185077 C98.7171315,188.793848 98.3118862,190.401246 97.9468843,192.007944 L96.9717309,191.786414 C97.3402157,190.164383 97.749305,188.541739 98.1996968,186.917817 Z M95.9731756,196.731649 L96.9579072,196.905728 C96.6683354,198.543776 96.4199138,200.181742 96.2118818,201.820557 L95.2198426,201.694628 C95.429915,200.039739 95.6807715,198.385718 95.9731756,196.731649 Z M94.7085693,206.697077 L95.7055687,206.774486 C95.5770471,208.429798 95.4888389,210.086873 95.4401669,211.747011 L94.4405964,211.717705 C94.4897369,210.041587 94.5787989,208.368473 94.7085693,206.697077 Z M94.4121522,216.754904 L95.4119943,216.737136 C95.4413688,218.390083 95.5088404,220.047305 95.6137018,221.710638 L94.6156832,221.773556 C94.5098806,220.095296 94.4417963,218.423023 94.4121522,216.754904 Z M95.0384147,226.761047 L96.0328297,226.655506 C96.2067811,228.294485 96.4157923,229.941116 96.6593604,231.598101 L95.6699922,231.743533 C95.4244943,230.073419 95.2137958,228.413495 95.0384147,226.761047 Z M96.4944674,236.701262 L97.4777527,236.519191 C97.7767126,238.133739 98.1071946,239.760621 98.4691679,241.404102 L97.4925742,241.619194 C97.128218,239.964894 96.7955017,238.327013 96.4944674,236.701262 Z M98.6519358,246.522303 L99.6215943,246.27784 C100.021088,247.862423 100.448772,249.466368 100.905743,251.097324 L99.9428253,251.36712 C99.4835408,249.727906 99.0536087,248.11553 98.6519358,246.522303 Z M101.347781,256.169339 L102.304469,255.878226 C102.775753,257.427009 103.273189,259.007098 103.801256,260.635856 L102.850002,260.944266 C102.320123,259.309918 101.820879,257.724085 101.347781,256.169339 Z M104.426656,265.688918 L105.373536,265.367332 C105.881344,266.862525 106.416936,268.412386 107.003994,270.08846 L106.060212,270.419027 C105.472161,268.74012 104.93555,267.18731 104.426656,265.688918 Z M107.731007,275.146062 L108.673159,274.810874 C108.959466,275.61563 110.079472,278.757429 110.351873,279.523053 L109.409727,279.858258 C109.137466,279.093025 108.017456,275.951215 107.731007,275.146062 Z M111.075977,284.573477 L112.019847,284.243162 C112.614175,285.941443 113.148675,287.492024 113.649445,288.974079 L112.702065,289.294189 C112.202531,287.815793 111.669182,286.268553 111.075977,284.573477 Z M114.264703,294.042917 L115.217375,293.738919 C115.746417,295.396837 116.23464,296.98706 116.68719,298.53062 L115.727583,298.811963 C115.277338,297.276269 114.791423,295.693558 114.264703,294.042917 Z M117.060704,303.624408 L118.028627,303.373164 C118.461727,305.041686 118.850846,306.66508 119.196984,308.253527 L118.219913,308.46644 C117.876646,306.891169 117.490582,305.280519 117.060704,303.624408 Z M119.163479,313.341671 L120.149692,313.17619 C120.433603,314.868205 120.664531,316.526299 120.841771,318.156739 L119.847628,318.26481 C119.672517,316.653964 119.444252,315.014983 119.163479,313.341671 Z M120.221915,323.242338 L121.221108,323.202157 C121.289636,324.906278 121.294238,326.58421 121.233276,328.2402 L120.233953,328.203412 C120.293957,326.573428 120.289426,324.921152 120.221915,323.242338 Z M119.846801,333.128053 L120.839462,333.248982 C120.635147,334.926128 120.358133,336.583598 120.006374,338.224291 L119.028594,338.014658 C119.374021,336.403497 119.646089,334.775623 119.846801,333.128053 Z M117.767418,342.809476 L118.72179,343.108096 C118.223115,344.70183 117.649069,346.281695 116.997657,347.849606 L116.074187,347.465937 C116.714022,345.925891 117.277756,344.374404 117.767418,342.809476 Z M113.960013,351.985242 L114.846822,352.447378 C114.51047,353.092816 114.160281,353.736485 113.796099,354.378518 C113.326177,355.206858 112.847648,356.021774 112.358789,356.826218 L111.504212,356.306894 C111.987858,355.511027 112.461319,354.704743 112.926302,353.885109 C113.284632,353.253393 113.629153,352.620141 113.960013,351.985242 Z M108.806069,360.484651 L109.63072,361.050294 C108.676642,362.441244 107.689209,363.796399 106.668421,365.115748 L105.877511,364.503817 C106.886579,363.199614 107.862764,361.859896 108.806069,360.484651 Z M102.706215,368.361982 L103.459518,369.019656 C102.353975,370.28595 101.214041,371.515273 100.039725,372.707613 L99.3272541,372.005911 C100.487506,370.827851 101.613824,369.613212 102.706215,368.361982 Z M95.7322348,375.441567 L96.4009132,376.185119 C95.1557549,377.304894 93.87614,378.387546 92.5620798,379.433067 L91.9394665,378.650537 C93.237794,377.617533 94.5020463,376.547879 95.7322348,375.441567 Z M87.9733121,381.617777 L88.5484154,382.435858 C87.1830604,383.39569 85.7841353,384.319281 84.351652,385.206627 L83.8250525,384.356514 C85.2411005,383.479348 86.6238497,382.566437 87.9733121,381.617777 Z M79.5095739,386.863067 L79.9873955,387.741524 C78.5266152,388.536091 77.0339946,389.296231 75.5095437,390.021947 L75.079713,389.119038 C76.588012,388.401011 78.0646291,387.64902 79.5095739,386.863067 Z M70.5060224,391.152076 L70.8887127,392.075952 C69.3559353,392.710863 67.7934983,393.313678 66.2014082,393.884402 L65.8639604,392.943058 C67.4409037,392.377764 68.9882555,391.780769 70.5060224,391.152076 Z M61.1076928,394.524381 L61.40152,395.480239 C59.8182144,395.966941 58.2076312,396.424119 56.5697741,396.851775 L56.3171368,395.884214 C57.9412565,395.460144 59.5381073,395.006865 61.1076928,394.524381 Z M51.542872,397.029468 L51.7570992,398.006252 C50.1417935,398.360519 48.501585,398.687836 46.8364752,398.988206 L46.6589501,398.004089 C48.311851,397.705922 49.9398245,397.381047 51.542872,397.029468 Z M41.7297136,398.803443 L41.8726928,399.793168 C40.2365004,400.029538 38.5776102,400.241353 36.8960225,400.428616 L36.785346,399.434759 C38.4562066,399.248691 40.104329,399.038251 41.7297136,398.803443 Z M31.811572,399.911249 L31.8919545,400.908013 C30.2451258,401.040819 28.5776306,401.151277 26.8894685,401.23939 L26.8373447,400.24075 C28.5161325,400.153126 30.1742083,400.043291 31.811572,399.911249 Z M21.8380426,400.434471 L21.8636562,401.434143 C20.2117427,401.476469 18.5409527,401.498392 16.8512857,401.499915 L16.8503844,400.499915 C18.5318585,400.4984 20.1944114,400.476585 21.8380426,400.434471 Z M11.8503361,400.445837 L11.8280619,401.445589 C10.2310878,401.410009 8.61796205,401.356979 6.98868406,401.286502 L7.03190061,400.287436 C8.65423626,400.357613 10.2603816,400.410413 11.8503361,400.445837 Z" id="Path-20"></path>
                <path d="M0.631847288,405.506584 L-0.0691134587,405.121027 C0.669049703,403.779011 1.32827854,402.512208 1.98238023,401.196216 C2.22699257,400.704078 2.45694257,400.233648 2.73813065,399.652424 C2.81668386,399.490053 2.90510727,399.306904 3.0608167,398.984351 C3.18311353,398.731172 3.26977238,398.552404 3.35154346,398.384907 C4.30777749,396.426192 4.64672372,395.909465 5.26038141,395.908832 C5.88709282,395.908185 6.19925783,396.429036 7.04869314,398.398941 C7.12086859,398.566321 7.19727963,398.744952 7.30505833,398.997924 C7.44225799,399.320185 7.52016388,399.50315 7.58939236,399.665357 C7.83718467,400.245953 8.04009708,400.715852 8.25641721,401.207411 C8.83483527,402.52179 9.42119103,403.786953 10.0821419,405.127142 L9.36465286,405.480991 C8.69825001,404.129748 8.10706222,402.854159 7.52418396,401.529645 C7.30649101,401.034966 7.10246897,400.562497 6.85360252,399.979385 C6.78421894,399.816814 6.70614999,399.633466 6.56907171,399.311491 C6.46171061,399.059498 6.38569856,398.8818 6.31407977,398.715711 C5.68330144,397.252888 5.35716895,396.708732 5.2612066,396.708831 C5.15219051,396.708944 4.79164248,397.258603 4.07044779,398.735872 C3.98926632,398.902161 3.90303057,399.080057 3.78117677,399.332318 C3.62559614,399.654605 3.5369997,399.838112 3.45828196,400.000824 C3.17595487,400.584402 2.94482996,401.057236 2.69876794,401.55229 C2.03996376,402.877742 1.37567433,404.154271 0.631847288,405.506584 Z" id="Path-21" transform="translate(5.006514, 400.707708) rotate(-91.000000) translate(-5.006514, -400.707708) "></path>
            </g>
        </g>
    </g>
</svg>