<svg xmlns="http://www.w3.org/2000/svg" width="1600" height="907" viewBox="0 0 1600 907">
    <defs>
        <linearGradient id="a" x1="39.97%" x2="52.288%" y1="3.296%" y2="73.055%">
            <stop offset="0%" stop-color="#0497F4"/>
            <stop offset="100%" stop-color="#C1F3FF" stop-opacity="0"/>
        </linearGradient>
    </defs>
    <path fill="url(#a)" fill-rule="nonzero" d="M-186.448 1530.361c-53.064-199.762 91.091-309.343 432.466-328.743 512.062-29.1 668.157 145.259 880.497 145.259 175.823 0 380.563-55.364 584.397 0 135.89 36.909 233.38 98.07 292.475 183.484 41.288 301.713 41.288 474.964 0 519.754-61.932 67.186-334.056-17.265-469.361-10.585-181.474 8.96-269.416 112.171-507.235 96.12-217.04-14.647-385.212-192.156-585.917-166.456-183.186 23.457-522.102 181.216-724.813 39.412-135.141-94.536-102.644-253.95 97.491-478.245z" opacity=".199" transform="scale(1 -1) rotate(-5 -23691.978 597)"/>
</svg>
