<?xml version="1.0" encoding="UTF-8"?>
<svg width="1600px" height="783px" viewBox="0 0 1600 783" version="1.1" xmlns="http://www.w3.org/2000/svg" xmlns:xlink="http://www.w3.org/1999/xlink">
    <!-- Generator: Sketch 52.3 (67297) - http://www.bohemiancoding.com/sketch -->
    <title>bg central</title>
    <desc>Created with Sketch.</desc>
    <defs>
        <linearGradient x1="1.20662332%" y1="2.14292466%" x2="90.267142%" y2="79.7543246%" id="linearGradient-1">
            <stop stop-color="#0497F4" offset="0%"></stop>
            <stop stop-color="#0BCBF9" offset="100%"></stop>
        </linearGradient>
        <linearGradient x1="6.93118268%" y1="85.478884%" x2="84.5425827%" y2="-3.58163471%" id="linearGradient-2">
            <stop stop-color="#0497F4" offset="0%"></stop>
            <stop stop-color="#0BCBF9" offset="100%"></stop>
        </linearGradient>
    </defs>
    <g id="Page-1" stroke="none" stroke-width="1" fill="none" fill-rule="evenodd">
        <g id="Index---V1" transform="translate(0.000000, -2404.000000)" fill-rule="nonzero">
            <g id="bg-central" transform="translate(808.301783, 2805.943221) scale(1, -1) rotate(3.000000) translate(-808.301783, -2805.943221) translate(-296.698217, 2418.443221)">
                <path d="M69,44.1692341 C200.005598,33.88967 423.026432,60.1446955 738.0625,122.934311 C1011.64955,177.462751 1234.20973,98.5639147 1601.25324,73.9504177 C1710.53804,66.62191 1913.45363,64.8811506 2210,68.7281394 L2210,691.811874 C2206.19471,737.962181 1955.40081,719.502058 1457.61831,636.431506 C1165.5052,587.683313 879.691542,705.652361 584.847188,714.117856 C388.284284,719.761519 216.335222,688.738257 69,621.04807 L69,44.1692341 Z" id="Rectangle-Copy-5" fill="url(#linearGradient-1)" opacity="0.5"></path>
                <path d="M0,156.217474 C44.5555917,133.265611 189.390935,157.594586 434.506031,229.204396 C664.982995,296.537711 1132.99129,143.823468 1461.9581,121.78968 C1559.90582,115.229264 1712.2181,126.705195 1918.89496,156.217474 L1918.89496,735.981518 C1983.0687,762.791942 1792.08403,739.015136 1345.94095,664.651102 C1084.13134,621.012145 835.363011,766.549841 571.105492,774.128079 C394.933813,779.180237 204.565315,745.349003 0,672.634378 L0,156.217474 Z" id="Rectangle-Copy-6" fill="url(#linearGradient-1)" opacity="0.199999988"></path>
                <path d="M43,39.1597347 C91.2034766,14.3432926 247.896875,40.6487212 513.080195,118.07602 C653.221629,158.994027 874.538162,124.755989 1104.70057,82.6875808 C1284.05477,49.9057493 1468.78045,12.36907 1624.6525,1.9350716 C1730.61945,-5.15830432 1895.40195,7.24991671 2119,39.1597347 L2119,666.023061 C2115.31023,710.692657 1872.13035,692.824818 1389.46035,612.419546 C1106.21569,565.235416 829.079235,679.419482 543.18625,687.613366 C352.590927,693.075954 185.862177,663.04806 43,597.529681 L43,39.1597347 Z" id="Rectangle" fill="url(#linearGradient-2)"></path>
            </g>
        </g>
    </g>
</svg>