<svg xmlns="http://www.w3.org/2000/svg" width="1424" height="1385" viewBox="0 0 1424 1385">
    <defs>
        <linearGradient id="a" x1="31.674%" x2="57.43%" y1="20.766%" y2="91.629%">
            <stop offset="0%" stop-color="#0497F4"/>
            <stop offset="100%" stop-color="#C1F3FF" stop-opacity="0"/>
        </linearGradient>
    </defs>
    <path fill="url(#a)" fill-rule="nonzero" d="M340.535 1334.846C291.76 1017.44 424.262 843.323 738.043 812.5c470.67-46.237 614.147 230.804 809.324 230.804 161.61 0 349.8-87.968 537.158 0 124.904 58.646 214.515 155.827 268.833 291.543 37.95 479.399 37.95 754.682 0 825.85-56.926 106.753-307.053-27.434-431.421-16.819-166.805 14.237-247.639 178.232-466.234 152.729-199.496-23.275-354.073-305.323-538.556-264.487-168.378 37.271-479.898 287.938-666.223 62.622-124.217-150.21-94.347-403.508 89.61-759.895z" opacity=".199" transform="rotate(175 1209.835 1113.952)"/>
</svg>
