<?xml version="1.0" encoding="UTF-8"?>
<svg width="45px" height="45px" viewBox="0 0 45 45" version="1.1" xmlns="http://www.w3.org/2000/svg" xmlns:xlink="http://www.w3.org/1999/xlink">
    <!-- Generator: Sketch 52.3 (67297) - http://www.bohemiancoding.com/sketch -->
    <title>categories-wrestling icon</title>
    <desc>Created with Sketch.</desc>
    <g id="Page-1" stroke="none" stroke-width="1" fill="none" fill-rule="evenodd">
        <g id="Sport-1440---Design" transform="translate(-839.000000, -3117.000000)" fill="#EF1C3B">
            <g id="categories-wrestling-icon" transform="translate(839.000000, 3117.000000)">
                <path d="M11.2891146,23.1603203 C9.61280478,22.6419424 8.0319305,21.9724397 6.40842652,21.751362 C5.85781582,21.6761295 4.96946789,22.586178 4.64878253,23.3097953 C4.22441075,24.2666991 4.69086217,25.1694883 5.55885786,25.7010649 C7.56080356,26.9272216 9.63920769,26.0910857 11.2891146,23.1603203 M24.663289,3.45041609 C23.5650929,2.06826511 22.2190945,1.60032942 20.6948765,2.02221168 C18.7240092,2.56745133 16.7960467,3.27113669 14.8650588,3.94987644 C14.5688511,4.0540449 14.1744577,4.3736776 14.1521802,4.62285952 C14.1290777,4.8816359 14.4472877,5.25170806 14.7113168,5.44195256 C16.7613928,6.91785516 19.2649938,6.97048764 21.3623751,5.61245988 C22.4305928,4.92083614 23.4919348,4.21824729 24.663289,3.45041609 M6.96618801,16.149922 L6.65980423,15.9193807 C6.14659766,16.5134151 5.41639216,17.031242 5.17244026,17.7198503 C4.82920242,18.6880687 5.37211228,19.5515704 6.38092349,19.8448869 C9.26709166,20.6839912 12.1714118,21.4625134 15.0782073,22.2286998 C15.9514286,22.4586928 16.7762445,22.115211 16.8301504,21.218814 C16.862879,20.6711072 16.3689246,19.7788221 15.8807458,19.5647285 C13.2132267,18.3958488 10.4752999,17.385963 7.75772527,16.3313944 C7.50827277,16.2346274 7.23076718,16.2088594 6.96618801,16.149922 M7.52092416,10.3241638 C7.04759698,10.8367823 6.26816106,11.3381615 6.02008371,12.029237 C5.63256599,13.1084771 6.24148312,13.9497744 7.33115324,14.3763169 C10.258851,15.5221699 13.188749,16.6625404 16.1114962,17.8207292 C17.0284473,18.1842223 17.9365974,18.4166825 18.4448534,17.2960491 C18.9212059,16.2464149 18.1676229,15.6797933 17.3741604,15.2507837 C14.64916,13.7773482 11.9126083,12.3247465 9.16890584,10.885577 C8.77313721,10.6780624 8.31466167,10.5895192 7.52092416,10.3241638 M20.3373371,11.4598741 C20.2105481,11.2518113 20.0411294,10.6561322 19.6467359,10.3822788 C18.1976012,9.37650494 16.7039115,8.42500829 15.1684172,7.55574991 C13.977811,6.88167033 12.6579405,6.43539071 12.3408305,4.83722724 C12.2874746,4.56721163 11.7748181,4.28595679 11.4255296,4.19439819 C10.2076954,3.87558788 8.92467892,4.56118082 8.39139513,5.73691378 C7.85673618,6.91456563 8.13864226,8.3334497 9.30229555,8.98559908 C12.1238316,10.5664925 14.9915727,12.072275 17.8975431,13.4928039 C19.0787983,14.0701164 20.3491634,13.0843538 20.3373371,11.4598741 M26.6404819,35.6412114 C27.8071605,37.6311031 29.1751614,39.7816336 30.3385396,42.0368807 C30.8201177,42.9705591 31.4108828,43.2819679 32.3473611,43.3200716 C36.0825478,43.4719383 39.122733,42.0135799 41.5548261,39.2780613 C43.7303159,36.8314731 43.6962122,35.3182892 41.68079,32.8130377 C40.3224152,31.124138 39.0292227,29.3834283 37.8562184,27.8595533 C34.0082692,30.5292813 30.2673068,33.1249948 26.6404819,35.6412114 M19.8431076,15.152646 C20.572488,16.8804718 20.2776555,18.3023713 18.7396859,19.4049122 C18.5823686,19.5178527 18.5072853,19.847354 18.5158113,20.0718645 C18.6324241,23.1673125 17.1106814,24.3858093 14.0608701,23.7013129 C13.6370484,23.6061907 12.9189442,23.7388684 12.6906691,24.0362967 C11.5644199,25.5017825 10.1394878,26.4968654 8.44145064,27.1693002 C6.79924461,27.8198048 5.63421617,28.961546 4.80637491,30.5344897 C4.02171341,32.0254693 3.16609408,33.4969859 2.17268457,34.8541913 C1.59237059,35.6464198 1.61684829,36.3125497 1.90122964,37.1231448 C3.29370815,41.0933338 7.87213788,43.6852095 12.5493035,43.1876681 C13.3490917,43.1024144 13.8141679,42.8060825 14.2544915,42.0993818 C15.6048904,39.9315813 17.1043557,37.8564359 18.4979343,35.7144035 C19.5100459,34.1584556 20.8620949,33.6861339 22.6335652,34.1505059 C23.9765383,34.5027598 25.2141747,34.2417904 26.4578618,33.5731934 C31.7197419,30.7455679 36.2632428,27.0308658 40.2784104,22.6486632 C40.6092719,22.2876373 41.0677474,21.7807755 41.0220924,21.3934333 C40.9236315,20.554603 40.7610886,19.4767336 40.1975515,19.0151029 C39.7355005,18.637081 38.6290536,18.9005176 37.8589687,19.0871984 C37.3677645,19.2058956 37.0082999,19.7988335 36.5162707,20.0003172 C36.129303,20.1584888 35.6298479,20.042807 35.1801734,20.0488378 C35.2797343,19.6083148 35.2398549,19.0386778 35.5066344,18.7533111 C36.1573561,18.056753 36.9750212,17.5186407 37.6788238,16.8667654 C38.5616711,16.0493172 38.6986362,14.8628932 37.9940086,14.0492827 C37.2321746,13.1698816 36.2987217,13.037478 35.2844099,13.6298676 C35.0478838,13.7680279 34.8388607,14.0438002 34.5993093,14.0657304 C34.1644864,14.105753 33.716462,14.0026811 33.2742132,13.9593689 C33.3883508,13.5624322 33.3861506,13.0528292 33.6405536,12.7915856 C34.24232,12.173154 34.9807764,11.689593 35.6369987,11.1202301 C36.5132453,10.3598004 36.7659982,9.42584789 36.0767722,8.4469385 C35.3938719,7.47734944 34.4230149,7.37071383 33.4040276,7.91458284 C32.6784976,8.30165091 32.0209001,8.8323618 31.2684171,9.14404479 C30.9018017,9.29591144 30.38777,9.09415358 29.9402957,9.0524862 C30.0932126,8.63334521 30.1253911,8.06836838 30.4226989,7.8235725 C31.158405,7.2180248 32.0547288,6.80984891 32.8146376,6.22842443 C33.8581026,5.42989095 34.0797771,3.98277174 33.4164039,2.90490231 C32.7051755,1.74918067 31.2917947,1.30838361 30.0659846,1.95696933 C29.1798369,2.42600153 28.3605216,3.02140651 27.5175536,3.56966156 C25.0395304,5.18070903 22.5645326,6.79641667 20.0625818,8.42747544 C22.7193747,11.0305904 22.6536424,13.1282142 19.8431076,15.152646 M26.1278254,2.48740609 C26.9842698,1.93366849 27.7590302,1.45092992 28.5148136,0.940504467 C30.1979991,-0.196302381 31.9284899,-0.375855911 33.6367032,0.807004362 C35.303662,1.9616295 35.7074065,3.6118772 35.2505811,5.52364257 C35.2206028,5.64837059 35.222253,5.78077418 35.2104267,5.89755251 C38.0789929,7.27339856 38.6887352,8.79919237 37.489878,11.6819174 C39.6606923,12.7353895 40.5735179,14.4083898 39.8218601,16.7963147 C42.9935097,18.0638803 44.0174476,21.4630617 41.054546,24.2630002 C40.3279159,24.9499638 39.666743,25.7057334 38.8842817,26.5253747 C40.6139474,28.714283 42.22535,30.9401985 44.0463258,32.9805296 C44.9671273,34.0123456 45.1761503,35.0241503 44.8653661,36.2270219 C43.6291048,41.0102731 40.1408952,43.3949085 35.6647768,44.6720686 C34.9695001,44.8705369 34.2208676,44.9034322 33.4925873,44.9637403 C31.1619804,45.1567261 29.3569564,44.6317719 28.4804348,42.0758068 C27.9738289,40.5988077 26.949066,39.2840921 26.0730944,37.9515582 C25.3725922,36.8862986 24.5505265,36.1332703 23.0972663,35.8185719 C21.1539021,35.397512 20.0931101,36.0502097 19.1610324,37.5587334 C17.9140449,39.5765862 16.617277,41.5651072 15.2886055,43.5306016 C14.9835969,43.9815414 14.503944,44.541858 14.032542,44.6197102 C9.4497118,45.375754 5.37348743,44.3883466 2.20871354,40.7980984 C1.52636331,40.0239623 1.00435577,39.075481 0.556881438,38.1371425 C-0.185150365,36.5811947 -0.319640191,35.1573763 0.990329222,33.6165055 C2.21338905,32.1778842 2.96119649,30.3442452 3.97440819,28.7194914 C4.3754024,28.0769365 4.92848837,27.5286814 5.41336682,26.9357436 C2.33687767,24.8518261 2.02471825,23.1379808 4.29701876,20.5565219 C2.91939188,18.4874074 3.10806268,16.5696112 5.10258256,14.9582896 C3.60916793,12.1377915 4.12925026,10.3729585 6.94143528,8.89897479 C6.84875006,8.59058132 6.7384629,8.26053178 6.65072823,7.92445143 C5.82783752,4.78157935 8.66229999,1.79523409 11.7992958,2.61679428 C12.7181721,2.85747825 13.4269253,2.76071124 14.2517412,2.4397079 C15.5705116,1.92654118 16.9654653,1.60224831 18.2699342,1.05920169 C21.2102833,-0.164229461 23.8956793,-0.150523085 26.1278254,2.48740609" id="Fill-1"></path>
            </g>
        </g>
    </g>
</svg>