<?xml version="1.0" encoding="UTF-8"?>
<svg width="47px" height="50px" viewBox="0 0 47 50" version="1.1" xmlns="http://www.w3.org/2000/svg" xmlns:xlink="http://www.w3.org/1999/xlink">
    <!-- Generator: Sketch 52.3 (67297) - http://www.bohemiancoding.com/sketch -->
    <title>categories-cheerleading icon</title>
    <desc>Created with Sketch.</desc>
    <defs>
        <linearGradient x1="50%" y1="0%" x2="50%" y2="100%" id="linearGradient-1">
            <stop stop-color="#F83C6D" offset="0%"></stop>
            <stop stop-color="#EF1C3B" offset="100%"></stop>
        </linearGradient>
    </defs>
    <g id="Page-1" stroke="none" stroke-width="1" fill="none" fill-rule="evenodd">
        <g id="Sport-1440---Design" transform="translate(-837.000000, -3012.000000)" fill="url(#linearGradient-1)">
            <g id="categories-cheerleading-icon" transform="translate(837.000000, 3012.000000)">
                <path d="M23.2466071,6.80955357 C21.9126786,6.80955357 20.8269643,7.89526786 20.8269643,9.22919643 C20.8269643,10.563125 21.9126786,11.6479464 23.2466071,11.6479464 C24.5805357,11.6479464 25.66625,10.563125 25.66625,9.22919643 C25.66625,7.89526786 24.5805357,6.80955357 23.2466071,6.80955357 Z M23.2466071,13.4336607 C20.9278571,13.4336607 19.04125,11.5479464 19.04125,9.22919643 C19.04125,6.91044643 20.9278571,5.02383929 23.2466071,5.02383929 C25.5653571,5.02383929 27.4519643,6.91044643 27.4519643,9.22919643 C27.4519643,11.5479464 25.5653571,13.4336607 23.2466071,13.4336607 Z M42.4883929,7.700625 L42.9651786,7.775625 L42.575,7.48991071 C42.2651786,7.26491071 42.0794643,6.900625 42.0794643,6.51669643 C42.0785714,6.131875 42.2633929,5.76758929 42.5741071,5.53991071 L42.9642857,5.25508929 L42.4866071,5.32919643 C42.1133929,5.388125 41.7196429,5.26223214 41.4473214,4.98991071 C41.175,4.71758929 41.0491071,4.32919643 41.1080357,3.94883929 L41.1830357,3.47205357 L40.8973214,3.86133929 C40.6714286,4.17205357 40.3080357,4.35776786 39.9241071,4.35776786 L39.9223214,4.35776786 C39.5383929,4.35776786 39.1741071,4.17294643 38.9473214,3.863125 L38.6625,3.47294643 L38.7366071,3.950625 C38.7955357,4.32919643 38.6696429,4.71758929 38.3973214,4.98991071 C38.125,5.26223214 37.7366071,5.38901786 37.35625,5.32919643 L36.8803571,5.25508929 L37.2696429,5.53901786 C37.58125,5.76758929 37.7660714,6.131875 37.7651786,6.51669643 C37.7651786,6.900625 37.5794643,7.26491071 37.2678571,7.49080357 L36.8794643,7.775625 L37.3580357,7.700625 C37.7303571,7.63991071 38.125,7.76758929 38.3973214,8.03991071 C38.6696429,8.31223214 38.7955357,8.700625 38.7366071,9.08098214 L38.6625,9.556875 L38.9464286,9.16758929 C39.1741071,8.856875 39.5383929,8.67205357 39.9223214,8.67205357 L39.9241071,8.67205357 C40.3080357,8.67205357 40.6723214,8.85776786 40.8982143,9.169375 L41.1830357,9.55776786 L41.1080357,9.07919643 C41.0491071,8.700625 41.175,8.31223214 41.4473214,8.03991071 C41.7196429,7.76758929 42.1080357,7.64080357 42.4883929,7.700625 Z M24.8446429,20.5408036 C24.8446429,18.688125 26.60625,16.5059821 28.6616071,14.5890179 C26.5517857,15.6372321 24.41875,16.4774107 22.9892857,16.4774107 C21.5321429,16.4774107 19.4428571,15.5916964 17.4098214,14.4979464 C18.7875,15.8613393 20.0285714,17.3961607 20.6321429,18.9390179 C21.0964286,20.1283036 21.0767857,21.3059821 20.5723214,22.4425893 C19.7758929,24.2399107 17.90625,25.5104464 16.5982143,26.2175893 C17.5401786,26.7675893 19.2035714,27.4729464 21.8714286,27.800625 C24.6991071,28.1479464 26.6232143,27.9470536 27.7303571,27.7211607 C26.6151786,26.2372321 24.8446429,23.4291964 24.8446429,20.5408036 Z M24.1276786,45.8863393 L25.3669643,29.756875 C25.16875,29.763125 24.9830357,29.7738393 24.7696429,29.7738393 C24.4785714,29.7738393 24.16875,29.7649107 23.85,29.7524107 L24.1276786,45.8863393 Z M5.41428571,32.0059821 L17.84375,28.7202679 C17.3080357,28.5354464 16.4401786,27.8863393 16.0357143,27.6908036 L5.41428571,32.0059821 Z M9.28035714,8.07383929 C9.52767857,7.78008929 9.91071429,7.62473214 10.2866071,7.64705357 L10.76875,7.681875 L10.35625,7.43008929 C10.0276786,7.231875 9.81160714,6.88455357 9.77857143,6.50241071 C9.74642857,6.12026786 9.89910714,5.74169643 10.1875,5.488125 L10.5526786,5.17026786 L10.0848214,5.28544643 C9.7125,5.375625 9.31428571,5.28366071 9.02053571,5.03544643 C8.72678571,4.78723214 8.56696429,4.41044643 8.59285714,4.02830357 L8.62678571,3.54705357 L8.37589286,3.96044643 C8.17589286,4.288125 7.82946429,4.50330357 7.44642857,4.53633929 C7.07767857,4.56044643 6.68482143,4.41491071 6.43303571,4.12473214 L6.11607143,3.76133929 L6.23125,4.23008929 C6.32142857,4.60241071 6.22857143,5.000625 5.98125,5.294375 C5.73303571,5.58901786 5.36339286,5.750625 4.97321429,5.72116071 L4.49196429,5.68723214 L4.90446429,5.938125 C5.23392857,6.138125 5.45,6.48633929 5.48214286,6.869375 C5.51339286,7.25330357 5.35892857,7.631875 5.06875,7.88366071 L4.70535714,8.19973214 L5.17589286,8.08455357 C5.26964286,8.06133929 5.36607143,8.050625 5.46071429,8.050625 C5.74285714,8.050625 6.02053571,8.14883929 6.24017857,8.33366071 C6.53303571,8.58098214 6.69285714,8.95776786 6.66696429,9.34080357 L6.63303571,9.82294643 L6.88392857,9.41044643 C7.08392857,9.081875 7.43035714,8.86669643 7.81428571,8.83366071 C8.18125,8.800625 8.575,8.95419643 8.82767857,9.244375 L9.14464286,9.60955357 L9.02946429,9.13901786 C8.93928571,8.76491071 9.03214286,8.36669643 9.28035714,8.07383929 Z M44.2669643,6.51491071 L45.9401786,7.73723214 C46.3910714,8.06580357 46.5580357,8.656875 46.34375,9.17294643 C46.1303571,9.69080357 45.5964286,9.99169643 45.0428571,9.90598214 L42.99375,9.58633929 L43.3133929,11.6354464 C43.3991071,12.1872321 43.0982143,12.7229464 42.58125,12.9363393 C42.0625,13.1524107 41.4741071,12.9836607 41.14375,12.531875 L39.9223214,10.8595536 L38.7,12.5327679 C38.4669643,12.8524107 38.1026786,13.0291964 37.7267857,13.0291964 C37.5705357,13.0291964 37.4125,12.9988393 37.2616071,12.9354464 C36.7446429,12.7211607 36.44375,12.1854464 36.5321429,11.6327679 L36.6151786,11.100625 C33.0821429,13.5140179 26.6303571,18.3345536 26.6303571,20.5408036 C26.6303571,23.9791964 29.8946429,27.5533036 29.9267857,27.5890179 L30.7401786,28.4702679 L29.6633929,28.9979464 C29.6053571,29.025625 28.7919643,29.4015179 27.16875,29.619375 L25.76875,47.819375 C25.6794643,48.6836607 24.975,49.3390179 24.1294643,49.3658036 C24.1098214,49.3666964 24.0910714,49.3675893 24.0714286,49.3675893 C23.6366071,49.3675893 23.2232143,49.2033036 22.9044643,48.9024107 C22.5714286,48.5872321 22.3821429,48.1622321 22.3723214,47.7050893 L22.0616071,29.6166964 C21.2767857,29.800625 1.96964286,34.6774107 1.96964286,34.6774107 C1.83839286,34.7184821 1.70089286,34.738125 1.56428571,34.738125 C0.952678571,34.738125 0.339285714,34.3416964 0.1,33.7033036 C-0.180357143,32.9524107 0.145535714,32.1104464 0.858928571,31.7452679 L1.00089286,31.6863393 L14.0830357,26.4274107 C13.9142857,26.2729464 13.4107143,25.6488393 13.4107143,25.6488393 L14.5741071,25.2024107 C14.6080357,25.1890179 17.9883929,23.8729464 18.9419643,21.7149107 C19.2482143,21.0229464 19.25625,20.3274107 18.9678571,19.5890179 C17.9375,16.950625 13.6276786,13.2649107 11.4580357,11.6916964 C11.4955357,12.1684821 11.2633929,12.6300893 10.8276786,12.8559821 C10.33125,13.1158036 9.72857143,12.9997321 9.36071429,12.5791964 L7.99910714,11.013125 L6.92321429,12.7845536 C6.7,13.1533036 6.30714286,13.3666964 5.89375,13.3666964 C5.77142857,13.3666964 5.64642857,13.3479464 5.525,13.3086607 C4.99196429,13.1390179 4.64732143,12.6300893 4.6875,12.0720536 L4.83035714,10.006875 L2.81696429,10.4988393 C2.26964286,10.6309821 1.71607143,10.3765179 1.45892857,9.881875 C1.20178571,9.38633929 1.31607143,8.78366071 1.73571429,8.41580357 L3.30089286,7.05330357 L1.53035714,5.97741071 C1.05267857,5.68901786 0.836607143,5.11401786 1.00535714,4.58008929 C1.175,4.04705357 1.67589286,3.70151786 2.24196429,3.74169643 L4.30803571,3.88544643 L3.81607143,1.87205357 C3.68303571,1.32830357 3.93660714,0.769375 4.43392857,0.512232143 C4.93125,0.255982143 5.53392857,0.371160714 5.9,0.792589286 L7.26071429,2.35598214 L8.33660714,0.584553571 C8.62678571,0.105982143 9.20357143,-0.108303571 9.73392857,0.0595535714 C10.2669643,0.229196429 10.6125,0.736339286 10.5741071,1.29348214 L10.4303571,3.363125 L12.44375,2.87026786 C12.9848214,2.73544643 13.5455357,2.99169643 13.8026786,3.488125 C14.0598214,3.98455357 13.9446429,4.588125 13.5232143,4.95419643 L11.9589286,6.31491071 L13.7303571,7.39080357 C14.2089286,7.681875 14.4232143,8.25776786 14.2544643,8.78991071 C14.1196429,9.213125 13.7598214,9.50419643 13.34375,9.59348214 C16.125,11.4336607 21.0392857,14.6916964 22.9892857,14.6916964 C24.9401786,14.6916964 30.9660714,11.506875 33.9473214,9.70508929 C33.75625,9.57473214 33.59375,9.39973214 33.5008929,9.17294643 C33.2866071,8.656875 33.4535714,8.06580357 33.9053571,7.73633929 L35.5776786,6.51491071 L33.9044643,5.29258929 C33.4526786,4.963125 33.2857143,4.37116071 33.5008929,3.85419643 C33.7160714,3.33723214 34.2464286,3.03455357 34.8044643,3.12473214 L36.8508929,3.44258929 L36.53125,1.394375 C36.44375,0.843482143 36.7446429,0.307767857 37.2616071,0.0925892857 C37.7803571,-0.122589286 38.3714286,0.0461607143 38.7008929,0.497946429 L39.9223214,2.17026786 L41.1446429,0.497053571 C41.4732143,0.0461607143 42.0625,-0.122589286 42.58125,0.0925892857 C43.0982143,0.305982143 43.3991071,0.840803571 43.3133929,1.394375 L42.99375,3.44258929 L45.0428571,3.12383929 C45.5875,3.04258929 46.1285714,3.33633929 46.3428571,3.85419643 C46.5589286,4.37116071 46.3919643,4.963125 45.9392857,5.29348214 L44.2669643,6.51491071 Z" id="Combined-Shape"></path>
            </g>
        </g>
    </g>
</svg>