<?xml version="1.0" encoding="UTF-8"?>
<svg width="54px" height="32px" viewBox="0 0 54 32" version="1.1" xmlns="http://www.w3.org/2000/svg" xmlns:xlink="http://www.w3.org/1999/xlink">
    <!-- Generator: Sketch 52.3 (67297) - http://www.bohemiancoding.com/sketch -->
    <title>categories-cycling icon</title>
    <desc>Created with Sketch.</desc>
    <g id="Page-1" stroke="none" stroke-width="1" fill="none" fill-rule="evenodd">
        <g id="Sport-1440---Design" transform="translate(-176.000000, -3019.000000)" fill="#EF1C3B">
            <g id="categories-cycling-icon" transform="translate(175.000000, 3019.000000)">
                <path d="M43.9375,29.625 C39.2855,29.625 35.4995,25.84 35.4995,21.187 C35.4995,18.275 36.9835,15.703 39.2345,14.187 L43.0405,21.94 C43.2135,22.295 43.5685,22.5 43.9385,22.5 C44.0855,22.5 44.2365,22.467 44.3775,22.397 C44.8745,22.154 45.0785,21.555 44.8345,21.06 L41.0175,13.282 C41.9285,12.944 42.9095,12.75 43.9375,12.75 C48.5895,12.75 52.3755,16.535 52.3755,21.187 C52.3755,25.84 48.5895,29.625 43.9375,29.625 Z M27.6025,19.305 L21.2715,7.75 L34.5445,7.75 L27.6025,19.305 Z M21.8305,20.312 C21.5675,17.167 19.9055,14.418 17.4675,12.684 L19.5065,8.691 L25.8745,20.312 L21.8305,20.312 Z M19.8295,20.312 L13.5715,20.312 L16.5465,14.488 C18.3465,15.864 19.5835,17.941 19.8295,20.312 Z M11.4375,29.625 C6.7855,29.625 2.9995,25.84 2.9995,21.187 C2.9995,16.535 6.7855,12.75 11.4375,12.75 C12.6415,12.75 13.7855,13.008 14.8225,13.464 L11.0465,20.857 C10.8885,21.168 10.9035,21.538 11.0845,21.835 C11.2665,22.132 11.5895,22.313 11.9375,22.313 L19.7915,22.313 C19.2385,26.434 15.7075,29.625 11.4375,29.625 Z M43.9375,10.75 C42.5935,10.75 41.3125,11.014 40.1325,11.479 L35.4795,2 L39.4375,2 C39.9905,2 40.4375,1.553 40.4375,1 C40.4375,0.447 39.9905,0 39.4375,0 L33.8745,0 C33.5295,0 33.2085,0.178 33.0265,0.471 C32.8435,0.765 32.8255,1.131 32.9775,1.44 L35.0925,5.75 L20.1755,5.75 L18.1895,2.125 L21.6255,2.125 C22.1775,2.125 22.6255,1.678 22.6255,1.125 C22.6255,0.572 22.1775,0.125 21.6255,0.125 L13.5005,0.125 C12.9475,0.125 12.5005,0.572 12.5005,1.125 C12.5005,1.678 12.9475,2.125 13.5005,2.125 L15.9085,2.125 L18.3435,6.57 L15.7315,11.685 C14.4195,11.09 12.9685,10.75 11.4375,10.75 C5.6825,10.75 0.9995,15.433 0.9995,21.187 C0.9995,26.942 5.6825,31.625 11.4375,31.625 C16.8125,31.625 21.2485,27.54 21.8115,22.313 L26.0835,22.313 C26.3775,22.867 26.9535,23.25 27.6255,23.25 C28.5915,23.25 29.3745,22.466 29.3745,21.5 C29.3745,21.183 29.2845,20.89 29.1365,20.634 L36.4365,8.486 L38.3505,12.386 C35.4395,14.241 33.4995,17.489 33.4995,21.187 C33.4995,26.942 38.1825,31.625 43.9375,31.625 C49.6925,31.625 54.3755,26.942 54.3755,21.187 C54.3755,15.433 49.6925,10.75 43.9375,10.75 Z" id="Fill-1"></path>
            </g>
        </g>
    </g>
</svg>