<?xml version="1.0" encoding="UTF-8"?>
<svg width="49px" height="30px" viewBox="0 0 49 30" version="1.1" xmlns="http://www.w3.org/2000/svg" xmlns:xlink="http://www.w3.org/1999/xlink">
    <!-- Generator: Sketch 52.3 (67297) - http://www.bohemiancoding.com/sketch -->
    <title>categories-swimming icon</title>
    <desc>Created with Sketch.</desc>
    <g id="Page-1" stroke="none" stroke-width="1" fill="none" fill-rule="evenodd">
        <g id="Sport-1440---Design" transform="translate(-1167.000000, -3020.000000)">
            <g id="categories-swimming-icon" transform="translate(1167.000000, 3020.000000)">
                <g id="Group-6" transform="translate(0.000000, 19.339800)"></g>
                <path d="M24.3604,14.5371 L18.7334,20.2461 C19.8834,19.7291 21.0384,19.1321 22.2174,18.5201 C25.3224,16.9111 28.7734,15.1471 32.8164,14.5351 L19.8724,2.5041 C19.2724,1.9481 18.3424,1.9551 17.7554,2.5241 L8.9544,11.0311 C8.6244,11.3501 8.4434,11.7791 8.4444,12.2381 C8.4464,12.6961 8.6304,13.1241 8.9624,13.4401 C9.6234,14.0701 10.6454,14.0591 11.2914,13.4181 L17.1894,7.5581 C18.2144,6.5441 19.8344,6.5231 20.8814,7.5161 L24.2964,10.7531 C24.8174,11.2461 25.1104,11.9131 25.1234,12.6311 C25.1354,13.3491 24.8644,14.0251 24.3604,14.5371 Z M23.1384,20.2961 C19.6224,22.1211 16.2994,23.8441 12.5074,23.8441 C4.6644,23.8441 0.1874,19.8891 0.000400000002,19.7211 L0.6704,18.9771 L1.3384,18.2331 C1.3784,18.2691 5.4694,21.8441 12.5074,21.8441 C13.1994,21.8441 13.8814,21.7591 14.5604,21.6321 L22.9364,13.1331 C23.0594,13.0081 23.1264,12.8411 23.1234,12.6651 C23.1204,12.4891 23.0484,12.3251 22.9214,12.2041 L19.5064,8.9671 C19.2474,8.7241 18.8494,8.7281 18.5984,8.9781 L12.7014,14.8371 C11.2784,16.2481 9.0304,16.2711 7.5824,14.8871 C6.8524,14.1921 6.4484,13.2541 6.4444,12.2451 C6.4414,11.2361 6.8384,10.2951 7.5634,9.5941 L16.3644,1.0871 C17.7174,-0.2209 19.8564,-0.2409 21.2334,1.0391 L35.5064,14.3041 C35.5724,14.3031 35.6344,14.2941 35.7014,14.2941 C45.5764,14.2941 48.0764,17.8621 48.3294,18.2691 L46.6304,19.3241 C46.6204,19.3111 44.4644,16.2941 35.7014,16.2941 C30.8544,16.2941 26.9324,18.3291 23.1384,20.2961 Z M35.7012,19.79 C45.5762,19.79 48.0762,23.358 48.3292,23.766 L46.6302,24.82 C46.6202,24.808 44.4652,21.79 35.7012,21.79 C30.8542,21.79 26.9322,23.825 23.1382,25.792 C19.6222,27.617 16.3002,29.34 12.5082,29.34 C4.6642,29.34 0.1872,25.386 0.000200000001,25.218 L0.6702,24.475 L1.3372,23.729 C1.3782,23.766 5.4702,27.34 12.5082,27.34 C15.8112,27.34 18.9242,25.726 22.2182,24.017 C26.0382,22.036 30.3672,19.79 35.7012,19.79 Z M36.2764,2 C34.3304,2 32.7474,3.584 32.7474,5.53 C32.7474,7.477 34.3304,9.06 36.2764,9.06 C38.2224,9.06 39.8064,7.477 39.8064,5.53 C39.8064,3.584 38.2224,2 36.2764,2 Z M36.2764,11.06 C33.2274,11.06 30.7474,8.579 30.7474,5.53 C30.7474,2.48 33.2274,-1.16351373e-12 36.2764,-1.16351373e-12 C39.3264,-1.16351373e-12 41.8064,2.48 41.8064,5.53 C41.8064,8.579 39.3264,11.06 36.2764,11.06 Z" id="Combined-Shape" fill="#EF1C3B"></path>
            </g>
        </g>
    </g>
</svg>