<?xml version="1.0" encoding="UTF-8"?>
<svg width="40px" height="40px" viewBox="0 0 40 40" version="1.1" xmlns="http://www.w3.org/2000/svg" xmlns:xlink="http://www.w3.org/1999/xlink">
    <!-- Generator: Sketch 52.3 (67297) - http://www.bohemiancoding.com/sketch -->
    <title>categories-tennis icon</title>
    <desc>Created with Sketch.</desc>
    <g id="Page-1" stroke="none" stroke-width="1" fill="none" fill-rule="evenodd">
        <g id="Sport-1440---Design" transform="translate(-511.000000, -3015.000000)" fill="#EF1C3B">
            <path d="M535.534364,3043.68309 C537.977091,3043.89673 539.936182,3045.81491 540.212545,3048.23945 C537.768909,3048.02491 535.810727,3046.10764 535.534364,3043.68309 Z M541.209818,3037.95764 C543.607091,3038.20945 545.518909,3040.10855 545.795273,3042.49764 C543.398,3042.24582 541.487091,3040.34764 541.209818,3037.95764 Z M545.656182,3044.41491 C545.613455,3044.57582 545.563455,3044.73309 545.506182,3044.88673 C545.489818,3044.93218 545.474364,3044.97764 545.457091,3045.02218 C545.378,3045.21764 545.288909,3045.40764 545.187091,3045.59127 C545.178909,3045.60673 545.168,3045.62127 545.158909,3045.63764 C545.064364,3045.804 544.959818,3045.964 544.847091,3046.11855 C544.819818,3046.15582 544.792545,3046.19309 544.764364,3046.23036 C544.648909,3046.37945 544.527091,3046.524 544.397091,3046.66036 C544.383455,3046.67491 544.370727,3046.69036 544.357091,3046.704 C544.208,3046.85673 544.049818,3046.99855 543.882545,3047.13218 C543.858,3047.15127 543.831636,3047.16945 543.807091,3047.18855 C543.664364,3047.29855 543.515273,3047.40036 543.360727,3047.49582 C543.323455,3047.51855 543.286182,3047.54218 543.248,3047.564 C542.884364,3047.77582 542.492545,3047.94309 542.079818,3048.06127 C542.061636,3048.06582 542.043455,3048.07036 542.025273,3048.07491 C541.669818,3044.76309 538.989818,3042.13673 535.652545,3041.86491 C535.662545,3041.82582 535.672545,3041.78673 535.683455,3041.74764 C535.721636,3041.604 535.767091,3041.46309 535.818,3041.32491 C535.841636,3041.26036 535.862545,3041.19491 535.888909,3041.13127 C535.961636,3040.954 536.044364,3040.78036 536.136182,3040.614 C536.174364,3040.544 536.218,3040.47764 536.259818,3040.41036 C536.323455,3040.30582 536.389818,3040.20309 536.460727,3040.104 C536.514364,3040.02855 536.568909,3039.95491 536.626182,3039.88309 C536.702545,3039.78673 536.783455,3039.69582 536.866182,3039.60582 C536.948,3039.51673 537.031636,3039.43036 537.119818,3039.34764 C537.220727,3039.25127 537.324364,3039.15855 537.432545,3039.07127 C537.503455,3039.01491 537.576182,3038.96218 537.649818,3038.90855 C537.747091,3038.83855 537.847091,3038.77127 537.949818,3038.70764 C538.019818,3038.66491 538.088909,3038.62036 538.159818,3038.58036 C538.328,3038.48673 538.501636,3038.40127 538.680727,3038.32673 C538.731636,3038.30491 538.785273,3038.28855 538.837091,3038.26945 C538.986182,3038.21218 539.138909,3038.16218 539.295273,3038.11855 C539.327091,3038.11036 539.359818,3038.10218 539.392545,3038.094 C539.738909,3041.38582 542.379818,3044.004 545.681636,3044.31491 C545.673455,3044.34855 545.664364,3044.38127 545.656182,3044.41491 Z M526.291636,3039.62764 C521.960727,3035.29673 522.946182,3027.26218 528.489818,3021.71764 C531.202545,3019.00582 534.581636,3017.29582 538.003455,3016.90309 C541.348,3016.52218 544.329818,3017.45036 546.399818,3019.51945 C548.469818,3021.58945 549.398,3024.57127 549.016182,3027.91491 C548.634364,3031.24673 546.996182,3034.53218 544.407091,3037.20673 C543.475273,3036.61218 542.396182,3036.23309 541.235273,3036.13945 L541.239818,3036.05945 L540.215273,3036.12582 C540.171636,3036.12855 540.129818,3036.13582 540.087091,3036.13945 C539.977091,3036.14855 539.868909,3036.16218 539.760727,3036.17582 C539.640727,3036.19127 539.522545,3036.20855 539.405273,3036.23036 C539.305273,3036.24855 539.206182,3036.26945 539.108,3036.29218 C538.981636,3036.32036 538.857091,3036.35309 538.733455,3036.38855 C538.648909,3036.41309 538.564364,3036.43764 538.481636,3036.46491 C538.343455,3036.51036 538.208909,3036.56127 538.075273,3036.614 C538.008909,3036.64036 537.943455,3036.66582 537.878,3036.69491 C537.725273,3036.76127 537.577091,3036.834 537.429818,3036.91127 C537.387091,3036.93309 537.344364,3036.954 537.302545,3036.97764 C537.129818,3037.07218 536.961636,3037.17491 536.798909,3037.28309 C536.783455,3037.29309 536.768,3037.30218 536.753455,3037.31218 C535.829818,3037.93764 535.065273,3038.77582 534.530727,3039.75945 C534.520727,3039.77673 534.512545,3039.79491 534.503455,3039.81218 C534.411636,3039.98491 534.326182,3040.16036 534.248909,3040.34036 C534.226182,3040.39218 534.208,3040.44491 534.187091,3040.49764 C534.127091,3040.64582 534.070727,3040.79491 534.021636,3040.94764 C533.997091,3041.02218 533.977091,3041.09855 533.955273,3041.17491 C533.917091,3041.30855 533.880727,3041.44309 533.850727,3041.58036 C533.830727,3041.67127 533.813455,3041.76309 533.797091,3041.85491 C533.774364,3041.98218 533.754364,3042.10945 533.738909,3042.23764 C533.735273,3042.26218 533.729818,3042.28582 533.727091,3042.30945 C530.781636,3042.41855 528.145273,3041.48127 526.291636,3039.62764 Z M524.228909,3043.79582 L522.103455,3041.67036 C522.655273,3040.71855 523.019818,3039.61945 523.258909,3038.57491 C523.729818,3039.41945 524.303455,3040.21036 525.006182,3040.91309 C525.691636,3041.59855 526.469818,3042.16945 527.309818,3042.64309 C526.268909,3042.88218 525.176182,3043.24673 524.228909,3043.79582 Z M515.448909,3052.32764 L513.570727,3050.45036 L520.942545,3043.07945 L522.818909,3044.95673 L515.448909,3052.32764 Z M550.822545,3028.12218 C551.268909,3024.21582 550.155273,3020.704 547.685273,3018.234 C545.215273,3015.76309 541.702545,3014.64855 537.797091,3015.09764 C533.968,3015.53582 530.206182,3017.43036 527.204364,3020.43218 C523.051636,3024.58491 521.238,3030.02855 521.954364,3034.69582 L521.907091,3034.69582 C521.907091,3034.73855 521.886182,3038.96127 520.240727,3041.20945 L510.999818,3050.45036 L515.448909,3054.89855 L524.688909,3045.65855 C526.929818,3044.01855 531.159818,3043.99127 531.203455,3043.99127 L531.203455,3043.97764 C531.868,3044.08218 532.549818,3044.14491 533.250727,3044.14491 C533.420727,3044.14491 533.593455,3044.13673 533.765273,3044.13036 C534.245273,3047.33582 536.904364,3049.83127 540.185273,3050.05582 L540.180727,3050.13945 L541.218909,3050.05764 C541.241636,3050.05582 541.262545,3050.05127 541.285273,3050.04945 C541.403455,3050.03855 541.519818,3050.02127 541.637091,3050.00491 C541.742545,3049.99036 541.848909,3049.97582 541.953455,3049.95673 C542.068,3049.93491 542.180727,3049.90855 542.294364,3049.88127 C542.396182,3049.85673 542.498,3049.83127 542.598909,3049.80309 C542.710727,3049.77036 542.819818,3049.734 542.929818,3049.69673 C543.026182,3049.66309 543.122545,3049.62855 543.217091,3049.59127 C543.326182,3049.54855 543.433455,3049.50309 543.539818,3049.45491 C543.629818,3049.414 543.718909,3049.37036 543.807091,3049.32582 C543.912545,3049.27218 544.017091,3049.21764 544.119818,3049.15945 C544.202545,3049.11127 544.283455,3049.06127 544.364364,3049.01036 C544.466182,3048.94582 544.568,3048.88218 544.666182,3048.81309 C544.740727,3048.76036 544.813455,3048.704 544.886182,3048.64855 C544.984364,3048.57309 545.083455,3048.49945 545.177091,3048.41855 C545.241636,3048.364 545.301636,3048.30582 545.364364,3048.24945 C545.460727,3048.16127 545.558,3048.07491 545.648909,3047.98127 C545.698909,3047.93127 545.744364,3047.87582 545.792545,3047.824 C546.116182,3047.47309 546.404364,3047.08945 546.651636,3046.67764 C546.693455,3046.60764 546.738909,3046.54036 546.778909,3046.46855 C546.835273,3046.36673 546.883455,3046.26127 546.935273,3046.15673 C546.979818,3046.06491 547.026182,3045.97582 547.067091,3045.88218 C547.110727,3045.78309 547.148,3045.68036 547.187091,3045.57855 C547.227091,3045.47491 547.267091,3045.37036 547.302545,3045.264 C547.334364,3045.16582 547.361636,3045.06582 547.388909,3044.96582 C547.421636,3044.85127 547.452545,3044.73673 547.478909,3044.61945 C547.500727,3044.52127 547.518909,3044.42218 547.536182,3044.32309 C547.558909,3044.19945 547.578,3044.07582 547.593455,3043.95036 C547.605273,3043.85309 547.615273,3043.75491 547.622545,3043.65673 C547.628,3043.594 547.638,3043.53309 547.641636,3043.47036 L547.694364,3042.45309 L547.618909,3042.45764 C547.476182,3040.88855 546.809818,3039.47309 545.799818,3038.37582 C548.614364,3035.43127 550.399818,3031.81127 550.822545,3028.12218 Z" id="categories-tennis-icon"></path>
        </g>
    </g>
</svg>