<?xml version="1.0" encoding="UTF-8"?>
<svg width="17px" height="17px" viewBox="0 0 17 17" version="1.1" xmlns="http://www.w3.org/2000/svg" xmlns:xlink="http://www.w3.org/1999/xlink">
    <!-- Generator: Sketch 52.3 (67297) - http://www.bohemiancoding.com/sketch -->
    <title>checkbox </title>
    <desc>Created with Sketch.</desc>
    <g id="Page-1" stroke="none" stroke-width="1" fill="none" fill-rule="evenodd">
        <g id="Apply-form-1-1440" transform="translate(-634.000000, -1864.000000)" fill="#02BDF3" fill-rule="nonzero">
            <g id="Group-2" transform="translate(634.000000, 1833.000000)">
                <path d="M3.3,32 C2.02974508,32 1,33.0297451 1,34.3 L1,44.7 C1,45.9702549 2.02974508,47 3.3,47 L13.7,47 C14.9702549,47 16,45.9702549 16,44.7 L16,34.3 C16,33.0297451 14.9702549,32 13.7,32 L3.3,32 Z M3.3,31 L13.7,31 C15.5225397,31 17,32.4774603 17,34.3 L17,44.7 C17,46.5225397 15.5225397,48 13.7,48 L3.3,48 C1.47746033,48 2.23196738e-16,46.5225397 0,44.7 L0,34.3 C-2.23196738e-16,32.4774603 1.47746033,31 3.3,31 Z" id="checkbox-"></path>
            </g>
        </g>
    </g>
</svg>