<?xml version="1.0" encoding="UTF-8"?>
<svg width="32px" height="31px" viewBox="0 0 32 31" version="1.1" xmlns="http://www.w3.org/2000/svg" xmlns:xlink="http://www.w3.org/1999/xlink">
    <!-- Generator: Sketch 52.3 (67297) - http://www.bohemiancoding.com/sketch -->
    <title>complete icon blue</title>
    <desc>Created with Sketch.</desc>
    <g id="Page-1" stroke="none" stroke-width="1" fill="none" fill-rule="evenodd">
        <g id="Apply-form-1-1440" transform="translate(-1188.000000, -1411.000000)" fill="#FFFFFF" fill-rule="nonzero">
            <g id="complete-icon-blue" transform="translate(1189.000000, 1412.000000)">
                <path d="M14.5,29.5 C6.21572875,29.5 -0.5,22.7842712 -0.5,14.5 C-0.5,6.21572875 6.21572875,-0.5 14.5,-0.5 C20.077633,-0.5 25.1136296,2.57114794 27.7125221,7.39270651 C28.8800465,9.55873973 29.5,11.985161 29.5,14.5 C29.5,22.7842712 22.7842712,29.5 14.5,29.5 Z M14.5,28.5 C22.2319865,28.5 28.5,22.2319865 28.5,14.5 C28.5,12.1518258 27.9216667,9.88830065 26.8322544,7.867184 C24.4061542,3.36619586 19.7062332,0.5 14.5,0.5 C6.7680135,0.5 0.5,6.7680135 0.5,14.5 C0.5,22.2319865 6.7680135,28.5 14.5,28.5 Z" id="Oval"></path>
                <path d="M14.7145511,18.2521833 L29.6281947,1.6656935 L30.3718053,2.3343065 L15.0863564,19.3343065 C14.8877133,19.5552312 14.5413889,19.5552312 14.3427458,19.3343065 L5.62819472,9.64225433 L6.37180528,8.97364132 L14.7145511,18.2521833 Z" id="Stroke-6"></path>
            </g>
        </g>
    </g>
</svg>