<?xml version="1.0" encoding="UTF-8"?>
<svg width="38px" height="26px" viewBox="0 0 38 26" version="1.1" xmlns="http://www.w3.org/2000/svg" xmlns:xlink="http://www.w3.org/1999/xlink">
    <!-- Generator: Sketch 52.3 (67297) - http://www.bohemiancoding.com/sketch -->
    <title>development icon blue</title>
    <desc>Created with Sketch.</desc>
    <g id="Page-1" stroke="none" stroke-width="1" fill="none" fill-rule="evenodd">
        <g id="Apply-form-1-1440" transform="translate(-958.000000, -1416.000000)" fill="#0497F4" fill-rule="nonzero">
            <g id="development-icon-blue" transform="translate(958.000000, 1416.000000)">
                <path d="M2.805,1 C1.80812603,1 1,1.80812603 1,2.805 L1,23.1632267 C1,24.1601007 1.80812603,24.9682267 2.805,24.9682267 L35.028187,24.9682267 C36.025061,24.9682267 36.833187,24.1601007 36.833187,23.1632267 L36.833187,2.805 C36.833187,1.80812603 36.025061,1 35.028187,1 L2.805,1 Z M2.805,0 L35.028187,4.4408921e-16 C36.5773457,1.59513369e-16 37.833187,1.25584128 37.833187,2.805 L37.833187,23.1632267 C37.833187,24.7123854 36.5773457,25.9682267 35.028187,25.9682267 L2.805,25.9682267 C1.25584128,25.9682267 -2.54371983e-16,24.7123854 -4.4408921e-16,23.1632267 L4.4408921e-16,2.805 C2.54371983e-16,1.25584128 1.25584128,2.84575841e-16 2.805,0 Z" id="Rectangle"></path>
                <path d="M13.4946562,7.45770706 C13.731404,7.31556256 14.038557,7.39225374 14.1807015,7.62900161 C14.322846,7.86574948 14.2461548,8.17290243 14.0094069,8.31504693 L7.28771876,12.3507791 C6.99320442,12.5276069 6.89780058,12.9097051 7.07462834,13.2042195 C7.12591857,13.2896456 7.19698121,13.3614994 7.28183422,13.4137323 L14.0141373,17.5579309 C14.2492968,17.7026879 14.3225826,18.0106712 14.1778256,18.2458307 C14.0330686,18.4809903 13.7250854,18.5542761 13.4899258,18.4095191 L6.75762276,14.2653205 C6.53635013,14.1291118 6.35103888,13.9417374 6.21728847,13.7189703 C5.75617172,12.9509602 6.00495792,11.954556 6.772968,11.4934392 L13.4946562,7.45770706 Z" id="Path-25"></path>
                <path d="M31.9270024,7.45770706 C32.1637502,7.31556256 32.4709032,7.39225374 32.6130477,7.62900161 C32.7551922,7.86574948 32.678501,8.17290243 32.4417531,8.31504693 L25.720065,12.3507791 C25.4255506,12.5276069 25.3301468,12.9097051 25.5069745,13.2042195 C25.5582648,13.2896456 25.6293274,13.3614994 25.7141804,13.4137323 L32.4464835,17.5579309 C32.681643,17.7026879 32.7549288,18.0106712 32.6101718,18.2458307 C32.4654148,18.4809903 32.1574316,18.5542761 31.922272,18.4095191 L25.189969,14.2653205 C24.9686963,14.1291118 24.7833851,13.9417374 24.6496347,13.7189703 C24.1885179,12.9509602 24.4373041,11.954556 25.2053142,11.4934392 L31.9270024,7.45770706 Z" id="Path-25-Copy" transform="translate(28.551224, 12.935048) scale(-1, 1) translate(-28.551224, -12.935048) "></path>
                <path d="M21.027944,5.29328061 C21.113993,5.03088743 21.3964612,4.88793221 21.6588544,4.9739812 C21.9212476,5.06003019 22.0642028,5.34249838 21.9781538,5.60489157 L17.0682724,20.5768214 C16.9822234,20.8392146 16.6997552,20.9821698 16.437362,20.8961208 C16.1749688,20.8100718 16.0320136,20.5276036 16.1180626,20.2652104 L21.027944,5.29328061 Z" id="Line-8"></path>
            </g>
        </g>
    </g>
</svg>