<?xml version="1.0" encoding="UTF-8"?>
<svg width="30px" height="30px" viewBox="0 0 30 30" version="1.1" xmlns="http://www.w3.org/2000/svg" xmlns:xlink="http://www.w3.org/1999/xlink">
    <!-- Generator: Sketch 52.3 (67297) - http://www.bohemiancoding.com/sketch -->
    <title>footer-github icon</title>
    <desc>Created with Sketch.</desc>
    <g id="Page-1" stroke="none" stroke-width="1" fill="none" fill-rule="evenodd">
        <g id="Index---V1" transform="translate(-320.000000, -4760.000000)" fill="#FFFFFF">
            <g id="social-media" transform="translate(150.000000, 4760.000000)">
                <path d="M197.958907,7.48790433 C196.618952,5.19205011 194.80139,3.37441913 192.50574,2.03460137 C190.209749,0.694715262 187.703212,0.0249430524 184.984351,0.0249430524 C182.265831,0.0249430524 179.758474,0.694920273 177.462961,2.03460137 C175.167107,3.3743508 173.349613,5.19205011 172.009658,7.48790433 C170.669909,9.78369021 170,12.2907062 170,15.0088838 C170,18.2740319 170.95262,21.2101367 172.858337,23.8179499 C174.76385,26.4259681 177.22549,28.230615 180.243052,29.2320957 C180.594305,29.2972893 180.854328,29.2514351 181.023394,29.0956948 C181.192528,28.9397494 181.276993,28.7444419 181.276993,28.5105923 C181.276993,28.4715718 181.273645,28.1205239 181.267153,27.4570387 C181.260456,26.7935535 181.257312,26.214738 181.257312,25.7208656 L180.808542,25.7984966 C180.522415,25.8509112 180.161458,25.8731207 179.725672,25.8668337 C179.290091,25.8607517 178.837904,25.8151025 178.369727,25.7302278 C177.901344,25.6461048 177.465695,25.4510023 177.062437,25.1453303 C176.659385,24.8396583 176.373257,24.4395444 176.204123,23.9456036 L176.009021,23.4966287 C175.878975,23.1977221 175.674237,22.865672 175.394533,22.5017084 C175.114829,22.1374032 174.831982,21.8904328 174.545854,21.7603872 L174.409248,21.6625968 C174.318223,21.5976082 174.233759,21.5192255 174.155649,21.4282688 C174.077608,21.3373121 174.01918,21.246287 173.980159,21.1551253 C173.941071,21.0638952 173.973462,20.9890661 174.077677,20.9303645 C174.181891,20.8716629 174.370228,20.8431663 174.643508,20.8431663 L175.033576,20.9014579 C175.293736,20.9535991 175.615535,21.1093394 175.999385,21.3696355 C176.38303,21.6297267 176.698405,21.9678588 176.945581,22.3838952 C177.244897,22.9173349 177.605513,23.3238041 178.028451,23.603508 C178.451048,23.8832118 178.87713,24.0228246 179.306287,24.0228246 C179.735444,24.0228246 180.106105,23.9902961 180.418405,23.9255809 C180.730364,23.8605239 181.023052,23.7627335 181.296333,23.6327563 C181.413394,22.7609112 181.732118,22.091139 182.252232,21.6229613 C181.510911,21.5450569 180.844419,21.4277221 180.252415,21.2717084 C179.660752,21.1154897 179.049339,20.861959 178.418588,20.5104328 C177.787494,20.159385 177.263964,19.7234624 176.847859,19.2034169 C176.431686,18.6830979 176.090137,18 175.82369,17.154738 C175.557107,16.3091344 175.423781,15.3336902 175.423781,14.2281321 C175.423781,12.6539863 175.937677,11.3144419 176.965262,10.2087472 C176.483895,9.02528474 176.529339,7.6985877 177.101731,6.22879271 C177.478952,6.11159453 178.03836,6.19954442 178.779681,6.49209567 C179.521139,6.7847836 180.064009,7.03551253 180.408838,7.24339408 C180.753667,7.45120729 181.029954,7.62731207 181.238109,7.77013667 C182.448018,7.43207289 183.696606,7.26300683 184.984214,7.26300683 C186.271822,7.26300683 187.520683,7.43207289 188.730661,7.77013667 L189.47205,7.30209567 C189.979043,6.98979499 190.577745,6.70359909 191.26672,6.44343964 C191.956105,6.18341686 192.483257,6.11179954 192.847631,6.22899772 C193.432733,7.69886105 193.484875,9.02548975 193.003371,10.2089522 C194.030888,11.3146469 194.544989,12.654533 194.544989,14.2283371 C194.544989,15.3338952 194.411185,16.3124146 194.145011,17.1645103 C193.878497,18.0167426 193.534009,18.6991572 193.111412,19.2131891 C192.688337,19.7271526 192.161458,20.1596583 191.530706,20.5106378 C190.899818,20.8618907 190.2882,21.1154214 189.696538,21.2716401 C189.104601,21.4278588 188.438109,21.545262 187.696788,21.623303 C188.372916,22.2084055 188.711048,23.1319818 188.711048,24.3936219 L188.711048,28.5100456 C188.711048,28.7438952 188.792369,28.9391344 188.955148,29.0951481 C189.117722,29.2508884 189.374465,29.2967426 189.725718,29.2314806 C192.74369,28.2301367 195.20533,26.4254214 197.110774,23.8174032 C199.016014,21.20959 199.968975,18.2734852 199.968975,15.0083371 C199.968292,12.2905011 199.298041,9.78369021 197.958907,7.48790433 Z" id="footer-github-icon"></path>
            </g>
        </g>
    </g>
</svg>