<?xml version="1.0" encoding="UTF-8"?>
<svg width="20px" height="20px" viewBox="0 0 20 20" version="1.1" xmlns="http://www.w3.org/2000/svg" xmlns:xlink="http://www.w3.org/1999/xlink">
    <!-- Generator: Sketch 52.3 (67297) - http://www.bohemiancoding.com/sketch -->
    <title>footer-email icon</title>
    <desc>Created with Sketch.</desc>
    <g id="Page-1" stroke="none" stroke-width="1" fill="none" fill-rule="evenodd">
        <g id="Index---V1" transform="translate(-1140.000000, -4695.000000)" fill="#FFFFFF" fill-rule="nonzero">
            <path d="M1149.99983,4695 C1144.47714,4695 1140,4699.47724 1140,4704.9999 C1140,4710.52242 1144.47714,4715 1149.99983,4715 C1155.52253,4715 1160,4710.52242 1160,4704.9999 C1160,4699.47724 1155.52253,4695 1149.99983,4695 Z M1150.00003,4698.51244 L1155.91767,4702.20247 L1144.0824,4702.20247 L1150.00003,4698.51244 Z M1155.9914,4708.095 L1155.9908,4708.095 C1155.9908,4708.68687 1155.51113,4709.16647 1154.91932,4709.16647 L1145.08075,4709.16647 C1144.48887,4709.16647 1144.00927,4708.6868 1144.00927,4708.095 L1144.00927,4702.43727 C1144.00927,4702.37467 1144.01567,4702.31381 1144.02607,4702.25401 L1149.68003,4705.77957 C1149.68696,4705.78391 1149.69436,4705.78684 1149.7015,4705.79084 C1149.70896,4705.79497 1149.71656,4705.79897 1149.72416,4705.80277 C1149.7641,4705.82337 1149.80523,4705.83998 1149.8473,4705.85084 C1149.85163,4705.85204 1149.85596,4705.85258 1149.8603,4705.85358 C1149.90643,4705.86444 1149.95317,4705.87124 1149.99983,4705.87124 L1150.00017,4705.87124 C1150.0005,4705.87124 1150.00083,4705.87124 1150.00083,4705.87124 C1150.0475,4705.87124 1150.09423,4705.86464 1150.14037,4705.85358 C1150.1447,4705.85251 1150.14904,4705.85204 1150.15337,4705.85084 C1150.19537,4705.83998 1150.23637,4705.82337 1150.2765,4705.80277 C1150.2841,4705.79897 1150.2917,4705.79497 1150.29917,4705.79084 C1150.30624,4705.78684 1150.31371,4705.78391 1150.32064,4705.77957 L1155.9746,4702.25401 C1155.985,4702.31381 1155.9914,4702.37454 1155.9914,4702.43727 L1155.9914,4708.095 Z" id="footer-email-icon"></path>
        </g>
    </g>
</svg>