<?xml version="1.0" encoding="UTF-8"?>
<svg width="30px" height="30px" viewBox="0 0 30 30" version="1.1" xmlns="http://www.w3.org/2000/svg" xmlns:xlink="http://www.w3.org/1999/xlink">
    <!-- Generator: Sketch 52.3 (67297) - http://www.bohemiancoding.com/sketch -->
    <title>footer - facebook icon</title>
    <desc>Created with Sketch.</desc>
    <g id="Page-1" stroke="none" stroke-width="1" fill="none" fill-rule="evenodd">
        <g id="Index---V1" transform="translate(-150.000000, -4760.000000)" fill="#FFFFFF" fill-rule="nonzero">
            <g id="social-media" transform="translate(150.000000, 4760.000000)">
                <g id="footer---facebook-icon">
                    <path d="M15,0 C6.71570332,0 0,6.71570332 0,15 C0,23.2842967 6.71570332,30 15,30 C23.2842967,30 30,23.2842967 30,15 C30,6.71570332 23.2842967,0 15,0 Z M20.5711298,7.98520741 L18.5512946,7.98613841 C16.9673972,7.98613841 16.6611352,8.76787007 16.6611352,9.914865 L16.6611352,12.4440881 L20.4381673,12.4440881 L20.4363745,16.4055033 L16.661434,16.4055033 L16.661434,26.5714286 L12.7218589,26.5714286 L12.7218589,16.4055033 L9.42857143,16.4055033 L9.42857143,12.4440881 L12.7218589,12.4440881 L12.7218589,9.52260267 C12.7218589,6.13220234 14.7162968,4.28571429 17.6280267,4.28571429 L20.5714286,4.2903693 L20.5714286,7.98520741 L20.5711298,7.98520741 Z" id="Shape"></path>
                </g>
            </g>
        </g>
    </g>
</svg>