<svg xmlns="http://www.w3.org/2000/svg" xmlns:xlink="http://www.w3.org/1999/xlink" width="509" height="368" viewBox="0 0 509 368">
    <defs>
        <path id="b" d="M21 29.575C21 24.912 24.911 21 29.575 21S38 24.912 38 29.575A8.41 8.41 0 0 1 29.575 38C24.911 38 21 34.239 21 29.575zm30.787-5.901c-.555-2.034-1.295-4.069-2.405-5.919l3.145-4.438c.74-.925.555-2.035-.185-2.775l-3.884-3.884c-.74-.74-1.85-.74-2.775-.185l-4.438 3.145c-1.85-.925-3.885-1.85-5.919-2.405l-.925-5.363C34.216.74 33.291 0 32.181 0h-5.363c-1.11 0-1.85.74-2.034 1.85l-.925 5.363c-2.22.555-4.254 1.48-6.104 2.59l-4.623-3.145a1.98 1.98 0 0 0-2.59.185l-3.884 3.884c-.74.74-.925 1.85-.185 2.775l3.145 4.439c-1.11 2.034-1.85 4.068-2.405 6.103l-5.364.74C.74 24.969 0 25.894 0 26.818v5.549c0 1.11.74 1.85 1.85 2.034l5.363.925c.555 2.22 1.48 4.07 2.59 5.919l-3.145 4.623c-.74.74-.555 1.85.185 2.59l3.884 3.884c.74.74 1.85.925 2.775.37l4.438-3.33c2.035 1.11 4.07 1.85 6.104 2.405l.74 5.548c.185.925 1.11 1.665 2.22 1.665h5.363c1.11 0 2.034-.74 2.22-1.665l.924-5.548c1.85-.555 3.884-1.295 5.734-2.405l4.438 3.145c.925.555 2.035.555 2.775-.185l3.884-3.884c.74-.74.924-1.85.185-2.774l-3.145-4.44c1.11-1.849 1.85-3.883 2.405-5.918l5.548-1.11c.925 0 1.665-.924 1.665-2.034v-5.549c0-.925-.74-1.85-1.665-2.034l-5.548-.925z"/>
        <filter id="a" width="274.6%" height="274.6%" x="-87.3%" y="-70.3%" filterUnits="objectBoundingBox">
            <feMorphology in="SourceAlpha" operator="dilate" radius="1.5" result="shadowSpreadOuter1"/>
            <feOffset dy="10" in="shadowSpreadOuter1" result="shadowOffsetOuter1"/>
            <feGaussianBlur in="shadowOffsetOuter1" result="shadowBlurOuter1" stdDeviation="15"/>
            <feComposite in="shadowBlurOuter1" in2="SourceAlpha" operator="out" result="shadowBlurOuter1"/>
            <feColorMatrix in="shadowBlurOuter1" result="shadowMatrixOuter1" values="0 0 0 0 0 0 0 0 0 0 0 0 0 0 0 0 0 0 0.15 0"/>
            <feMorphology in="SourceAlpha" operator="dilate" radius="1.5" result="shadowSpreadOuter2"/>
            <feOffset dy="2" in="shadowSpreadOuter2" result="shadowOffsetOuter2"/>
            <feGaussianBlur in="shadowOffsetOuter2" result="shadowBlurOuter2" stdDeviation="2"/>
            <feComposite in="shadowBlurOuter2" in2="SourceAlpha" operator="out" result="shadowBlurOuter2"/>
            <feColorMatrix in="shadowBlurOuter2" result="shadowMatrixOuter2" values="0 0 0 0 0 0 0 0 0 0 0 0 0 0 0 0 0 0 0.1 0"/>
            <feMerge>
                <feMergeNode in="shadowMatrixOuter1"/>
                <feMergeNode in="shadowMatrixOuter2"/>
            </feMerge>
        </filter>
    </defs>
    <g fill="none" fill-rule="evenodd">
        <path fill="#6EDEFE" d="M59 258.667h382.667c8.837 0 16-7.163 16-16V16c0-8.837-7.163-16-16-16H59c-8.837 0-16 7.163-16 16v226.667c0 8.837 7.163 16 16 16z"/>
        <path fill="#FFF" d="M79 34h44.492v5.33H79z"/>
        <path fill="#0497F4" d="M79 51.797h22.246v5.33H79z"/>
        <path fill="#02BDF3" d="M79 68.407h32.924v5.33H79zM79 86.203h45.381v5.33H79z"/>
        <path fill="#0497F4" d="M79 102.814h32.034v5.33H79zM79 121.797h18.686v5.33H79z"/>
        <path fill="#FFF" d="M79 138.407h32.924v5.33H79z"/>
        <path fill="#0497F4" d="M79 156.203h20.466v5.33H79zM79 172.814h40.042v5.33H79z"/>
        <path fill="#FFF" d="M79 189.424h22.246v5.33H79z"/>
        <path fill="#EF1C3B" d="M79 208.407h18.686v5.33H79z"/>
        <path fill="#0497F4" d="M105.102 208.407h40.932v5.33h-40.932z"/>
        <path fill="#EF1C3B" d="M152.559 208.407h20.466v5.33h-20.466z"/>
        <path fill="#0497F4" d="M219 208.407h20.466v5.33H219zM248.661 208.407h40.042v5.33h-40.042z"/>
        <path fill="#EF1C3B" d="M296.119 208.407h32.924v5.33h-32.924z"/>
        <path fill="#0497F4" d="M336.458 208.407h42.712v5.33h-42.712z"/>
        <path fill="#02BDF3" d="M179.847 208.407h32.034v5.33h-32.034z"/>
        <path fill="#EF1C3B" d="M145.441 189.424h11.568v5.33h-11.568z"/>
        <path fill="#02BDF3" d="M107.475 189.424h32.034v5.33h-32.034zM164.424 189.424h32.034v5.33h-32.034z"/>
        <path fill="#EF1C3B" d="M273.576 189.424h42.712v5.33h-42.712zM322.22 189.424h14.237v5.33H322.22z"/>
        <path fill="#FFF" d="M203.576 189.424h63.178v5.33h-63.178zM126.458 172.814h19.576v5.33h-19.576zM169.169 172.814h34.703v5.33h-34.703z"/>
        <path fill="#0497F4" d="M241.542 172.814h40.042v5.33h-40.042z"/>
        <path fill="#EF1C3B" d="M290.186 172.814h42.712v5.33h-42.712zM152.559 172.814h8.898v5.33h-8.898zM210.695 172.814h22.246v5.33h-22.246z"/>
        <path fill="#02BDF3" d="M107.475 156.203h32.034v5.33h-32.034z"/>
        <path fill="#0497F4" d="M147.814 156.203h25.805v5.33h-25.805z"/>
        <path fill="#EF1C3B" d="M179.847 156.203h25.805v5.33h-25.805zM119.339 138.407h15.127v5.33h-15.127z"/>
        <path fill="#0497F4" d="M140.695 138.407h18.686v5.33h-18.686z"/>
        <path fill="#02BDF3" d="M105.102 121.797h28.475v5.33h-28.475z"/>
        <path fill="#0497F4" d="M140.695 121.797h40.042v5.33h-40.042z"/>
        <path fill="#EF1C3B" d="M135.949 102.814h20.466v5.33h-20.466z"/>
        <path fill="#FFF" d="M115.78 102.814h13.347v5.33H115.78z"/>
        <path fill="#0497F4" d="M131.203 86.203h32.034v5.33h-32.034z"/>
        <path fill="#FFF" d="M173.915 86.203h18.686v5.33h-18.686z"/>
        <path fill="#0497F4" d="M230.864 86.203h38.263v5.33h-38.263z"/>
        <path fill="#EF1C3B" d="M197.644 86.203h22.246v5.33h-22.246z"/>
        <path fill="#FFF" d="M137.136 68.407h32.924v5.33h-32.924z"/>
        <path fill="#0497F4" d="M179.847 68.407h16.907v5.33h-16.907z"/>
        <path fill="#FFF" d="M201.203 68.407h50.72v5.33h-50.72z"/>
        <path fill="#EF1C3B" d="M258.153 68.407h18.686v5.33h-18.686z"/>
        <path fill="#02BDF3" d="M329.339 68.407h28.475v5.33h-28.475z"/>
        <path fill="#0497F4" d="M284.254 68.407h38.263v5.33h-38.263z"/>
        <path fill="#EF1C3B" d="M115.78 68.407h15.127v5.33H115.78z"/>
        <path fill="#0497F4" d="M165.61 51.797h91.653v5.33H165.61z"/>
        <path fill="#FFF" d="M264.085 51.797h60.508v5.33h-60.508z"/>
        <path fill="#EF1C3B" d="M336.458 51.797h60.508v5.33h-60.508z"/>
        <path fill="#02BDF3" d="M407.644 51.797h20.466v5.33h-20.466z"/>
        <path fill="#0497F4" d="M107.475 51.797h8.008v5.33h-8.008z"/>
        <path fill="#EF1C3B" d="M121.712 51.797h8.008v5.33h-8.008z"/>
        <path fill="#0497F4" d="M135.949 51.797h24.025v5.33h-24.025z"/>
        <path fill="#FFF" d="M222.559 34h40.042v5.33h-40.042z"/>
        <path fill="#02BDF3" d="M297.305 34h28.475v5.33h-28.475z"/>
        <path fill="#EF1C3B" d="M268.831 34h22.246v5.33h-22.246z"/>
        <path fill="#02BDF3" d="M331.712 34h22.246v5.33h-22.246zM133.576 34h80.975v5.33h-80.975z"/>
        <g transform="translate(0 125)">
            <path fill="#000002" d="M82.383 4.878s7.651-.283 9.167 6.833c2.193 10.3-5.284 18.087-9.334 20.334s-7.815 3.57-11.359 2.072c-3.544-1.498-4.556-9.09-4.556-9.09L82.383 4.877z"/>
            <path fill="#FFD2B8" d="M84.863 7.427s5.355 6.29-.064 15.702c-2.375 4.125-6.642 8.27-10.875 9.375-2.617.682-2.872 3.208-2.872 3.208l-8.852-.936s-.456-11.993 1.738-14.018c2.193-2.025 13.67-11.981 13.67-11.981l7.255-1.35z"/>
            <path fill="#232323" d="M86.197 7.732s-10.615 13.701-16.69 14.714c-6.076 1.012-4.388 8.437-4.388 8.437s-8.438 41.176-19.913 38.138c-11.475-3.037-19.913-16.875-4.725-30.713-6.413-12.487 2.363-28.012 19.575-22.612C62.42-1.18 81.472-4.081 86.197 7.732"/>
            <ellipse cx="89.5" cy="222.5" fill="#000" opacity=".1" rx="89.5" ry="10.5"/>
            <ellipse cx="249.5" cy="200.5" fill="#000" opacity=".1" rx="89.5" ry="10.5"/>
            <path fill="#FFF" d="M245.263 138.463v32.4l-26.157 15.02 3.207 2.11 26.494-11.56 28.632 11.39 3.009-2.53-28.097-15.062v-32.654z"/>
            <path fill="#000" d="M279.8 126.566H215.11a2.375 2.375 0 0 1-2.375-2.375v-4.869a2.375 2.375 0 0 1 2.375-2.375H279.8a2.375 2.375 0 0 1 2.375 2.375v4.869a2.375 2.375 0 0 1-2.375 2.375"/>
            <path fill="#232323" d="M243.575 144.623h10.294v-18.31h-10.294zM221.469 192.38c0 2.656-1.755 4.809-3.92 4.809-2.163 0-3.918-2.153-3.918-4.81 0-2.655 1.755-4.808 3.918-4.808 2.165 0 3.92 2.153 3.92 4.809M285.004 192.38c0 2.656-1.755 4.809-3.92 4.809-2.163 0-3.918-2.153-3.918-4.81 0-2.655 1.755-4.808 3.919-4.808s3.919 2.153 3.919 4.809"/>
            <path fill="#3A7AFE" d="M225.266 104.797l-27.541 4.755a8.503 8.503 0 0 0-7.03 9.053l5.966 75.04 14.43-1.498.953-63.003a4.483 4.483 0 0 1 3.867-4.372l30.87-4.281 29.563 1.344a4.481 4.481 0 0 1 4.254 4.008l7.19 68.308 16.453-.759-1.85-75.849a8.502 8.502 0 0 0-7.28-8.207l-27.827-4.033-42.018-.506z"/>
            <path fill="#000002" d="M196.662 193.645c-.57.823-2.278 2.341-6.581 5.063-4.304 2.721-4.873 6.011 2.025 6.518 4.292.315 9.365-.253 13.352-2.91 3.987-2.659 5.379-3.419 5.379-3.419s.38-2.657 0-4.239c-.38-1.583-1.455-2.722-1.455-2.722l-12.72 1.71zM291.522 193.772c-.127 1.898-.886 7.594 0 8.986.886 1.392 4.873 1.329 6.834 1.392 1.962.064 1.456-.633 2.595-1.392 1.139-.76 3.797.949 5.632 1.835 1.835.886 11.328 1.772 14.555 1.962 3.227.19 5.442-2.025.316-4.493-5.125-2.468-9.555-3.101-11.707-5.632-2.151-2.531-5.695-3.417-5.695-3.417l-12.53.759z"/>
            <path fill="#FFF" d="M54.657 167.826v32.4L28.5 215.245l3.207 2.11 26.494-11.56 28.632 11.391 3.009-2.531-28.097-15.061V166.94z"/>
            <path fill="#000" d="M22.48 73.722c-.865.566-2.196 4.038-1.01 5.918 11.317 17.941 4.705 44.061.257 64.645-3.647 16.875 37.993 11.137 53.687 10.631 11.77-.38 17.133 2.658 19.079 4.2.588.466 1.405.508 2.012.067l.179-.13a1.632 1.632 0 0 0 .163-2.518c-2.392-2.224-8.026-6.315-17.383-6.682-12.91-.506-36.735-.482-45.564-2.53-7.248-1.683-1.148-22.533-1.63-45.058-.158-7.43-.81-21.78-4.22-28.149-1.102-2.057-3.98-2.28-5.483-.497l-.087.103z"/>
            <path fill="#232323" d="M52.969 173.985h10.294v-18.31H52.969zM30.863 221.742c0 2.656-1.755 4.81-3.92 4.81-2.163 0-3.918-2.154-3.918-4.81 0-2.656 1.755-4.809 3.919-4.809s3.919 2.153 3.919 4.81M94.398 221.742c0 2.656-1.755 4.81-3.92 4.81-2.163 0-3.918-2.154-3.918-4.81 0-2.656 1.755-4.809 3.919-4.809s3.919 2.153 3.919 4.81"/>
            <path fill="#3A7AFE" d="M73.726 42.358c3.713-1.518 8.269 1.689 10.294 9.957 2.025 8.269 8.1 32.907 8.1 32.907l24.975 3.206-.843 5.907-40.332.675-2.194-52.652z"/>
            <path fill="#EF1C3B" d="M52.125 149.854s13.331 1.35 37.463-2.025 28.4-6.94 28.4-6.94l18.176 36.472 10.8-8.438s-14.134-37.536-15.526-42.357c-3.804-13.187-17.564-8.56-28.94-7.341-8.747.938-16.694 2.472-20.757 1.14-5.568-1.827-4.64-4.093-4.64-4.093l-30.882 7.425 5.906 26.157z"/>
            <path fill="#ED1A3A" d="M240.369 32.74c-7.847 3.038-21.01 5.147-25.23 8.438-4.217 3.29-8.271 14.35-12.655 24.342-4.352 9.918-6.271 15.499-7.874 19.887-1.603 4.388-1.66 8.928 4.837 10.446 6.737 1.575 19.997 2.447 19.997 2.447l.839-11.713s-6.24-1.702-9.277-2.21c-3.037-.505 9.703-18.73 9.703-18.73l6.244 29.953 42.948-1.181 2.583-31.897s6.782 18.987 6.529 20.506c-.253 1.519-13.162 4.135-13.162 4.135l2.025 11.39s19.912-2.531 22.275-3.375c2.363-.843 5.729-5.23 1.94-24.47-4.303-21.852-5.208-25.164-10.945-28.877-5.738-3.712-24.577-9.344-24.577-9.344l-16.2.253z"/>
            <path fill="#FDB78E" d="M241.592 34.3s-.886 3.165-.506 5.317c.38 2.15 2.303 5.062 7.227 4.936 4.923-.127 7.96-1.013 8.467-4.05.506-3.038-.507-9.113-.507-9.113l-14.68 2.91z"/>
            <path fill="#FFD2B8" d="M236.103 16.907c1.06 8.66 1.97 21.443 12.21 21.443 10.238 0 12.01-15.314 13.024-21.769-1.52-9.365-13.024-14.428-13.024-14.428l-11.15 4.05-.76 10.885"/>
            <path fill="#000002" d="M236.025 19.088s-5.442-2.91-3.67-8.606c1.772-5.696 5.315-6.455 7.34-6.835 2.532-2.658 11.265-7.087 19.87.886 8.607 7.974 1.646 16.58 1.646 16.58s-3.923-7.088-7.467-8.859c-3.544-1.772-9.872.253-9.872.253l-1.898-3.797v3.544s-3.671-2.026-5.95 6.834"/>
            <path fill="#FFF" d="M64.107 34.258c-10.23 1.203-19.07 8.27-17.888 21.938 1.182 13.67 2.869 33.075-5.4 49.782-8.27 16.706-17.55 44.888 1.35 59.907 19.744-24.807 35.944-37.463 36.282-44.213.337-6.75-6.244-19.744.169-24.807 6.412-5.062 6.75-15.356 4.05-31.219-2.7-15.863-7.088-32.738-18.563-31.388"/>
            <path fill="#3A7AFE" d="M58.14 42.982c-10.326 1.511-8.354 11.094-4.327 27.558 2.53 10.341 3.76 15.491 5.417 19.842 2.39 6.282 5.03 9.145 8.42 8.846 5.738-.506 39.489-.844 39.489-.844l-.675-10.462s-29.903.318-32.941-1.369c-3.037-1.688-3.085-15.58-4.185-27.488C68.326 48.096 65.06 41.97 58.14 42.982"/>
            <path fill="#FFD2B8" d="M107.258 90L106 95.825l1.258 1.238h7.267c5.807-.294 8.44-1.47 7.9-3.532-.541-2.06-5.596-3.237-15.167-3.531z"/>
            <path fill="#FFD2B8" d="M116.258 89L115 94.825l1.258 1.238h7.267c5.807-.294 8.44-1.47 7.9-3.532-.541-2.06-5.596-3.237-15.167-3.531z"/>
            <path fill="#EF1C3B" d="M99.882 144.96l-1.217 51.431h13.873l5.45-55.5z"/>
            <path fill="#232323" d="M184.995 59.388l-8.199 36.105a3.605 3.605 0 0 1-3.516 2.807h-53.147l7.016-40.024a2.82 2.82 0 0 1 2.778-2.333h52.318a2.82 2.82 0 0 1 2.75 3.445"/>
            <path fill="#232323" d="M102.076 98.3h20.419v-3.206h-20.419z"/>
            <path fill="#FFD2B8" d="M99.098 208.465s1.85-2.777 1.85-5.369c0-2.591-.728-6.705-.728-6.705l7.764-.329s-2.592 8.145-.926 11.107c1.667 2.962 10.525 6.665 12.112 7.405 1.403 2.592 1.588 4.073-.45 3.518-2.035-.556-7.59-.186-10.921-1.852-3.332-1.666-8.701-7.775-8.701-7.775M143.182 187.716s.257-3.327-1.01-5.588c-1.267-2.26-4.203-6.178-4.203-6.178l6.136-4.794s2.486 9.768 5.387 11.537c2.902 1.77 13.086 1.59 14.833 1.46 2.49 1.575 2.505 1.302.681 2.365-1.694.99-6.711 3.55-10.432 3.726-3.722.176-11.392-2.528-11.392-2.528"/>
            <path fill="#000002" d="M143.056 187.54s7.887 2.442 12.718 1.407c4.83-1.034 8.05-4.381 8.05-4.381s7.41.247 9.804.557c2.393.31 6.368 2.299-3.303 4.78-9.672 2.484-19.557 3.635-19.557 3.635l-.49 2.886-4.583 1.124-1.231-2.254a12.084 12.084 0 0 1-1.47-6.32l.062-1.433zM99.098 208.465s6.109 5.554 10.922 6.665c4.814 1.11 9.15-.556 9.15-.556s5.26 2.207 7.207 3.634c2.7 1.977 6.229 5.808-3.583 3.956-9.812-1.851-19.253-4.998-19.253-4.998l-1.666 2.407-4.628-.926-.16-2.563a12.085 12.085 0 0 1 1.347-6.347l.664-1.272z"/>
            <path fill="#FFF" d="M85.538 107.4h310v-9.1h-310z"/>
            <path fill="#FFF" d="M147.808 105.303l16.96 134.098h5.315L157.68 105.303zM322.72 105.303l16.96 134.098h5.315l-12.403-134.098z"/>
            <path fill="#232323" d="M273.866 98.3h-58.22V62.644c0-.952.772-1.724 1.724-1.724h54.772c.952 0 1.724.772 1.724 1.724V98.3z"/>
            <path fill="#FFD2B8" d="M62.16 34.5s7.473 8.629 8.307 8.879c.833.25.583-7.75.583-7.75s-5.195-3.506-8.89-1.128"/>
        </g>
        <g transform="translate(290 60)">
            <ellipse cx="149" cy="294" fill="#000" opacity=".1" rx="70" ry="14"/>
            <path fill="#FDB78E" d="M141.512 45.05c.417 2.733 2.488 11.255 2.488 11.255S130.24 75.9 127.517 76.189c-2.723.29-8.47 3.71-7.382-6.086 1.087-9.799 4.142-17.219 4.296-17.334.156-.117 4.401-5.39 4.401-5.39L141.618 45"/>
            <path fill="#ED1A3A" d="M116.992 52.051c-3.392-2.66-10.11-.314-17.82 7.526-7.71 7.84-9.423 11.134-13.192 14.268-3.771 3.137-7.026 5.489-12.166.785-5.14-4.704-19.533-17.248-19.533-17.248L44 66.947S63.704 88.741 67.816 92.82c4.112 4.075 12.166 13.012 24.673 1.567 12.51-11.446 18.164-12.074 21.42-20.54 3.254-8.468 5.483-19.913 3.083-21.795"/>
            <path fill="#FFF" d="M125.073 52.548s-3.769 16.374-1.713 19.465c2.057 3.09 18.508-18.538 18.508-18.538s15.423.31 20.565 2.163c5.14 1.854 5.14 15.138-2.744 27.188-7.882 12.05-15.705 33.06-15.392 39.856.313 6.797 6.482 29.97 6.482 29.97s-24.677 4.324-38.044 1.236c-13.367-3.09-20.735-7.57-20.735-7.57s1.199-43.318 8.053-62.565c5.262-14.773 6.513-33.059 11.997-32.75 5.483.309 13.023 1.545 13.023 1.545"/>
            <path fill="#ED1A3A" d="M166.862 59.648c-4.396-2.373-12.413 1.862-11.724 11.169.69 9.307 16.98 37.908 16.98 37.908L151 132.555l8.276 7.445S191 113.01 191 111.457c0-1.55-13.793-46.224-24.138-51.809"/>
            <path fill="#000002" d="M175.206 286.416c.717 3.483-.213 7.435 2.249 8.713 2.46 1.281 5.925 3.647 13.805 5.684 7.878 2.04 14.523-.034 6.187-5.238-8.334-5.207-9.523-4.456-10.515-6.626-.993-2.17-1.808-5.799-1.808-5.799l-9.918 3.266zM109.113 281.658c-7.231 3.075-11.465 5.59-16.217 6.708-4.75 1.118-2.994 3.634.518 3.634 3.51 0 5.99-.094 10.121-.465 4.132-.374 10.225-2.05 10.95-2.983.72-.93 1.134-.465 1.754-.186.62.28.93 1.398 4.234.745 3.307-.65.213-11.111.213-11.111l-10.644.678-.93 2.98z"/>
            <path fill="#3A7AFE" d="M148.086 150.843s27.983 95.163 30.402 104.79c2.416 9.625 9.153 29.34 8.463 32.134-.69 2.795-10.882 2.174-10.882 2.174s-9.328-16.611-14.338-28.254c-5.007-11.644-28.154-67.376-31.953-78.554-3.802-11.177-7.255-20.647-7.601-16.144-.346 4.5-1.208 17.076-3.11 42.536-1.9 25.46 1.555 70.17 1.555 70.17l-12.608.932s-5.182-23.287-7.429-44.4C98.34 215.113 94.96 161.101 94 147c16.43 1.515 54.086 3.843 54.086 3.843"/>
            <path fill="#FDB78E" d="M52 58.455c-1.007-2.346-2.53-7.625-3.034-9.4-.503-1.773-4.403-5.835-4.089-2.86.314 2.976 2.138 6.466-3.398 1.889-5.536-4.578-6.857-4.406-7.485-3.72-.63.687-6.292 5.15-4.72 8.068 1.573 2.92 8.116 7.381 10.884 8.583 2.768 1.203 7.801 3.548 8.494 2.861.693-.686 3.348-5.421 3.348-5.421"/>
            <g fill-rule="nonzero">
                <use fill="#000" filter="url(#a)" xlink:href="#b"/>
                <use fill="#EF1C3B" stroke="#FFF" stroke-width="3" xlink:href="#b"/>
            </g>
            <path fill="#FDB78E" d="M154.594 133c-5.339 1.693-11.69 5.725-12.096 8.645-.404 2.92-2.23 8.762 5.069 10.631 7.298 1.87 10.067-.117 10.338-3.27.27-3.156.677-4.909-3.514-4.791-4.188.116-5.339-1.226-4.258-2.804 1.084-1.577 1.691-1.577 2.976-1.635 1.282-.058 2.43.876 4.458 0 2.029-.877 2.433-2.103 2.433-2.103L154.594 133zM126.843 25.596c-1.45 3.303-2.966 10.84-2.835 13.505.133 2.668 7.581 6.899 11.735 6.899 4.151 0 7.514-1.042 8.568-2.144 1.055-1.102 4.746-6.203 6.461-10.783 1.713-4.58 1.517-6.435.131-7.362-1.384-.926-2.548-1.622-11.195-2.55-8.646-.927-12.865 2.435-12.865 2.435"/>
            <path fill="#000002" d="M122.391 40.61c1.884-1.849 9.423-2.425 11.623 0 2.2 2.424 5.153 3.87 7.728 3.234 2.575-.636 3.58 0-.44 4.158-4.021 4.159-8.858 5.66-14.576 4.735-5.716-.924-5.78-4.947-5.716-6.736.063-1.791 1.381-5.391 1.381-5.391M126.358 26.519c-5.01-3.09-.842-6.98 1.554-9.667 2.397-2.69 3.951-7.037 5.831-5.55 1.878 1.488 2.33 1.375 5.765 4.406 3.432 3.031 13.537 5.777 14.315 10.639.777 4.863-1.101 8.98-3.692 9.496-2.591.515-3.692-.058-2.914-4.462.777-4.405 2.265-5.205-4.212-5.205-6.478 0-7.452.478-10.777-.124-1.53-.276-2.697-.392-2.892-.276-1.057.631-2.296 1.164-2.978.743"/>
        </g>
    </g>
</svg>
