<?xml version="1.0" encoding="UTF-8"?>
<svg width="235px" height="181px" viewBox="0 0 235 181" version="1.1" xmlns="http://www.w3.org/2000/svg" xmlns:xlink="http://www.w3.org/1999/xlink">
    <!-- Generator: Sketch 52.3 (67297) - http://www.bohemiancoding.com/sketch -->
    <title>IT solutions icon 8</title>
    <desc>Created with Sketch.</desc>
    <defs>
        <linearGradient x1="1.20662332%" y1="2.14292466%" x2="90.267142%" y2="79.7543246%" id="linearGradient-1">
            <stop stop-color="#0497F4" offset="0%"></stop>
            <stop stop-color="#0BCBF9" offset="100%"></stop>
        </linearGradient>
    </defs>
    <g id="Design" stroke="none" stroke-width="1" fill="none" fill-rule="evenodd">
        <g id="Product-Dev-1440" transform="translate(-1202.000000, -1581.000000)">
            <g id="Group-2" transform="translate(150.000000, 936.000000)">
                <g id="Group-44" transform="translate(989.000000, 529.000000)">
                    <g id="IT-solutions-icon-8" transform="translate(63.000000, 116.000000)">
                        <g id="Group-13" transform="translate(117.500000, 90.500000) scale(-1, 1) translate(-117.500000, -90.500000) ">
                            <path d="M225.309653,48 C230.633205,48 234.948649,52.315444 234.948649,57.6389961 L234.948649,134.92471 C234.948649,140.248263 230.633205,144.563707 225.309653,144.563707 L200.917375,144.563707 L203.47722,177.054826 C203.704633,179.940927 200.425869,181.750579 198.105019,180.020077 L150.551737,144.563707 L124.638996,144.563707 C119.315444,144.563707 115,140.248263 115,134.92471 L115,57.6389961 C115,52.315444 119.315444,48 124.638996,48 L225.309653,48 Z" id="Fill-4" fill="#98E5FC"></path>
                            <path d="M171,127 L180,127 L180,119 L171,119 L171,127 Z M170.561027,107.929724 C170.561027,106.441249 170.719146,105.103986 171.034379,103.918782 C171.380832,102.783418 172.057624,101.648055 173.065763,100.513536 L181.714002,90.902651 C183.320377,89.0864073 184.124068,87.3842069 184.124068,85.7943602 C184.059611,83.6258498 183.178371,81.9228046 181.477326,80.6869142 C179.744052,79.5017096 177.854674,78.908685 175.806168,78.908685 C173.286325,78.908685 171.222712,79.5270526 169.616337,80.7620982 C167.789401,82.0486745 166.875932,84.2433726 166.875932,87.3461925 L157,87.3461925 L157,85.7943602 C157.062442,81.5071805 158.9065,77.9878917 162.528145,75.2381834 C166.088355,72.4639768 170.340465,71.0515306 175.287495,71 C180.327182,71.0515306 184.658855,72.3626051 188.281507,74.9349129 C192.030051,77.6347802 193.936551,81.2790941 194,85.870389 C193.936551,89.1244217 192.896184,91.8361157 190.879906,94.0054709 L182.090669,103.69154 C180.925418,105.028802 180.374517,106.655819 180.437966,108.572589 L180.437966,113 L170.561027,113 L170.561027,107.929724 Z" id="Fill-1" fill="url(#linearGradient-1)" transform="translate(175.500000, 99.000000) scale(-1, 1) translate(-175.500000, -99.000000) "></path>
                            <path d="M110.309653,0 L9.63899614,0 C4.31544402,0 0,4.31544402 0,9.63899614 L0,96.9247104 C0,102.248263 4.31544402,106.563707 9.63899614,106.563707 L34.0312741,106.563707 L31.4714286,139.054826 C31.2440154,141.940927 34.5227799,143.750579 36.8436293,142.020077 L84.3969112,106.563707 L110.309653,106.563707 C115.633205,106.563707 119.948649,102.248263 119.948649,96.9247104 L119.948649,9.63899614 C119.948649,4.31544402 115.633205,0 110.309653,0" id="Fill-1" fill="url(#linearGradient-1)" opacity="0.25"></path>
                            <path d="M119.309653,10 L18.6389961,10 C13.315444,10 9,14.315444 9,19.6389961 L9,106.92471 C9,112.248263 13.315444,116.563707 18.6389961,116.563707 L43.0312741,116.563707 L40.4714286,149.054826 C40.2440154,151.940927 43.5227799,153.750579 45.8436293,152.020077 L93.3969112,116.563707 L119.309653,116.563707 C124.633205,116.563707 128.948649,112.248263 128.948649,106.92471 L128.948649,19.6389961 C128.948649,14.315444 124.633205,10 119.309653,10" id="Fill-1" fill="url(#linearGradient-1)"></path>
                        </g>
                        <g id="Group-6" transform="translate(167.000000, 62.500000) scale(1, -1) translate(-167.000000, -62.500000) translate(133.000000, 29.000000)">
                            <g id="Group-3" fill="#FFFFFF">
                                <path d="M41.6710773,0.0411552734 C41.6466398,1.6300498 41.6164914,3.21881348 41.6002883,4.80783887 C41.5911242,5.70173926 41.5876711,6.59668652 41.622468,7.48954004 C41.6297727,7.67889355 41.7701555,7.96822363 41.9247492,8.03103613 C43.5938039,8.7082334 45.278132,9.34931348 47.0938117,10.0529443 C48.8594211,8.29615723 50.7242414,6.44057129 52.6722023,4.50241309 C56.2520305,8.05210449 59.8051633,11.5753623 63.3390383,15.0792529 C61.4273352,16.9561689 59.5534836,18.7960518 57.777382,20.5400146 C58.5187414,22.393376 59.175632,24.071124 59.8774133,25.7304209 C59.942757,25.884835 60.2924523,25.9995986 60.5114602,26.0018232 C62.5474758,26.0223682 64.583757,26.0143857 66.6199055,26.0145166 C67.0389289,26.0146475 67.4579523,26.0145166 67.9246555,26.0145166 L67.9246555,41.0581104 C66.581257,41.0581104 65.2563195,41.0568018 63.931382,41.0585029 C62.7804289,41.0600732 61.6290773,41.0499971 60.4790539,41.0824502 C60.2660227,41.0884697 59.9350539,41.2219463 59.8670539,41.3823799 C59.171382,43.0242725 58.5187414,44.6838311 57.7988977,46.4762119 C59.5904055,48.2146787 61.4786008,50.0468408 63.3419602,51.8550557 C59.7395539,55.4048779 56.175132,58.9174053 52.5992883,62.4409248 C50.783343,60.6138662 48.9319367,58.7512139 47.1308664,56.9390732 C45.725843,57.5351377 44.4949367,58.0572666 43.2641633,58.5797881 C43.2236555,58.5969307 43.1858039,58.6210088 43.144632,58.6363193 C42.653093,58.8193916 41.9422805,58.8689873 41.7253977,59.2174658 C41.4638898,59.6375244 41.603343,60.3107959 41.6009523,60.8745381 C41.5925852,62.9010264 41.5977648,64.9277764 41.5977648,67.0000654 L26.3765227,67.0000654 C26.3643039,66.7742021 26.3418586,66.5453291 26.3411945,66.3164561 C26.3346867,64.1139619 26.3279133,61.9114678 26.3321633,59.7089736 C26.3328273,59.3590557 26.2967023,59.1254717 25.8823273,58.9734131 C24.2497961,58.3746006 22.6378508,57.7214814 20.9221789,57.050958 C19.1604211,58.815335 17.3033039,60.6751084 15.494132,62.4868564 C11.8439133,58.8836436 8.27311641,55.3589463 4.67761641,51.8097783 C6.46779609,50.0714424 8.35466328,48.2392803 10.1496242,46.4963643 C9.42287422,44.6924678 8.77129609,43.0339561 8.07017891,41.3958584 C7.99673359,41.2241709 7.63216328,41.0838896 7.40080391,41.0811416 C5.36492109,41.0571943 3.32863984,41.0676631 1.29249141,41.0679248 C0.873600781,41.0679248 0.454710156,41.0679248 -3.984375e-05,41.0679248 L-3.984375e-05,26.0147783 C0.375155469,26.0147783 0.741983594,26.0146475 1.10894453,26.0147783 C3.16727266,26.0149092 5.22573359,25.9992061 7.28366328,26.0262939 C7.80375703,26.0330986 8.03777266,25.8899385 8.22503828,25.3793252 C8.79400703,23.8268096 9.45182734,22.3058311 10.1121711,20.6814736 C8.32358516,18.9324072 6.44322578,17.0937021 4.60722578,15.2983115 C8.23871797,11.725458 11.8158898,8.20612598 15.4171008,4.6631084 C17.2098039,6.44057129 19.0778117,8.29249316 20.8503273,10.0498037 C22.6593664,9.34905176 24.3415695,8.7027373 26.0163352,8.03810254 C26.1456945,7.98680566 26.3107805,7.80648145 26.3106477,7.68622168 C26.308257,5.13786621 26.2844836,2.58951074 26.2648273,0.0411552734 L41.6710773,0.0411552734 Z" id="Fill-1"></path>
                            </g>
                            <path d="M33.9674979,47.9999331 C25.6752796,47.9757799 18.9665176,41.4561007 19.0001257,33.4541382 C19.0336089,25.4644939 25.7493675,18.9936041 34.001231,19.0000047 C42.3135642,19.0065261 49.0506871,25.5543439 48.9997126,33.5773196 C48.9489881,41.5675678 42.2197363,48.0239656 33.9674979,47.9999331" id="Fill-4" fill="#EF1C3B"></path>
                        </g>
                    </g>
                </g>
            </g>
        </g>
    </g>
</svg>