<?xml version="1.0" encoding="UTF-8"?>
<svg width="212px" height="185px" viewBox="0 0 212 185" version="1.1" xmlns="http://www.w3.org/2000/svg" xmlns:xlink="http://www.w3.org/1999/xlink">
    <!-- Generator: Sketch 52.3 (67297) - http://www.bohemiancoding.com/sketch -->
    <title>IT solutions icon 4</title>
    <desc>Created with Sketch.</desc>
    <defs>
        <polygon id="path-1" points="0.422248461 0.306884615 63.7364403 0.306884615 63.7364403 78.6829582 0.422248461 78.6829582"></polygon>
        <linearGradient x1="1.20662332%" y1="2.14292466%" x2="90.267142%" y2="79.7543246%" id="linearGradient-3">
            <stop stop-color="#0497F4" offset="0%"></stop>
            <stop stop-color="#0BCBF9" offset="100%"></stop>
        </linearGradient>
    </defs>
    <g id="Design" stroke="none" stroke-width="1" fill="none" fill-rule="evenodd">
        <g id="Product-Dev-1440" transform="translate(-1220.000000, -1241.000000)">
            <g id="Group-2" transform="translate(150.000000, 936.000000)">
                <g id="IT-solutions-icon-4" transform="translate(1070.000000, 305.000000)">
                    <g id="Group-3" transform="translate(30.000000, 0.000000)">
                        <mask id="mask-2" fill="white">
                            <use xlink:href="#path-1"></use>
                        </mask>
                        <g id="Clip-2"></g>
                        <path d="M35.3745611,63.3096451 C29.3173262,60.2998319 25.4558497,57.2240407 24.9786416,56.8359857 C17.7715544,50.3050297 18.7951248,40.9964857 22.751098,35.8562769 C26.8127356,30.5793374 34.0176752,28.7471451 38.2837691,30.4881835 C36.3822389,34.3518044 34.4837154,38.2102165 32.4198228,42.4041615 C43.1043866,38.7258868 53.3907758,35.1843429 63.7364403,31.6223978 C60.1945342,21.0724253 56.7084671,10.6895681 53.2224,0.306710989 L52.8972456,0.335359341 C50.9025074,4.40385934 48.9077691,8.47279341 46.9211919,12.5243648 C27.4574604,5.46080989 9.00140671,16.1470791 2.74529933,32.3316615 C-3.69421745,48.9898099 4.13697718,66.0603209 15.4134336,73.5245187 C15.4276081,73.5349363 15.4374872,73.5488264 15.4525208,73.5583758 C15.5865342,73.6460571 15.7351517,73.7398154 15.8927893,73.836178 C15.9782658,73.8904363 16.0624537,73.9494692 16.1487893,74.0024253 C16.1500779,73.9993868 16.1513664,73.9963484 16.152655,73.993744 C19.1189906,75.7656011 25.2088698,78.6829582 25.2088698,78.6829582 L36.0905879,66.601167 C36.0905879,66.601167 41.8531651,66.5291121 35.3745611,63.3096451" id="Fill-1" fill="#EF1C3B" mask="url(#mask-2)"></path>
                    </g>
                    <path d="M109,171.030595 C112.41937,168.940556 115.642288,167.133369 118.699011,165.066134 C123.877925,161.563587 128.52416,157.37123 132.857606,152.818402 C133.476792,152.16806 134.105352,151.915466 134.981928,151.921606 C140.312123,151.958442 183.995172,151.940901 189.325366,151.941778 C189.806055,151.941778 190.287171,151.941778 190.951953,151.941778 L190.951953,138.133752 C191.062324,138.08946 191.172695,138.04473 191.283493,138 C198.150358,145.788311 205.017224,153.576183 212,161.495615 C205.069639,169.360668 198.17891,177.180115 191.288606,185 C191.196986,184.966672 191.105365,184.933343 191.013744,184.900015 L191.013744,171.030595 L109,171.030595 Z" id="Fill-6" fill="#98E5FC"></path>
                    <path d="M0.0553721,169.686421 C2.91712242,166.603467 5.77930197,163.520513 8.73763153,160.333176 C5.77500956,157.419039 2.88750478,154.579216 0,151.739393 C0.0467872783,151.616538 0.0935745566,151.494114 0.140791076,151.371689 C0.666182164,151.339042 1.19114401,151.278474 1.7165351,151.278474 C33.6971422,151.278904 65.6777492,151.286206 97.657927,151.287925 C103.720099,151.287925 109.789568,151.456742 115.843155,151.223061 C137.257563,150.397876 155.507607,135.812157 161.164146,115.173503 C168.476697,88.4917964 151.910566,60.8736478 124.848633,54.6304188 C98.0803003,48.4546306 71.5390362,65.6396191 65.99968,92.7564708 C64.2930175,101.112707 64.8699175,109.340934 67.5779995,117.422252 C67.6780127,117.721225 67.8278178,118.003017 68.0166839,118.435584 C72.008626,116.717343 75.945196,115.023587 79.8813367,113.329831 C79.9714774,113.395983 80.061618,113.461706 80.1517586,113.527858 C76.2169056,123.59804 72.2820526,133.668651 68.2901105,143.885742 C58.1149505,139.847446 48.0539687,135.854253 37.9925577,131.861061 C37.9796805,131.748087 37.966374,131.635112 37.9534968,131.522138 C42.0583293,129.751061 46.163591,127.980414 50.3113476,126.191295 C49.6361514,123.915485 48.9244697,121.720861 48.3334047,119.494021 C38.2561117,81.5226104 62.2755844,42.6890726 100.763057,35.3848296 C124.234389,30.92986 144.897625,37.2508395 162.046236,53.9530022 C173.297074,64.9106553 179.842571,78.4357903 181.535498,94.1040014 C183.874004,115.750403 177.379586,134.508441 162.12307,149.986357 C150.467458,161.810863 136.15098,168.346193 119.568109,169.760735 C117.747268,169.916236 115.91355,169.978952 114.085413,169.979811 C76.6530145,169.995704 39.2206164,169.996134 1.78778912,170 C1.26325651,170 0.738294667,170 0.21376206,170 C0.160965407,169.895617 0.108168753,169.790804 0.0553721,169.686421" id="Fill-4" fill="url(#linearGradient-3)"></path>
                    <g id="Group-8" transform="translate(108.000000, 138.000000)"></g>
                </g>
            </g>
        </g>
    </g>
</svg>