<?xml version="1.0" encoding="UTF-8"?>
<svg width="245px" height="204px" viewBox="0 0 245 204" version="1.1" xmlns="http://www.w3.org/2000/svg" xmlns:xlink="http://www.w3.org/1999/xlink">
    <!-- Generator: Sketch 52.3 (67297) - http://www.bohemiancoding.com/sketch -->
    <title>IT solutions icon 2</title>
    <desc>Created with Sketch.</desc>
    <defs>
        <linearGradient x1="1.20662332%" y1="2.14292466%" x2="90.267142%" y2="79.7543246%" id="linearGradient-1">
            <stop stop-color="#0497F4" offset="0%"></stop>
            <stop stop-color="#0BCBF9" offset="100%"></stop>
        </linearGradient>
    </defs>
    <g id="Design" stroke="none" stroke-width="1" fill="none" fill-rule="evenodd">
        <g id="Product-Dev-1440" transform="translate(-539.000000, -1222.000000)">
            <g id="Group-2" transform="translate(150.000000, 936.000000)">
                <g id="Group-18" transform="translate(329.000000, 195.000000)">
                    <g id="IT-solutions-icon-2" transform="translate(60.000000, 91.000000)">
                        <path d="M10.4703991,119.647532 L15.8992299,121.779124 C18.1771923,122.673623 18.7844701,125.614737 17.047602,127.339331 L0,144.260573 L59.9228442,203.297521 L118.504132,144.260573 L103.059243,128.696286 C101.067479,126.68903 97.6697642,127.391212 96.6367659,130.023723 L94.6503684,135.083905 C91.3188371,143.570914 80.3314917,145.775854 73.9841421,139.230804 L68.9980248,134.089222 C62.5683931,127.459194 65.2711817,116.387977 74.0324381,113.467437 L78.5042922,111.976307 C81.2589542,111.058551 82.0907191,107.565532 80.0452931,105.503711 L59.6992515,85 L38.9391163,105.608367 C37.3265657,107.208626 34.5942629,106.558325 33.8751888,104.402582 L32.0846584,99.0275366 C29.1645377,90.2650224 18.0940158,87.5609512 11.4649394,93.9924006 L6.32409599,98.9792337 C-0.219120848,105.3266 1.9855032,116.315523 10.4703991,119.647532 Z" id="Stroke-3" fill="url(#linearGradient-1)"></path>
                        <path d="M209.93372,95.5045637 L207.79502,100.950703 C206.897129,103.236878 203.946506,103.846142 202.215677,102.10334 L185.236937,85 L126,145.119528 L185.236937,203.892562 L200.854512,188.397376 C202.868081,186.398644 202.164096,182.99039 199.522004,181.953303 L194.445098,179.960301 C185.92946,176.61794 183.717209,165.594833 190.284232,159.227157 L195.443285,154.22412 C202.095321,147.773363 213.204337,150.48545 216.134901,159.274905 L217.630749,163.761309 C218.55252,166.525919 222.057162,167.359599 224.125177,165.30739 L244.698347,144.895112 L224.020104,124.066472 C222.414408,122.44877 223.066812,119.707078 225.230347,118.986083 L230.623425,117.189803 C239.416072,114.259985 242.12885,103.153796 235.676451,96.5024973 L230.672141,91.3447565 C224.302845,84.7794042 213.276932,86.9910923 209.93372,95.5045637 Z" id="Stroke-5" fill="#98E5FC"></path>
                        <path d="M168.150186,90.7211413 L162.263242,88.4093607 C159.793053,87.4392471 159.13453,84.2495137 161.017964,82.3791347 L179.504132,64.0274961 L114.524684,0 L51,64.0274961 L67.7482103,80.9074724 C69.9080495,83.0844073 73.5924812,82.3228681 74.7126493,79.4678238 L76.8666695,73.9798913 C80.4793329,64.7754537 92.3938481,62.3841237 99.2768203,69.4824448 L104.683692,75.0586576 C111.65589,82.2491395 108.725026,94.2562352 99.2244488,97.423656 L94.3752363,99.0408354 C91.3881214,100.036172 90.4861678,103.824465 92.7041977,106.060577 L114.767145,128.297521 L137.279129,105.947074 C139.027755,104.211541 141.990624,104.916813 142.770377,107.254787 L144.712002,113.0842 C147.878538,122.587432 159.883248,125.520085 167.071721,118.544969 L172.646376,113.136586 C179.741744,106.25266 177.351082,94.3348144 168.150186,90.7211413 Z" id="Stroke-1" fill="#C1E7FD"></path>
                        <path d="M165.702913,105.304612 L159.815969,102.992832 C157.34578,102.022718 156.687257,98.8329847 158.570691,96.9626058 L177.05686,78.6109672 L112.077412,14.5834711 L48.5527273,78.6109672 L65.3009375,95.4909435 C67.4607768,97.6678783 71.1452085,96.9063392 72.2653766,94.0512949 L74.4193968,88.5633624 C78.0320601,79.3589248 89.9465753,76.9675948 96.8295476,84.0659159 L102.23642,89.6421287 C109.208617,96.8326105 106.277753,108.839706 96.7771761,112.007127 L91.9279636,113.624306 C88.9408487,114.619643 88.0388951,118.407937 90.2569249,120.644048 L112.319872,142.880992 L134.831856,120.530545 C136.580482,118.795012 139.543351,119.500284 140.323105,121.838258 L142.264729,127.667671 C145.431265,137.170903 157.435976,140.103557 164.624448,133.12844 L170.199103,127.720057 C177.294471,120.836131 174.903809,108.918285 165.702913,105.304612 Z" id="Stroke-1" fill="#FFFFFF"></path>
                        <path d="M166.61672,102.977606 C177.509864,107.255914 180.339918,121.364691 171.939908,129.51438 L166.365389,134.922632 C157.85492,143.180507 143.641844,139.709 139.892837,128.457686 L137.951527,122.629219 C137.758385,122.050112 137.025535,121.875615 136.593247,122.304666 L112.306562,146.417079 L110.545176,144.641802 L88.4819962,122.404624 C84.9584493,118.852352 86.3911752,112.834086 91.137053,111.252712 L95.9864805,109.635461 C103.739869,107.05054 106.131926,97.2509005 100.44161,91.3824328 L95.0347653,85.8062481 C89.4177629,80.0135056 79.6949338,81.9648253 76.7465573,89.4767757 L74.5926591,94.9643973 C72.8128477,99.5007167 66.9582259,100.710903 63.5262575,97.2517702 L45.031007,78.6110089 L112.057433,11.0540538 L180.61205,78.6043421 L178.818159,80.3851781 L160.3323,98.73651 C159.729577,99.3350553 159.940346,100.355794 160.729776,100.665826 L166.61672,102.977606 Z M133.070745,118.756148 C136.135599,115.714241 141.328393,116.950683 142.694998,121.048243 L144.636528,126.877373 C147.22088,134.633387 157.017471,137.026179 162.883643,131.334116 L168.458273,125.925757 C174.248954,120.307638 172.297844,110.580693 164.788994,107.631574 L158.902098,105.319812 C154.75134,103.689692 153.644843,98.331009 156.809392,95.1883949 L173.501669,78.6175923 L112.09739,18.1128883 L52.0744475,78.6109255 L67.0756593,93.7301587 C67.9633736,94.6248996 69.477593,94.311901 69.9382161,93.1378816 L72.0922286,87.6499687 C76.3692506,76.7528607 90.47551,73.9218101 98.6243573,82.3256118 L104.031219,87.9018144 C112.285329,96.4143419 108.81561,110.628882 97.5680867,114.378722 L92.7182697,115.996102 C91.4904119,116.405237 91.1194228,117.963603 92.0316214,118.883238 L112.333183,139.344905 L133.070745,118.756148 Z" id="Stroke-1" fill="#EF1C3B" fill-rule="nonzero"></path>
                    </g>
                </g>
            </g>
        </g>
    </g>
</svg>