<?xml version="1.0" encoding="UTF-8"?>
<svg width="295px" height="167px" viewBox="0 0 295 167" version="1.1" xmlns="http://www.w3.org/2000/svg" xmlns:xlink="http://www.w3.org/1999/xlink">
    <!-- Generator: Sketch 52.3 (67297) - http://www.bohemiancoding.com/sketch -->
    <title>IT solutions icon 3</title>
    <desc>Created with Sketch.</desc>
    <defs>
        <linearGradient x1="1.20662332%" y1="2.14292466%" x2="90.267142%" y2="79.7543246%" id="linearGradient-1">
            <stop stop-color="#0497F4" offset="0%"></stop>
            <stop stop-color="#0BCBF9" offset="100%"></stop>
        </linearGradient>
    </defs>
    <g id="Design" stroke="none" stroke-width="1" fill="none" fill-rule="evenodd">
        <g id="Product-Dev-1440" transform="translate(-819.000000, -1252.000000)">
            <g id="Group-2" transform="translate(150.000000, 936.000000)">
                <g id="Group-20" transform="translate(660.000000, 195.000000)">
                    <g id="IT-solutions-icon-3" transform="translate(9.000000, 121.000000)">
                        <g id="Group-12">
                            <path d="M147.800368,154.195709 C172.164637,154.315034 192.339122,134.44404 192.460678,110.207171 C192.586156,85.1402673 172.844308,64.8863822 148.176802,64.7755798 C123.575301,64.6647775 103.415194,84.7016473 103.336771,109.342388 C103.257693,134.118845 123.039406,154.074416 147.800368,154.195709 M144.625517,52.0752688 C177.111209,52.7427055 201.05199,64.5749554 220.246179,86.1237202 C225.570492,92.1018027 229.730213,99.1289016 234.361783,105.719347 C236.013255,108.0698 236.040703,110.549413 234.58333,113.099834 C221.429723,136.121811 202.972062,153.079162 177.765393,161.731581 C148.614667,171.737886 121.124562,167.227116 95.5564905,150.439574 C81.1892771,141.005638 69.993647,128.491528 61.4944835,113.516818 C60.0005129,110.885098 59.766549,108.51891 61.3186838,105.851786 C76.1917298,80.2925 97.1935843,62.5024923 126.074402,55.051853 C133.178931,53.2193524 140.618068,52.6948442 144.625517,52.0752688" id="Fill-1" fill="url(#linearGradient-1)"></path>
                            <polygon id="Fill-3" fill="#98E5FC" points="141.204268 35.016129 151.097561 35.016129 151.097561 0 141.204268 0"></polygon>
                            <polygon id="Fill-5" fill="#98E5FC" points="0 117.61828 35.0762195 117.61828 35.0762195 107.741935 0 107.741935"></polygon>
                            <polygon id="Fill-6" fill="#98E5FC" points="259.92378 117.61828 295 117.61828 295 107.741935 259.92378 107.741935"></polygon>
                            <path d="M242.386623,78.1129032 C240.656657,75.1839423 239.146194,72.6261586 237.439024,69.7363703 C247.804492,63.8354227 257.98628,58.0391496 268.463127,52.0752688 C270.107767,54.8456125 271.620185,57.3931214 273.414634,60.4158399 C263.137098,66.2776149 252.991133,72.0642553 242.386623,78.1129032" id="Fill-7" fill="#98E5FC"></path>
                            <path d="M97.1341463,41.7972544 C94.2502667,43.4754594 91.6205442,45.0060657 88.7302302,46.688172 C82.8041857,36.3139908 77.0132628,26.1751874 71.0518293,15.7385855 C73.9324917,14.0285199 76.5499889,12.4745059 79.4126352,10.7741935 C85.3618434,21.1880379 91.1540532,31.328792 97.1341463,41.7972544" id="Fill-8" fill="#98E5FC"></path>
                            <path d="M206.263304,46.688172 C203.331688,44.9619387 200.763389,43.4496959 197.865854,41.7436258 C203.804322,31.3445986 209.608394,21.1797251 215.550721,10.7741935 C218.396812,12.4126192 220.972185,13.8955928 223.948171,15.609468 C218.054073,25.9681688 212.266076,36.1388962 206.263304,46.688172" id="Fill-9" fill="#98E5FC"></path>
                            <path d="M55.7621951,69.9912572 C54.0723724,72.9784471 52.607605,75.5677784 51.1682676,78.1129032 C50.5630339,77.9932856 50.2165503,78.0114883 49.9641576,77.8626164 C40.3408141,72.2022328 30.7257352,66.526897 20.6859756,60.6032247 C22.2359334,57.8097633 23.7185018,55.1398201 25.4191323,52.0752688 C35.5307317,58.0457481 45.4655926,63.9115619 55.7621951,69.9912572" id="Fill-10" fill="#98E5FC"></path>
                            <path d="M147.363725,137.370714 C132.083923,137.305596 119.539389,124.674794 119.619282,109.434369 C119.699175,94.1918431 132.383169,81.635962 147.630033,81.704581 C162.843959,81.7732 175.453668,94.4943269 175.380783,109.701843 C175.307899,124.940168 162.655441,137.435832 147.363725,137.370714" id="Fill-11" fill="#98E5FC"></path>
                            <path d="M147.438456,122.107412 C140.537901,122.078004 134.872627,116.373771 134.908708,109.490998 C134.944788,102.607277 140.673044,96.9368791 147.558725,96.9678684 C154.42953,96.9988576 160.124237,102.743883 160.091321,109.611793 C160.058406,116.493617 154.344392,122.136821 147.438456,122.107412" id="Fill-11" stroke="#EF1C3B" stroke-width="4.5" fill="#EF1C3B"></path>
                        </g>
                        <g id="Group-3" transform="translate(67.454268, 89.784946)"></g>
                    </g>
                </g>
            </g>
        </g>
    </g>
</svg>