<?xml version="1.0" encoding="UTF-8"?>
<svg width="199px" height="185px" viewBox="0 0 199 185" version="1.1" xmlns="http://www.w3.org/2000/svg" xmlns:xlink="http://www.w3.org/1999/xlink">
    <!-- Generator: Sketch 52.3 (67297) - http://www.bohemiancoding.com/sketch -->
    <title>IT solutions icon 5</title>
    <desc>Created with Sketch.</desc>
    <defs>
        <linearGradient x1="1.20662332%" y1="2.14292466%" x2="90.267142%" y2="79.7543246%" id="linearGradient-1">
            <stop stop-color="#0497F4" offset="0%"></stop>
            <stop stop-color="#0BCBF9" offset="100%"></stop>
        </linearGradient>
    </defs>
    <g id="Design" stroke="none" stroke-width="1" fill="none" fill-rule="evenodd">
        <g id="Product-Dev-1440" transform="translate(-251.000000, -1571.000000)">
            <g id="Group-2" transform="translate(150.000000, 936.000000)">
                <g id="Group-24" transform="translate(0.000000, 530.000000)">
                    <g id="IT-solutions-icon-5" transform="translate(101.000000, 105.000000)">
                        <g id="Group-3" transform="translate(0.000000, 0.123038)">
                            <path d="M28.5652392,57.8584352 C36.7335646,68.8061864 44.3663636,79.0378371 52.5178708,89.9643443 L36.640622,89.9643443 C35.8360048,97.5652773 37.5204785,104.391689 39.5891148,111.095947 C49.5056459,143.237263 81.595622,165.254033 114.661938,162.72688 C149.77299,160.043052 177.991244,134.098794 182.988014,99.90566 C189.629426,54.4558514 154.074904,14.2108275 108.225885,15.280995 C103.247703,15.3969519 102.450167,14.5985309 102.394402,9.44420072 C102.291722,-0.0908232046 102.291722,-0.0908232046 111.854187,0.0207078959 C156.904785,0.54649737 194.887321,35.9346074 198.620072,80.8603969 C203.334474,137.601402 157.076507,183.114057 100.310718,177.586186 C59.2876316,173.591426 25.207799,139.369081 21.5679904,98.5336505 C21.3325359,95.8985069 20.9890909,93.2731002 20.6544976,90.2670715 L4.42583732,90.2670715 C12.7835885,79.0466888 20.4889713,68.7008514 28.5652392,57.8584352" id="Fill-1" fill="#98E5FC"></path>
                            <path d="M24.1390478,63.9314856 C32.3073732,74.8792368 39.9401722,85.1108876 48.0916794,96.0373947 L32.2144306,96.0373947 C31.4098134,103.638328 33.0942871,110.464739 35.1629234,117.168998 C45.0794545,149.310313 77.1694306,171.327084 110.235746,168.799931 C145.346799,166.116103 173.565053,140.171844 178.561823,105.978711 C185.203234,60.5289019 149.648713,20.283878 103.799694,21.3540455 C98.821512,21.4700024 98.0239761,20.6715813 97.9682105,15.5172512 C97.8655311,5.98222727 97.8655311,5.98222727 107.427995,6.09375837 C152.478593,6.61954785 190.461129,42.0076579 194.19388,86.9334474 C198.908282,143.674452 152.650316,189.187108 95.8845263,183.659237 C54.8614402,179.664476 20.7816077,145.442132 17.141799,104.606701 C16.9063445,101.971557 16.5628995,99.3461507 16.2283062,96.340122 L-0.000354066986,96.340122 C8.35739713,85.1197392 16.0627799,74.7739019 24.1390478,63.9314856" id="Fill-1" fill="url(#linearGradient-1)"></path>
                        </g>
                        <path d="M113.269392,73.6079593 C113.267622,82.7446579 113.38712,91.884012 113.166713,101.014514 C113.12334,102.813175 112.254105,105.131428 110.947598,106.274179 C99.1934593,116.552744 87.1994402,126.556022 75.4143206,136.800065 C72.5003493,139.332529 70.6414976,139.121859 68.2019761,136.170711 C61.118866,127.604945 60.7108038,129.022983 69.3013541,121.807983 C77.9848469,114.515089 86.627622,107.169084 95.0712344,99.6035574 C96.569823,98.2607584 97.7851579,95.7442273 97.8117129,93.7517153 C98.0294641,77.692122 98.0400861,61.6263325 97.854201,45.5658541 C97.8064019,41.463988 99.2987943,40.131811 103.254608,40.1654474 C114.771522,40.2619306 113.209201,39.7963325 113.263196,50.1766914 C113.303029,57.9874091 113.271163,65.7972416 113.269392,73.6079593" id="Fill-4" fill="#EF1C3B"></path>
                        <path d="M165.505603,95.7923804 C165.425938,99.4737919 162.329622,102.468313 158.613689,102.457691 C154.657876,102.447069 151.589,99.247189 151.789933,95.3427153 C151.980244,91.6347488 155.15534,88.7039593 158.846488,88.8269976 C162.463282,88.9482656 165.582612,92.211878 165.505603,95.7923804" id="Fill-6" fill="#98E5FC"></path>
                        <path d="M113.405089,147.191842 C113.328964,151.110478 110.268055,153.927081 106.232577,153.793421 C102.537888,153.669498 99.6044426,150.659928 99.6345383,147.02189 C99.664634,143.336938 103.159275,140.049426 106.841572,140.243278 C110.440663,140.431818 113.474132,143.643206 113.405089,147.191842" id="Fill-8" fill="#98E5FC"></path>
                        <path d="M143.011904,50.6893804 C146.71633,50.5840455 149.741833,53.4944761 149.8631,57.2803373 C149.99499,61.3937105 147.158914,64.4484234 143.209297,64.4466531 C139.49956,64.4448828 136.593555,61.4937344 136.53956,57.6742368 C136.48645,53.8565096 139.323411,50.7938301 143.011904,50.6893804" id="Fill-10" fill="#98E5FC"></path>
                        <path d="M149.853629,130.827043 C149.808486,134.789938 147.069778,137.600344 143.259132,137.595033 C139.296237,137.590608 136.37784,134.495177 136.53717,130.467665 C136.689419,126.619842 139.57949,123.894411 143.405184,123.99178 C147.262744,124.089148 149.898773,126.883622 149.853629,130.827043" id="Fill-12" fill="#98E5FC"></path>
                    </g>
                </g>
            </g>
        </g>
    </g>
</svg>