<?xml version="1.0" encoding="UTF-8"?>
<svg width="52px" height="75px" viewBox="0 0 52 75" version="1.1" xmlns="http://www.w3.org/2000/svg" xmlns:xlink="http://www.w3.org/1999/xlink">
    <!-- Generator: Sketch 52.3 (67297) - http://www.bohemiancoding.com/sketch -->
    <title>location icon big</title>
    <desc>Created with Sketch.</desc>
    <g id="Page-1" stroke="none" stroke-width="1" fill="none" fill-rule="evenodd">
        <g id="Contacts-1440" transform="translate(-936.000000, -1446.000000)" fill="#EF1C3B" fill-rule="nonzero">
            <path d="M986.771528,1464.66678 C986.502843,1463.66623 985.957226,1462.60011 985.553585,1461.6667 C980.723584,1450.13333 970.17013,1446 961.648745,1446 C950.241327,1446 937.677391,1453.60021 936,1469.26604 L936,1472.46665 C936,1472.60022 936.046331,1473.80008 936.112142,1474.40027 C937.05245,1481.86621 942.981583,1489.80087 947.409699,1497.26682 C952.173714,1505.26582 957.117086,1513.13457 962.014654,1521 C965.03459,1515.86716 968.043645,1510.66684 970.994786,1505.66688 C971.799084,1504.19953 972.732723,1502.73306 973.537899,1501.33249 C974.074566,1500.39995 975.099813,1499.4674 975.568212,1498.59972 C980.332052,1489.93357 988,1481.20046 988,1472.60004 L988,1469.0669 C988.000175,1468.13453 986.836988,1464.86783 986.771528,1464.66678 Z M961.857585,1480.73384 C958.504382,1480.73384 954.834058,1479.06788 953.022413,1474.46705 C952.7525,1473.73469 952.774261,1472.26699 952.774261,1472.13255 L952.774261,1470.06589 C952.774261,1464.20068 957.786428,1461.53348 962.146802,1461.53348 C967.514875,1461.53348 971.666585,1465.80073 971.666585,1471.13444 C971.666585,1476.46798 967.225658,1480.73384 961.857585,1480.73384 Z" id="location-icon-big"></path>
        </g>
    </g>
</svg>