<?xml version="1.0" encoding="UTF-8"?>
<svg width="251px" height="279px" viewBox="0 0 251 279" version="1.1" xmlns="http://www.w3.org/2000/svg" xmlns:xlink="http://www.w3.org/1999/xlink">
    <!-- Generator: Sketch 52.3 (67297) - http://www.bohemiancoding.com/sketch -->
    <title>OUTSOURCING LAND VISUAL WOMAN WITH PHONE</title>
    <desc>Created with Sketch.</desc>
    <defs>
        <filter x="-82.8%" y="-40.5%" width="265.6%" height="181.1%" filterUnits="objectBoundingBox" id="filter-1">
            <feOffset dx="0" dy="10" in="SourceAlpha" result="shadowOffsetOuter1"></feOffset>
            <feGaussianBlur stdDeviation="15" in="shadowOffsetOuter1" result="shadowBlurOuter1"></feGaussianBlur>
            <feColorMatrix values="0 0 0 0 0   0 0 0 0 0   0 0 0 0 0  0 0 0 0.15 0" type="matrix" in="shadowBlurOuter1" result="shadowMatrixOuter1"></feColorMatrix>
            <feMerge>
                <feMergeNode in="shadowMatrixOuter1"></feMergeNode>
                <feMergeNode in="SourceGraphic"></feMergeNode>
            </feMerge>
        </filter>
        <polygon id="path-2" points="0.216059585 0.906640625 23.1242369 0.906640625 23.1242369 47.3569891 0.216059585 47.3569891"></polygon>
        <path d="M65,60.5751858 C65,55.9115837 68.9114237,52 73.5751858,52 C78.238948,52 82,55.9115837 82,60.5751858 C82,65.238948 78.238948,69 73.5751858,69 C68.9114237,69 65,65.238948 65,60.5751858 Z M95.7868567,54.6739467 C95.2318633,52.6396267 94.4922,50.60511 93.38241,48.75546 L96.52652,44.3166933 C97.26638,43.3919667 97.0815133,42.2821767 96.3416533,41.5423167 L92.4576833,37.6583467 C91.7178233,36.9184867 90.6080333,36.9184867 89.6833067,37.47348 L85.24454,40.61759 C83.39489,39.6928633 81.3603733,38.7681367 79.3260533,38.2131433 L78.40113,32.84965 C78.2162633,31.73986 77.2915367,31 76.1817467,31 L70.8180567,31 C69.7084633,31 68.9686033,31.73986 68.7837367,32.84965 L67.8588133,38.2131433 C65.63943,38.7681367 63.6049133,39.6928633 61.75546,40.8024567 L57.13163,37.6583467 C56.39177,37.10355 55.2821767,37.10355 54.5423167,37.8432133 L50.6583467,41.72738 C49.9184867,42.4670433 49.7334233,43.5768333 50.4732833,44.50156 L53.61759,48.9405233 C52.5078,50.97504 51.76794,53.00936 51.2131433,55.0438767 L45.8494533,55.7837367 C44.73986,55.9686033 44,56.8935267 44,57.8182533 L44,63.36681 C44,64.4766 44.73986,65.2162633 45.8494533,65.4013267 L51.2131433,66.3260533 C51.76794,68.5454367 52.6926667,70.3950867 53.8024567,72.24454 L50.6583467,76.86837 C49.9184867,77.60823 50.1033533,78.7178233 50.8432133,79.4576833 L54.7271833,83.3416533 C55.4670433,84.0815133 56.5768333,84.2665767 57.50156,83.7115833 L61.9403267,80.38241 C63.9748433,81.4922 66.00936,82.23206 68.0438767,82.7868567 L68.7837367,88.3354133 C68.9686033,89.26014 69.89333,90 71.00312,90 L76.36681,90 C77.4764033,90 78.40113,89.26014 78.5861933,88.3354133 L79.51092,82.7868567 C81.3603733,82.23206 83.39489,81.4922 85.24454,80.38241 L89.6833067,83.5267167 C90.6080333,84.0815133 91.7178233,84.0815133 92.4576833,83.3416533 L96.3416533,79.4576833 C97.0815133,78.7178233 97.26638,77.60823 96.52652,76.6835033 L93.38241,72.24454 C94.4922,70.3950867 95.2318633,68.36057 95.7868567,66.3260533 L101.335413,65.2162633 C102.26014,65.2162633 103,64.2915367 103,63.1819433 L103,57.63319 C103,56.7084633 102.26014,55.7837367 101.335413,55.59887 L95.7868567,54.6739467 Z" id="path-4"></path>
        <filter x="-87.3%" y="-70.3%" width="274.6%" height="274.6%" filterUnits="objectBoundingBox" id="filter-5">
            <feMorphology radius="1.5" operator="dilate" in="SourceAlpha" result="shadowSpreadOuter1"></feMorphology>
            <feOffset dx="0" dy="10" in="shadowSpreadOuter1" result="shadowOffsetOuter1"></feOffset>
            <feGaussianBlur stdDeviation="15" in="shadowOffsetOuter1" result="shadowBlurOuter1"></feGaussianBlur>
            <feComposite in="shadowBlurOuter1" in2="SourceAlpha" operator="out" result="shadowBlurOuter1"></feComposite>
            <feColorMatrix values="0 0 0 0 0   0 0 0 0 0   0 0 0 0 0  0 0 0 0.15 0" type="matrix" in="shadowBlurOuter1" result="shadowMatrixOuter1"></feColorMatrix>
            <feMorphology radius="1.5" operator="dilate" in="SourceAlpha" result="shadowSpreadOuter2"></feMorphology>
            <feOffset dx="0" dy="2" in="shadowSpreadOuter2" result="shadowOffsetOuter2"></feOffset>
            <feGaussianBlur stdDeviation="2" in="shadowOffsetOuter2" result="shadowBlurOuter2"></feGaussianBlur>
            <feComposite in="shadowBlurOuter2" in2="SourceAlpha" operator="out" result="shadowBlurOuter2"></feComposite>
            <feColorMatrix values="0 0 0 0 0   0 0 0 0 0   0 0 0 0 0  0 0 0 0.1 0" type="matrix" in="shadowBlurOuter2" result="shadowMatrixOuter2"></feColorMatrix>
            <feMerge>
                <feMergeNode in="shadowMatrixOuter1"></feMergeNode>
                <feMergeNode in="shadowMatrixOuter2"></feMergeNode>
            </feMerge>
        </filter>
    </defs>
    <g id="Design" stroke="none" stroke-width="1" fill="none" fill-rule="evenodd">
        <g id="Index---V1-Outsource" transform="translate(-834.000000, -323.000000)">
            <g id="Group-77" transform="translate(819.000000, 163.000000)">
                <g id="Group-76">
                    <g id="OUTSOURCING-LAND-VISUAL-WOMAN-WITH-PHONE" transform="translate(44.000000, 159.000000)">
                        <g id="PHONE" filter="url(#filter-1)" transform="translate(0.000000, 50.000000)">
                            <rect id="Rectangle" fill="#FFFFFF" x="0.605442177" y="0" width="92" height="190" rx="12.75"></rect>
                            <path d="M22.3678169,3.99464028 C22.2039427,4.54526596 22.1159433,5.12856946 22.1159433,5.7324263 C22.1159433,9.09156082 24.8390599,11.8146774 28.1981944,11.8146774 L64.6924571,11.8146774 C68.0515916,11.8146774 70.7747081,9.09156082 70.7747081,5.7324263 C70.7747081,5.12856946 70.6867088,4.54526596 70.5228346,3.99464028 L79.6906515,3.99464028 C85.3239559,3.99464028 89.8906515,8.56133583 89.8906515,14.1946403 L89.8906515,176.262173 C89.8906515,181.895477 85.3239559,186.462173 79.6906515,186.462173 L13.2,186.462173 C7.56669555,186.462173 3,181.895477 3,176.262173 L3,14.1946403 C3,8.56133583 7.56669555,3.99464028 13.2,3.99464028 L22.3678169,3.99464028 Z" id="Combined-Shape" fill="#3B4B68"></path>
                            <path d="M22.1260175,4 C22.043753,4.31961992 22,4.65470043 22,5 C22,7.209139 23.790861,9 26,9 L67,9 C69.209139,9 71,7.209139 71,5 C71,4.65470043 70.956247,4.31961992 70.8739825,4 L80,4 C85.5228475,4 90,8.4771525 90,14 L90,129 L3,129 L3,14 C3,8.4771525 7.4771525,4 13,4 L22.1260175,4 Z" id="Combined-Shape" fill="#DADADA"></path>
                            <g id="Group-79" transform="translate(8.000000, 15.000000)">
                                <rect id="Rectangle" fill="#FFFFFF" x="0" y="0" width="25" height="3.01477833"></rect>
                                <rect id="Rectangle-Copy-60" fill="#0497F4" x="0" y="10.0492611" width="12.5" height="3.01477833"></rect>
                                <rect id="Rectangle-Copy-68" fill="#02BDF3" x="0" y="19.5960591" width="18.5" height="3.01477833"></rect>
                                <rect id="Rectangle-Copy-76" fill="#02BDF3" x="0" y="29.6453202" width="25.5" height="3.01477833"></rect>
                                <rect id="Rectangle-Copy-81" fill="#0497F4" x="0" y="39.1921182" width="18" height="3.01477833"></rect>
                                <rect id="Rectangle-Copy-84" fill="#0497F4" x="0" y="49.7438424" width="10.5" height="3.01477833"></rect>
                                <rect id="Rectangle-Copy-87" fill="#FFFFFF" x="0" y="59.2906404" width="18.5" height="3.01477833"></rect>
                                <rect id="Rectangle-Copy-90" fill="#0497F4" x="0" y="69.3399015" width="11.5" height="3.01477833"></rect>
                                <rect id="Rectangle-Copy-94" fill="#0497F4" x="0" y="78.8866995" width="22.5" height="3.01477833"></rect>
                                <rect id="Rectangle-Copy-101" fill="#FFFFFF" x="0" y="88.4334975" width="12.5" height="3.01477833"></rect>
                                <rect id="Rectangle-Copy-108" fill="#EF1C3B" x="0" y="98.9852217" width="10.5" height="3.01477833"></rect>
                                <rect id="Rectangle-Copy-109" fill="#0497F4" x="14.5" y="98.9852217" width="23" height="3.01477833"></rect>
                                <rect id="Rectangle-Copy-110" fill="#EF1C3B" x="41.5" y="98.9852217" width="11.5" height="3.01477833"></rect>
                                <rect id="Rectangle-Copy-113" fill="#0497F4" x="0" y="157.985222" width="22.5" height="3.01477833"></rect>
                                <rect id="Rectangle-Copy-114" fill="#EF1C3B" x="26" y="157.985222" width="18.5" height="3.01477833"></rect>
                                <rect id="Rectangle-Copy-115" fill="#0497F4" x="49" y="157.985222" width="24" height="3.01477833"></rect>
                                <rect id="Rectangle-Copy-111" fill="#02BDF3" x="57" y="98.9852217" width="18" height="3.01477833"></rect>
                                <rect id="Rectangle-Copy-103" fill="#EF1C3B" x="37.5" y="88.4334975" width="6.5" height="3.01477833"></rect>
                                <rect id="Rectangle-Copy-102" fill="#02BDF3" x="16" y="88.4334975" width="18" height="3.01477833"></rect>
                                <rect id="Rectangle-Copy-104" fill="#02BDF3" x="48" y="88.4334975" width="18" height="3.01477833"></rect>
                                <rect id="Rectangle-Copy-106" fill="#EF1C3B" x="0" y="147.985222" width="24" height="3.01477833"></rect>
                                <rect id="Rectangle-Copy-107" fill="#EF1C3B" x="27" y="147.985222" width="8" height="3.01477833"></rect>
                                <rect id="Rectangle-Copy-105" fill="#FFFFFF" x="70" y="88.4334975" width="4.5" height="3.01477833"></rect>
                                <rect id="Rectangle-Copy-95" fill="#FFFFFF" x="26.5" y="78.8866995" width="11" height="3.01477833"></rect>
                                <rect id="Rectangle-Copy-97" fill="#FFFFFF" x="50.5" y="78.8866995" width="19.5" height="3.01477833"></rect>
                                <rect id="Rectangle-Copy-99" fill="#0497F4" x="0" y="138" width="22.5" height="3.01477833"></rect>
                                <rect id="Rectangle-Copy-100" fill="#EF1C3B" x="27" y="138" width="24" height="3.01477833"></rect>
                                <rect id="Rectangle-Copy-96" fill="#EF1C3B" x="41.5" y="78.8866995" width="5" height="3.01477833"></rect>
                                <rect id="Rectangle-Copy-91" fill="#02BDF3" x="16" y="69.3399015" width="18" height="3.01477833"></rect>
                                <rect id="Rectangle-Copy-92" fill="#0497F4" x="38.5" y="69.3399015" width="14.5" height="3.01477833"></rect>
                                <rect id="Rectangle-Copy-93" fill="#EF1C3B" x="56.5" y="69.3399015" width="14.5" height="3.01477833"></rect>
                                <rect id="Rectangle-Copy-88" fill="#EF1C3B" x="22.5" y="59.2906404" width="8.5" height="3.01477833"></rect>
                                <rect id="Rectangle-Copy-89" fill="#0497F4" x="35" y="59.2906404" width="10.5" height="3.01477833"></rect>
                                <rect id="Rectangle-Copy-85" fill="#02BDF3" x="14.5" y="49.7438424" width="16" height="3.01477833"></rect>
                                <rect id="Rectangle-Copy-86" fill="#0497F4" x="34.5" y="49.7438424" width="22.5" height="3.01477833"></rect>
                                <rect id="Rectangle-Copy-83" fill="#EF1C3B" x="32" y="39.1921182" width="11.5" height="3.01477833"></rect>
                                <rect id="Rectangle-Copy-82" fill="#FFFFFF" x="21" y="39.1921182" width="7.5" height="3.01477833"></rect>
                                <rect id="Rectangle-Copy-77" fill="#0497F4" x="29.5" y="29.6453202" width="18" height="3.01477833"></rect>
                                <rect id="Rectangle-Copy-78" fill="#FFFFFF" x="53.5" y="29.6453202" width="10.5" height="3.01477833"></rect>
                                <rect id="Rectangle-Copy-80" fill="#0497F4" x="46.5" y="39.1921182" width="21.5" height="3.01477833"></rect>
                                <rect id="Rectangle-Copy-79" fill="#EF1C3B" x="67" y="29.6453202" width="12.5" height="3.01477833"></rect>
                                <rect id="Rectangle-Copy-70" fill="#FFFFFF" x="33" y="19.5960591" width="18.5" height="3.01477833"></rect>
                                <rect id="Rectangle-Copy-71" fill="#0497F4" x="54.5" y="19.5960591" width="9.5" height="3.01477833"></rect>
                                <rect id="Rectangle-Copy-72" fill="#FFFFFF" x="68.5" y="19.5960591" width="8.5" height="3.01477833"></rect>
                                <rect id="Rectangle-Copy-73" fill="#EF1C3B" x="45" y="128.014778" width="10.5" height="3.01477833"></rect>
                                <rect id="Rectangle-Copy-75" fill="#02BDF3" x="25" y="128.014778" width="16" height="3.01477833"></rect>
                                <rect id="Rectangle-Copy-74" fill="#0497F4" x="0" y="128.014778" width="21.5" height="3.01477833"></rect>
                                <rect id="Rectangle-Copy-69" fill="#EF1C3B" x="21" y="19.5960591" width="8.5" height="3.01477833"></rect>
                                <rect id="Rectangle-Copy-64" fill="#0497F4" x="49" y="10.0492611" width="22.5" height="3.01477833"></rect>
                                <rect id="Rectangle-Copy-65" fill="#FFFFFF" x="0" y="108" width="34" height="3.01477833"></rect>
                                <rect id="Rectangle-Copy-66" fill="#EF1C3B" x="41" y="108" width="34" height="3.01477833"></rect>
                                <rect id="Rectangle-Copy-61" fill="#0497F4" x="16" y="10.0492611" width="4.5" height="3.01477833"></rect>
                                <rect id="Rectangle-Copy-62" fill="#EF1C3B" x="24" y="10.0492611" width="4.5" height="3.01477833"></rect>
                                <rect id="Rectangle-Copy-63" fill="#0497F4" x="32" y="10.0492611" width="13.5" height="3.01477833"></rect>
                                <rect id="Rectangle-Copy-58" fill="#02BDF3" x="16" y="118" width="16" height="3.01477833"></rect>
                                <rect id="Rectangle-Copy-57" fill="#EF1C3B" x="0" y="118" width="12.5" height="3.01477833"></rect>
                                <rect id="Rectangle-Copy-59" fill="#02BDF3" x="35" y="118" width="12.5" height="3.01477833"></rect>
                                <rect id="Rectangle" fill="#02BDF3" x="30.5" y="0" width="39.5" height="3.01477833"></rect>
                            </g>
                        </g>
                        <g id="WOMAN" transform="translate(150.015267, 137.500000) scale(-1, 1) translate(-150.015267, -137.500000) translate(78.015267, 0.000000)">
                            <g id="Group-33">
                                <g id="Group-32" transform="translate(18.975453, 0.525651)">
                                    <path d="M48.7514647,251.59263 C48.7514647,251.59263 49.1090552,260.18638 50.300547,261.857865 C51.4934691,263.527917 54.3541935,264.960208 57.214918,259.589115 C60.0756424,254.218021 60.9095436,253.98026 58.8827203,248.011901 C56.8573274,242.043542 55.7845557,238.583125 53.996603,236.553568 C52.2086502,234.52401 49.9429564,233.091719 49.4666458,239.299271 C48.9903352,245.505391 48.7514647,251.59263 48.7514647,251.59263" id="Fill-11" fill="#000002"></path>
                                    <path d="M30.9912291,183.439466 C30.157328,190.361732 28.4880953,198.359648 32.1827209,204.446888 C35.8787768,210.534128 40.0497131,221.276315 43.149308,232.853529 C46.248903,244.430742 49.9435286,257.083607 51.3738908,257.083607 C52.804253,257.083607 57.8105208,254.695977 52.5653825,242.163424 C47.3216746,229.630872 43.030588,208.38569 44.1033596,200.745846 C45.1761313,193.107435 43.8644891,183.439466 43.8644891,183.439466 L30.9912291,183.439466 Z" id="Fill-7" fill="#FDB78E"></path>
                                    <path d="M44.460378,183.797539 C44.460378,183.797539 42.3148347,190.719805 43.5063264,197.165117 C44.6992485,203.61043 45.1755591,226.289336 44.9366887,236.792331 C44.6992485,247.295326 42.3148347,257.083607 40.4081619,260.425143 C38.5000587,263.76668 35.1630236,263.289727 36.1170752,266.393503 C37.0696964,269.495846 42.5537052,276.180352 45.1755591,266.631263 C47.7974131,257.083607 53.996603,237.508477 56.8573274,224.857044 C59.7180518,212.20418 58.5251298,202.178138 57.5725085,195.495065 C56.6184569,188.81056 60.9095436,180.456003 60.9095436,180.456003 L44.460378,183.797539 Z" id="Fill-5" fill="#FFD2B8"></path>
                                    <path d="M29.3224255,113.853867 C29.3224255,113.853867 20.5013817,124.835247 21.6943038,145.125091 C22.8857955,165.416367 25.5076495,183.796966 25.5076495,183.796966 C25.5076495,183.796966 34.8050039,186.900742 45.05641,185.707643 C55.307816,184.513112 63.4122484,183.08082 63.4122484,183.08082 C63.4122484,183.08082 69.3725677,146.557383 69.3725677,138.202826 C69.3725677,129.848268 62.9359377,118.389935 59.5989027,112.898529 C53.3997128,115.763112 38.8586505,116.479258 29.3224255,113.853867" id="Fill-3" fill="#EF1C3B"></path>
                                    <path d="M38.5237841,50.0676872 C38.5237841,50.0676872 41.026918,47.0842236 41.2657885,42.7873486 C41.5032287,38.4904736 54.7340792,33.7152132 54.7340792,33.7152132 C54.7340792,33.7152132 54.3764886,47.5611767 52.8274064,49.7096142 C47.344828,51.1419059 42.0996897,54.3645622 38.5237841,50.0676872" id="Fill-30" fill="#FDB78E"></path>
                                    <path d="M40.7653233,257.918633 C40.7653233,257.918633 33.9711028,267.467721 31.7068394,269.258086 C29.4411456,271.048451 31.5866889,272.599622 33.1372016,273.196888 C34.6862839,273.792721 40.0501422,274.150794 43.7447678,270.332305 C47.4408238,266.512383 48.393445,266.03543 48.9899061,263.050534 C49.5863671,260.06707 50.1813978,262.812773 50.3015482,261.857435 C50.4202683,260.902096 49.2287766,254.337904 48.9899061,253.144805 C48.7510356,251.950273 48.393445,248.608737 47.3206734,253.740638 C46.2479017,258.873971 43.9836383,260.783216 40.7653233,257.918633" id="Fill-9" fill="#000002"></path>
                                    <path d="M27.057733,53.5783073 C27.057733,53.5783073 23.6005475,55.2497917 15.4961152,66.708125 C7.39025249,78.1664583 -1.43079133,97.8604688 1.19249298,100.008906 C3.81434694,102.157344 21.5751546,105.021927 23.6005475,105.021927 C22.7666464,103.11125 25.9849614,99.4116406 25.9849614,99.4116406 C25.9849614,99.4116406 15.0183742,94.5175 18.1179691,83.4172396 C21.2175641,72.3169792 28.1305047,65.5135938 28.1305047,65.5135938 L27.057733,53.5783073 Z" id="Fill-19" fill="#FFFFFF"></path>
                                    <path d="M39.5734025,47.9684505 C39.8394498,46.9916276 41.4800753,48.8034766 45.0559809,48.8034766 C48.6318864,48.8034766 54.1158952,46.4172786 53.8770247,47.6103776 C53.6381542,48.8034766 52.0890719,51.309987 55.5462574,51.6680599 C59.0020125,52.0261328 65.3199224,54.2948828 65.2012024,55.1299089 C65.081052,55.9649349 61.1475558,71.4823828 61.0288358,78.5235286 C60.9101157,85.5661068 55.9038479,97.0244401 59.5984736,112.898529 C42.9104375,118.627695 29.3219964,113.853867 29.3219964,113.853867 C29.3219964,113.853867 29.679587,95.1151953 27.1764531,87.5956641 C24.6733192,80.0761328 22.2903357,72.794362 22.7666464,67.9016536 C23.242957,63.007513 24.5545991,54.8907161 27.057733,53.578737 C29.5608669,52.2653255 34.9247252,50.7141536 36.593958,50.116888 C38.2617603,49.5196224 39.2158119,49.281862 39.5734025,47.9684505" id="Fill-13" fill="#FFFFFF"></path>
                                    <path d="M65.2006302,55.1299089 C65.2006302,55.1299089 62.4586259,60.5010026 61.8635952,65.5140234 C61.2671341,70.5270443 61.2671341,76.0170182 65.5582208,85.4472266 C69.8493075,94.8760026 70.4457685,97.8594661 78.6703513,94.9948828 C86.894934,92.1302995 104.296721,84.6107682 104.296721,84.6107682 L102.986509,79.359987 C102.986509,79.359987 80.1007135,84.0149349 76.4046575,84.7310807 C74.4979847,85.4472266 72.9489024,75.063112 70.6832086,67.7813411 C68.4189452,60.5010026 68.6578157,56.4433203 65.2006302,55.1299089" id="Fill-15" fill="#FFFFFF"></path>
                                    <path d="M102.116277,83.2041146 C102.52536,85.9498177 118.410963,84.9686979 120.025842,85.2608854 C121.640721,85.5530729 120.236105,83.4604948 116.677364,83.4160938 C113.117193,83.3716927 115.460126,82.641224 120.073044,82.3948698 C124.684532,82.1499479 123.824884,81.7861458 124.029426,81.2576302 C124.232537,80.7305469 121.862427,80.509974 118.47676,80.956849 C115.089662,81.4051563 115.987929,79.4758594 120.839718,79.0805469 C125.691507,78.6852344 126.313714,76.5282031 121.667898,77.0939583 C117.022081,77.6611458 115.065346,77.7828906 117.808781,76.5697396 C120.550785,75.3565885 128.217526,71.1341927 119.927147,73.4444792 C111.636768,75.7547656 107.123975,78.4073698 108.854713,75.8908333 C110.585451,73.3742969 111.28919,71.400599 110.073382,70.6257292 C108.856143,69.8508594 109.203721,70.8348438 107.175468,73.5705208 C105.148645,76.3047656 101.423981,78.5649219 102.116277,83.2041146" id="Fill-17" fill="#FFD2B8"></path>
                                    <path d="M24.9121897,100.485859 C23.0055169,103.947708 20.502383,104.663854 23.6005475,105.021927 C26.7001425,105.38 32.7791819,106.333906 35.8787768,104.782734 C38.9769414,103.231563 41.9578163,99.8885938 39.5734025,98.9346875 C37.1889886,97.979349 24.9121897,100.485859 24.9121897,100.485859" id="Fill-21" fill="#FFD2B8"></path>
                                    <g id="Group-27" transform="translate(48.632316, 0.000000)">
                                        <mask id="mask-3" fill="white">
                                            <use xlink:href="#path-2"></use>
                                        </mask>
                                        <g id="Clip-26"></g>
                                        <path d="M0.238441382,6.1933724 C0.238441382,6.1933724 1.04230495,1.18035156 10.3396594,0.911080729 C19.6384442,0.643242187 21.9627828,12.1903776 17.7603786,26.8727995 C13.5594047,41.5523568 17.0451975,44.775013 23.1242369,41.8216276 C22.5878511,45.8492318 13.9169953,51.399362 11.2336358,42.8958464 C8.55170661,34.3908984 11.1449533,24.8131641 8.64181943,20.2484505 C6.13868554,15.6823047 -0.207831631,10.3112109 0.238441382,6.1933724" id="Fill-25" fill="#000002" mask="url(#mask-3)"></path>
                                    </g>
                                    <path d="M34.2989418,26.0664193 C34.2989418,26.0664193 35.6391912,38.896888 38.9776566,41.8817839 C42.3146917,44.8652474 52.744893,40.5082161 55.5755798,34.0328255 C58.4062667,27.5588672 54.2353304,18.2489714 49.3477827,15.9802214 C44.460235,13.7129036 36.0568569,14.4290495 34.2989418,26.0664193" id="Fill-28" fill="#FFD2B8"></path>
                                    <path d="M34.2989418,26.0664193 C33.7625559,20.3372526 34.8353276,12.6386849 39.5741176,9.23699219 C45.4872351,4.99167969 55.5755798,4.94011719 59.3302806,12.5484505 C63.0849815,20.1582161 57.005942,32.1536589 55.5755798,34.0328255 C54.1452176,35.9134245 54.447024,35.8675911 52.2685824,28.0358203 C49.9442438,19.681263 44.6375999,16.8567839 41.0030495,18.0097786 C36.1169322,19.5609505 34.9240101,25.5293099 34.2989418,26.0664193" id="Fill-23" fill="#000002"></path>
                                </g>
                                <polygon id="Fill-2" fill="#343434" points="32.3254525 90.0305599 68.084508 94.0882422 68.084508 95.9989193 49.4897992 102.205039 31.6102714 98.8635026"></polygon>
                                <polygon id="Fill-1" fill="#000000" points="11.4430408 96.2375391 50.5391314 102.204466 39.5739746 64.4879297 0.000143036222 60.6680078"></polygon>
                            </g>
                        </g>
                        <g id="Fill-1-Copy-5" fill-rule="nonzero">
                            <use fill="black" fill-opacity="1" filter="url(#filter-5)" xlink:href="#path-4"></use>
                            <use stroke="#FFFFFF" stroke-width="3" fill="#EF1C3B" xlink:href="#path-4"></use>
                        </g>
                    </g>
                </g>
            </g>
        </g>
    </g>
</svg>