<?xml version="1.0" encoding="UTF-8"?>
<svg width="122px" height="108px" viewBox="0 0 122 108" version="1.1" xmlns="http://www.w3.org/2000/svg" xmlns:xlink="http://www.w3.org/1999/xlink">
    <!-- Generator: Sketch 52.3 (67297) - http://www.bohemiancoding.com/sketch -->
    <title>outsource icon 3</title>
    <desc>Created with Sketch.</desc>
    <defs>
        <linearGradient x1="1.20662332%" y1="2.14292466%" x2="90.267142%" y2="79.7543246%" id="linearGradient-1">
            <stop stop-color="#0497F4" offset="0%"></stop>
            <stop stop-color="#0BCBF9" offset="100%"></stop>
        </linearGradient>
    </defs>
    <g id="Design" stroke="none" stroke-width="1" fill="none" fill-rule="evenodd">
        <g id="Outsource-1440" transform="translate(-1187.000000, -1210.000000)">
            <g id="outsource-icon-3" transform="translate(1187.000000, 1210.000000)">
                <g id="Group-14-Copy" transform="translate(15.000000, 8.000000)" fill="url(#linearGradient-1)" fill-rule="nonzero">
                    <path d="M7.8,2 C4.59674845,2 2,4.59674845 2,7.8 L2,92.2 C2,95.4032515 4.59674845,98 7.8,98 L73.2,98 C76.4032515,98 79,95.4032515 79,92.2 L79,7.8 C79,4.59674845 76.4032515,2 73.2,2 L7.8,2 Z M7.8,0 L73.2,0 C77.507821,-7.91333889e-16 81,3.49217895 81,7.8 L81,92.2 C81,96.507821 77.507821,100 73.2,100 L7.8,100 C3.49217895,100 3.19209118e-15,96.507821 2.66453526e-15,92.2 L0,7.8 C-5.27555926e-16,3.49217895 3.49217895,4.34404757e-15 7.8,0 Z" id="Rectangle"></path>
                    <path d="M13.3461538,12.9375 C12.2415843,12.9375 11.3461538,13.8329305 11.3461538,14.9375 L11.3461538,25.6875 C11.3461538,26.7920695 12.2415843,27.6875 13.3461538,27.6875 L66.0961538,27.6875 C67.2007233,27.6875 68.0961538,26.7920695 68.0961538,25.6875 L68.0961538,14.9375 C68.0961538,13.8329305 67.2007233,12.9375 66.0961538,12.9375 L13.3461538,12.9375 Z M13.3461538,10.9375 L66.0961538,10.9375 C68.3052928,10.9375 70.0961538,12.728361 70.0961538,14.9375 L70.0961538,25.6875 C70.0961538,27.896639 68.3052928,29.6875 66.0961538,29.6875 L13.3461538,29.6875 C11.1370148,29.6875 9.34615385,27.896639 9.34615385,25.6875 L9.34615385,14.9375 C9.34615385,12.728361 11.1370148,10.9375 13.3461538,10.9375 Z" id="Rectangle"></path>
                    <path d="M12.4661538,39.5 C11.8475949,39.5 11.3461538,40.0014411 11.3461538,40.62 L11.3461538,48.4425 C11.3461538,49.0610589 11.8475949,49.5625 12.4661538,49.5625 L20.2453846,49.5625 C20.8639435,49.5625 21.3653846,49.0610589 21.3653846,48.4425 L21.3653846,40.62 C21.3653846,40.0014411 20.8639435,39.5 20.2453846,39.5 L12.4661538,39.5 Z M12.4661538,37.5 L20.2453846,37.5 C21.968513,37.5 23.3653846,38.8968716 23.3653846,40.62 L23.3653846,48.4425 C23.3653846,50.1656284 21.968513,51.5625 20.2453846,51.5625 L12.4661538,51.5625 C10.7430254,51.5625 9.34615385,50.1656284 9.34615385,48.4425 L9.34615385,40.62 C9.34615385,38.8968716 10.7430254,37.5 12.4661538,37.5 Z" id="Rectangle"></path>
                    <path d="M12.4661538,58.25 C11.8475949,58.25 11.3461538,58.7514411 11.3461538,59.37 L11.3461538,67.1925 C11.3461538,67.8110589 11.8475949,68.3125 12.4661538,68.3125 L20.2453846,68.3125 C20.8639435,68.3125 21.3653846,67.8110589 21.3653846,67.1925 L21.3653846,59.37 C21.3653846,58.7514411 20.8639435,58.25 20.2453846,58.25 L12.4661538,58.25 Z M12.4661538,56.25 L20.2453846,56.25 C21.968513,56.25 23.3653846,57.6468716 23.3653846,59.37 L23.3653846,67.1925 C23.3653846,68.9156284 21.968513,70.3125 20.2453846,70.3125 L12.4661538,70.3125 C10.7430254,70.3125 9.34615385,68.9156284 9.34615385,67.1925 L9.34615385,59.37 C9.34615385,57.6468716 10.7430254,56.25 12.4661538,56.25 Z" id="Rectangle-Copy-18"></path>
                    <path d="M12.4661538,77 C11.8475949,77 11.3461538,77.5014411 11.3461538,78.12 L11.3461538,85.9425 C11.3461538,86.5610589 11.8475949,87.0625 12.4661538,87.0625 L20.2453846,87.0625 C20.8639435,87.0625 21.3653846,86.5610589 21.3653846,85.9425 L21.3653846,78.12 C21.3653846,77.5014411 20.8639435,77 20.2453846,77 L12.4661538,77 Z M12.4661538,75 L20.2453846,75 C21.968513,75 23.3653846,76.3968716 23.3653846,78.12 L23.3653846,85.9425 C23.3653846,87.6656284 21.968513,89.0625 20.2453846,89.0625 L12.4661538,89.0625 C10.7430254,89.0625 9.34615385,87.6656284 9.34615385,85.9425 L9.34615385,78.12 C9.34615385,76.3968716 10.7430254,75 12.4661538,75 Z" id="Rectangle-Copy-21"></path>
                    <path d="M35.8315385,39.5 C35.2129795,39.5 34.7115385,40.0014411 34.7115385,40.62 L34.7115385,48.4425 C34.7115385,49.0610589 35.2129795,49.5625 35.8315385,49.5625 L43.6107692,49.5625 C44.2293282,49.5625 44.7307692,49.0610589 44.7307692,48.4425 L44.7307692,40.62 C44.7307692,40.0014411 44.2293282,39.5 43.6107692,39.5 L35.8315385,39.5 Z M35.8315385,37.5 L43.6107692,37.5 C45.3338977,37.5 46.7307692,38.8968716 46.7307692,40.62 L46.7307692,48.4425 C46.7307692,50.1656284 45.3338977,51.5625 43.6107692,51.5625 L35.8315385,51.5625 C34.10841,51.5625 32.7115385,50.1656284 32.7115385,48.4425 L32.7115385,40.62 C32.7115385,38.8968716 34.10841,37.5 35.8315385,37.5 Z" id="Rectangle-Copy-16"></path>
                    <path d="M35.8315385,58.25 C35.2129795,58.25 34.7115385,58.7514411 34.7115385,59.37 L34.7115385,67.1925 C34.7115385,67.8110589 35.2129795,68.3125 35.8315385,68.3125 L43.6107692,68.3125 C44.2293282,68.3125 44.7307692,67.8110589 44.7307692,67.1925 L44.7307692,59.37 C44.7307692,58.7514411 44.2293282,58.25 43.6107692,58.25 L35.8315385,58.25 Z M35.8315385,56.25 L43.6107692,56.25 C45.3338977,56.25 46.7307692,57.6468716 46.7307692,59.37 L46.7307692,67.1925 C46.7307692,68.9156284 45.3338977,70.3125 43.6107692,70.3125 L35.8315385,70.3125 C34.10841,70.3125 32.7115385,68.9156284 32.7115385,67.1925 L32.7115385,59.37 C32.7115385,57.6468716 34.10841,56.25 35.8315385,56.25 Z" id="Rectangle-Copy-19"></path>
                    <path d="M35.8315385,77 C35.2129795,77 34.7115385,77.5014411 34.7115385,78.12 L34.7115385,85.9425 C34.7115385,86.5610589 35.2129795,87.0625 35.8315385,87.0625 L43.6107692,87.0625 C44.2293282,87.0625 44.7307692,86.5610589 44.7307692,85.9425 L44.7307692,78.12 C44.7307692,77.5014411 44.2293282,77 43.6107692,77 L35.8315385,77 Z M35.8315385,75 L43.6107692,75 C45.3338977,75 46.7307692,76.3968716 46.7307692,78.12 L46.7307692,85.9425 C46.7307692,87.6656284 45.3338977,89.0625 43.6107692,89.0625 L35.8315385,89.0625 C34.10841,89.0625 32.7115385,87.6656284 32.7115385,85.9425 L32.7115385,78.12 C32.7115385,76.3968716 34.10841,75 35.8315385,75 Z" id="Rectangle-Copy-22"></path>
                    <path d="M59.1969231,39.5 C58.5783642,39.5 58.0769231,40.0014411 58.0769231,40.62 L58.0769231,48.4425 C58.0769231,49.0610589 58.5783642,49.5625 59.1969231,49.5625 L66.9761538,49.5625 C67.5947128,49.5625 68.0961538,49.0610589 68.0961538,48.4425 L68.0961538,40.62 C68.0961538,40.0014411 67.5947128,39.5 66.9761538,39.5 L59.1969231,39.5 Z M59.1969231,37.5 L66.9761538,37.5 C68.6992823,37.5 70.0961538,38.8968716 70.0961538,40.62 L70.0961538,48.4425 C70.0961538,50.1656284 68.6992823,51.5625 66.9761538,51.5625 L59.1969231,51.5625 C57.4737947,51.5625 56.0769231,50.1656284 56.0769231,48.4425 L56.0769231,40.62 C56.0769231,38.8968716 57.4737947,37.5 59.1969231,37.5 Z" id="Rectangle-Copy-17"></path>
                    <path d="M59.1969231,58.25 C58.5783642,58.25 58.0769231,58.7514411 58.0769231,59.37 L58.0769231,67.1925 C58.0769231,67.8110589 58.5783642,68.3125 59.1969231,68.3125 L66.9761538,68.3125 C67.5947128,68.3125 68.0961538,67.8110589 68.0961538,67.1925 L68.0961538,59.37 C68.0961538,58.7514411 67.5947128,58.25 66.9761538,58.25 L59.1969231,58.25 Z M59.1969231,56.25 L66.9761538,56.25 C68.6992823,56.25 70.0961538,57.6468716 70.0961538,59.37 L70.0961538,67.1925 C70.0961538,68.9156284 68.6992823,70.3125 66.9761538,70.3125 L59.1969231,70.3125 C57.4737947,70.3125 56.0769231,68.9156284 56.0769231,67.1925 L56.0769231,59.37 C56.0769231,57.6468716 57.4737947,56.25 59.1969231,56.25 Z" id="Rectangle-Copy-20"></path>
                    <path d="M59.1969231,77 C58.5783642,77 58.0769231,77.5014411 58.0769231,78.12 L58.0769231,85.9425 C58.0769231,86.5610589 58.5783642,87.0625 59.1969231,87.0625 L66.9761538,87.0625 C67.5947128,87.0625 68.0961538,86.5610589 68.0961538,85.9425 L68.0961538,78.12 C68.0961538,77.5014411 67.5947128,77 66.9761538,77 L59.1969231,77 Z M59.1969231,75 L66.9761538,75 C68.6992823,75 70.0961538,76.3968716 70.0961538,78.12 L70.0961538,85.9425 C70.0961538,87.6656284 68.6992823,89.0625 66.9761538,89.0625 L59.1969231,89.0625 C57.4737947,89.0625 56.0769231,87.6656284 56.0769231,85.9425 L56.0769231,78.12 C56.0769231,76.3968716 57.4737947,75 59.1969231,75 Z" id="Rectangle-Copy-23"></path>
                </g>
                <ellipse id="Oval-Copy" fill="#FFFFFF" fill-rule="nonzero" cx="102.916667" cy="83.0319149" rx="17.9166667" ry="18.0319149"></ellipse>
                <path d="M102.916667,102.06383 C92.4678397,102.06383 84,93.541521 84,83.0319149 C84,72.5223088 92.4678397,64 102.916667,64 C113.365494,64 121.833333,72.5223088 121.833333,83.0319149 C121.833333,93.541521 113.365494,102.06383 102.916667,102.06383 Z M102.916667,100.06383 C112.258043,100.06383 119.833333,92.439812 119.833333,83.0319149 C119.833333,73.6240178 112.258043,66 102.916667,66 C93.5752901,66 86,73.6240178 86,83.0319149 C86,92.439812 93.5752901,100.06383 102.916667,100.06383 Z" id="Oval-Copy" fill="#EF1C3B" fill-rule="nonzero"></path>
                <path d="M101.764889,90.9257872 C101.019552,90.8232052 100.320411,90.6180441 99.6674444,90.3102979 C99.0144782,90.0025517 98.458669,89.6210803 98,89.1658723 L98.7262222,88.0791489 C98.7899262,87.9829782 98.8743328,87.90444 98.9794444,87.8435319 C99.0845561,87.7826238 99.1944439,87.7521702 99.3091111,87.7521702 C99.44926,87.7521702 99.5989622,87.8018577 99.7582222,87.901234 C99.9174823,88.0006104 100.099036,88.1176163 100.302889,88.2522553 C100.506742,88.3868943 100.739258,88.5215312 101.000444,88.6561702 C101.261631,88.7908092 101.570591,88.8901841 101.927333,88.9542979 L102.290444,84.6458723 C101.838146,84.5176447 101.390632,84.3669796 100.947889,84.1938723 C100.505146,84.0207651 100.107002,83.7915617 99.7534444,83.5062553 C99.3998871,83.2209489 99.1148159,82.8603142 98.8982222,82.4243404 C98.6816285,81.9883666 98.5733333,81.4434075 98.5733333,80.7894468 C98.5733333,80.302182 98.6704805,79.8261442 98.8647778,79.3613191 C99.059075,78.8964941 99.3409611,78.4813635 99.7104444,78.1159149 C100.079928,77.7504663 100.535405,77.4491359 101.076889,77.2119149 C101.618373,76.9746938 102.239478,76.8400569 102.940222,76.808 L103.045333,75.5962553 C103.058074,75.4423822 103.121777,75.3045396 103.236444,75.1827234 C103.351112,75.0609072 103.500814,75 103.685556,75 L104.555111,75 L104.392667,76.8945532 C105.067929,77.0035466 105.650812,77.1958851 106.141333,77.4715745 C106.631854,77.7472638 107.058665,78.058211 107.421778,78.4044255 L106.848444,79.2795745 C106.759259,79.4078021 106.670075,79.5039713 106.580889,79.5680851 C106.491703,79.6321989 106.383408,79.6642553 106.256,79.6642553 C106.160444,79.6642553 106.047371,79.6338017 105.916778,79.5728936 C105.786185,79.5119855 105.636482,79.4382558 105.467667,79.3517021 C105.298851,79.2651485 105.11252,79.1769934 104.908667,79.087234 C104.704814,78.9974747 104.478668,78.923745 104.230222,78.8660426 L103.895778,82.8474894 C104.354447,82.9885397 104.808331,83.1440133 105.257444,83.3139149 C105.706558,83.4838165 106.111072,83.7034029 106.471,83.9726809 C106.830928,84.2419588 107.122369,84.5769484 107.345333,84.9776596 C107.568297,85.3783708 107.679778,85.8800537 107.679778,86.4827234 C107.679778,87.0789817 107.581038,87.6383662 107.383556,88.1608936 C107.186073,88.6834211 106.897817,89.1450335 106.518778,89.5457447 C106.139739,89.9464559 105.673114,90.2718285 105.118889,90.5218723 C104.564664,90.7719161 103.930818,90.9225813 103.217333,90.9738723 L103.102667,92.3875745 C103.089926,92.5350362 103.026223,92.671276 102.911556,92.7962979 C102.796888,92.9213198 102.647186,92.9838298 102.462444,92.9838298 L101.592889,92.9838298 L101.764889,90.9257872 Z M105.443778,86.8481702 C105.443778,86.6045378 105.400778,86.3913626 105.314778,86.2086383 C105.228777,86.025914 105.107742,85.8640291 104.951667,85.7229787 C104.795592,85.5819284 104.612445,85.460114 104.402222,85.3575319 C104.191999,85.2549498 103.962668,85.1619862 103.714222,85.0786383 L103.389333,88.9831489 C104.064596,88.8933896 104.575813,88.6641862 104.923,88.2955319 C105.270187,87.9268776 105.443778,87.4444285 105.443778,86.8481702 Z M100.799778,80.5586383 C100.799778,80.8022707 100.841185,81.0170487 100.924,81.2029787 C101.006815,81.3889087 101.123073,81.5539993 101.272778,81.6982553 C101.422482,81.8425114 101.599258,81.970737 101.803111,82.0829362 C102.006964,82.1951353 102.229925,82.296113 102.472,82.3858723 L102.768222,78.8275745 C102.41785,78.8724541 102.118446,78.9477867 101.87,79.0535745 C101.621554,79.1593622 101.417704,79.2891907 101.258444,79.4430638 C101.099184,79.5969369 100.982926,79.7684388 100.909667,79.9575745 C100.836407,80.1467102 100.799778,80.3470628 100.799778,80.5586383 Z" id="$-copy" fill="#EF1C3B"></path>
                <rect id="Rectangle" fill="#FFFFFF" fill-rule="nonzero" x="0" y="0" width="40" height="49" rx="3"></rect>
                <path d="M3,2 C2.44771525,2 2,2.44771525 2,3 L2,46 C2,46.5522847 2.44771525,47 3,47 L37,47 C37.5522847,47 38,46.5522847 38,46 L38,3 C38,2.44771525 37.5522847,2 37,2 L3,2 Z M3,0 L37,0 C38.6568542,-3.04359188e-16 40,1.34314575 40,3 L40,46 C40,47.6568542 38.6568542,49 37,49 L3,49 C1.34314575,49 2.02906125e-16,47.6568542 0,46 L0,3 C-2.02906125e-16,1.34314575 1.34314575,3.04359188e-16 3,0 Z" id="Rectangle" fill="url(#linearGradient-1)" fill-rule="nonzero"></path>
                <polygon id="Path-26" fill="#EF1C3B" fill-rule="nonzero" points="13.3663317 22 14 22.6454679 10.2682192 27 8 24.3532654 8.63366825 23.7077975 10.2682192 25.6151187"></polygon>
                <polygon id="Path-26-Copy" fill="#EF1C3B" fill-rule="nonzero" points="13.3663317 30 14 30.6454679 10.2682192 35 8 32.3532654 8.63366825 31.7077975 10.2682192 33.6151187"></polygon>
                <polygon id="Path-26-Copy-3" fill="#EF1C3B" fill-rule="nonzero" points="13.3663317 14 14 14.6454679 10.2682192 19 8 16.3532654 8.63366825 15.7077975 10.2682192 17.6151187"></polygon>
                <path d="M16.3,16.5 C15.7477153,16.5 15.3,16.0522847 15.3,15.5 C15.3,14.9477153 15.7477153,14.5 16.3,14.5 L27.7,14.5 C28.2522847,14.5 28.7,14.9477153 28.7,15.5 C28.7,16.0522847 28.2522847,16.5 27.7,16.5 L16.3,16.5 Z" id="Line-19-Copy" fill="url(#linearGradient-1)" fill-rule="nonzero"></path>
                <path d="M16.3,33.5 C15.7477153,33.5 15.3,33.0522847 15.3,32.5 C15.3,31.9477153 15.7477153,31.5 16.3,31.5 L27.7,31.5 C28.2522847,31.5 28.7,31.9477153 28.7,32.5 C28.7,33.0522847 28.2522847,33.5 27.7,33.5 L16.3,33.5 Z" id="Line-19-Copy-3" fill="url(#linearGradient-1)" fill-rule="nonzero"></path>
                <path d="M16.3,25.5 C15.7477153,25.5 15.3,25.0522847 15.3,24.5 C15.3,23.9477153 15.7477153,23.5 16.3,23.5 L27.7,23.5 C28.2522847,23.5 28.7,23.9477153 28.7,24.5 C28.7,25.0522847 28.2522847,25.5 27.7,25.5 L16.3,25.5 Z" id="Line-19-Copy-2" fill="url(#linearGradient-1)" fill-rule="nonzero"></path>
            </g>
        </g>
    </g>
</svg>