<?xml version="1.0" encoding="UTF-8"?>
<svg width="200px" height="178px" viewBox="0 0 200 178" version="1.1" xmlns="http://www.w3.org/2000/svg" xmlns:xlink="http://www.w3.org/1999/xlink">
    <!-- Generator: Sketch 52.3 (67297) - http://www.bohemiancoding.com/sketch -->
    <title>outsource services icon 1</title>
    <desc>Created with Sketch.</desc>
    <defs>
        <linearGradient x1="1.20662332%" y1="2.14292466%" x2="90.267142%" y2="79.7543246%" id="linearGradient-1">
            <stop stop-color="#0497F4" offset="0%"></stop>
            <stop stop-color="#0BCBF9" offset="100%"></stop>
        </linearGradient>
    </defs>
    <g id="Design" stroke="none" stroke-width="1" fill="none" fill-rule="evenodd">
        <g id="Outsource-1440" transform="translate(-1044.000000, -2458.000000)">
            <g id="outsource-services-icon-1" transform="translate(1044.000000, 2458.000000)">
                <g id="Group-55" transform="translate(6.000000, 0.000000)">
                    <g id="Group-51">
                        <rect id="Rectangle" fill="#02BDF3" x="0" y="161.808511" width="169" height="2" rx="1"></rect>
                        <rect id="Rectangle-Copy-122" fill="url(#linearGradient-1)" x="62.3262411" y="154.617021" width="47.9432624" height="14.3829787" rx="3.6"></rect>
                        <g id="Group-26" transform="translate(23.000000, 0.000000)">
                            <rect id="Rectangle-Copy-123" fill="#E7F7FF" x="0.971631206" y="98.2836879" width="122.255319" height="39.5531915" rx="3.6"></rect>
                            <rect id="Rectangle-Copy-124" fill="#E7F7FF" x="0.971631206" y="49.141844" width="122.255319" height="39.5531915" rx="3.6"></rect>
                            <rect id="Rectangle-Copy-125" fill="#E7F7FF" x="0.971631206" y="-1.78346227e-12" width="122.255319" height="39.5531915" rx="3.6"></rect>
                            <path d="M4.57163121,100.283688 C3.68797561,100.283688 2.97163121,101.000032 2.97163121,101.883688 L2.97163121,134.236879 C2.97163121,135.120535 3.68797561,135.836879 4.57163121,135.836879 L119.62695,135.836879 C120.510606,135.836879 121.22695,135.120535 121.22695,134.236879 L121.22695,101.883688 C121.22695,101.000032 120.510606,100.283688 119.62695,100.283688 L4.57163121,100.283688 Z M4.57163121,98.2836879 L119.62695,98.2836879 C121.615175,98.2836879 123.22695,99.8954628 123.22695,101.883688 L123.22695,134.236879 C123.22695,136.225105 121.615175,137.836879 119.62695,137.836879 L4.57163121,137.836879 C2.58340611,137.836879 0.971631206,136.225105 0.971631206,134.236879 L0.971631206,101.883688 C0.971631206,99.8954628 2.58340611,98.2836879 4.57163121,98.2836879 Z" id="Rectangle-Copy-123" fill="url(#linearGradient-1)" fill-rule="nonzero"></path>
                            <path d="M4.57163121,51.141844 C3.68797561,51.141844 2.97163121,51.8581884 2.97163121,52.741844 L2.97163121,85.0950355 C2.97163121,85.9786911 3.68797561,86.6950355 4.57163121,86.6950355 L119.62695,86.6950355 C120.510606,86.6950355 121.22695,85.9786911 121.22695,85.0950355 L121.22695,52.741844 C121.22695,51.8581884 120.510606,51.141844 119.62695,51.141844 L4.57163121,51.141844 Z M4.57163121,49.141844 L119.62695,49.141844 C121.615175,49.141844 123.22695,50.7536189 123.22695,52.741844 L123.22695,85.0950355 C123.22695,87.0832606 121.615175,88.6950355 119.62695,88.6950355 L4.57163121,88.6950355 C2.58340611,88.6950355 0.971631206,87.0832606 0.971631206,85.0950355 L0.971631206,52.741844 C0.971631206,50.7536189 2.58340611,49.141844 4.57163121,49.141844 Z" id="Rectangle-Copy-124" fill="url(#linearGradient-1)" fill-rule="nonzero"></path>
                            <path d="M4.57163121,2 C3.68797561,2 2.97163121,2.7163444 2.97163121,3.6 L2.97163121,35.9531915 C2.97163121,36.8368471 3.68797561,37.5531915 4.57163121,37.5531915 L119.62695,37.5531915 C120.510606,37.5531915 121.22695,36.8368471 121.22695,35.9531915 L121.22695,3.6 C121.22695,2.7163444 120.510606,2 119.62695,2 L4.57163121,2 Z M4.57163121,-1.78301818e-12 L119.62695,-1.78346227e-12 C121.615175,-1.7767639e-12 123.22695,1.6117749 123.22695,3.6 L123.22695,35.9531915 C123.22695,37.9414166 121.615175,39.5531915 119.62695,39.5531915 L4.57163121,39.5531915 C2.58340611,39.5531915 0.971631206,37.9414166 0.971631206,35.9531915 L0.971631206,3.6 C0.971631206,1.6117749 2.58340611,-1.78132068e-12 4.57163121,-1.78301818e-12 Z" id="Rectangle-Copy-125" fill="url(#linearGradient-1)" fill-rule="nonzero"></path>
                        </g>
                        <g id="Group-52" transform="translate(34.758865, 10.787234)" fill="url(#linearGradient-1)">
                            <rect id="Rectangle" x="0" y="0" width="43.1489362" height="2" rx="1"></rect>
                            <rect id="Rectangle-Copy-126" x="0" y="8.39007092" width="43.1489362" height="2" rx="1"></rect>
                            <rect id="Rectangle-Copy-127" x="0" y="16.7801418" width="43.1489362" height="2" rx="1"></rect>
                        </g>
                        <g id="Group-52-Copy" transform="translate(34.758865, 58.730496)" fill="url(#linearGradient-1)">
                            <rect id="Rectangle" x="0" y="0" width="43.1489362" height="2" rx="1"></rect>
                            <rect id="Rectangle-Copy-126" x="0" y="8.39007092" width="43.1489362" height="2" rx="1"></rect>
                            <rect id="Rectangle-Copy-127" x="0" y="16.7801418" width="43.1489362" height="2" rx="1"></rect>
                        </g>
                        <g id="Group-52-Copy-2" transform="translate(34.758865, 107.872340)" fill="url(#linearGradient-1)">
                            <rect id="Rectangle" x="0" y="0" width="43.1489362" height="2" rx="1"></rect>
                            <rect id="Rectangle-Copy-126" x="0" y="8.39007092" width="43.1489362" height="2" rx="1"></rect>
                            <rect id="Rectangle-Copy-127" x="0" y="16.7801418" width="43.1489362" height="2" rx="1"></rect>
                        </g>
                        <rect id="Rectangle" fill="url(#linearGradient-1)" fill-rule="nonzero" x="84.9007092" y="137.836879" width="4" height="16.7801418"></rect>
                    </g>
                    <circle id="Oval" fill="#EF1C3B" fill-rule="nonzero" cx="127.648936" cy="19.7765957" r="5.39361702"></circle>
                    <circle id="Oval-Copy-21" fill="#EF1C3B" fill-rule="nonzero" cx="127.648936" cy="68.9184397" r="5.39361702"></circle>
                    <circle id="Oval-Copy-22" fill="#EF1C3B" fill-rule="nonzero" cx="127.648936" cy="118.060284" r="5.39361702"></circle>
                </g>
                <g id="Group-50" transform="translate(0.000000, 83.000000)">
                    <g id="html" fill-rule="nonzero">
                        <rect id="Rectangle" fill="#EDFAFE" x="0" y="0" width="50" height="95" rx="3.75"></rect>
                        <path d="M3.75,2 C2.78350169,2 2,2.78350169 2,3.75 L2,91.25 C2,92.2164983 2.78350169,93 3.75,93 L46.25,93 C47.2164983,93 48,92.2164983 48,91.25 L48,3.75 C48,2.78350169 47.2164983,2 46.25,2 L3.75,2 Z M3.75,0 L46.25,0 C48.3210678,-3.80448985e-16 50,1.67893219 50,3.75 L50,91.25 C50,93.3210678 48.3210678,95 46.25,95 L3.75,95 C1.67893219,95 2.53632657e-16,93.3210678 0,91.25 L0,3.75 C-2.53632657e-16,1.67893219 1.67893219,3.80448985e-16 3.75,0 Z" id="Rectangle" fill="url(#linearGradient-1)"></path>
                    </g>
                    <g id="Group-79" transform="translate(6.000000, 8.000000)">
                        <rect id="Rectangle" fill="#FFFFFF" x="0" y="0" width="13" height="2" rx="1"></rect>
                        <rect id="Rectangle-Copy-60" fill="#0497F4" x="0" y="5" width="6" height="2" rx="1"></rect>
                        <rect id="Rectangle-Copy-68" fill="#02BDF3" x="0" y="10" width="9" height="2" rx="1"></rect>
                        <rect id="Rectangle-Copy-76" fill="#02BDF3" x="0" y="15" width="13" height="2" rx="1"></rect>
                        <rect id="Rectangle-Copy-81" fill="#0497F4" x="0" y="20" width="9" height="2" rx="1"></rect>
                        <rect id="Rectangle-Copy-84" fill="#0497F4" x="0" y="25" width="5" height="2" rx="1"></rect>
                        <rect id="Rectangle-Copy-87" fill="#FFFFFF" x="0" y="30" width="9" height="2" rx="1"></rect>
                        <rect id="Rectangle-Copy-90" fill="#0497F4" x="0" y="35" width="6" height="2" rx="1"></rect>
                        <rect id="Rectangle-Copy-94" fill="#0497F4" x="0" y="39" width="11" height="2" rx="1"></rect>
                        <rect id="Rectangle-Copy-101" fill="#FFFFFF" x="0" y="44" width="6" height="2" rx="1"></rect>
                        <rect id="Rectangle-Copy-108" fill="#EF1C3B" x="0" y="49" width="5" height="2" rx="1"></rect>
                        <rect id="Rectangle-Copy-109" fill="#0497F4" x="7" y="49" width="12" height="2" rx="1"></rect>
                        <rect id="Rectangle-Copy-110" fill="#EF1C3B" x="21" y="49" width="6" height="2" rx="1"></rect>
                        <rect id="Rectangle-Copy-113" fill="#0497F4" x="0" y="79" width="11" height="2" rx="1"></rect>
                        <rect id="Rectangle-Copy-114" fill="#EF1C3B" x="13" y="79" width="9" height="2" rx="1"></rect>
                        <rect id="Rectangle-Copy-115" fill="#0497F4" x="24" y="79" width="12" height="2" rx="1"></rect>
                        <rect id="Rectangle-Copy-111" fill="#02BDF3" x="28" y="49" width="9" height="2" rx="1"></rect>
                        <rect id="Rectangle-Copy-103" fill="#EF1C3B" x="19" y="44" width="3" height="2" rx="1"></rect>
                        <rect id="Rectangle-Copy-102" fill="#02BDF3" x="8" y="44" width="9" height="2" rx="1"></rect>
                        <rect id="Rectangle-Copy-104" fill="#02BDF3" x="24" y="44" width="9" height="2" rx="1"></rect>
                        <rect id="Rectangle-Copy-106" fill="#EF1C3B" x="0" y="74" width="12" height="2" rx="1"></rect>
                        <rect id="Rectangle-Copy-107" fill="#EF1C3B" x="13" y="74" width="4" height="2" rx="1"></rect>
                        <rect id="Rectangle-Copy-105" fill="#FFFFFF" x="35" y="44" width="2" height="2" rx="1"></rect>
                        <rect id="Rectangle-Copy-95" fill="#FFFFFF" x="13" y="39" width="6" height="2" rx="1"></rect>
                        <rect id="Rectangle-Copy-97" fill="#FFFFFF" x="25" y="39" width="10" height="2" rx="1"></rect>
                        <rect id="Rectangle-Copy-99" fill="#0497F4" x="0" y="69" width="11" height="2" rx="1"></rect>
                        <rect id="Rectangle-Copy-100" fill="#EF1C3B" x="13" y="69" width="12" height="2" rx="1"></rect>
                        <rect id="Rectangle-Copy-96" fill="#EF1C3B" x="21" y="39" width="3" height="2" rx="1"></rect>
                        <rect id="Rectangle-Copy-91" fill="#02BDF3" x="8" y="35" width="9" height="2" rx="1"></rect>
                        <rect id="Rectangle-Copy-92" fill="#0497F4" x="19" y="35" width="7" height="2" rx="1"></rect>
                        <rect id="Rectangle-Copy-93" fill="#EF1C3B" x="28" y="35" width="7" height="2" rx="1"></rect>
                        <rect id="Rectangle-Copy-88" fill="#EF1C3B" x="11" y="30" width="4" height="2" rx="1"></rect>
                        <rect id="Rectangle-Copy-89" fill="#0497F4" x="17" y="30" width="5" height="2" rx="1"></rect>
                        <rect id="Rectangle-Copy-85" fill="#02BDF3" x="7" y="25" width="8" height="2" rx="1"></rect>
                        <rect id="Rectangle-Copy-86" fill="#0497F4" x="17" y="25" width="11" height="2" rx="1"></rect>
                        <rect id="Rectangle-Copy-83" fill="#EF1C3B" x="16" y="20" width="6" height="2" rx="1"></rect>
                        <rect id="Rectangle-Copy-82" fill="#FFFFFF" x="10" y="20" width="4" height="2" rx="1"></rect>
                        <rect id="Rectangle-Copy-77" fill="#0497F4" x="15" y="15" width="9" height="2" rx="1"></rect>
                        <rect id="Rectangle-Copy-78" fill="#FFFFFF" x="27" y="15" width="5" height="2" rx="1"></rect>
                        <rect id="Rectangle-Copy-80" fill="#0497F4" x="23" y="20" width="11" height="2" rx="1"></rect>
                        <rect id="Rectangle-Copy-79" fill="#EF1C3B" x="33" y="15" width="6" height="2" rx="1"></rect>
                        <rect id="Rectangle-Copy-70" fill="#FFFFFF" x="16" y="10" width="9" height="2" rx="1"></rect>
                        <rect id="Rectangle-Copy-71" fill="#0497F4" x="27" y="10" width="5" height="2" rx="1"></rect>
                        <rect id="Rectangle-Copy-72" fill="#FFFFFF" x="34" y="10" width="4" height="2" rx="1"></rect>
                        <rect id="Rectangle-Copy-73" fill="#EF1C3B" x="22" y="64" width="5" height="2" rx="1"></rect>
                        <rect id="Rectangle-Copy-75" fill="#02BDF3" x="12" y="64" width="8" height="2" rx="1"></rect>
                        <rect id="Rectangle-Copy-74" fill="#0497F4" x="0" y="64" width="11" height="2" rx="1"></rect>
                        <rect id="Rectangle-Copy-69" fill="#EF1C3B" x="10" y="10" width="4" height="2" rx="1"></rect>
                        <rect id="Rectangle-Copy-64" fill="#0497F4" x="24" y="5" width="11" height="2" rx="1"></rect>
                        <rect id="Rectangle-Copy-65" fill="#FFFFFF" x="0" y="54" width="17" height="2" rx="1"></rect>
                        <rect id="Rectangle-Copy-66" fill="#EF1C3B" x="20" y="54" width="17" height="2" rx="1"></rect>
                        <rect id="Rectangle-Copy-61" fill="#0497F4" x="8" y="5" width="2" height="2" rx="1"></rect>
                        <rect id="Rectangle-Copy-62" fill="#EF1C3B" x="12" y="5" width="2" height="2" rx="1"></rect>
                        <rect id="Rectangle-Copy-63" fill="#0497F4" x="16" y="5" width="7" height="2" rx="1"></rect>
                        <rect id="Rectangle-Copy-58" fill="#02BDF3" x="8" y="59" width="8" height="2" rx="1"></rect>
                        <rect id="Rectangle-Copy-57" fill="#EF1C3B" x="0" y="59" width="6" height="2" rx="1"></rect>
                        <rect id="Rectangle-Copy-59" fill="#02BDF3" x="17" y="59" width="6" height="2" rx="1"></rect>
                        <rect id="Rectangle" fill="#02BDF3" x="15" y="0" width="20" height="2" rx="1"></rect>
                    </g>
                </g>
                <g id="Group-56" transform="translate(137.000000, 5.000000)" fill="url(#linearGradient-1)" fill-rule="nonzero">
                    <path d="M49.1325603,13.4847451 C49.1325603,14.7442626 50.1973513,15.7834078 51.4847451,15.7834078 C52.7581289,15.7834078 53.7834078,14.7581289 53.7834078,13.4847451 C53.7834078,12.1973866 52.7442414,11.1325603 51.4847451,11.1325603 C50.2113828,11.1325603 49.1325603,12.2113967 49.1325603,13.4847451 Z M47.7325603,13.4847451 C47.7325603,11.438202 49.4381802,9.73256029 51.4847451,9.73256029 C53.5251863,9.73256029 55.1834078,11.4317279 55.1834078,13.4847451 C55.1834078,15.5313275 53.5313275,17.1834078 51.4847451,17.1834078 C49.4316887,17.1834078 47.7325603,15.5252033 47.7325603,13.4847451 Z M61.5027292,11.0270963 C62.1579039,11.1580755 62.657984,11.7735022 62.657984,12.437594 L62.657984,14.412574 C62.657984,15.1400901 62.1547854,15.7865562 61.448684,15.8338815 L59.944181,16.1348035 C59.7795128,16.6665775 59.5890859,17.1483156 59.3602982,17.593153 L60.2004495,18.7808991 C60.6818356,19.3825677 60.6061596,20.177488 60.0830388,20.7006088 L58.7006088,22.0830388 C58.2033071,22.5803405 57.4606184,22.6157263 56.8135164,22.2251402 L55.5931688,21.3606778 C55.1735042,21.5773538 54.7208478,21.7614548 54.217321,21.9289279 L53.9547136,23.5028695 C53.8199728,24.1761441 53.1899078,24.657984 52.478374,24.657984 L50.569264,24.657984 C49.8576343,24.657984 49.2275135,24.1761014 49.0854554,23.4580251 L48.8823505,21.9348469 C48.3647838,21.7735334 47.8800201,21.5847108 47.4120896,21.3573643 L46.1238461,22.319934 C45.5206607,22.6819479 44.7732778,22.5751573 44.2811593,22.0830388 L42.8987293,20.7006088 C42.3847242,20.1866037 42.2899103,19.3936554 42.7796851,18.8453521 L43.6209674,17.6081351 C43.3405151,17.1030787 43.1303174,16.6362953 42.9731367,16.1467802 L41.5011054,15.8929865 C40.7714145,15.7712852 40.257984,15.2211978 40.257984,14.478374 L40.257984,12.503464 C40.257984,11.8131953 40.7877506,11.2077018 41.5206127,11.0858799 L42.9804499,10.884512 C43.1432169,10.361958 43.3340124,9.87284074 43.564168,9.40072132 L42.7154485,8.20093891 C42.2340439,7.59924706 42.3098075,6.80421198 42.8329167,6.28124181 L44.2154251,4.89866349 C44.7192302,4.39499224 45.5024486,4.35584798 46.025563,4.74904998 L47.3103835,5.62270173 C47.80844,5.35335552 48.315649,5.13507649 48.8352355,4.97180997 L49.0888284,3.50131426 C49.2103949,2.77152707 49.7605611,2.25798402 50.503394,2.25798402 L52.412504,2.25798402 C53.1503828,2.25798402 53.7709694,2.76910331 53.8922722,3.49737631 L54.1481279,4.98104567 C54.5939321,5.129363 55.0548079,5.32247051 55.5730953,5.57003899 L56.8579219,4.66190403 C57.4605203,4.30024245 58.2032732,4.33559373 58.7006088,4.83292928 L60.0830388,6.21535928 C60.6061596,6.73848015 60.6818348,7.53347133 60.2250822,8.10243476 L59.3604371,9.32311647 C59.5870114,9.76372099 59.7759632,10.2405047 59.9395358,10.7662311 L61.5027292,11.0270963 Z M45.2711088,21.0930893 C45.3166706,21.1386512 45.3609962,21.1449847 45.3436161,21.15974 L47.2835943,19.7047133 L47.678733,19.9202539 C48.3001588,20.2592298 48.9534178,20.5116297 49.7001341,20.7152533 L50.1484182,20.8374969 L50.2098327,21.298073 L50.4657317,23.2282789 C50.4654595,23.2269172 50.5060832,23.257984 50.569264,23.257984 L52.478374,23.257984 C52.5415108,23.257984 52.5821868,23.2268772 52.5778476,23.2504287 L52.9786713,20.8454015 L53.3963336,20.7201117 C54.1456599,20.4953297 54.7534626,20.2493096 55.278097,19.934529 L55.6699632,19.6994092 L56.0428716,19.9635678 L57.5782723,21.0536777 C57.6630114,21.1045176 57.701043,21.1027055 57.7106593,21.0930893 L59.0930893,19.7106593 C59.1278177,19.6759309 59.1273694,19.6806398 59.0826374,19.6228128 L57.6994086,17.6699225 L57.9345459,17.2780688 C58.2590697,16.7372534 58.5077145,16.1083081 58.7152699,15.3474432 L58.8291156,14.930103 L61.2282134,14.4502494 L61.365504,14.436654 C61.2702415,14.436654 61.257984,14.4517388 61.257984,14.412574 L61.257984,12.437594 C61.257984,12.4383468 61.226476,12.3995713 61.2504049,12.4039865 L58.8332719,12.0010596 L58.7152744,11.5685414 C58.5077084,10.8077114 58.259059,10.1787544 57.934529,9.63787105 L57.6994168,9.24601746 L57.9635559,8.87311329 L59.1072785,7.26050914 C59.1273725,7.23539436 59.1278141,7.2400336 59.0930893,7.20530877 L57.7106593,5.82287877 C57.7010548,5.81327431 57.6630713,5.81146649 57.6227548,5.83332215 L55.7004887,7.19492019 L55.3252211,7.00730637 C54.544691,6.61708279 53.9290322,6.35936446 53.3474266,6.20069363 L52.9175659,6.08342113 L52.8418459,5.64433173 L52.5119684,3.73135379 C52.5038333,3.68251768 52.4740453,3.65798402 52.412504,3.65798402 L50.503394,3.65798402 C50.475127,3.65798402 50.4832909,3.65036355 50.4691322,3.73529173 L50.0624103,6.09381153 L49.6199214,6.20446315 C48.9459072,6.37301151 48.2885044,6.65688673 47.6378523,7.04725033 L47.2541431,7.27745954 L46.8841151,7.02584807 L45.2120017,5.88793975 L43.822813,7.27124456 C43.788121,7.30592732 43.7885671,7.30124627 43.8332487,7.35900837 L45.2048636,9.29538074 L44.9957141,9.678803 C44.6567162,10.3002692 44.4043182,10.9534918 44.2007147,11.7001341 L44.0790689,12.1462262 L43.6210254,12.2094081 L41.7313036,12.4697964 C41.6838088,12.4777094 41.657984,12.5072256 41.657984,12.503464 L41.657984,14.478374 C41.657984,14.5066988 41.6503722,14.4985435 41.7351929,14.5127009 L44.0938475,14.9193446 L44.2044773,15.3619032 C44.3636861,15.998795 44.621296,16.5682674 45.0472222,17.2780688 L45.2774812,17.6617931 L43.9067581,19.677623 L43.8832196,19.7060685 L45.2711088,21.0930893 Z" id="Fill-1-Copy-5" transform="translate(51.457984, 13.457984) rotate(-20.000000) translate(-51.457984, -13.457984) "></path>
                    <path d="M17,40.0619178 C17,36.2213042 20.2211725,33 24.0619178,33 C27.902663,33 31,36.2213042 31,40.0619178 C31,43.902663 27.902663,47 24.0619178,47 C20.2211725,47 17,43.902663 17,40.0619178 Z M42.13168,35.26016 C41.68016,33.60512 41.0784,31.94992 40.17552,30.44512 L42.73344,26.83392 C43.33536,26.0816 43.18496,25.17872 42.58304,24.5768 L39.4232,21.41696 C38.82128,20.81504 37.9184,20.81504 37.16608,21.26656 L33.55488,23.82448 C32.05008,23.07216 30.39488,22.31984 28.73984,21.86832 L27.98736,17.5048 C27.83696,16.60192 27.08464,16 26.18176,16 L21.81808,16 C20.91536,16 20.31344,16.60192 20.16304,17.5048 L19.41056,21.86832 C17.60496,22.31984 15.94976,23.07216 14.44512,23.97488 L10.68336,21.41696 C10.08144,20.9656 9.17872,20.9656 8.5768,21.56736 L5.41696,24.72736 C4.81504,25.32912 4.66448,26.232 5.2664,26.98432 L7.82448,30.59568 C6.9216,32.25088 6.31968,33.90592 5.86832,35.56112 L1.50464,36.16304 C0.60192,36.31344 0,37.06592 0,37.81824 L0,42.33232 C0,43.2352 0.60192,43.83696 1.50464,43.98752 L5.86832,44.73984 C6.31968,46.54544 7.072,48.05024 7.97488,49.55488 L5.41696,53.31664 C4.81504,53.91856 4.96544,54.82128 5.56736,55.4232 L8.7272,58.58304 C9.32912,59.18496 10.232,59.33552 10.98432,58.884 L14.59552,56.17552 C16.25072,57.0784 17.90592,57.68032 19.56112,58.13168 L20.16304,62.64576 C20.31344,63.39808 21.06576,64 21.96864,64 L26.33232,64 C27.23504,64 27.98736,63.39808 28.13792,62.64576 L28.89024,58.13168 C30.39488,57.68032 32.05008,57.0784 33.55488,56.17552 L37.16608,58.7336 C37.9184,59.18496 38.82128,59.18496 39.4232,58.58304 L42.58304,55.4232 C43.18496,54.82128 43.33536,53.91856 42.73344,53.16624 L40.17552,49.55488 C41.0784,48.05024 41.68016,46.39504 42.13168,44.73984 L46.64576,43.83696 C47.39808,43.83696 48,43.08464 48,42.18192 L48,37.66768 C48,36.91536 47.39808,36.16304 46.64576,36.01264 L42.13168,35.26016 Z" id="Fill-1-Copy-4"></path>
                </g>
            </g>
        </g>
    </g>
</svg>