<?xml version="1.0" encoding="UTF-8"?>
<svg width="167px" height="193px" viewBox="0 0 167 193" version="1.1" xmlns="http://www.w3.org/2000/svg" xmlns:xlink="http://www.w3.org/1999/xlink">
    <!-- Generator: Sketch 52.3 (67297) - http://www.bohemiancoding.com/sketch -->
    <title>outsource services icon 3</title>
    <desc>Created with Sketch.</desc>
    <defs>
        <linearGradient x1="1.20662332%" y1="2.14292466%" x2="90.267142%" y2="79.7543246%" id="linearGradient-1">
            <stop stop-color="#0497F4" offset="0%"></stop>
            <stop stop-color="#0BCBF9" offset="100%"></stop>
        </linearGradient>
    </defs>
    <g id="Design" stroke="none" stroke-width="1" fill="none" fill-rule="evenodd">
        <g id="Outsource-1440" transform="translate(-1056.000000, -3603.000000)" fill-rule="nonzero">
            <g id="outsource-services-icon-3" transform="translate(1056.000000, 3603.000000)">
                <rect id="Rectangle-Copy-134" fill="#E7F7FF" x="31" y="0" width="99" height="193" rx="12"></rect>
                <path d="M43,2 C37.4771525,2 33,6.4771525 33,12 L33,181 C33,186.522847 37.4771525,191 43,191 L118,191 C123.522847,191 128,186.522847 128,181 L128,12 C128,6.4771525 123.522847,2 118,2 L43,2 Z M43,0 L118,0 C124.627417,-1.21743675e-15 130,5.372583 130,12 L130,181 C130,187.627417 124.627417,193 118,193 L43,193 C36.372583,193 31,187.627417 31,181 L31,12 C31,5.372583 36.372583,1.21743675e-15 43,0 Z" id="Rectangle-Copy-134" fill="url(#linearGradient-1)"></path>
                <g id="Group-62" transform="translate(52.000000, 24.000000)">
                    <circle id="Oval" fill="#FFFFFF" cx="28.5" cy="28.5" r="28.5"></circle>
                    <path d="M28.5,58 C12.2075999,58 -1,44.7924001 -1,28.5 C-1,12.2075999 12.2075999,-1 28.5,-1 C44.7924001,-1 58,12.2075999 58,28.5 C58,44.7924001 44.7924001,58 28.5,58 Z M28.5,56 C43.6878306,56 56,43.6878306 56,28.5 C56,13.3121694 43.6878306,1 28.5,1 C13.3121694,1 1,13.3121694 1,28.5 C1,43.6878306 13.3121694,56 28.5,56 Z" id="Oval" fill="url(#linearGradient-1)"></path>
                    <g id="Group-6-Copy-6" transform="translate(10.000000, 9.000000)" fill="url(#linearGradient-1)">
                        <path d="M33.4743046,32.3327282 L31.7841821,28.5584028 C29.4127775,23.2617137 24.1506818,19.8524402 18.3469566,19.8524402 C12.5433696,19.8524402 7.28156636,23.2615929 4.9097039,28.5584637 L3.21960312,32.3327406 C2.4876903,33.9671646 3.68393471,35.8133714 5.47480847,35.8133714 L31.2191048,35.8133714 C33.0102292,35.8133714 34.2062848,33.9673028 33.4743101,32.3327406 L34.3869778,31.9240381 L33.4743046,32.3327282 Z M35.2996454,31.5153356 C36.6241375,34.4730397 34.4599587,37.8133714 31.2191048,37.8133714 L5.47480847,37.8133714 C2.23424537,37.8133714 0.069821246,34.4729382 1.39426224,31.515348 L3.08435442,27.7410903 C5.77839929,21.724718 11.7550057,17.8524402 18.3469566,17.8524402 C24.9390582,17.8524402 30.9160056,21.7248609 33.6095557,27.7410834 L35.299651,31.515348 L34.3869778,31.9240381 L35.2996454,31.5153356 Z" id="Fill-1"></path>
                        <path d="M18.3469968,17.0846561 L18.3469968,16.0846561 C22.2364899,16.0846561 25.3893249,12.9318211 25.3893249,9.04232804 C25.3893249,5.15283501 22.2364899,2 18.3469968,2 C14.4575038,2 11.3046688,5.15283501 11.3046688,9.04232804 C11.3046688,12.9318211 14.4575038,16.0846561 18.3469968,16.0846561 L18.3469968,17.0846561 Z M18.3469968,17.0846561 L18.3469968,18.0846561 C13.3529343,18.0846561 9.30466878,14.0363906 9.30466878,9.04232804 C9.30466878,4.04826551 13.3529343,0 18.3469968,0 C23.3410594,0 27.3893249,4.04826551 27.3893249,9.04232804 C27.3893249,14.0363906 23.3410594,18.0846561 18.3469968,18.0846561 L18.3469968,17.0846561 Z" id="Fill-4"></path>
                    </g>
                </g>
                <g id="Group-64" transform="translate(45.000000, 93.000000)">
                    <rect id="Rectangle" fill="#FFFFFF" x="0" y="0" width="71" height="14" rx="2"></rect>
                    <rect id="Rectangle-Copy-129" fill="#FFFFFF" x="0" y="18" width="71" height="14" rx="2"></rect>
                    <path d="M2,2 L2,12 L69,12 L69,2 L2,2 Z M2,0 L69,0 C70.1045695,-2.02906125e-16 71,0.8954305 71,2 L71,12 C71,13.1045695 70.1045695,14 69,14 L2,14 C0.8954305,14 1.3527075e-16,13.1045695 0,12 L0,2 C-1.3527075e-16,0.8954305 0.8954305,2.02906125e-16 2,0 Z" id="Rectangle" fill="url(#linearGradient-1)"></path>
                    <path d="M2,20 L2,30 L69,30 L69,20 L2,20 Z M2,18 L69,18 C70.1045695,18 71,18.8954305 71,20 L71,30 C71,31.1045695 70.1045695,32 69,32 L2,32 C0.8954305,32 1.3527075e-16,31.1045695 0,30 L0,20 C-1.3527075e-16,18.8954305 0.8954305,18 2,18 Z" id="Rectangle-Copy-129" fill="url(#linearGradient-1)"></path>
                    <circle id="Oval" fill="url(#linearGradient-1)" cx="7.5" cy="7.5" r="1.5"></circle>
                    <circle id="Oval-Copy-25" fill="url(#linearGradient-1)" cx="13.5" cy="7.5" r="1.5"></circle>
                    <circle id="Oval-Copy-26" fill="url(#linearGradient-1)" cx="19.5" cy="7.5" r="1.5"></circle>
                    <circle id="Oval-Copy-27" fill="url(#linearGradient-1)" cx="7.5" cy="25.5" r="1.5"></circle>
                    <circle id="Oval-Copy-29" fill="url(#linearGradient-1)" cx="13.5" cy="25.5" r="1.5"></circle>
                    <circle id="Oval-Copy-28" fill="url(#linearGradient-1)" cx="19.5" cy="25.5" r="1.5"></circle>
                </g>
                <g id="Group-2" transform="translate(85.000000, 137.000000)">
                    <rect id="Rectangle-Copy-135" fill="url(#linearGradient-1)" x="0" y="0" width="57" height="34" rx="4"></rect>
                    <path d="M7.39795918,9.5 C6.84567443,9.5 6.39795918,9.05228475 6.39795918,8.5 C6.39795918,7.94771525 6.84567443,7.5 7.39795918,7.5 L45.6020408,7.5 C46.1543256,7.5 46.6020408,7.94771525 46.6020408,8.5 C46.6020408,9.05228475 46.1543256,9.5 45.6020408,9.5 L7.39795918,9.5 Z" id="Line-12" fill="#FFFFFF"></path>
                    <path d="M8.4,18.5 C7.84771525,18.5 7.4,18.0522847 7.4,17.5 C7.4,16.9477153 7.84771525,16.5 8.4,16.5 L23.2,16.5 C23.7522847,16.5 24.2,16.9477153 24.2,17.5 C24.2,18.0522847 23.7522847,18.5 23.2,18.5 L8.4,18.5 Z" id="Line-12-Copy" fill="#FFFFFF"></path>
                    <path d="M8.39655172,26.5 C7.84426697,26.5 7.39655172,26.0522847 7.39655172,25.5 C7.39655172,24.9477153 7.84426697,24.5 8.39655172,24.5 L30.2068966,24.5 C30.7591813,24.5 31.2068966,24.9477153 31.2068966,25.5 C31.2068966,26.0522847 30.7591813,26.5 30.2068966,26.5 L8.39655172,26.5 Z" id="Line-12-Copy-2" fill="#FFFFFF"></path>
                </g>
                <rect id="Rectangle" fill="#EF1C3B" x="0" y="145" width="68" height="21" rx="9.5"></rect>
                <g id="Group-27" transform="translate(114.000000, 14.000000)" fill="#EF1C3B">
                    <path d="M3.63797881e-12,2 L3.63797881e-12,0 L3,0 L3,2 L3.63797881e-12,2 Z M5,2 L5,0 L8,0 L8,2 L5,2 Z M10,2 L10,0 L13,0 L13,2 L10,2 Z M15,2 L15,0 L18,0 L18,2 L15,2 Z M20,2 L20,0 L23,0 L23,2 L20,2 Z M25,2 L25,0 L28,0 L28,2 L25,2 Z M30,2 L30,0 L33,0 L33,2 L30,2 Z M35,2 L35,0 L38,0 L38,2 L35,2 Z M40,2 L40,0 L43,0 L43,2 L40,2 Z M45,2 L45,0 L48,0 L48,2 L45,2 Z M50,2 L50,0 L53,0 L53,2 L50,2 Z" id="Line-17"></path>
                    <path d="M3.63797881e-12,64 L3.63797881e-12,62 L3,62 L3,64 L3.63797881e-12,64 Z M5,64 L5,62 L8,62 L8,64 L5,64 Z M10,64 L10,62 L13,62 L13,64 L10,64 Z M15,64 L15,62 L18,62 L18,64 L15,64 Z M20,64 L20,62 L23,62 L23,64 L20,64 Z M25,64 L25,62 L28,62 L28,64 L25,64 Z M30,64 L30,62 L33,62 L33,64 L30,64 Z M35,64 L35,62 L38,62 L38,64 L35,64 Z M40,64 L40,62 L43,62 L43,64 L40,64 Z M45,64 L45,62 L48,62 L48,64 L45,64 Z M50,64 L50,62 L53,62 L53,64 L50,64 Z" id="Line-17-Copy"></path>
                    <path d="M0,3 L2,3 L2,6 L0,6 L0,3 Z M0,8 L2,8 L2,11 L0,11 L0,8 Z M0,13 L2,13 L2,16 L0,16 L0,13 Z M0,18 L2,18 L2,21 L0,21 L0,18 Z M0,23 L2,23 L2,26 L0,26 L0,23 Z M0,28 L2,28 L2,31 L0,31 L0,28 Z M0,33 L2,33 L2,36 L0,36 L0,33 Z M0,38 L2,38 L2,41 L0,41 L0,38 Z M0,43 L2,43 L2,46 L0,46 L0,43 Z M0,48 L2,48 L2,51 L0,51 L0,48 Z M0,53 L2,53 L2,56 L0,56 L0,53 Z M0,58 L2,58 L2,61 L0,61 L0,58 Z" id="Line-18"></path>
                    <path d="M51,3 L53,3 L53,6 L51,6 L51,3 Z M51,8 L53,8 L53,11 L51,11 L51,8 Z M51,13 L53,13 L53,16 L51,16 L51,13 Z M51,18 L53,18 L53,21 L51,21 L51,18 Z M51,23 L53,23 L53,26 L51,26 L51,23 Z M51,28 L53,28 L53,31 L51,31 L51,28 Z M51,33 L53,33 L53,36 L51,36 L51,33 Z M51,38 L53,38 L53,41 L51,41 L51,38 Z M51,43 L53,43 L53,46 L51,46 L51,43 Z M51,48 L53,48 L53,51 L51,51 L51,48 Z M51,53 L53,53 L53,56 L51,56 L51,53 Z M51,58 L53,58 L53,61 L51,61 L51,58 Z" id="Line-18-Copy"></path>
                </g>
            </g>
        </g>
    </g>
</svg>