<?xml version="1.0" encoding="UTF-8"?>
<svg width="140px" height="106px" viewBox="0 0 140 106" version="1.1" xmlns="http://www.w3.org/2000/svg" xmlns:xlink="http://www.w3.org/1999/xlink">
    <!-- Generator: Sketch 52.3 (67297) - http://www.bohemiancoding.com/sketch -->
    <title>outsource icon 1</title>
    <desc>Created with Sketch.</desc>
    <defs>
        <linearGradient x1="1.20662332%" y1="2.14292466%" x2="90.267142%" y2="79.7543246%" id="linearGradient-1">
            <stop stop-color="#0497F4" offset="0%"></stop>
            <stop stop-color="#0BCBF9" offset="100%"></stop>
        </linearGradient>
    </defs>
    <g id="Design" stroke="none" stroke-width="1" fill="none" fill-rule="evenodd">
        <g id="Outsource-1440" transform="translate(-289.000000, -1211.000000)">
            <g id="outsource-icon-1" transform="translate(289.000000, 1212.000000)">
                <g id="man" transform="translate(30.000000, 0.000000)">
                    <path d="M80.0278048,79.4890006 L75.8516097,70.1081977 C69.5937755,56.0489867 55.7079017,47 40.3931989,47 C25.0784961,47 11.193616,56.0489867 4.93478823,70.1081977 L0.758593075,79.4890006 C-1.78209953,85.1958389 2.37024869,91.641268 8.58635073,91.641268 L72.2000472,91.641268 C78.4171428,91.641268 82.5684974,85.1958389 80.0278048,79.4890006" id="Fill-1" fill="#FFFFFF"></path>
                    <path d="M40,40 C51.046,40 60,31.046 60,20 C60,8.954 51.046,0 40,0 C28.954,0 20,8.954 20,20 C20,31.046 28.954,40 40,40" id="Fill-4" fill="#FFFFFF"></path>
                    <path d="M79.1142446,79.8957041 L74.9380224,70.5148405 C68.840655,56.8161433 55.3125339,48 40.3931989,48 C25.4742148,48 11.946852,56.8158267 5.84834843,70.5149012 L1.67214778,79.8957164 C-0.574827074,84.9428135 3.09595484,90.641268 8.58635073,90.641268 L72.2000472,90.641268 C77.6910919,90.641268 81.3613657,84.9431297 79.1142501,79.8957164 L80.0278048,79.4890006 L79.1142446,79.8957041 Z M80.9413595,79.0822847 C83.7757365,85.4487893 79.142931,92.641268 72.2000472,92.641268 L8.58635073,92.641268 C1.64415599,92.641268 -2.98921401,85.4485094 -0.154967123,79.082297 L4.021225,69.701501 C10.4404834,55.2819146 24.6830304,46 40.3931989,46 C56.1037307,46 70.3470844,55.2822534 76.7651699,69.7014941 L80.941365,79.082297 L80.0278048,79.4890006 L80.9413595,79.0822847 Z" id="Fill-1" fill="url(#linearGradient-1)" fill-rule="nonzero"></path>
                    <path d="M40,40 L40,39 C50.4937153,39 59,30.4937153 59,20 C59,9.50628475 50.4937153,1 40,1 C29.5062847,1 21,9.50628475 21,20 C21,30.4937153 29.5062847,39 40,39 L40,40 Z M40,40 L40,41 C28.4017153,41 19,31.5982847 19,20 C19,8.40171525 28.4017153,-1 40,-1 C51.5982847,-1 61,8.40171525 61,20 C61,31.5982847 51.5982847,41 40,41 L40,40 Z" id="Fill-4" fill="url(#linearGradient-1)" fill-rule="nonzero"></path>
                </g>
                <path d="M70,97.3291016 L61.2335381,103.479696 C60.5553759,103.955498 59.6199031,103.791452 59.1441011,103.11329 C58.8783386,102.734498 58.8022749,102.254251 58.9379768,101.811873 L62.0785537,91.5738339 L53.5200054,85.1370713 C52.8579271,84.6391317 52.7248665,83.6987514 53.2228062,83.0366731 C53.5009337,82.6668648 53.9341713,82.4461192 54.3968318,82.4384772 L65.1042769,82.2616153 L68.5812651,72.1328831 C68.8502404,71.3493375 69.7034772,70.9321958 70.4870229,71.2011711 C70.9246776,71.3514091 71.2684969,71.6952284 71.4187349,72.1328831 L74.8957231,82.2616153 L85.6031682,82.4384772 C86.4314824,82.452159 87.0918723,83.1347316 87.0781905,83.9630457 C87.0705485,84.4257062 86.8498029,84.8589437 86.4799946,85.1370713 L77.9214463,91.5738339 L81.0620232,101.811873 C81.3049742,102.603874 80.8598808,103.442869 80.0678793,103.68582 C79.6255015,103.821522 79.145254,103.745458 78.7664619,103.479696 L70,97.3291016 Z" id="Star" fill="#FFFFFF" fill-rule="nonzero"></path>
                <path d="M35.5,73.8544224 L29.9495847,77.7486219 C29.4974766,78.0658233 28.873828,77.9564597 28.5566267,77.5043516 C28.3794517,77.2518236 28.3287426,76.9316585 28.4192105,76.63674 L30.4076417,70.1546075 L24.9888652,66.0792227 C24.5474797,65.7472629 24.4587726,65.1203427 24.7907324,64.6789572 C24.9761507,64.4324184 25.2649758,64.2852547 25.5734161,64.2801599 L32.3527495,64.1681813 L34.5541767,57.7552554 C34.7334936,57.2328917 35.3023182,56.9547972 35.8246819,57.1341141 C36.1164517,57.2342727 36.3456646,57.4634856 36.4458233,57.7552554 L38.6472505,64.1681813 L45.4265839,64.2801599 C45.9787933,64.2892812 46.4190533,64.7443295 46.4099321,65.296539 C46.4048374,65.6049793 46.2576737,65.8938043 46.0111348,66.0792227 L40.5923583,70.1546075 L42.5807895,76.63674 C42.7427568,77.164741 42.4460279,77.7240708 41.9180269,77.8860381 C41.6231084,77.976506 41.3029434,77.9257969 41.0504153,77.7486219 L35.5,73.8544224 Z" id="Star-Copy" fill="#FFFFFF" fill-rule="nonzero"></path>
                <path d="M9.5,57.2679269 L5.1083829,60.3491077 C4.88232884,60.5077084 4.57050457,60.4530266 4.4119039,60.2269725 C4.32331642,60.1007085 4.29796184,59.940626 4.34319581,59.7931667 L5.91648857,54.6643534 L1.62902718,51.4398146 C1.40833443,51.2738347 1.36398088,50.9603746 1.52996077,50.7396819 C1.62266995,50.6164125 1.76708248,50.5428306 1.92130264,50.5402832 L7.28526814,50.4516831 L9.02708837,45.3776277 C9.11674681,45.1164458 9.40115908,44.9773986 9.66234096,45.067057 C9.80822587,45.1171364 9.9228323,45.2317428 9.97291163,45.3776277 L11.7147319,50.4516831 L17.0786974,50.5402832 C17.3548021,50.5448438 17.5749321,50.772368 17.5703715,51.0484727 C17.5678241,51.2026929 17.4942423,51.3471054 17.3709728,51.4398146 L13.0835114,54.6643534 L14.6568042,59.7931667 C14.7377878,60.0571672 14.5894234,60.3368321 14.3254229,60.4178158 C14.1779636,60.4630498 14.0178811,60.4376952 13.8916171,60.3491077 L9.5,57.2679269 Z" id="Star-Copy-3" fill="#FFFFFF" fill-rule="nonzero"></path>
                <path d="M130.5,57.2679269 L126.108383,60.3491077 C125.882329,60.5077084 125.570505,60.4530266 125.411904,60.2269725 C125.323316,60.1007085 125.297962,59.940626 125.343196,59.7931667 L126.916489,54.6643534 L122.629027,51.4398146 C122.408334,51.2738347 122.363981,50.9603746 122.529961,50.7396819 C122.62267,50.6164125 122.767082,50.5428306 122.921303,50.5402832 L128.285268,50.4516831 L130.027088,45.3776277 C130.116747,45.1164458 130.401159,44.9773986 130.662341,45.067057 C130.808226,45.1171364 130.922832,45.2317428 130.972912,45.3776277 L132.714732,50.4516831 L138.078697,50.5402832 C138.354802,50.5448438 138.574932,50.772368 138.570371,51.0484727 C138.567824,51.2026929 138.494242,51.3471054 138.370973,51.4398146 L134.083511,54.6643534 L135.656804,59.7931667 C135.737788,60.0571672 135.589423,60.3368321 135.325423,60.4178158 C135.177964,60.4630498 135.017881,60.4376952 134.891617,60.3491077 L130.5,57.2679269 Z" id="Star-Copy-4" fill="#FFFFFF" fill-rule="nonzero"></path>
                <path d="M103.925656,74.257385 L98.9495847,77.7486219 C98.4974766,78.0658233 97.873828,77.9564597 97.5566267,77.5043516 C97.3794517,77.2518236 97.3287426,76.9316585 97.4192105,76.63674 L99.4076417,70.1546075 L93.9888652,66.0792227 C93.5474797,65.7472629 93.4587726,65.1203427 93.7907324,64.6789572 C93.9761507,64.4324184 94.2649758,64.2852547 94.5734161,64.2801599 L101.352749,64.1681813 L103.554177,57.7552554 C103.733494,57.2328917 104.302318,56.9547972 104.824682,57.1341141 C105.116452,57.2342727 105.345665,57.4634856 105.445823,57.7552554 L107.647251,64.1681813 L114.426584,64.2801599 C114.978793,64.2892812 115.419053,64.7443295 115.409932,65.296539 C115.404837,65.6049793 115.257674,65.8938043 115.011135,66.0792227 L109.592358,70.1546075 L111.580789,76.63674 C111.742757,77.164741 111.446028,77.7240708 110.918027,77.8860381 C110.623108,77.976506 110.302943,77.9257969 110.050415,77.7486219 L105.074344,74.257385 C104.729637,74.0155372 104.270363,74.0155372 103.925656,74.257385 Z" id="Star-Copy-2" fill="#FFFFFF" fill-rule="nonzero"></path>
                <path d="M69.4256562,96.5104874 C69.7703626,96.2686396 70.2296374,96.2686396 70.5743438,96.5104874 L79.3408057,102.661081 C79.4670698,102.749669 79.6271523,102.775024 79.7746116,102.72979 C80.038612,102.648806 80.1869765,102.369141 80.1059928,102.105141 L76.965416,91.8671017 C76.8419252,91.4645313 76.9838489,91.027735 77.32038,90.7746348 L85.8789283,84.3378722 C86.0021977,84.245163 86.0757796,84.1007504 86.0783269,83.9465303 C86.0828875,83.6704256 85.8627575,83.4429014 85.5866528,83.4383408 L74.8792077,83.2614789 C74.4581797,83.2545245 74.0866186,82.9845695 73.9498998,82.5862972 L70.4729116,72.4575651 C70.4228323,72.3116802 70.3082259,72.1970737 70.162341,72.1469944 C69.9011591,72.057336 69.6167468,72.1963832 69.5270884,72.4575651 L66.0501002,82.5862972 C65.9133814,82.9845695 65.5418203,83.2545245 65.1207923,83.2614789 L54.4133472,83.4383408 C54.259127,83.4408881 54.1147145,83.51447 54.0220053,83.6377394 C53.8560254,83.8584322 53.900379,84.1718923 54.1210717,84.3378722 L62.67962,90.7746348 C63.0161511,91.027735 63.1580748,91.4645313 63.034584,91.8671017 L59.8940072,102.105141 C59.8487732,102.2526 59.8741278,102.412682 59.9627152,102.538946 C60.1213159,102.765 60.4331402,102.819682 60.6591943,102.661081 L69.4256562,96.5104874 Z M61.8078819,104.29831 C60.6776116,105.091313 59.1184903,104.817904 58.3254869,103.687634 C57.8825495,103.056314 57.7557766,102.255901 57.9819465,101.518605 L60.9167652,91.9513219 L52.9189391,85.9362705 C51.8154753,85.106371 51.5937076,83.5390705 52.423607,82.4356068 C52.887153,81.8192596 53.6092156,81.4513503 54.3803164,81.4386136 L64.3862522,81.273339 L67.6354418,71.8082012 C68.083734,70.5022918 69.5057954,69.8070557 70.8117048,70.2553479 C71.5411294,70.5057445 72.1141615,71.0787767 72.3645582,71.8082012 L75.6137478,81.273339 L85.6196836,81.4386136 C87.0002072,81.4614166 88.1008572,82.5990375 88.0780541,83.9795611 C88.0653174,84.7506619 87.6974081,85.4727245 87.0810609,85.9362705 L79.0832348,91.9513219 L82.0180535,101.518605 C82.4229718,102.838607 81.6811495,104.236932 80.3611471,104.64185 C79.6238508,104.86802 78.8234382,104.741247 78.1921181,104.29831 L70,98.5506783 L61.8078819,104.29831 Z" id="Star" fill="#EF1C3B" fill-rule="nonzero"></path>
                <path d="M34.9543733,73.076739 C35.2818445,72.8469836 35.7181555,72.8469836 36.0456267,73.076739 L41.596042,76.9709385 C41.6086684,76.9797972 41.6246766,76.9823327 41.6394225,76.9778093 C41.6658226,76.9697109 41.680659,76.9417444 41.6725607,76.9153444 L39.6841295,70.4332119 C39.5668133,70.05077 39.7016408,69.6358136 40.0213453,69.3953683 L45.4401218,65.3199835 C45.4524487,65.3107126 45.4598069,65.2962713 45.4600617,65.2808493 C45.4605177,65.2532389 45.4385047,65.2304864 45.4108943,65.2300304 L38.6315609,65.1180517 C38.2315844,65.111445 37.8786013,64.8549878 37.7487184,64.4766291 L35.5472912,58.0637033 C35.5422832,58.0491148 35.5308226,58.0376541 35.5162341,58.0326462 C35.4901159,58.0236803 35.4616747,58.0375851 35.4527088,58.0637033 L33.2512816,64.4766291 C33.1213987,64.8549878 32.7684156,65.111445 32.3684391,65.1180517 L25.5891057,65.2300304 C25.5736837,65.2302851 25.5592425,65.2376433 25.5499716,65.2499702 C25.5333736,65.2720395 25.5378089,65.3033855 25.5598782,65.3199835 L30.9786547,69.3953683 C31.2983592,69.6358136 31.4331867,70.05077 31.3158705,70.4332119 L29.3274393,76.9153444 C29.3229159,76.9300903 29.3254514,76.9460986 29.3343101,76.958725 C29.3501702,76.9813304 29.3813526,76.9867985 29.403958,76.9709385 L34.9543733,73.076739 Z M35.5,75.0149203 L30.4952113,78.5263054 C29.6136005,79.144848 28.3974859,78.9315891 27.7789432,78.0499783 C27.4334521,77.5575486 27.3345692,76.9332267 27.5109817,76.3581356 L29.3039426,70.5132211 L24.4178522,66.8384619 C23.5571505,66.1911403 23.3841716,64.9686459 24.0314932,64.1079442 C24.393059,63.6271934 24.9562679,63.3402242 25.5577265,63.3302895 L31.6706259,63.2293188 L33.6556446,57.4468076 C34.0053125,56.4281982 35.1145204,55.8859141 36.1331298,56.235582 C36.7020809,56.4308914 37.149046,56.8778564 37.3443554,57.4468076 L39.3293741,63.2293188 L45.4422735,63.3302895 C46.5190819,63.3480759 47.3775889,64.2354202 47.3598025,65.3122286 C47.3498678,65.9136872 47.0628986,66.4768961 46.5821478,66.8384619 L41.6960574,70.5132211 L43.4890183,76.3581356 C43.8048546,77.3877375 43.2262332,78.4784307 42.1966313,78.7942669 C41.6215402,78.9706794 40.9972184,78.8717966 40.5047887,78.5263054 L35.5,75.0149203 Z" id="Star-Copy" fill="#EF1C3B" fill-rule="nonzero"></path>
                <path d="M9.01180773,56.5721049 C9.3048082,56.3665342 9.6951918,56.3665342 9.98819227,56.5721049 L13.5451694,59.067698 L12.2708856,54.913631 C12.1659185,54.5714462 12.2865537,54.2001694 12.5726051,53.9850342 L16.0452216,51.3733286 L11.7006938,51.3015672 C11.34282,51.2956559 11.0269931,51.0661942 10.9107821,50.7276627 L9.5,46.6179467 L8.08921791,50.7276627 C7.97300693,51.0661942 7.65717997,51.2956559 7.29930623,51.3015672 L2.95477841,51.3733286 L6.42739495,53.9850342 C6.71344635,54.2001694 6.83408151,54.5714462 6.72911436,54.913631 L5.45483059,59.067698 L9.01180773,56.5721049 Z M5.59657517,61.0449297 C4.98622921,61.4731516 4.14430368,61.3255108 3.71608186,60.7151648 C3.47689566,60.3742519 3.4084383,59.9420291 3.53057002,59.5438891 L4.92896835,54.9852182 L1.1181208,52.1191339 C0.522250374,51.6709882 0.402495811,50.8246459 0.850641494,50.2287755 C1.1009563,49.895948 1.49087012,49.697277 1.90726455,49.6903992 L6.67494708,49.6116482 L8.22313859,45.1016481 C8.46521638,44.396457 9.23312952,44.0210295 9.9383206,44.2631073 C10.3322099,44.3983215 10.6416472,44.7077588 10.7768614,45.1016481 L12.3250529,49.6116482 L17.0927355,49.6903992 C17.8382182,49.7027128 18.4325692,50.3170281 18.4202555,51.0625108 C18.4133777,51.4789053 18.2147067,51.8688191 17.8818792,52.1191339 L14.0710316,54.9852182 L15.46943,59.5438891 C15.6880859,60.2566905 15.2875018,61.0117857 14.5747005,61.2304416 C14.1765605,61.3525733 13.7443377,61.2841159 13.4034248,61.0449297 L9.5,58.3062671 L5.59657517,61.0449297 Z" id="Star-Copy-3" fill="#EF1C3B" fill-rule="nonzero"></path>
                <path d="M130.011808,56.5721049 C130.304808,56.3665342 130.695192,56.3665342 130.988192,56.5721049 L134.545169,59.067698 L133.270886,54.913631 C133.165918,54.5714462 133.286554,54.2001694 133.572605,53.9850342 L137.045222,51.3733286 L132.700694,51.3015672 C132.34282,51.2956559 132.026993,51.0661942 131.910782,50.7276627 L130.5,46.6179467 L129.089218,50.7276627 C128.973007,51.0661942 128.65718,51.2956559 128.299306,51.3015672 L123.954778,51.3733286 L127.427395,53.9850342 C127.713446,54.2001694 127.834082,54.5714462 127.729114,54.913631 L126.454831,59.067698 L130.011808,56.5721049 Z M126.596575,61.0449297 C125.986229,61.4731516 125.144304,61.3255108 124.716082,60.7151648 C124.476896,60.3742519 124.408438,59.9420291 124.53057,59.5438891 L125.928968,54.9852182 L122.118121,52.1191339 C121.52225,51.6709882 121.402496,50.8246459 121.850641,50.2287755 C122.100956,49.895948 122.49087,49.697277 122.907265,49.6903992 L127.674947,49.6116482 L129.223139,45.1016481 C129.465216,44.396457 130.23313,44.0210295 130.938321,44.2631073 C131.33221,44.3983215 131.641647,44.7077588 131.776861,45.1016481 L133.325053,49.6116482 L138.092735,49.6903992 C138.838218,49.7027128 139.432569,50.3170281 139.420256,51.0625108 C139.413378,51.4789053 139.214707,51.8688191 138.881879,52.1191339 L135.071032,54.9852182 L136.46943,59.5438891 C136.688086,60.2566905 136.287502,61.0117857 135.574701,61.2304416 C135.176561,61.3525733 134.744338,61.2841159 134.403425,61.0449297 L130.5,58.3062671 L126.596575,61.0449297 Z" id="Star-Copy-4" fill="#EF1C3B" fill-rule="nonzero"></path>
                <path d="M103.38003,73.4797015 C104.052207,73.0080984 104.947793,73.0080984 105.61997,73.4797015 L110.596042,76.9709385 C110.608668,76.9797972 110.624677,76.9823327 110.639423,76.9778093 C110.665823,76.9697109 110.680659,76.9417444 110.672561,76.9153444 L108.68413,70.4332119 C108.566813,70.05077 108.701641,69.6358136 109.021345,69.3953683 L114.440122,65.3199835 C114.452449,65.3107126 114.459807,65.2962713 114.460062,65.2808493 C114.460518,65.2532389 114.438505,65.2304864 114.410894,65.2300304 L107.631561,65.1180517 C107.231584,65.111445 106.878601,64.8549878 106.748718,64.4766291 L104.547291,58.0637033 C104.542283,58.0491148 104.530823,58.0376541 104.516234,58.0326462 C104.490116,58.0236803 104.461675,58.0375851 104.452709,58.0637033 L102.251282,64.4766291 C102.121399,64.8549878 101.768416,65.111445 101.368439,65.1180517 L94.5891057,65.2300304 C94.5736837,65.2302851 94.5592425,65.2376433 94.5499716,65.2499702 C94.5333736,65.2720395 94.5378089,65.3033855 94.5598782,65.3199835 L99.9786547,69.3953683 C100.298359,69.6358136 100.433187,70.05077 100.31587,70.4332119 L98.3274393,76.9153444 C98.3229159,76.9300903 98.3254514,76.9460986 98.3343101,76.958725 C98.3501702,76.9813304 98.3813526,76.9867985 98.403958,76.9709385 L103.38003,73.4797015 Z M112.489018,76.3581356 C112.804855,77.3877375 112.226233,78.4784307 111.196631,78.7942669 C110.62154,78.9706794 109.997218,78.8717966 109.504789,78.5263054 L104.528717,75.0350684 C104.511482,75.022976 104.488518,75.022976 104.471283,75.0350684 L99.4952113,78.5263054 C98.6136005,79.144848 97.3974859,78.9315891 96.7789432,78.0499783 C96.4334521,77.5575486 96.3345692,76.9332267 96.5109817,76.3581356 L98.3039426,70.5132211 L93.4178522,66.8384619 C92.5571505,66.1911403 92.3841716,64.9686459 93.0314932,64.1079442 C93.393059,63.6271934 93.9562679,63.3402242 94.5577265,63.3302895 L100.670626,63.2293188 L102.655645,57.4468076 C103.005313,56.4281982 104.11452,55.8859141 105.13313,56.235582 C105.702081,56.4308914 106.149046,56.8778564 106.344355,57.4468076 L108.329374,63.2293188 L114.442274,63.3302895 C115.519082,63.3480759 116.377589,64.2354202 116.359803,65.3122286 C116.349868,65.9136872 116.062899,66.4768961 115.582148,66.8384619 L110.696057,70.5132211 L112.489018,76.3581356 Z" id="Star-Copy-2" fill="#EF1C3B" fill-rule="nonzero"></path>
            </g>
        </g>
    </g>
</svg>