<?xml version="1.0" encoding="UTF-8"?>
<svg width="171px" height="198px" viewBox="0 0 171 198" version="1.1" xmlns="http://www.w3.org/2000/svg" xmlns:xlink="http://www.w3.org/1999/xlink">
    <!-- Generator: Sketch 52.3 (67297) - http://www.bohemiancoding.com/sketch -->
    <title>outsource services icon 2</title>
    <desc>Created with Sketch.</desc>
    <defs>
        <linearGradient x1="1.20662332%" y1="2.14292466%" x2="90.267142%" y2="79.7543246%" id="linearGradient-1">
            <stop stop-color="#0497F4" offset="0%"></stop>
            <stop stop-color="#0BCBF9" offset="100%"></stop>
        </linearGradient>
    </defs>
    <g id="Design" stroke="none" stroke-width="1" fill="none" fill-rule="evenodd">
        <g id="Outsource-1440" transform="translate(-293.000000, -2992.000000)">
            <g id="outsource-services-icon-2" transform="translate(286.000000, 2992.000000)">
                <g id="Group-59" transform="translate(0.000000, 48.000000)">
                    <g id="data-icon" transform="translate(29.000000, 0.000000)">
                        <g id="Group-3" transform="translate(0.000000, 88.193718)">
                            <path d="M30.6905397,3.1894735 C37.7009741,1.33581443 45.5491039,0.297784079 53.8277811,0.297784079 C62.1064582,0.297784079 69.9499081,1.33581443 76.9603425,3.1894735 L107.650882,3.1894735 L107.650882,29.4150738 L107.636843,29.4150738 C107.646202,29.6477762 107.650882,29.8809467 107.650882,30.1145855 C107.650882,46.5709015 83.5308698,59.9313869 53.8277811,59.9313869 C24.1200125,59.9313869 0,46.5709015 0,30.1145855 C0,29.8809467 0.00467986272,29.6477762 0.0187194509,29.4150738 L0,29.4150738 L0,3.1894735 L30.6905397,3.1894735 Z" id="Fill-1" fill="#E7F7FF"></path>
                            <path d="M106.650882,4.1894735 L76.8303687,4.1894735 L76.7047134,4.15624842 C69.6224673,2.28360132 61.8517641,1.29778408 53.8277811,1.29778408 C45.8026822,1.29778408 38.027294,2.2838977 30.9461689,4.15624842 L30.8205135,4.1894735 L1,4.1894735 L1,28.4150738 L1.08087064,28.4150738 L1.01690438,29.4752971 C1.00519186,29.669429 1,29.8763732 1,30.1145855 C1,45.8594857 24.5986541,58.9313869 53.8277811,58.9313869 C83.0529521,58.9313869 106.650882,45.8591019 106.650882,30.1145855 C106.650882,29.8943365 106.646471,29.6745651 106.637651,29.4552632 L106.595812,28.4150738 L106.650882,28.4150738 L106.650882,4.1894735 Z M30.5609823,2.1894735 C37.7770219,0.294044489 45.6796198,-0.702215921 53.8277811,-0.702215921 C61.974864,-0.702215921 69.8728331,0.293759968 77.0899004,2.1894735 L108.650882,2.1894735 L108.650882,30.4150738 C108.362816,47.4406959 83.8342977,60.9313869 53.8277811,60.9313869 C23.8173275,60.9313869 -0.711931699,47.4411056 -0.997481352,30.4150738 L-1,2.1894735 L30.5609823,2.1894735 Z" id="Fill-1" fill="url(#linearGradient-1)" fill-rule="nonzero"></path>
                        </g>
                        <path d="M53.8231012,60.8678148 C83.5486532,60.8678148 107.646202,74.2165948 107.646202,90.6836798 C107.646202,107.150297 83.5486532,120.499545 53.8231012,120.499545 C24.0975491,120.499545 0,107.150297 0,90.6836798 C0,74.2165948 24.0975491,60.8678148 53.8231012,60.8678148" id="Fill-4" fill="#FFFFFF"></path>
                        <g id="Group-8" transform="translate(0.000000, 57.759811)">
                            <path d="M30.6905397,3.1894735 C37.7009741,1.33581443 45.5491039,0.297784079 53.8277811,0.297784079 C62.1064582,0.297784079 69.9499081,1.33581443 76.9603425,3.1894735 L107.650882,3.1894735 L107.650882,29.4150738 L107.636843,29.4150738 C107.646202,29.6477762 107.650882,29.8809467 107.650882,30.1145855 C107.650882,46.5709015 83.5308698,59.9313869 53.8277811,59.9313869 C24.1200125,59.9313869 0,46.5709015 0,30.1145855 C0,29.8809467 0.00467986272,29.6477762 0.0187194509,29.4150738 L0,29.4150738 L0,3.1894735 L30.6905397,3.1894735 Z" id="Fill-6" fill="#E7F7FF"></path>
                            <path d="M106.650882,4.1894735 L76.8303687,4.1894735 L76.7047134,4.15624842 C69.6224673,2.28360132 61.8517641,1.29778408 53.8277811,1.29778408 C45.8026822,1.29778408 38.027294,2.2838977 30.9461689,4.15624842 L30.8205135,4.1894735 L1,4.1894735 L1,28.4150738 L1.08087064,28.4150738 L1.01690438,29.4752971 C1.00519186,29.669429 1,29.8763732 1,30.1145855 C1,45.8594857 24.5986541,58.9313869 53.8277811,58.9313869 C83.0529521,58.9313869 106.650882,45.8591019 106.650882,30.1145855 C106.650882,29.8943365 106.646471,29.6745651 106.637651,29.4552632 L106.595812,28.4150738 L106.650882,28.4150738 L106.650882,4.1894735 Z M30.5609823,2.1894735 C37.7770219,0.294044489 45.6796198,-0.702215921 53.8277811,-0.702215921 C61.974864,-0.702215921 69.8728331,0.293759968 77.0899004,2.1894735 L108.650882,2.1894735 L108.650882,30.4150738 C108.362816,47.4406959 83.8342977,60.9313869 53.8277811,60.9313869 C23.8173275,60.9313869 -0.711931699,47.4411056 -0.997481352,30.4150738 L-1,2.1894735 L30.5609823,2.1894735 Z" id="Fill-6" fill="url(#linearGradient-1)" fill-rule="nonzero"></path>
                        </g>
                        <path d="M53.8231012,30.4339074 C83.5486532,30.4339074 107.646202,43.7826874 107.646202,60.2497724 C107.646202,76.7163891 83.5486532,90.0656373 53.8231012,90.0656373 C24.0975491,90.0656373 0,76.7163891 0,60.2497724 C0,43.7826874 24.0975491,30.4339074 53.8231012,30.4339074" id="Fill-9" fill="#FFFFFF"></path>
                        <g id="Group-13" transform="translate(0.000000, 27.325903)">
                            <path d="M30.6905397,3.1894735 C37.7009741,1.33581443 45.5491039,0.297784079 53.8277811,0.297784079 C62.1064582,0.297784079 69.9499081,1.33581443 76.9603425,3.1894735 L107.650882,3.1894735 L107.650882,29.4150738 L107.636843,29.4150738 C107.646202,29.6477762 107.650882,29.8809467 107.650882,30.1145855 C107.650882,46.5709015 83.5308698,59.9313869 53.8277811,59.9313869 C24.1200125,59.9313869 0,46.5709015 0,30.1145855 C0,29.8809467 0.00467986272,29.6477762 0.0187194509,29.4150738 L0,29.4150738 L0,3.1894735 C0,3.1894735 30.6905397,3.1894735 30.6905397,3.1894735" id="Fill-11" fill="#E7F7FF"></path>
                            <path d="M106.650882,4.1894735 L76.8303687,4.1894735 L76.7047134,4.15624842 C69.6224673,2.28360132 61.8517641,1.29778408 53.8277811,1.29778408 C45.8026822,1.29778408 38.027294,2.2838977 30.9461689,4.15624842 L30.6905397,3.1894735 L30.6905397,4.1894735 L1,4.1894735 L1,28.4150738 L1.08087064,28.4150738 L1.01690438,29.4752971 C1.00519186,29.669429 1,29.8763732 1,30.1145855 C1,45.8594857 24.5986541,58.9313869 53.8277811,58.9313869 C83.0529521,58.9313869 106.650882,45.8591019 106.650882,30.1145855 C106.650882,29.8943365 106.646471,29.6745651 106.637651,29.4552632 L106.595812,28.4150738 L106.650882,28.4150738 L106.650882,4.1894735 Z M53.8277811,-0.702215921 C61.974864,-0.702215921 69.8728331,0.293759968 77.0899004,2.1894735 L108.650882,2.1894735 L108.650882,30.4150738 C108.362816,47.4406959 83.8342977,60.9313869 53.8277811,60.9313869 C23.8173275,60.9313869 -0.711931699,47.4411056 -0.997481352,30.4150738 L-1,2.1894735 L30.5609834,2.1894735 C37.7770219,0.294044489 45.6796198,-0.702215921 53.8277811,-0.702215921 Z" id="Fill-11" fill="url(#linearGradient-1)" fill-rule="nonzero"></path>
                        </g>
                        <path d="M53.8231012,0 C83.5486532,0 107.646202,13.34878 107.646202,29.815865 C107.646202,46.2824817 83.5486532,59.6317299 53.8231012,59.6317299 C24.0975491,59.6317299 0,46.2824817 0,29.815865 C0,13.34878 24.0975491,0 53.8231012,0" id="Fill-14" fill="#E7F7FF"></path>
                        <path d="M53.8231012,0 L53.8231012,-1 C84.0276757,-1 108.646202,12.6375911 108.646202,29.815865 C108.646202,46.9938292 84.0273838,60.6317299 53.8231012,60.6317299 C23.6188186,60.6317299 -1,46.9938292 -1,29.815865 C-1,12.6375911 23.6185267,-1 53.8231012,-1 L53.8231012,0 Z M53.8231012,0 L53.8231012,1 C24.5761885,1 1,14.0601811 1,29.815865 C1,45.5712454 24.5764805,58.6317299 53.8231012,58.6317299 C83.0697219,58.6317299 106.646202,45.5712454 106.646202,29.815865 C106.646202,14.0601811 83.0700138,1 53.8231012,1 L53.8231012,0 Z" id="Fill-14" fill="url(#linearGradient-1)" fill-rule="nonzero"></path>
                        <path d="M56.9852844,73.7562 C56.9852844,75.7234903 55.3911785,77.3183718 53.4248449,77.3183718 C51.4585112,77.3183718 49.8644053,75.7234903 49.8644053,73.7562 C49.8644053,71.7889097 51.4585112,70.1940282 53.4248449,70.1940282 C55.3911785,70.1940282 56.9852844,71.7889097 56.9852844,73.7562" id="Fill-16" fill="#EF1C3B"></path>
                        <path d="M56.9852844,103.783042 C56.9852844,105.750333 55.3911785,107.345214 53.4248449,107.345214 C51.4585112,107.345214 49.8644053,105.750333 49.8644053,103.783042 C49.8644053,101.815752 51.4585112,100.22087 53.4248449,100.22087 C55.3911785,100.22087 56.9852844,101.815752 56.9852844,103.783042" id="Fill-18" fill="#EF1C3B"></path>
                        <path d="M56.9852844,133.904838 C56.9852844,135.872128 55.3911785,137.46701 53.4248449,137.46701 C51.4585112,137.46701 49.8644053,135.872128 49.8644053,133.904838 C49.8644053,131.937548 51.4585112,130.342666 53.4248449,130.342666 C55.3911785,130.342666 56.9852844,131.937548 56.9852844,133.904838" id="Fill-20" fill="#EF1C3B"></path>
                    </g>
                    <g id="Group-18" transform="translate(106.000000, 14.000000)">
                        <g id="Group-57">
                            <path d="M30.5373639,55.02255 C44.6519828,55.02255 56.0890358,43.8223023 56.0890358,30.0123 C56.0890358,16.2022977 44.6519828,5.00205 30.5373639,5.00205 C16.4227451,5.00205 4.98569207,16.2022977 4.98569207,30.0123 C4.98569207,43.8223023 16.4227451,55.02255 30.5373639,55.02255 Z M29.9141524,60.0246 C13.3930222,60.0246 -4.03896783e-28,46.5876356 -4.03896783e-28,30.0123 C-4.03896783e-28,13.4369644 13.3930222,0 29.9141524,0 C46.4352826,0 59.8283049,13.4369644 59.8283049,30.0123 C59.8283049,46.5876356 46.4352826,60.0246 29.9141524,60.0246 Z" id="Oval" fill="url(#linearGradient-1)" fill-rule="nonzero"></path>
                            <ellipse id="Oval" fill="#FFFFFF" fill-rule="nonzero" cx="29.9141524" cy="30.0123" rx="25.1074201" ry="25.2152853"></ellipse>
                            <path d="M49.0194655,49.0747139 L49.3992367,48.6965297 C50.8553828,47.2464687 53.2113293,47.2514016 54.6613904,48.7075478 C54.6822885,48.7285336 54.7029353,48.7497681 54.7233264,48.7712469 L70.696357,65.5962985 C72.0874073,67.0615491 72.0550234,69.3691152 70.623403,70.7947531 L70.2436317,71.1729372 C68.7874856,72.6229983 66.4315391,72.6180654 64.9814781,71.1619192 C64.96058,71.1409334 64.9399331,71.1196988 64.919542,71.09822 L48.9465114,54.2731684 C47.5554611,52.8079178 47.5878451,50.5003517 49.0194655,49.0747139 Z" id="Rectangle" fill="url(#linearGradient-1)"></path>
                        </g>
                        <g id="Group-12" transform="translate(13.000000, 21.000000)" fill="#EF1C3B">
                            <ellipse id="Oval" cx="17.8144625" cy="10.1275385" rx="8.14413876" ry="7.85667198"></ellipse>
                            <path d="M34.3485096,10.1923116 L31.8209356,11.8460391 C28.2226236,6.72774013 22.965845,3.74399256 17.337092,3.74399256 C11.6763021,3.74399256 6.39223269,6.76215887 2.79385208,11.9309401 L0.258517832,10.288305 C4.39815734,4.34204941 10.6033734,0.797740564 17.337092,0.797740564 C24.0331854,0.797740564 30.2077469,4.30242169 34.3485096,10.1923116 Z" id="Oval" fill-rule="nonzero"></path>
                        </g>
                    </g>
                </g>
                <g id="Group-17" transform="translate(8.000000, 0.000000)">
                    <polygon id="Fill-1" fill="url(#linearGradient-1)" points="0 78 10 78 10 42 0 42"></polygon>
                    <polygon id="Fill-2" fill="url(#linearGradient-1)" points="20 77 30 77 30 59 20 59"></polygon>
                    <polygon id="Fill-3" fill="url(#linearGradient-1)" points="37 76 47 76 47 44 37 44"></polygon>
                    <polygon id="Fill-4" fill="url(#linearGradient-1)" points="56 76 66 76 66 17 56 17"></polygon>
                    <polyline id="Stroke-5" stroke="#EF1C3B" stroke-width="2" points="0 34.3697479 15 20.9340002 31 31 54 5"></polyline>
                    <polygon id="Fill-7" fill="#EF1C3B" transform="translate(52.389939, 8.243462) rotate(-12.000000) translate(-52.389939, -8.243462) " points="60.4407012 1.99173272 44.3391766 5.8056166 51.0097131 14.495192"></polygon>
                </g>
            </g>
        </g>
    </g>
</svg>