<?xml version="1.0" encoding="UTF-8"?>
<svg width="399px" height="350px" viewBox="0 0 399 350" version="1.1" xmlns="http://www.w3.org/2000/svg" xmlns:xlink="http://www.w3.org/1999/xlink">
    <!-- Generator: Sketch 52.3 (67297) - http://www.bohemiancoding.com/sketch -->
    <title>OUTSOURCING LAND VISUAL MAN ON LAPTOP</title>
    <desc>Created with Sketch.</desc>
    <defs>
        <linearGradient x1="1.20662332%" y1="2.14292466%" x2="90.267142%" y2="79.7543246%" id="linearGradient-1">
            <stop stop-color="#0497F4" offset="0%"></stop>
            <stop stop-color="#0BCBF9" offset="100%"></stop>
        </linearGradient>
        <polygon id="path-2" points="0.494324444 0.227270883 24.9711187 0.227270883 24.9711187 18.3673469 0.494324444 18.3673469"></polygon>
        <path d="M303,247.132681 C303,238.902795 309.902512,232 318.132681,232 C326.362849,232 333,238.902795 333,247.132681 C333,255.362849 326.362849,262 318.132681,262 C309.902512,262 303,255.362849 303,247.132681 Z M357.285307,236.730347 C356.307013,233.144427 355.0032,229.55816 353.04696,226.29776 L358.58912,218.473493 C359.89328,216.843467 359.567413,214.887227 358.263253,213.583067 L351.416933,206.736747 C350.112773,205.432587 348.156533,205.432587 346.526507,206.41088 L338.70224,211.95304 C335.44184,210.323013 331.855573,208.692987 328.269653,207.714693 L326.63928,198.2604 C326.313413,196.30416 324.683387,195 322.727147,195 L313.272507,195 C311.316613,195 310.012453,196.30416 309.686587,198.2604 L308.056213,207.714693 C304.14408,208.692987 300.557813,210.323013 297.29776,212.278907 L289.14728,206.736747 C287.84312,205.7588 285.887227,205.7588 284.583067,207.062613 L277.736747,213.90928 C276.432587,215.213093 276.106373,217.169333 277.410533,218.79936 L282.95304,226.623973 C280.9968,230.21024 279.69264,233.79616 278.714693,237.382427 L269.260053,238.686587 C267.30416,239.012453 266,240.642827 266,242.272853 L266,252.05336 C266,254.0096 267.30416,255.313413 269.260053,255.639627 L278.714693,257.269653 C279.69264,261.181787 281.322667,264.442187 283.278907,267.70224 L277.736747,275.85272 C276.432587,277.15688 276.758453,279.112773 278.062613,280.416933 L284.908933,287.263253 C286.213093,288.567413 288.169333,288.893627 289.79936,287.915333 L297.623627,282.04696 C301.209893,284.0032 304.79616,285.30736 308.382427,286.285307 L309.686587,296.065813 C310.012453,297.69584 311.64248,299 313.59872,299 L323.05336,299 C325.009253,299 326.63928,297.69584 326.965493,296.065813 L328.59552,286.285307 C331.855573,285.30736 335.44184,284.0032 338.70224,282.04696 L346.526507,287.589467 C348.156533,288.567413 350.112773,288.567413 351.416933,287.263253 L358.263253,280.416933 C359.567413,279.112773 359.89328,277.15688 358.58912,275.526853 L353.04696,267.70224 C355.0032,264.442187 356.307013,260.85592 357.285307,257.269653 L367.065813,255.313413 C368.69584,255.313413 370,253.683387 370,251.727493 L370,241.94664 C370,240.316613 368.69584,238.686587 367.065813,238.36072 L357.285307,236.730347 Z" id="path-4"></path>
        <filter x="-48.1%" y="-38.5%" width="196.2%" height="196.2%" filterUnits="objectBoundingBox" id="filter-5">
            <feOffset dx="0" dy="10" in="SourceAlpha" result="shadowOffsetOuter1"></feOffset>
            <feGaussianBlur stdDeviation="15" in="shadowOffsetOuter1" result="shadowBlurOuter1"></feGaussianBlur>
            <feComposite in="shadowBlurOuter1" in2="SourceAlpha" operator="out" result="shadowBlurOuter1"></feComposite>
            <feColorMatrix values="0 0 0 0 0   0 0 0 0 0   0 0 0 0 0  0 0 0 0.15 0" type="matrix" in="shadowBlurOuter1"></feColorMatrix>
        </filter>
    </defs>
    <g id="Design" stroke="none" stroke-width="1" fill="none" fill-rule="evenodd">
        <g id="Index---V1-Outsource" transform="translate(-1091.000000, -227.000000)">
            <g id="Group-77" transform="translate(819.000000, 163.000000)">
                <g id="Group-76">
                    <g id="OUTSOURCING-LAND-VISUAL-MAN-ON-LAPTOP" transform="translate(272.000000, 64.000000)">
                        <g id="LAPTOP" transform="translate(0.000000, 113.000000)">
                            <ellipse id="Oval" fill="#000000" opacity="0.099999994" cx="191" cy="227" rx="191" ry="10"></ellipse>
                            <path d="M23,208 L357,208 L357,211 C357,218.731986 350.731986,225 343,225 L37,225 C29.2680135,225 23,218.731986 23,211 L23,208 Z" id="Rectangle-Copy-55" fill="#B6EFFE"></path>
                            <path d="M36,208 L36,19.1111111 C36,12.9746139 40.7241678,8 46.5517241,8 L331.448276,8 C337.275832,8 342,12.9746139 342,19.1111111 L342,208 L36,208 Z" id="Rectangle-Copy-53" fill="#FFFFFF"></path>
                            <rect id="Rectangle-Copy-54" fill="url(#linearGradient-1)" x="45" y="17" width="289" height="184" rx="2"></rect>
                            <rect id="Rectangle" fill="#3B4B68" x="45" y="17" width="289" height="184" rx="4"></rect>
                            <g id="Group-79" transform="translate(60.000000, 35.000000)">
                                <rect id="Rectangle" fill="#FFFFFF" x="0" y="0" width="32.5255102" height="3.90147783"></rect>
                                <rect id="Rectangle-Copy-60" fill="#0497F4" x="0" y="13.0049261" width="16.2627551" height="3.90147783"></rect>
                                <rect id="Rectangle-Copy-68" fill="#02BDF3" x="0" y="25.3596059" width="24.0688776" height="3.90147783"></rect>
                                <rect id="Rectangle-Copy-76" fill="#02BDF3" x="0" y="38.364532" width="33.1760204" height="3.90147783"></rect>
                                <rect id="Rectangle-Copy-81" fill="#0497F4" x="0" y="50.7192118" width="23.4183673" height="3.90147783"></rect>
                                <rect id="Rectangle-Copy-84" fill="#0497F4" x="0" y="64.3743842" width="13.6607143" height="3.90147783"></rect>
                                <rect id="Rectangle-Copy-87" fill="#FFFFFF" x="0" y="76.729064" width="24.0688776" height="3.90147783"></rect>
                                <rect id="Rectangle-Copy-90" fill="#0497F4" x="0" y="89.7339901" width="14.9617347" height="3.90147783"></rect>
                                <rect id="Rectangle-Copy-94" fill="#0497F4" x="0" y="102.08867" width="29.2729592" height="3.90147783"></rect>
                                <rect id="Rectangle-Copy-101" fill="#FFFFFF" x="0" y="114.44335" width="16.2627551" height="3.90147783"></rect>
                                <rect id="Rectangle-Copy-108" fill="#EF1C3B" x="0" y="128.098522" width="13.6607143" height="3.90147783"></rect>
                                <rect id="Rectangle-Copy-109" fill="#0497F4" x="18.8647959" y="128.098522" width="29.9234694" height="3.90147783"></rect>
                                <rect id="Rectangle-Copy-110" fill="#EF1C3B" x="53.9923469" y="128.098522" width="14.9617347" height="3.90147783"></rect>
                                <rect id="Rectangle-Copy-112" fill="#0497F4" x="102.780612" y="128.098522" width="14.9617347" height="3.90147783"></rect>
                                <rect id="Rectangle-Copy-113" fill="#0497F4" x="124.247449" y="128.098522" width="29.2729592" height="3.90147783"></rect>
                                <rect id="Rectangle-Copy-114" fill="#EF1C3B" x="158.72449" y="128.098522" width="24.0688776" height="3.90147783"></rect>
                                <rect id="Rectangle-Copy-115" fill="#0497F4" x="187.997449" y="128.098522" width="31.2244898" height="3.90147783"></rect>
                                <rect id="Rectangle-Copy-111" fill="#02BDF3" x="74.1581633" y="128.098522" width="23.4183673" height="3.90147783"></rect>
                                <rect id="Rectangle-Copy-103" fill="#EF1C3B" x="48.7882653" y="114.44335" width="8.45663265" height="3.90147783"></rect>
                                <rect id="Rectangle-Copy-102" fill="#02BDF3" x="20.8163265" y="114.44335" width="23.4183673" height="3.90147783"></rect>
                                <rect id="Rectangle-Copy-104" fill="#02BDF3" x="62.4489796" y="114.44335" width="23.4183673" height="3.90147783"></rect>
                                <rect id="Rectangle-Copy-106" fill="#EF1C3B" x="142.461735" y="114.44335" width="31.2244898" height="3.90147783"></rect>
                                <rect id="Rectangle-Copy-107" fill="#EF1C3B" x="178.239796" y="114.44335" width="10.4081633" height="3.90147783"></rect>
                                <rect id="Rectangle-Copy-105" fill="#FFFFFF" x="91.0714286" y="114.44335" width="46.1862245" height="3.90147783"></rect>
                                <rect id="Rectangle-Copy-95" fill="#FFFFFF" x="34.4770408" y="102.08867" width="14.3112245" height="3.90147783"></rect>
                                <rect id="Rectangle-Copy-97" fill="#FFFFFF" x="65.7015306" y="102.08867" width="25.369898" height="3.90147783"></rect>
                                <rect id="Rectangle-Copy-99" fill="#0497F4" x="119.043367" y="102.08867" width="29.2729592" height="3.90147783"></rect>
                                <rect id="Rectangle-Copy-100" fill="#EF1C3B" x="154.821429" y="102.08867" width="31.2244898" height="3.90147783"></rect>
                                <rect id="Rectangle-Copy-96" fill="#EF1C3B" x="53.9923469" y="102.08867" width="6.50510204" height="3.90147783"></rect>
                                <rect id="Rectangle-Copy-98" fill="#EF1C3B" x="96.2755102" y="102.08867" width="16.2627551" height="3.90147783"></rect>
                                <rect id="Rectangle-Copy-91" fill="#02BDF3" x="20.8163265" y="89.7339901" width="23.4183673" height="3.90147783"></rect>
                                <rect id="Rectangle-Copy-92" fill="#0497F4" x="50.0892857" y="89.7339901" width="18.8647959" height="3.90147783"></rect>
                                <rect id="Rectangle-Copy-93" fill="#EF1C3B" x="73.5076531" y="89.7339901" width="18.8647959" height="3.90147783"></rect>
                                <rect id="Rectangle-Copy-88" fill="#EF1C3B" x="29.2729592" y="76.729064" width="11.0586735" height="3.90147783"></rect>
                                <rect id="Rectangle-Copy-89" fill="#0497F4" x="45.5357143" y="76.729064" width="13.6607143" height="3.90147783"></rect>
                                <rect id="Rectangle-Copy-85" fill="#02BDF3" x="18.8647959" y="64.3743842" width="20.8163265" height="3.90147783"></rect>
                                <rect id="Rectangle-Copy-86" fill="#0497F4" x="44.8852041" y="64.3743842" width="29.2729592" height="3.90147783"></rect>
                                <rect id="Rectangle-Copy-83" fill="#EF1C3B" x="41.6326531" y="50.7192118" width="14.9617347" height="3.90147783"></rect>
                                <rect id="Rectangle-Copy-82" fill="#FFFFFF" x="27.3214286" y="50.7192118" width="9.75765306" height="3.90147783"></rect>
                                <rect id="Rectangle-Copy-77" fill="#0497F4" x="38.380102" y="38.364532" width="23.4183673" height="3.90147783"></rect>
                                <rect id="Rectangle-Copy-78" fill="#FFFFFF" x="69.6045918" y="38.364532" width="13.6607143" height="3.90147783"></rect>
                                <rect id="Rectangle-Copy-80" fill="#0497F4" x="111.237245" y="38.364532" width="27.9719388" height="3.90147783"></rect>
                                <rect id="Rectangle-Copy-79" fill="#EF1C3B" x="87.1683673" y="38.364532" width="16.2627551" height="3.90147783"></rect>
                                <rect id="Rectangle-Copy-70" fill="#FFFFFF" x="42.9336735" y="25.3596059" width="24.0688776" height="3.90147783"></rect>
                                <rect id="Rectangle-Copy-71" fill="#0497F4" x="73.5076531" y="25.3596059" width="12.3596939" height="3.90147783"></rect>
                                <rect id="Rectangle-Copy-72" fill="#FFFFFF" x="89.119898" y="25.3596059" width="37.0790816" height="3.90147783"></rect>
                                <rect id="Rectangle-Copy-73" fill="#EF1C3B" x="131.403061" y="25.3596059" width="13.6607143" height="3.90147783"></rect>
                                <rect id="Rectangle-Copy-75" fill="#02BDF3" x="182.793367" y="25.3596059" width="20.8163265" height="3.90147783"></rect>
                                <rect id="Rectangle-Copy-74" fill="#0497F4" x="150.267857" y="25.3596059" width="27.9719388" height="3.90147783"></rect>
                                <rect id="Rectangle-Copy-69" fill="#EF1C3B" x="27.3214286" y="25.3596059" width="11.0586735" height="3.90147783"></rect>
                                <rect id="Rectangle-Copy-64" fill="#0497F4" x="63.75" y="13.0049261" width="67.002551" height="3.90147783"></rect>
                                <rect id="Rectangle-Copy-65" fill="#FFFFFF" x="135.306122" y="13.0049261" width="44.2346939" height="3.90147783"></rect>
                                <rect id="Rectangle-Copy-66" fill="#EF1C3B" x="187.997449" y="13.0049261" width="44.2346939" height="3.90147783"></rect>
                                <rect id="Rectangle-Copy-67" fill="#02BDF3" x="240.038265" y="13.0049261" width="14.9617347" height="3.90147783"></rect>
                                <rect id="Rectangle-Copy-61" fill="#0497F4" x="20.8163265" y="13.0049261" width="5.85459184" height="3.90147783"></rect>
                                <rect id="Rectangle-Copy-62" fill="#EF1C3B" x="31.2244898" y="13.0049261" width="5.85459184" height="3.90147783"></rect>
                                <rect id="Rectangle-Copy-63" fill="#0497F4" x="41.6326531" y="13.0049261" width="17.5637755" height="3.90147783"></rect>
                                <rect id="Rectangle-Copy-56" fill="#FFFFFF" x="104.732143" y="0" width="29.2729592" height="3.90147783"></rect>
                                <rect id="Rectangle-Copy-58" fill="#02BDF3" x="159.375" y="0" width="20.8163265" height="3.90147783"></rect>
                                <rect id="Rectangle-Copy-57" fill="#EF1C3B" x="138.558673" y="0" width="16.2627551" height="3.90147783"></rect>
                                <rect id="Rectangle-Copy-59" fill="#02BDF3" x="184.744898" y="0" width="16.2627551" height="3.90147783"></rect>
                                <rect id="Rectangle" fill="#02BDF3" x="39.6811224" y="0" width="59.1964286" height="3.90147783"></rect>
                            </g>
                            <path d="M135,8 C135,15.4835685 143.740201,30.3933948 148.510539,42.6523438 C150.801859,48.5406422 165.972716,70.1846347 169.253741,74 C179.365591,85.7586395 172.186035,61.1660156 169.253741,36.8535156 C166.321448,12.5410156 171,14.2021484 182,16.2421875 C193,18.2822266 195,26.0253906 194.027211,50 C193.054422,73.9746094 196.625332,82.4160156 201,75.7480469 C205.374668,69.0800781 222.069731,19.6582031 212.883442,10.6845703 C203.697153,1.7109375 176.570938,2.13476563 166.865089,2.13476562 C157.159241,2.13476562 135,-3.078125 135,8 Z" id="Path-21" fill="#000000" opacity="0.25"></path>
                        </g>
                        <g id="MAN" transform="translate(190.500000, 102.000000) scale(-1, 1) translate(-190.500000, -102.000000) translate(131.000000, 0.000000)">
                            <g id="Group-27">
                                <g id="Group-26" transform="translate(28.571429, 0.324490)">
                                    <path d="M16.8934014,182.030544 L16.3267347,183.84483 C16.3267347,183.84483 17.119932,184.978163 18.9342177,185.205374 C20.7485034,185.431905 24.8301361,184.978163 25.9634694,183.504694 C26.1906803,181.463878 25.9634694,179.19585 25.9634694,179.19585 L16.8934014,179.989728 L16.8934014,182.030544 Z" id="Fill-12" fill="#FFD2B8"></path>
                                    <path d="M44.8979592,174.43415 C44.8979592,174.43415 44.5578231,176.928707 42.2904762,178.969524 C43.877551,182.48381 47.2789116,182.370884 47.2789116,182.370884 L50.4537415,182.48381 L52.607483,181.123265 C52.607483,181.123265 52.2673469,179.53619 53.1748299,176.361361 C52.2673469,175.454558 44.8979592,174.43415 44.8979592,174.43415" id="Fill-14" fill="#FFD2B8"></path>
                                    <path d="M39.0022449,101.645034 C39.0022449,101.645034 4.98863946,108.221224 1.92741497,114.343673 C-1.13380952,120.466122 1.81380952,128.289252 4.1947619,138.039592 C6.57571429,147.789932 15.4192517,181.917143 15.4192517,181.917143 C15.4192517,181.917143 19.1607483,182.143673 21.7689116,182.257279 C24.3763946,182.370884 28.0042857,180.896735 28.0042857,180.896735 C28.0042857,180.896735 24.2627891,142.915102 22.4491837,135.88517 C20.634898,128.855918 23.242381,124.774286 32.6532653,123.300136 C42.0634694,121.826667 51.2471429,119.672245 51.2471429,119.672245 C51.2471429,119.672245 56.9158503,123.187211 59.4104082,125.568163 C61.904966,127.949116 60.6573469,130.102857 58.2763946,134.751837 C55.8954422,139.400136 43.3104082,175.228027 43.3104082,175.228027 C43.3104082,175.228027 46.0314966,176.701497 47.9593878,177.381769 C49.8865986,178.062041 54.7621088,178.515782 54.7621088,178.515782 C54.7621088,178.515782 76.0770748,144.615782 80.612449,135.204898 C85.1471429,125.794694 89.5689116,115.590612 79.1382993,103.799456 C65.9865986,103.005578 39.0022449,101.645034 39.0022449,101.645034" id="Fill-5" fill="#2499E1"></path>
                                    <path d="M37.8685034,61.7357823 C37.8685034,61.7357823 36.0542177,74.3208163 35.2610204,76.135102 C34.4671429,77.9487075 14.172585,99.4908844 14.172585,99.4908844 L20.0678231,102.098367 C20.0678231,102.098367 37.4147619,85.4317007 39.7957143,83.5044898 C42.1766667,81.5772789 43.4242857,76.2480272 44.4446939,71.3731973 C45.465102,66.4976871 48.4127211,59.694966 37.8685034,61.7357823" id="Fill-24" fill="#FFD2B8"></path>
                                    <path d="M58.7301361,35.5453061 L58.8437415,39.5133333 L55.442381,40.5337415 C55.442381,40.5337415 50.2267347,47.6765986 51.5872789,51.7582313 C52.9478231,55.8398639 55.6689116,58.6745578 60.6573469,57.9942857 C65.6464626,57.3140136 76.0770748,50.2847619 76.8709524,47.6765986 C77.6641497,45.0691156 74.1498639,41.327619 74.1498639,41.327619 L69.6144898,39.4004082 L69.7280952,29.5364626 L58.7301361,35.5453061 Z" id="Fill-20" fill="#FDB78E"></path>
                                    <path d="M58.2768707,53.0053741 C68.4809524,52.892449 71.8823129,44.2754422 74.1496599,41.3278231 C80.0455782,42.6883673 87.3013605,46.8829252 88.4353741,55.3863265 C89.5693878,63.8897279 89.5693878,65.2502721 89.5693878,65.2502721 C89.5693878,65.2502721 84.3537415,70.0121769 77.0972789,69.5591156 C77.0972789,73.1870068 77.2108844,86.3387075 77.5510204,93.1414286 C77.8911565,99.9441497 79.1380952,103.799252 79.1380952,103.799252 C79.1380952,103.799252 48.6394558,110.035306 36.5081633,101.984966 C42.9707483,95.0693197 45.2380952,92.3482313 45.6918367,86.9060544 C46.144898,81.4638776 45.6918367,73.3181977 43.537415,63.6631973 C39.4557823,64.3434694 37.8687075,61.7359864 37.8687075,61.7359864 C37.8687075,61.7359864 39.1156463,52.0985714 43.6510204,45.862517 C44.8306122,44.2407483 50.7938776,40.5339456 55.4421769,40.5339456 C55.4421769,40.5339456 48.0727891,53.1189796 58.2768707,53.0053741 Z" id="Fill-3" fill="#ED1A3A"></path>
                                    <path d="M88.3219728,66.2708844 C88.3219728,66.2708844 89.2287755,83.9579592 89.4559864,85.6586395 C89.682517,87.3593197 78.4580272,93.3681633 75.2831973,94.5021769 C72.1090476,95.6361905 50.5668707,104.252517 49.0927211,104.479728 C47.6192517,104.706259 42.29,102.891973 40.5893197,104.819864 C38.8886395,106.747075 37.075034,111.395374 36.5076871,107.881088 C35.9410204,104.366122 36.5076871,98.5838095 40.5893197,98.4702041 C44.6709524,98.3572789 46.8253741,101.418503 50.6804762,98.5838095 C54.534898,95.7491156 76.1906803,84.6382313 78.6845578,82.7110204 C81.1791156,80.7831293 78.9117687,76.1348299 78.9117687,76.1348299 L77.097483,69.5586395 L88.3219728,66.2708844 Z" id="Fill-22" fill="#FFD2B8"></path>
                                    <g id="Group-9" transform="translate(3.401361, 183.272109)">
                                        <mask id="mask-3" fill="white">
                                            <use xlink:href="#path-2"></use>
                                        </mask>
                                        <g id="Clip-8"></g>
                                        <path d="M12.9251701,0.572517007 C12.9251701,0.572517007 14.9659864,2.15959184 17.9136054,1.81945578 C19.7564626,1.60721088 21.5394558,0.129659864 22.562585,0.232380952 C23.1761905,0.294285714 23.0442177,1.08272109 23.8095238,2.61333333 C25.8503401,6.69496599 25.0564626,8.73578231 22.562585,9.41605442 C20.0680272,10.0963265 17.6870748,13.9514286 15.192517,16.332381 C12.6986395,18.7133333 5.32857143,18.9398639 2.26734694,17.3527891 C-0.793877551,15.765034 0.226530612,11.9106122 4.42176871,9.41605442 C8.6170068,6.9214966 12.3585034,2.61333333 12.9251701,0.572517007" id="Fill-7" fill="#000002" mask="url(#mask-3)"></path>
                                    </g>
                                    <path d="M42.2902721,178.96932 C42.2902721,178.96932 40.0229252,182.257075 39.4555782,183.504694 C38.8889116,184.751633 39.9093197,185.318299 40.4759864,186.906054 C41.0433333,188.493129 40.9297279,191.554354 40.9297279,193.141429 C40.9297279,194.729184 44.3310884,197.676803 47.732449,198.810816 C51.1338095,199.94415 57.2562585,201.304694 56.3494558,194.842109 C55.4419728,188.379524 53.2882313,187.699252 52.9480952,185.318299 C52.6079592,182.937347 52.6079592,181.123741 52.6079592,181.123741 C52.6079592,181.123741 50.4535374,181.804014 47.1657823,180.783605 C43.8773469,179.763197 42.2902721,178.96932 42.2902721,178.96932" id="Fill-10" fill="#000002"></path>
                                    <path d="M50,17.9878183 C50,17.9878183 50,32.3232573 56.3834354,36.1605794 C62.7660892,39.9985788 69.5403312,34.3550198 71.4943643,29.9528677 C72.0157004,18.6650724 74.0994813,13.5856662 66.8046848,11.6670051 C59.5098884,9.74766677 50.6510838,12.0056322 50,17.9878183" id="Fill-18" fill="#FFD2B8"></path>
                                    <path d="M51.9471545,0.639115008 C46.3956393,-2.28488073 40.8255882,5.45671633 42.2157839,11.0547269 C43.6059797,16.6535186 47.621792,17.3042502 50.7117338,16.3933822 C53.8007489,15.481733 61.3699016,13.0077029 62.4505471,15.8723282 C63.5321195,18.7369535 62.7600974,21.9913927 62.7600974,21.9913927 L65.3857138,21.0805247 C65.3857138,21.0805247 64.7675401,18.2158994 65.540489,16.6535186 C66.312511,15.0911378 69.5563012,16.7839774 69.8649247,20.0384167 C70.174475,23.2936372 70.7917219,24.334964 70.7917219,26.0278036 C70.7917219,27.7206433 70.6378736,30.0642145 70.6378736,30.0642145 C70.6378736,30.0642145 73.7268886,19.3876851 73.8816637,13.6592157 C74.0355121,7.92996519 73.8816637,4.67552591 69.7110764,4.41460831 C68.4747289,2.46163226 65.8491124,3.24282268 62.9139457,3.24282268 C59.9797058,3.24282268 54.4189226,1.94135944 51.9471545,0.639115008" id="Fill-16" fill="#000002"></path>
                                </g>
                                <polygon id="Fill-2" fill="#343434" points="33.3333333 102.897007 79.3653061 103.350748 79.4782313 104.484082 55.7823129 112.364354 32.4265306 107.318776"></polygon>
                                <polygon id="Fill-1" fill="#000000" points="12.5853061 111.513741 55.782585 112.364082 43.027483 77.8402721 0.000272108844 77.16"></polygon>
                            </g>
                        </g>
                        <g id="Fill-1-Copy-4" fill-rule="nonzero">
                            <use fill="black" fill-opacity="1" filter="url(#filter-5)" xlink:href="#path-4"></use>
                            <path stroke="#FFFFFF" stroke-width="4" d="M301,247.132681 C301,237.798134 308.798034,230 318.132681,230 C327.428834,230 335,237.75812 335,247.132681 C335,256.467419 327.467419,264 318.132681,264 C308.757929,264 301,256.428923 301,247.132681 Z M347.613933,208.091526 L338.880082,214.277972 L337.807889,213.741932 C333.863455,211.769925 330.735233,210.460433 327.743261,209.644178 L326.515087,209.309114 L326.298744,208.054573 L324.666464,198.589028 C324.50692,197.631256 323.740466,197 322.727147,197 L313.272507,197 C312.383925,197 311.839438,197.508241 311.657496,198.600279 L309.80566,209.3388 L308.541406,209.654948 C305.055295,210.526708 301.667402,211.989645 298.326698,213.993925 L297.230386,214.651665 L296.173163,213.932775 L287.947416,208.336849 C287.364374,207.899644 286.533057,207.941193 285.997316,208.476791 L279.150772,215.323682 C278.467207,216.007065 278.389577,216.821681 278.972206,217.549889 L279.042575,217.643315 L285.306382,226.486221 L284.708812,227.581713 C282.971646,230.766364 281.681008,234.10662 280.644238,237.908598 L280.296679,239.183147 L278.987983,239.363667 L269.588738,240.659393 C268.655833,240.814822 268,241.564403 268,242.272853 L268,252.05336 C268,252.942158 268.508157,253.486595 269.59985,253.668704 L280.338903,255.520169 L280.654988,256.784623 C281.483084,260.0973 282.815946,263.043723 284.993844,266.673168 L285.651727,267.769523 L279.284457,277.133437 L279.15096,277.266934 C278.756725,277.661168 278.825743,278.351636 279.476827,279.00272 L286.323147,285.84904 C286.995079,286.520972 287.913551,286.670089 288.695432,286.243278 L297.452399,279.675358 L298.581367,280.291188 C301.765825,282.02825 305.106259,283.318894 308.908598,284.355762 L310.18941,284.705029 L311.658344,295.721254 C311.82497,296.40194 312.628999,297 313.59872,297 L323.05336,297 C324.04531,297 324.864209,296.37375 324.992704,295.737027 L326.827541,284.727614 L328.020862,284.369643 C331.838705,283.224371 334.954663,281.963126 337.673248,280.331974 L338.792866,279.660203 L347.613815,285.908734 C348.55498,286.449721 349.455491,286.396268 350.00272,285.84904 L356.84904,279.00272 C357.532677,278.319082 357.610206,277.504696 357.027447,276.776324 L356.957044,276.68285 L350.660202,267.79275 L351.332022,266.673168 C353.01621,263.866487 354.295235,260.631203 355.355809,256.743308 L355.681083,255.550908 L366.867761,253.313413 L367.065813,253.313413 C367.478955,253.313413 368,252.672186 368,251.727493 L368,241.94664 C368,241.253864 367.353075,240.457722 366.736959,240.333498 L355.692958,238.492505 L355.355822,237.256739 C354.295201,233.369049 353.016165,230.133737 351.331974,227.326752 L350.660225,226.20717 L356.957068,217.317463 L357.027447,217.224022 C357.610218,216.495637 357.532663,215.680904 356.84904,214.99728 L350.00272,208.15096 C349.455474,207.603715 348.555017,207.550335 347.613933,208.091526 Z" stroke-linejoin="square" fill="url(#linearGradient-1)" fill-rule="evenodd"></path>
                        </g>
                    </g>
                </g>
            </g>
        </g>
    </g>
</svg>