<?xml version="1.0" encoding="UTF-8"?>
<svg width="136px" height="142px" viewBox="0 0 136 142" version="1.1" xmlns="http://www.w3.org/2000/svg" xmlns:xlink="http://www.w3.org/1999/xlink">
    <!-- Generator: Sketch 52.3 (67297) - http://www.bohemiancoding.com/sketch -->
    <title>outsource icon 2</title>
    <desc>Created with Sketch.</desc>
    <defs>
        <polygon id="path-1" points="0.505259471 0.471268836 2.37092169 0.471268836 2.37092169 1.89127049 0.505259471 1.89127049"></polygon>
        <linearGradient x1="1.20662332%" y1="2.14292466%" x2="90.267142%" y2="79.7543246%" id="linearGradient-3">
            <stop stop-color="#0497F4" offset="0%"></stop>
            <stop stop-color="#0BCBF9" offset="100%"></stop>
        </linearGradient>
    </defs>
    <g id="Design" stroke="none" stroke-width="1" fill="none" fill-rule="evenodd">
        <g id="Outsource-1440" transform="translate(-732.000000, -1196.000000)">
            <g id="outsource-icon-2" transform="translate(729.000000, 1193.000000)">
                <g id="dash-circle" transform="translate(9.000000, 13.000000)">
                    <path d="M102.008248,11.7223179 L101.092911,11.017511 C100.5877,10.6311895 99.869407,10.7300694 99.4879212,11.2348169 C99.1041442,11.7395644 99.2015204,12.4616177 99.7032946,12.8467894 L100.604884,13.5412484 C100.81453,13.7022157 101.060834,13.7815495 101.305993,13.7815495 C101.648529,13.7815495 101.986482,13.6274808 102.213311,13.3354402 C102.600525,12.8329922 102.508877,12.1109389 102.008248,11.7223179" id="Fill-1" fill="#EF1C3B"></path>
                    <path d="M107.641133,16.8098742 C107.377694,16.5465887 107.110935,16.2844141 106.843068,16.0233504 C106.405848,15.5956503 105.702975,15.6067593 105.27793,16.0466795 C104.850672,16.4865996 104.861741,17.1898052 105.300068,17.6175053 C105.5624,17.8730144 105.822519,18.1296345 106.082637,18.3873655 C106.29848,18.601771 106.579629,18.7095292 106.861885,18.7095292 C107.146355,18.7095292 107.431932,18.5995492 107.647775,18.3807 C108.078354,17.9452235 108.07614,17.2420179 107.641133,16.8098742" id="Fill-3" fill="#EF1C3B"></path>
                    <path d="M93.0627607,7.11940964 C93.3708309,6.51936151 93.1370385,5.78243886 92.5391632,5.472027 C92.1750803,5.28382453 91.8109973,5.09684415 91.4432614,4.91230797 C90.8441684,4.60678448 90.1099142,4.85120327 89.8079323,5.45369559 C89.5059505,6.05741 89.7470489,6.79188846 90.3485772,7.09496776 C90.7065718,7.27583767 91.0645664,7.45915176 91.4213433,7.64491004 C91.6003406,7.73656709 91.7915146,7.78056247 91.9790356,7.78056247 C92.4210493,7.78056247 92.8460157,7.53980996 93.0627607,7.11940964" id="Fill-5" fill="#EF1C3B"></path>
                    <path d="M96.2322068,9.00093252 C96.5684393,8.43252525 96.3836306,7.69898072 95.8172816,7.36032965 C95.4727029,7.15450639 95.1269319,6.94987977 94.7799686,6.7464498 C94.2124273,6.41617526 93.4815389,6.60763876 93.1500757,7.18083262 C92.8186125,7.75163318 93.0117673,8.48398107 93.580501,8.8166489 C93.9215027,9.01409563 94.2601198,9.21513231 94.5975446,9.41736563 C94.7883148,9.53104709 94.9993543,9.5848962 95.2068169,9.5848962 C95.6122036,9.5848962 96.0092441,9.37667964 96.2322068,9.00093252" id="Fill-7" fill="#EF1C3B"></path>
                    <path d="M104.900222,14.1793262 L104.042411,13.4325104 C103.572979,13.0257726 102.860388,13.0777446 102.455123,13.5522721 C102.049858,14.0256697 102.102768,14.7385906 102.574451,15.1453284 L103.416502,15.8797161 C103.630392,16.0672675 103.893814,16.1587835 104.158362,16.1587835 C104.471317,16.1587835 104.783146,16.0288533 105.004916,15.7735124 C105.414684,15.3046341 105.367403,14.5905833 104.900222,14.1793262" id="Fill-9" fill="#EF1C3B"></path>
                    <path d="M99.2847383,11.0762783 C99.6491112,10.5406258 99.5101356,9.81157592 98.9775907,9.44705097 L98.0024262,8.78481111 C97.4663777,8.42614668 96.7423034,8.56914361 96.382602,9.10714025 C96.0229006,9.64513688 96.1665476,10.3730147 96.7025961,10.7340233 L97.6614106,11.38337 C97.8622828,11.5216785 98.0923515,11.5873164 98.3189167,11.5873164 C98.6914646,11.5873164 99.0581732,11.4091563 99.2847383,11.0762783" id="Fill-11" fill="#EF1C3B"></path>
                    <path d="M89.7906272,5.43696111 C90.0684642,4.80549204 89.7819058,4.06648566 89.1527234,3.78888935 L88.005244,3.28621496 C87.369832,3.01236996 86.6397311,3.30497147 86.3668777,3.93769098 C86.0940243,4.57166092 86.3843204,5.306916 87.0147488,5.58201143 L88.1485232,6.07718322 C88.3117369,6.14845795 88.482426,6.18347009 88.6493774,6.18347009 C89.1290511,6.18347009 89.5850527,5.90462336 89.7906272,5.43696111" id="Fill-13" fill="#EF1C3B"></path>
                    <path d="M86.1147156,3.9625243 C86.3760317,3.29910694 86.0167221,2.56268806 85.3117132,2.31678819 L84.0228261,1.87493686 C83.3110121,1.63544063 82.53523,1.97995659 82.2807191,2.64593541 C82.0262081,3.31191422 82.3936838,4.04449092 83.1000538,4.28398715 L84.3658035,4.71943483 C84.5223209,4.77322543 84.6815604,4.79884 84.8394388,4.79884 C85.3920134,4.79884 85.9119235,4.47865788 86.1147156,3.9625243" id="Fill-15" fill="#EF1C3B"></path>
                    <path d="M81.9908263,2.69907191 C82.200229,2.00553171 81.8089077,1.27258582 81.1165701,1.06242212 C80.6964559,0.93369686 80.2737243,0.808912165 79.8509926,0.685440993 C79.1455673,0.483158436 78.4309807,0.883782982 78.2294306,1.57995023 C78.0278805,2.27743099 78.4257456,3.00512279 79.1207007,3.20871887 C79.534271,3.32824947 79.9465326,3.45172064 80.3601029,3.57650534 C80.4870533,3.61459751 80.6126949,3.63298683 80.7383365,3.63298683 C81.3011062,3.63298683 81.8193778,3.26782741 81.9908263,2.69907191" id="Fill-17" fill="#EF1C3B"></path>
                    <path d="M123.523425,56.0272709 C123.562396,56.3553016 123.601367,56.6843324 123.636007,57.0133633 C123.690854,57.5394126 124.324486,57.9404501 125.073586,57.9404501 C125.10967,57.9404501 125.144311,57.93945 125.180394,57.9374498 C125.975682,57.8974461 126.57323,57.4174011 126.514052,56.8663495 C126.479412,56.5293179 126.440441,56.1932864 126.398584,55.857255 C126.33219,55.3072034 125.63505,54.8911644 124.83832,54.9451695 C124.043032,54.993174 123.455588,55.4772194 123.523425,56.0272709" id="Fill-19" fill="#EF1C3B"></path>
                    <path d="M123.100522,52.3317237 L123.293997,53.3169369 C123.389333,53.8195762 123.990789,54.1847672 124.681973,54.1847672 C124.745063,54.1847672 124.808152,54.1817574 124.872644,54.1757378 C125.639536,54.1014957 126.1765,53.5958465 126.072752,53.0460534 L125.875071,52.0437846 C125.761509,51.4949947 125.046492,51.1167611 124.28661,51.1950164 C123.519719,51.2742748 122.988362,51.7829338 123.100522,52.3317237" id="Fill-21" fill="#EF1C3B"></path>
                    <path d="M125.174188,58.7196046 C124.354527,58.7325927 123.705629,59.1901729 123.723448,59.7416671 L123.753146,60.7327579 C123.765025,61.2802557 124.427287,61.7168553 125.238038,61.7168553 L125.260312,61.7168553 C126.078488,61.7088626 126.73481,61.2552787 126.722931,60.7037845 L126.693233,59.6947101 C126.673929,59.143216 126.010182,58.676644 125.174188,58.7196046" id="Fill-23" fill="#EF1C3B"></path>
                    <g id="Group-25" transform="translate(123.115578, 58.677928)"></g>
                    <path d="M124.499803,45.5217322 L124.162728,44.5584575 C123.96821,44.0123974 123.228775,43.6943736 122.526645,43.8406032 C121.816521,43.9899005 121.398174,44.552322 121.59136,45.0973596 L121.923106,46.0432503 C122.081652,46.5013682 122.619907,46.8050758 123.210123,46.8050758 C123.323369,46.8050758 123.436616,46.7948499 123.551195,46.7713305 C124.262651,46.6271461 124.68766,46.0677923 124.499803,45.5217322" id="Fill-26" fill="#EF1C3B"></path>
                    <path d="M124.708916,70.0390251 C123.945812,69.9536579 123.242369,70.327265 123.12166,70.8756238 C123.052287,71.2020278 122.978751,71.5284319 122.901053,71.8548359 C122.773407,72.4011861 123.282605,72.9194153 124.038772,73.0118128 C124.11647,73.021856 124.194168,73.0268776 124.271865,73.0268776 C124.93646,73.0268776 125.523356,72.6793828 125.638515,72.1902789 C125.716213,71.8558403 125.791136,71.5214016 125.864671,71.186963 C125.982606,70.6396085 125.46647,70.1253966 124.708916,70.0390251" id="Fill-28" fill="#EF1C3B"></path>
                    <path d="M124.329567,50.4403498 C125.067216,50.331662 125.547165,49.801306 125.398544,49.2558543 L125.123119,48.2605561 C124.969044,47.7161108 124.247757,47.366901 123.508745,47.4826334 C122.771096,47.596353 122.300691,48.1297282 122.454766,48.6741735 L122.724737,49.6513571 C122.854269,50.129382 123.424208,50.4604772 124.060959,50.4604772 C124.148222,50.4604772 124.239576,50.4534326 124.329567,50.4403498" id="Fill-30" fill="#EF1C3B"></path>
                    <path d="M125.104336,66.2799852 C124.30564,66.2248936 123.619819,66.6295663 123.544093,67.1794806 L123.402642,68.1681242 C123.318343,68.7180384 123.885574,69.2108577 124.671411,69.269956 C124.722848,69.272961 124.774285,69.2749643 124.824292,69.2749643 C125.545834,69.2749643 126.164502,68.8933298 126.243085,68.3794756 L126.387394,67.3738036 C126.464548,66.8228877 125.890173,66.3330734 125.104336,66.2799852" id="Fill-32" fill="#EF1C3B"></path>
                    <path d="M125.259395,62.5014804 C124.50044,62.47748 123.765018,62.913488 123.738543,63.465498 L123.67971,64.4565161 C123.642938,65.0085261 124.272459,65.4755346 125.084365,65.4995351 C125.106427,65.5005351 125.12849,65.5005351 125.150553,65.5005351 C125.933041,65.5005351 126.583154,65.0815275 126.618454,64.5445177 L126.677288,63.5364993 C126.705234,62.9834892 126.0713,62.5214808 125.259395,62.5014804" id="Fill-34" fill="#EF1C3B"></path>
                    <g id="Group-38" transform="translate(76.633166, 119.829007)">
                        <mask id="mask-2" fill="white">
                            <use xlink:href="#path-1"></use>
                        </mask>
                        <g id="Clip-37"></g>
                        <path d="M1.65822211,0.502038495 C1.44409038,0.576617101 1.22928527,0.650307867 1.0138068,0.722222951 C0.653553725,0.842969266 0.435381769,1.32595453 0.525613381,1.80094922 C0.603724328,2.20314099 0.877786013,2.47126884 1.17810914,2.47126884 C1.23265213,2.47126884 1.28854185,2.46239043 1.34375821,2.44463362 C1.56462365,2.37005501 1.78548909,2.29547641 2.00568115,2.21734644 C2.36458749,2.09127308 2.57804585,1.60473646 2.48242728,1.1306296 C2.38680871,0.65652275 2.01780182,0.374189455 1.65822211,0.502038495" id="Fill-36" fill="#EF1C3B" mask="url(#mask-2)"></path>
                    </g>
                    <path d="M104.592721,106.139832 C104.329613,106.389881 104.064313,106.638808 103.795725,106.887736 C103.347346,107.303736 103.314457,108.012394 103.721177,108.471003 C103.937145,108.715445 104.234237,108.838787 104.532425,108.838787 C104.796629,108.838787 105.059736,108.743477 105.269126,108.548372 C105.543196,108.293838 105.817266,108.038183 106.086952,107.780286 C106.530945,107.357558 106.555064,106.6489 106.141766,106.195897 C105.728468,105.741773 105.034522,105.718226 104.592721,106.139832" id="Fill-39" fill="#EF1C3B"></path>
                    <path d="M98.8696032,110.852578 C98.5859924,111.076865 98.3002493,111.298829 98.0123737,111.51963 C97.5315149,111.890343 97.4174309,112.615501 97.7575505,113.139613 C97.9643944,113.460355 98.293852,113.631186 98.6286406,113.631186 C98.8418818,113.631186 99.0561892,113.562621 99.2438414,113.418519 C99.537048,113.191908 99.8291884,112.964134 100.121329,112.734036 C100.597923,112.357512 100.704543,111.631192 100.358026,111.111729 C100.013642,110.591103 99.3483296,110.476054 98.8696032,110.852578" id="Fill-41" fill="#EF1C3B"></path>
                    <path d="M82.4249612,119.288191 C82.1079422,119.423188 81.7899072,119.555589 81.470856,119.685394 C80.9353785,119.903466 80.6407135,120.63297 80.8103999,121.315744 C80.9485876,121.868712 81.3479096,122.220484 81.7787302,122.220484 C81.8813549,122.220484 81.9849958,122.201013 82.0876205,122.159475 C82.4148003,122.024478 82.7419801,121.889481 83.0681438,121.749292 C83.599557,121.524729 83.8871095,120.788736 83.7103104,120.108558 C83.5335114,119.428381 82.9604387,119.059735 82.4249612,119.288191" id="Fill-43" fill="#EF1C3B"></path>
                    <path d="M101.806821,108.580983 L100.974199,109.293926 C100.509832,109.68747 100.434237,110.406115 100.807891,110.89662 C101.021716,111.177234 101.334894,111.323244 101.651312,111.323244 C101.888895,111.323244 102.127559,111.242254 102.326265,111.072289 L103.174005,110.347939 C103.635133,109.948692 103.704248,109.230046 103.326275,108.742964 C102.950461,108.255882 102.267949,108.180595 101.806821,108.580983" id="Fill-45" fill="#EF1C3B"></path>
                    <path d="M95.8023582,112.935875 L94.9175913,113.56045 C94.4225432,113.90533 94.2719222,114.636569 94.5784307,115.192405 C94.7775032,115.553876 95.1219303,115.751797 95.4737305,115.751797 C95.6633234,115.751797 95.8560761,115.694909 96.0288163,115.574024 L96.9293826,114.937597 C97.4212708,114.587977 97.5676787,113.855553 97.2559037,113.303272 C96.945182,112.750992 96.296353,112.58507 95.8023582,112.935875" id="Fill-47" fill="#EF1C3B"></path>
                    <path d="M111.967513,97.8883643 C111.752348,98.1580552 111.534844,98.4266542 111.315002,98.6941614 C110.923261,99.1734905 111.021488,99.8591823 111.534844,100.224957 C111.74767,100.375635 111.995578,100.44879 112.243486,100.44879 C112.595468,100.44879 112.943942,100.301388 113.174308,100.019687 C113.398829,99.7456282 113.62101,99.470478 113.843191,99.1942359 C114.229085,98.7105393 114.122672,98.0270313 113.603469,97.6667155 C113.088944,97.3042161 112.354576,97.4046677 111.967513,97.8883643" id="Fill-49" fill="#EF1C3B"></path>
                    <path d="M89.3123139,116.523079 L88.384357,117.043895 C87.8672198,117.330901 87.6411658,118.066972 87.8806385,118.686755 C88.055082,119.138294 88.4287421,119.404269 88.8178853,119.404269 C88.9634269,119.404269 89.111033,119.367157 89.2503813,119.28922 L90.1938214,118.759744 C90.7099264,118.469027 90.928755,117.731719 90.6861856,117.113173 C90.442584,116.495863 89.8273868,116.231125 89.3123139,116.523079" id="Fill-51" fill="#EF1C3B"></path>
                    <path d="M107.23098,103.527384 L106.465966,104.313078 C106.036133,104.748961 106.045042,105.447478 106.484897,105.873429 C106.700927,106.083095 106.981543,106.186824 107.26216,106.186824 C107.551685,106.186824 107.84121,106.07537 108.059467,105.853566 L108.840071,105.053528 C109.26545,104.61323 109.24986,103.914714 108.805551,103.493176 C108.363468,103.071638 107.656359,103.087087 107.23098,103.527384" id="Fill-53" fill="#EF1C3B"></path>
                    <path d="M109.701392,100.761401 C109.460223,101.034205 109.217922,101.30701 108.973356,101.57764 C108.564614,102.030865 108.61783,102.717767 109.089978,103.110127 C109.303973,103.288374 109.567787,103.375323 109.830468,103.375323 C110.14863,103.375323 110.463395,103.248159 110.687581,102.999266 C110.936675,102.722114 111.18577,102.442789 111.430336,102.163463 C111.834549,101.704804 111.77454,101.018989 111.296731,100.632063 C110.815525,100.244051 110.102208,100.302742 109.701392,100.761401" id="Fill-55" fill="#EF1C3B"></path>
                    <path d="M92.6111391,114.830469 C92.3100239,115.022876 92.0089087,115.214074 91.7057096,115.404061 C91.1993359,115.721111 91.0086643,116.454438 91.2816477,117.043762 C91.4691935,117.449149 91.8286563,117.67907 92.1995803,117.67907 C92.3673296,117.67907 92.5361208,117.633086 92.692409,117.535067 C93.0018596,117.341449 93.3113102,117.146621 93.618677,116.949373 C94.1219249,116.626274 94.305303,115.890526 94.0271101,115.306042 C93.749959,114.720349 93.1164709,114.506159 92.6111391,114.830469" id="Fill-57" fill="#EF1C3B"></path>
                    <path d="M85.9118131,118.010822 C85.5977021,118.166625 85.2846143,118.321162 84.9684569,118.473165 C84.441528,118.725238 84.1816447,119.461187 84.3862772,120.112268 C84.5428212,120.61388 84.9295767,120.92042 85.3388419,120.92042 C85.4636678,120.92042 85.5884937,120.892552 85.71025,120.834284 C86.0315232,120.678481 86.3538195,120.521411 86.6730463,120.363074 C87.1979289,120.102135 87.4526965,119.364918 87.2429481,118.716371 C87.0321765,118.066556 86.4366957,117.752416 85.9118131,118.010822" id="Fill-59" fill="#EF1C3B"></path>
                    <path d="M22.0230167,106.455226 C21.5799788,106.038336 20.8864331,106.069799 20.4784007,106.527142 C20.0703683,106.986733 20.102092,107.696906 20.5484116,108.116044 C20.8207979,108.371122 21.0931841,108.623953 21.3688521,108.876783 C21.5788849,109.067811 21.8381441,109.162201 22.0974033,109.162201 C22.3982315,109.162201 22.6979657,109.035224 22.9134681,108.785764 C23.3171248,108.322803 23.2766498,107.612629 22.8259545,107.200234 C22.55685,106.953022 22.2888394,106.704686 22.0230167,106.455226" id="Fill-61" fill="#EF1C3B"></path>
                    <path d="M24.8066021,108.876829 C24.3427984,108.481176 23.6621935,108.560078 23.2900719,109.050642 C22.9168717,109.543492 22.9891388,110.262757 23.4540211,110.659553 L24.3028898,111.377674 C24.5013546,111.543482 24.7386495,111.624671 24.97163,111.624671 C25.2898209,111.624671 25.6058546,111.476015 25.8183414,111.191282 C26.1883057,110.696145 26.109567,109.97688 25.6425274,109.584658 L24.8066021,108.876829 Z" id="Fill-63" fill="#EF1C3B"></path>
                    <path d="M27.7355831,111.123407 C27.2554097,110.750718 26.5921103,110.874171 26.2503461,111.398264 C25.9107113,111.923521 26.023568,112.650263 26.5026767,113.022951 L27.3810426,113.698448 C27.566298,113.840536 27.7781705,113.908085 27.9879137,113.908085 C28.3254191,113.908085 28.6554718,113.733388 28.8630856,113.40845 C29.1995264,112.880864 29.0802815,112.155287 28.5979788,111.787257 L27.7355831,111.123407 Z" id="Fill-65" fill="#EF1C3B"></path>
                    <path d="M19.3935004,103.865266 C18.9668915,103.427615 18.2614314,103.416563 17.822602,103.842057 C17.3826615,104.267552 17.3726629,104.968236 17.8003827,105.405887 L18.584721,106.201616 C18.8024693,106.420442 19.0890972,106.529855 19.3746141,106.529855 C19.6567981,106.529855 19.9400931,106.422652 20.1567304,106.210458 C20.5922271,105.780543 20.5966709,105.080964 20.1645072,104.646628 L19.3935004,103.865266 Z" id="Fill-67" fill="#EF1C3B"></path>
                    <path d="M14.6387648,98.221767 C14.2524408,97.7492801 13.5326824,97.6580042 13.0279317,98.0177385 C12.5220312,98.376399 12.4243004,99.0496928 12.8083249,99.5221797 L13.514286,100.382321 C13.7419412,100.655074 14.0822742,100.797894 14.4249068,100.797894 C14.6709584,100.797894 14.9181598,100.724874 15.1285684,100.573463 C15.6298698,100.210507 15.7218517,99.5361396 15.3332281,99.0668742 L14.6387648,98.221767 Z" id="Fill-69" fill="#EF1C3B"></path>
                    <path d="M16.9286226,101.11818 C16.5198284,100.659814 15.8072618,100.610821 15.336358,101.003861 C14.8631956,101.395812 14.8101201,102.082816 15.2166558,102.539003 L15.9642297,103.368634 C16.1889536,103.613603 16.5006309,103.73881 16.8134375,103.73881 C17.0788149,103.73881 17.3441924,103.650621 17.5587529,103.468799 C18.0273981,103.072493 18.0748273,102.3844 17.6626453,101.932568 L16.9286226,101.11818 Z" id="Fill-71" fill="#EF1C3B"></path>
                    <path d="M38.201693,117.230712 C37.8923158,117.063152 37.5839699,116.893109 37.2776865,116.720584 C36.7630891,116.430147 36.1494911,116.700725 35.9071456,117.321318 C35.6668627,117.943152 35.8906455,118.680417 36.4062741,118.970854 C36.7218388,119.147103 37.0384348,119.32211 37.356062,119.494635 C37.4932192,119.567865 37.636564,119.603859 37.7778462,119.603859 C38.1717865,119.603859 38.5471641,119.332039 38.7193841,118.871559 C38.9534795,118.247243 38.7214466,117.512461 38.201693,117.230712" id="Fill-73" fill="#EF1C3B"></path>
                    <path d="M34.890635,115.618558 C34.5876539,115.431587 34.285714,115.2434 33.9837741,115.052786 C33.4788056,114.733477 32.8457729,114.952016 32.5719447,115.54207 C32.2981164,116.13091 32.4855274,116.867871 32.991537,117.18718 C33.299724,117.382651 33.6099933,117.575694 33.9181802,117.766308 C34.0733149,117.861008 34.2399024,117.90593 34.4033664,117.90593 C34.7781884,117.90593 35.138434,117.671608 35.3248038,117.260027 C35.5944673,116.66633 35.398727,115.931797 34.890635,115.618558" id="Fill-75" fill="#EF1C3B"></path>
                    <path d="M41.6134315,118.632494 L40.6698625,118.180003 C40.1417914,117.923253 39.5492465,118.247368 39.3435444,118.900683 C39.1378423,119.555268 39.3977843,120.292471 39.924832,120.54795 L40.8857986,121.008067 C41.0055356,121.065264 41.1283429,121.091955 41.2501267,121.091955 C41.6625544,121.091955 42.0514439,120.77928 42.2059764,120.272135 C42.4065615,119.616278 42.142526,118.881617 41.6134315,118.632494" id="Fill-77" fill="#EF1C3B"></path>
                    <path d="M45.1048128,119.817525 C44.7866455,119.689823 44.4674618,119.56212 44.150311,119.429205 C43.6125778,119.206376 43.0412999,119.582969 42.8695099,120.267091 C42.6967034,120.951213 42.9884414,121.687458 43.5221085,121.90768 C43.8484079,122.043202 44.1747072,122.17742 44.5010066,122.306426 C44.6016409,122.345518 44.7032918,122.365065 44.8029097,122.365065 C45.236959,122.365065 45.6374634,122.008018 45.7736756,121.448993 C45.9403831,120.762265 45.640513,120.031232 45.1048128,119.817525" id="Fill-79" fill="#EF1C3B"></path>
                    <path d="M31.6824894,113.800009 C31.3868191,113.596775 31.0922011,113.392353 30.7986353,113.185553 C30.3083068,112.837322 29.6580427,113.007278 29.3486938,113.563497 C29.0414493,114.120905 29.1919149,114.854212 29.6854001,115.201255 C29.9852791,115.413997 30.2872626,115.624362 30.5913505,115.83235 C30.7618081,115.950012 30.9501531,116.004683 31.1353416,116.004683 C31.4909877,116.004683 31.838216,115.801449 32.0370832,115.433013 C32.3380144,114.870851 32.1791312,114.139921 31.6824894,113.800009" id="Fill-81" fill="#EF1C3B"></path>
                    <path d="M1.48995507,58.4920891 C1.52182384,58.4930899 1.55369261,58.4940907 1.5841128,58.4940907 C2.34172037,58.4940907 2.97909576,58.0877677 3.0283475,57.5573459 C3.06021627,57.2280841 3.09208504,56.8998231 3.12974813,56.5725629 C3.19058851,56.0211244 2.59377336,55.5397417 1.79560554,55.4977083 C1.01626926,55.4506709 0.302119104,55.8680027 0.241278725,56.4194412 C0.203615634,56.7557085 0.168849703,57.0919759 0.136980934,57.4292441 C0.0862806181,57.9806825 0.691787243,58.4560605 1.48995507,58.4920891" id="Fill-83" fill="#EF1C3B"></path>
                    <path d="M1.48291115,62.2710932 L1.49186149,62.2710932 C2.31230904,62.2710932 2.97910913,61.8269452 2.9835843,61.2767618 L2.99999325,60.2864317 C3.01043531,59.7332473 2.35407728,59.2790959 1.52915456,59.2710932 L1.50827044,59.2710932 C0.693789787,59.2710932 0.0269896905,59.7092393 0.0165476308,60.2564217 L0.000138679861,61.2647578 C-0.00433648857,61.8169418 0.65798844,62.2680922 1.48291115,62.2710932" id="Fill-85" fill="#EF1C3B"></path>
                    <path d="M5.04794614,40.7519697 C4.35967868,40.5740919 3.63115406,40.8647951 3.40649317,41.397412 L3.0013244,42.3731988 C2.78185798,42.9078487 3.15845716,43.480107 3.84153015,43.6508697 C3.97398917,43.6833959 4.1064482,43.699659 4.2376086,43.699659 C4.78822257,43.699659 5.29728077,43.4242025 5.4738928,42.9922136 L5.87256848,42.0357392 C6.09852799,41.5031223 5.72712328,40.9278147 5.04794614,40.7519697" id="Fill-87" fill="#EF1C3B"></path>
                    <path d="M3.90636106,44.3572149 C3.2069749,44.2166569 2.46629165,44.5361988 2.27845651,45.0761841 L1.94008683,46.0641348 C1.76024467,46.6061426 2.19186584,47.15624 2.90457364,47.2927531 C3.01514327,47.3139885 3.12438072,47.3241006 3.23361818,47.3241006 C3.82776338,47.3241006 4.37128634,47.0197268 4.52448521,46.5616494 L4.85486191,45.5929117 C5.04269705,45.0529263 4.6177367,44.4997953 3.90636106,44.3572149" id="Fill-89" fill="#EF1C3B"></path>
                    <path d="M1.61160588,66.8285184 C0.830757514,66.8866509 0.264678006,67.3807773 0.347172005,67.9310317 L0.50504845,68.9363233 C0.587542449,69.4474885 1.20340282,69.8243476 1.91598029,69.8243476 C1.97002808,69.8243476 2.02407587,69.8223431 2.07954597,69.8173316 C2.86039434,69.7541877 3.4193623,69.2570544 3.32975675,68.7078024 L3.17614723,67.7195496 C3.09365323,67.1692953 2.41236659,66.7794065 1.61160588,66.8285184" id="Fill-91" fill="#EF1C3B"></path>
                    <path d="M1.67238192,66.0515959 C2.48043579,66.0225741 3.09965099,65.5512199 3.05719888,64.9998056 L2.98546946,64.0090611 C2.95033668,63.4576468 2.26524753,63.0323272 1.45865753,63.053343 C0.652067522,63.0773611 0.0255329991,63.5447122 0.0606657761,64.0971273 L0.132395196,65.1048845 C0.174847301,65.6392861 0.820412079,66.0525966 1.59333317,66.0525966 C1.61968276,66.0525966 1.64603234,66.0525966 1.67238192,66.0515959" id="Fill-93" fill="#EF1C3B"></path>
                    <path d="M2.27799088,51.7442222 C1.50382472,51.6699784 0.797222146,52.0542401 0.693061608,52.6020389 L0.507261729,53.6053332 C0.410139065,54.1551385 0.956278103,54.6567857 1.72622154,54.7270163 C1.78674726,54.7330361 1.8458654,54.7350427 1.90498354,54.7350427 C2.60314067,54.7350427 3.20980542,54.3648271 3.30129779,53.8581634 L3.48287494,52.8739316 C3.58844305,52.3251296 3.04934189,51.8194692 2.27799088,51.7442222" id="Fill-95" fill="#EF1C3B"></path>
                    <path d="M2.98412812,48.0261689 C2.24366036,47.9184608 1.52372312,48.2697703 1.37316591,48.8153569 L1.10900643,49.811908 C0.966661424,50.3574946 1.45528803,50.8849621 2.19712449,50.9896503 C2.28335272,51.0017297 2.36958094,51.0067628 2.45444046,51.0067628 C3.09909909,51.0067628 3.67258521,50.6715592 3.79850579,50.1893895 L4.05719046,49.2109575 C4.20637898,48.6663775 3.72596459,48.1348835 2.98412812,48.0261689" id="Fill-97" fill="#EF1C3B"></path>
                    <path d="M44.0026974,3.96122706 L44.9609451,3.56710062 C45.4969141,3.35117656 45.7933212,2.6214573 45.6258309,1.93596346 C45.4573255,1.25177036 44.8878584,0.869350639 44.3529044,1.0852747 L43.3743549,1.48720562 C42.8414311,1.70963342 42.5490844,2.44325492 42.7226653,3.12614727 C42.8627481,3.67636339 43.2606645,4.02496368 43.6880186,4.02496368 C43.7925732,4.02496368 43.8971277,4.00415172 44.0026974,3.96122706" id="Fill-99" fill="#EF1C3B"></path>
                    <path d="M36.6991963,6.73403934 C36.8456575,6.73403934 36.9941814,6.69684979 37.1354855,6.6175121 C37.4438791,6.44396089 37.7522726,6.27164933 38.0616976,6.10305673 C38.5805001,5.81917654 38.8094746,5.08406321 38.5732802,4.46175816 C38.3381172,3.83821347 37.7264872,3.56177118 37.2076847,3.84565138 C36.8920712,4.01920258 36.5754263,4.19523309 36.2608443,4.37126361 C35.745136,4.66134205 35.52235,5.39893469 35.7637015,6.02000008 C35.9390423,6.46999357 36.3103523,6.73403934 36.6991963,6.73403934" id="Fill-101" fill="#EF1C3B"></path>
                    <path d="M33.3461518,8.40740164 C33.5148222,8.40740164 33.6855751,8.35892049 33.8448749,8.2583221 C34.1457747,8.06803357 34.4477157,7.87774505 34.751739,7.68988058 C35.2587916,7.37596512 35.4514091,6.64268768 35.1817446,6.05121761 C34.9110389,5.45974755 34.2821688,5.23431019 33.7730338,5.55064971 C33.4627634,5.74215027 33.1524931,5.93607488 32.8463874,6.13242355 C32.3414172,6.45361118 32.1550467,7.18931268 32.4319994,7.77714666 C32.6214934,8.17954022 32.9775755,8.40740164 33.3461518,8.40740164" id="Fill-103" fill="#EF1C3B"></path>
                    <path d="M40.5239099,5.18213638 L41.4706677,4.72549084 C41.9972122,4.47306734 42.2609957,3.73989757 42.0585572,3.08664077 C41.8571411,2.43211551 41.2661844,2.10358442 40.737595,2.35600792 L39.775501,2.82153267 C39.2499789,3.07776155 38.9913075,3.81346824 39.1978356,4.46672504 C39.3563102,4.96522975 39.7417613,5.27092856 40.1497055,5.27092856 C40.2744403,5.27092856 40.4012199,5.24175399 40.5239099,5.18213638" id="Fill-105" fill="#EF1C3B"></path>
                    <path d="M21.163098,17.0625415 C21.4268816,17.0625415 21.6917597,16.9648911 21.9030054,16.7673455 C22.1689781,16.5170462 22.4371398,16.2678693 22.7053015,16.0209373 C23.1551564,15.606765 23.1923707,14.8973966 22.7884863,14.4360827 C22.384602,13.972524 21.6917597,13.9366066 21.2429993,14.3496565 C20.9682704,14.603323 20.6957305,14.8569896 20.4231906,15.1129009 C19.9777138,15.5315629 19.9481613,16.2420537 20.3564238,16.698878 C20.5720478,16.9401979 20.8664784,17.0625415 21.163098,17.0625415" id="Fill-107" fill="#EF1C3B"></path>
                    <path d="M48.0385401,0.0399167423 C47.7083681,0.149410212 47.3781962,0.260238969 47.0480242,0.373738297 C46.5078346,0.558007796 46.1847305,1.28707407 46.3250788,2.0014522 C46.4432137,2.602331 46.8521423,3.00024629 47.3014589,3.00024629 C47.3862738,3.00024629 47.4710886,2.98689343 47.5559034,2.95751713 C47.8790075,2.84668838 48.2011019,2.73853019 48.5252156,2.63170729 C49.0674247,2.45411423 49.3965869,1.7303891 49.2622968,1.0133404 C49.126997,0.297626983 48.5757006,-0.137676325 48.0385401,0.0399167423" id="Fill-109" fill="#EF1C3B"></path>
                    <path d="M30.1031136,10.2850529 C30.2946133,10.2850529 30.4861129,10.226904 30.6597253,10.1046726 L31.5467264,9.48402189 C32.0423106,9.14106194 32.1980356,8.41004694 31.893951,7.85229199 C31.5898664,7.29216361 30.9406616,7.11771685 30.4471817,7.46067681 L29.5443976,8.09200795 C29.0509178,8.43971475 28.901506,9.17310318 29.2097994,9.7284847 C29.4097166,10.0880586 29.7527324,10.2850529 30.1031136,10.2850529" id="Fill-111" fill="#EF1C3B"></path>
                    <path d="M24.0024451,14.6210305 C24.2409077,14.6210305 24.4793703,14.5376563 24.6800673,14.3674815 L25.5152258,13.6570875 C25.9813608,13.2653429 26.0579709,12.546954 25.6878684,12.0524193 C25.3166868,11.5590266 24.6390647,11.4756524 24.1707717,11.8708234 L23.3226649,12.5903543 C22.858688,12.9866674 22.7874729,13.7061983 23.1629706,14.1961646 C23.3755367,14.4759822 23.6873724,14.6210305 24.0024451,14.6210305" id="Fill-113" fill="#EF1C3B"></path>
                    <path d="M27.6050108,12.1413617 C27.8904425,11.9178994 28.1769393,11.6967649 28.4655662,11.4767943 C28.948031,11.1078488 29.0641208,10.3815965 28.727567,9.8555291 C28.3899481,9.32829786 27.7242957,9.20143648 27.2439609,9.56921809 C26.9500089,9.79500807 26.6560568,10.0207981 26.3652998,10.2489158 C25.8870951,10.6236806 25.7763306,11.3510967 26.1192747,11.8736725 C26.3280233,12.190244 26.6539267,12.3590046 26.9862203,12.3590046 C27.2002942,12.3590046 27.4175631,12.2880088 27.6050108,12.1413617" id="Fill-115" fill="#EF1C3B"></path>
                </g>
                <g id="Group-71">
                    <path d="M126.138983,97.2004837 C126.138983,98.3028594 127.072159,99.2135594 128.200484,99.2135594 C129.315774,99.2135594 130.213559,98.3157738 130.213559,97.2004837 C130.213559,96.0721906 129.30284,95.1389831 128.200484,95.1389831 C127.085213,95.1389831 126.138983,96.0852253 126.138983,97.2004837 Z M124.738983,97.2004837 C124.738983,95.3120307 126.312011,93.7389831 128.200484,93.7389831 C130.083785,93.7389831 131.613559,95.306532 131.613559,97.2004837 C131.613559,99.0889725 130.088972,100.613559 128.200484,100.613559 C126.306496,100.613559 124.738983,99.0838002 124.738983,97.2004837 Z M137.277443,94.9115236 C137.901505,95.0362828 138.376271,95.620557 138.376271,96.2530613 L138.376271,98.0399479 C138.376271,98.7295624 137.898522,99.3446965 137.224223,99.3921304 L135.906134,99.6557669 C135.763235,100.111241 135.598999,100.526645 135.403677,100.91206 L136.138177,101.950593 C136.595683,102.522415 136.523589,103.279706 136.027033,103.776263 L134.776263,105.027033 C134.3031,105.500195 133.597588,105.53381 132.983217,105.162861 L131.912081,104.404096 C131.549956,104.588409 131.161124,104.746638 130.731966,104.890975 L130.500588,106.277583 C130.372251,106.918857 129.774126,107.376271 129.099481,107.376271 L127.372191,107.376271 C126.697457,107.376271 126.099277,106.918815 125.963616,106.232739 L125.785466,104.896712 C125.342715,104.756847 124.925959,104.59439 124.523084,104.400934 L123.384453,105.251388 C122.81201,105.594951 122.102328,105.493547 121.635813,105.027033 L120.385043,103.776263 C119.897577,103.288796 119.80651,102.533605 120.271843,102.009401 L121.007469,100.927565 C120.768845,100.493853 120.586899,100.089569 120.448512,99.6678499 L119.156699,99.4451271 C118.465615,99.3298648 117.976271,98.8055837 117.976271,98.0994813 L117.976271,96.3126579 C117.976271,95.65508 118.479581,95.0798251 119.176207,94.9640405 L120.455152,94.7876246 C120.596483,94.339925 120.760902,93.9188055 120.957095,93.5117378 L120.214302,92.4615461 C119.756777,91.8896998 119.828954,91.1323006 120.325497,90.635889 L121.576346,89.3849774 C122.05606,88.9053901 122.801851,88.8681164 123.29871,89.2416305 L124.427721,90.0093348 C124.858088,89.7791336 125.296183,89.5906656 125.744502,89.4470207 L125.966989,88.1569015 C126.082124,87.4657228 126.606481,86.9762713 127.312595,86.9762713 L129.039885,86.9762713 C129.739696,86.9762713 130.329312,87.4618833 130.444419,88.1529635 L130.669143,89.4561038 C131.053417,89.5860601 131.450499,89.7524261 131.892926,89.9625964 L133.027622,89.1607513 C133.597492,88.8187325 134.303067,88.8523143 134.776263,89.3255098 L136.027033,90.5762798 C136.523589,91.0728366 136.595682,91.830192 136.162809,92.3693087 L135.40383,93.4408142 C135.596944,93.821942 135.759672,94.2323778 135.901436,94.6818696 L137.277443,94.9115236 Z M134.796072,95.9168401 L134.678075,95.484322 C134.491762,94.8013961 134.268959,94.237816 133.978836,93.7542783 L133.743724,93.3624247 L134.007863,92.9895205 L135.025598,91.5547439 L133.786313,90.3154593 C133.800849,90.3299949 133.800043,90.3299565 133.792455,90.3321694 L132.020656,91.5871874 L131.645388,91.3995736 C130.942783,91.0483083 130.389361,90.8166424 129.868221,90.6744675 L129.43836,90.557195 L129.36264,90.1181056 L129.064116,88.386941 C129.062176,88.3752976 129.063358,88.3762713 129.039885,88.3762713 L127.34832,88.3762713 C127.348611,88.3799305 127.348321,88.3847135 127.347293,88.390879 L126.971924,90.5675854 L126.529435,90.6782371 C125.926346,90.8290494 125.337562,91.0832944 124.75426,91.4332509 L124.37055,91.6634601 L124.000522,91.4118486 L122.530106,90.4111174 L121.315394,91.6258918 C121.307267,91.6340159 121.3113,91.591699 121.332103,91.6196156 L122.597131,93.4055146 L122.387981,93.7889369 C122.08392,94.3463562 121.857408,94.932583 121.674489,95.6033747 L121.552843,96.0494668 L121.094799,96.1126487 L119.386898,96.347957 C119.377344,96.3495487 119.376352,96.3492695 119.376271,96.3268733 L119.376271,98.0638118 C119.379913,98.0635282 119.384667,98.0638194 119.390787,98.0648415 L121.567621,98.4401385 L121.678251,98.8826971 C121.820496,99.4517259 122.050977,99.9612274 122.433223,100.598236 L122.663482,100.98196 L121.41164,102.82296 L122.625763,104.037083 C122.640301,104.051622 122.647765,104.056072 122.632144,104.070253 L124.393735,102.749021 L124.788874,102.964561 C125.346256,103.268603 125.932516,103.495116 126.603375,103.678054 L127.051659,103.800297 L127.113073,104.260874 L127.341742,105.986764 C127.341678,105.97214 127.35146,105.976271 127.372191,105.976271 L129.099481,105.976271 C129.121668,105.976271 129.131343,105.971498 129.127317,106.003572 L129.493199,103.808202 L129.910861,103.682912 C130.583964,103.480996 131.129068,103.260354 131.598264,102.978836 L131.99013,102.743716 L132.363039,103.007875 L133.747973,103.991398 C133.799981,104.022601 133.800836,104.02256 133.786313,104.037083 L135.037083,102.786313 C135.045247,102.778149 135.041217,102.820487 135.020365,102.792507 L133.743716,100.99009 L133.978853,100.598236 C134.268969,100.114761 134.491768,99.5511932 134.67807,98.8682371 L134.791916,98.4508969 L136.976271,98.0139949 L136.976271,96.280271 L134.796072,95.9168401 Z" id="Fill-1-Copy-6" fill="url(#linearGradient-3)" fill-rule="nonzero" transform="translate(128.176271, 97.176271) rotate(-20.000000) translate(-128.176271, -97.176271) "></path>
                    <path d="M11.1389831,96.2004837 C11.1389831,97.3028594 12.0721589,98.2135594 13.2004837,98.2135594 C14.3157738,98.2135594 15.2135594,97.3157738 15.2135594,96.2004837 C15.2135594,95.0721906 14.3028401,94.1389831 13.2004837,94.1389831 C12.0852132,94.1389831 11.1389831,95.0852253 11.1389831,96.2004837 Z M9.73898312,96.2004837 C9.73898312,94.3120307 11.3120105,92.7389831 13.2004837,92.7389831 C15.083785,92.7389831 16.6135594,94.306532 16.6135594,96.2004837 C16.6135594,98.0889725 15.0889725,99.6135594 13.2004837,99.6135594 C11.3064963,99.6135594 9.73898312,98.0838002 9.73898312,96.2004837 Z M22.2774431,93.9115236 C22.9015048,94.0362828 23.3762713,94.620557 23.3762713,95.2530613 L23.3762713,97.0399479 C23.3762713,97.7295624 22.8985224,98.3446965 22.2242228,98.3921304 L20.9061341,98.6557669 C20.7632353,99.1112412 20.5989988,99.5266453 20.4036775,99.9120602 L21.1381767,100.950593 C21.595683,101.522415 21.5235892,102.279706 21.0270327,102.776263 L19.7762627,104.027033 C19.3030999,104.500195 18.5975884,104.53381 17.983217,104.162861 L16.9120807,103.404096 C16.5499563,103.588409 16.1611241,103.746638 15.7319658,103.890975 L15.5005875,105.277583 C15.3722509,105.918857 14.774126,106.376271 14.0994813,106.376271 L12.3721913,106.376271 C11.6974573,106.376271 11.0992767,105.918815 10.9636159,105.232739 L10.7854663,103.896712 C10.3427147,103.756847 9.92595917,103.59439 9.52308372,103.400934 L8.38445337,104.251388 C7.8120104,104.594951 7.10232784,104.493547 6.63581318,104.027033 L5.38504318,102.776263 C4.8975766,102.288796 4.80651011,101.533605 5.27184284,101.009401 L6.00746943,99.9275649 C5.76884487,99.493853 5.58689922,99.0895693 5.44851156,98.6678499 L4.15669925,98.4451271 C3.46561513,98.3298648 2.97627126,97.8055837 2.97627126,97.0994813 L2.97627126,95.3126579 C2.97627126,94.65508 3.47958108,94.0798251 4.17620659,93.9640405 L5.45515168,93.7876246 C5.59648261,93.339925 5.76090178,92.9188055 5.95709502,92.5117378 L5.21430244,91.4615461 C4.75677669,90.8896998 4.82895378,90.1323006 5.32549731,89.635889 L6.57634564,88.3849774 C7.05606047,87.9053901 7.80185097,87.8681164 8.29871019,88.2416305 L9.42772094,89.0093348 C9.85808787,88.7791336 10.2961825,88.5906656 10.7445019,88.4470207 L10.9669889,87.1569015 C11.0821241,86.4657228 11.6064807,85.9762713 12.3125946,85.9762713 L14.0398846,85.9762713 C14.7396957,85.9762713 15.3293121,86.4618833 15.4444194,87.1529635 L15.6691432,88.4561038 C16.0534172,88.5860601 16.4504987,88.7524261 16.8929261,88.9625964 L18.0276225,88.1607513 C18.5974922,87.8187325 19.3030671,87.8523143 19.7762627,88.3255098 L21.0270327,89.5762798 C21.5235895,90.0728366 21.595682,90.830192 21.1628094,91.3693087 L20.4038302,92.4408142 C20.5969444,92.821942 20.7596717,93.2323778 20.9014356,93.6818696 L22.2774431,93.9115236 Z M21.9762713,95.280271 L19.7960725,94.9168401 L19.678075,94.484322 C19.4917624,93.8013961 19.2689588,93.237816 18.9788362,92.7542783 L18.7437241,92.3624247 L19.0078631,91.9895205 L20.0255978,90.5547439 L18.7863132,89.3154593 C18.8008487,89.3299949 18.8000431,89.3299565 18.7924553,89.3321694 L17.0206559,90.5871874 L16.6453884,90.3995736 C15.9427831,90.0483083 15.3893606,89.8166424 14.8682205,89.6744675 L14.4383598,89.557195 L14.3626398,89.1181056 L14.0641156,87.386941 C14.0621761,87.3752976 14.0633582,87.3762713 14.0398846,87.3762713 L12.3483205,87.3762713 C12.348611,87.3799305 12.3483213,87.3847135 12.3472927,87.390879 L11.9719242,89.5675854 L11.5294353,89.6782371 C10.9263464,89.8290494 10.3375618,90.0832944 9.75425951,90.4332509 L9.3705503,90.6634601 L9.00052233,90.4118486 L7.53010645,89.4111174 L6.31539354,90.6258918 C6.30726725,90.6340159 6.31129989,90.591699 6.33210258,90.6196156 L7.59713087,92.4055146 L7.38798135,92.7889369 C7.08391977,93.3463562 6.85740822,93.932583 6.67448863,94.6033747 L6.55284283,95.0494668 L6.09479927,95.1126487 L4.38689753,95.347957 C4.37734386,95.3495487 4.37635246,95.3492695 4.37627126,95.3268733 L4.37627126,97.0638118 C4.37991312,97.0635282 4.3846668,97.0638194 4.39078684,97.0648415 L6.56762136,97.4401385 L6.67825122,97.8826971 C6.8204958,98.4517259 7.05097687,98.9612274 7.43322274,99.5982361 L7.66348179,99.9819603 L6.41163956,101.82296 L7.62576267,103.037083 C7.64030128,103.051622 7.64776477,103.056072 7.63214395,103.070253 L9.39373489,101.749021 L9.78887357,101.964561 C10.3462559,102.268603 10.9325159,102.495116 11.6033747,102.678054 L12.0516588,102.800297 L12.1130733,103.260874 L12.3417421,104.986764 C12.3416776,104.97214 12.3514595,104.976271 12.3721913,104.976271 L14.0994813,104.976271 C14.1216679,104.976271 14.1313425,104.971498 14.1273165,105.003572 L14.4931985,102.808202 L14.9108608,102.682912 C15.583964,102.480996 16.1290676,102.260354 16.5982642,101.978836 L16.9901305,101.743716 L17.3630388,102.007875 L18.7479728,102.991398 C18.7999814,103.022601 18.8008359,103.02256 18.7863132,103.037083 L20.0252606,101.798136 C20.0237452,101.796707 20.0221142,101.794854 20.0203647,101.792507 L18.7437159,99.9900898 L18.9788531,99.5982361 C19.2689688,99.1147613 19.4917677,98.5511932 19.6780705,97.8682371 L19.7919162,97.4508969 L21.9762713,97.0139949 L21.9762713,95.280271 Z" id="Fill-1-Copy-9" fill="url(#linearGradient-3)" fill-rule="nonzero" transform="translate(13.176271, 96.176271) rotate(-20.000000) translate(-13.176271, -96.176271) "></path>
                    <path d="M71.1389831,13.2004837 C71.1389831,14.3028594 72.0721589,15.2135594 73.2004837,15.2135594 C74.3157738,15.2135594 75.2135594,14.3157738 75.2135594,13.2004837 C75.2135594,12.0721906 74.3028401,11.1389831 73.2004837,11.1389831 C72.0852132,11.1389831 71.1389831,12.0852253 71.1389831,13.2004837 Z M69.7389831,13.2004837 C69.7389831,11.3120307 71.3120105,9.73898312 73.2004837,9.73898312 C75.083785,9.73898312 76.6135594,11.306532 76.6135594,13.2004837 C76.6135594,15.0889725 75.0889725,16.6135594 73.2004837,16.6135594 C71.3064963,16.6135594 69.7389831,15.0838002 69.7389831,13.2004837 Z M82.2774431,10.9115236 C82.9015048,11.0362828 83.3762713,11.620557 83.3762713,12.2530613 L83.3762713,14.0399479 C83.3762713,14.7295624 82.8985224,15.3446965 82.2242228,15.3921304 L80.9061341,15.6557669 C80.7632353,16.1112412 80.5989988,16.5266453 80.4036775,16.9120602 L81.1381767,17.950593 C81.595683,18.522415 81.5235892,19.2797061 81.0270327,19.7762627 L79.7762627,21.0270327 C79.3030999,21.5001954 78.5975884,21.5338099 77.983217,21.1628608 L76.9120807,20.4040958 C76.5499563,20.5884086 76.1611241,20.7466381 75.7319658,20.890975 L75.5005875,22.2775834 C75.3722509,22.9188574 74.774126,23.3762713 74.0994813,23.3762713 L72.3721913,23.3762713 C71.6974573,23.3762713 71.0992767,22.9188148 70.9636159,22.232739 L70.7854663,20.8967117 C70.3427147,20.7568474 69.9259592,20.5943896 69.5230837,20.4009336 L68.3844534,21.2513879 C67.8120104,21.5949511 67.1023278,21.4935473 66.6358132,21.0270327 L65.3850432,19.7762627 C64.8975766,19.2887961 64.8065101,18.5336051 65.2718428,18.0094011 L66.0074694,16.9275649 C65.7688449,16.493853 65.5868992,16.0895693 65.4485116,15.6678499 L64.1566993,15.4451271 C63.4656151,15.3298648 62.9762713,14.8055837 62.9762713,14.0994813 L62.9762713,12.3126579 C62.9762713,11.65508 63.4795811,11.0798251 64.1762066,10.9640405 L65.4551517,10.7876246 C65.5964826,10.339925 65.7609018,9.91880554 65.957095,9.51173784 L65.2143024,8.46154614 C64.7567767,7.88969976 64.8289538,7.13230058 65.3254973,6.63588904 L66.5763456,5.38497739 C67.0560605,4.90539008 67.801851,4.86811641 68.2987102,5.24163055 L69.4277209,6.0093348 C69.8580879,5.77913359 70.2961825,5.5906656 70.7445019,5.44702072 L70.9669889,4.1569015 C71.0821241,3.46572276 71.6064807,2.97627126 72.3125946,2.97627126 L74.0398846,2.97627126 C74.7396957,2.97627126 75.3293121,3.46188327 75.4444194,4.15296355 L75.6691432,5.45610383 C76.0534172,5.58606006 76.4504987,5.75242612 76.8929261,5.96259643 L78.0276225,5.16075127 C78.5974922,4.8187325 79.3030671,4.8523143 79.7762627,5.32550985 L81.0270327,6.57627985 C81.5235895,7.07283664 81.595682,7.83019201 81.1628094,8.36930866 L80.4038302,9.44081421 C80.5969444,9.82194201 80.7596717,10.2323778 80.9014356,10.6818696 L82.2774431,10.9115236 Z M79.7960725,11.9168401 L79.678075,11.484322 C79.4917624,10.8013961 79.2689588,10.237816 78.9788362,9.75427829 L78.7437241,9.36242469 L79.0078631,8.98952052 L80.0255978,7.55474394 L78.7863132,6.31545934 C78.8008487,6.32999488 78.8000431,6.32995654 78.7924553,6.33216939 L77.0206559,7.58718743 L76.6453884,7.39957361 C75.9427831,7.04830834 75.3893606,6.81664244 74.8682205,6.67446753 L74.4383598,6.55719503 L74.3626398,6.11810564 L74.0641156,4.38694102 C74.0621761,4.37529763 74.0633582,4.37627126 74.0398846,4.37627126 L72.3483205,4.37627126 C72.348611,4.3799305 72.3483213,4.38471347 72.3472927,4.39087897 L71.9719242,6.56758543 L71.5294353,6.67823706 C70.9263464,6.82904938 70.3375618,7.08329437 69.7542595,7.4332509 L69.3705503,7.66346011 L69.0005223,7.41184864 L67.5301064,6.41111739 L66.3153935,7.6258918 C66.3072673,7.63401592 66.3112999,7.59169896 66.3321026,7.61961561 L67.5971309,9.40551464 L67.3879813,9.7889369 C67.0839198,10.3463562 66.8574082,10.932583 66.6744886,11.6033747 L66.5528428,12.0494668 L66.0947993,12.1126487 L64.3868975,12.347957 C64.3773439,12.3495487 64.3763525,12.3492695 64.3762713,12.3268733 L64.3762713,14.0638118 C64.3799131,14.0635282 64.3846668,14.0638194 64.3907868,14.0648415 L66.5676214,14.4401385 L66.6782512,14.8826971 C66.8204958,15.4517259 67.0509769,15.9612274 67.4332227,16.5982361 L67.6634818,16.9819603 L66.4116396,18.8229601 L67.6257627,20.0370832 C67.6403013,20.0516218 67.6477648,20.056072 67.6321439,20.0702528 L69.3937349,18.7490206 L69.7888736,18.9645612 C70.3462559,19.2686026 70.9325159,19.495116 71.6033747,19.6780539 L72.0516588,19.8002974 L72.1130733,20.2608735 L72.3417421,21.986764 C72.3416776,21.9721402 72.3514595,21.9762713 72.3721913,21.9762713 L74.0994813,21.9762713 C74.1216679,21.9762713 74.1313425,21.9714978 74.1273165,22.0035717 L74.4931985,19.8082021 L74.9108608,19.6829123 C75.583964,19.4809956 76.1290676,19.2603542 76.5982642,18.9788362 L76.9901305,18.7437165 L77.3630388,19.0078751 L78.7479728,19.9913983 C78.7999814,20.0226012 78.8008359,20.0225605 78.7863132,20.0370832 L80.0370832,18.7863132 C80.0452473,18.778149 80.0412168,18.8204871 80.0203647,18.7925067 L78.7437159,16.9900898 L78.9788531,16.5982361 C79.2689688,16.1147613 79.4917677,15.5511932 79.6780705,14.8682371 L79.7919162,14.4508969 L81.9762713,14.0139949 L81.9762713,12.280271 L79.7960725,11.9168401 Z" id="Fill-1-Copy-8" fill="url(#linearGradient-3)" fill-rule="nonzero" transform="translate(73.176271, 13.176271) rotate(-20.000000) translate(-73.176271, -13.176271) "></path>
                    <g id="Group-21" transform="translate(32.000000, 53.000000)">
                        <path d="M32.4173102,31.4541951 L30.7256321,27.6152251 C28.1907311,21.8616783 22.5658913,18.1584997 16.3622666,18.1584997 C10.1586418,18.1584997 4.5342045,21.8616783 1.99890103,27.6152251 L0.307222914,31.4541951 C-0.721951711,33.7896435 0.960066576,36.4273504 3.47806284,36.4273504 L29.2464703,36.4273504 C31.7648691,36.4273504 33.4464849,33.7896435 32.4173102,31.4541951" id="Fill-1" fill="#FFFFFF"></path>
                        <path d="M16.3623068,16.360409 C20.8082446,16.360409 24.412167,12.6981314 24.412167,8.18020449 C24.412167,3.66227755 20.8082446,0 16.3623068,0 C11.916369,0 8.31244663,3.66227755 8.31244663,8.18020449 C8.31244663,12.6981314 11.916369,16.360409 16.3623068,16.360409" id="Fill-4" fill="#FFFFFF"></path>
                        <path d="M31.5022178,31.8574392 L29.810513,28.0184088 C27.434774,22.6261171 22.1679083,19.1584997 16.3622666,19.1584997 C10.5567635,19.1584997 5.29019049,22.6259942 2.9139935,28.0184692 L1.22230997,31.8574514 C0.482274374,33.5367728 1.6877495,35.4273504 3.47806284,35.4273504 L29.2464703,35.4273504 C31.0370344,35.4273504 32.2423204,33.5369126 31.5022232,31.8574514 L32.4173102,31.4541951 L31.5022178,31.8574392 Z M33.3323973,31.0509388 C34.6506928,34.042473 32.4925973,37.4273504 29.2464703,37.4273504 L3.47806284,37.4273504 C0.232227076,37.4273504 -1.92611381,34.0423689 -0.607869548,31.050951 L1.08380558,27.2119878 C3.77826039,21.0972674 9.76062258,17.1584997 16.3622666,17.1584997 C22.9640611,17.1584997 28.9467646,21.0974128 31.6407246,27.2119811 L33.3324027,31.050951 L32.4173102,31.4541951 L33.3323973,31.0509388 Z" id="Fill-1" fill="url(#linearGradient-3)" fill-rule="nonzero"></path>
                        <path d="M16.3623068,16.360409 L16.3623068,15.360409 C20.2523326,15.360409 23.412167,12.1494101 23.412167,8.18020449 C23.412167,4.21099887 20.2523326,1 16.3623068,1 C12.4722811,1 9.31244663,4.21099887 9.31244663,8.18020449 C9.31244663,12.1494101 12.4722811,15.360409 16.3623068,15.360409 L16.3623068,16.360409 Z M16.3623068,16.360409 L16.3623068,17.360409 C11.360457,17.360409 7.31244663,13.2468528 7.31244663,8.18020449 C7.31244663,3.11355623 11.360457,-1 16.3623068,-1 C21.3641567,-1 25.412167,3.11355623 25.412167,8.18020449 C25.412167,13.2468528 21.3641567,17.360409 16.3623068,17.360409 L16.3623068,16.360409 Z" id="Fill-4" fill="url(#linearGradient-3)" fill-rule="nonzero"></path>
                    </g>
                    <g id="Group-20" transform="translate(78.000000, 52.022013)">
                        <path d="M32.4173102,32.4321821 L30.7256321,28.5932121 C28.1907311,22.8396653 22.5658913,19.1364867 16.3622666,19.1364867 C10.1586418,19.1364867 4.5342045,22.8396653 1.99890103,28.5932121 L0.307222914,32.4321821 C-0.721951711,34.7676305 0.960066576,37.4053374 3.47806284,37.4053374 L29.2464703,37.4053374 C31.7648691,37.4053374 33.4464849,34.7676305 32.4173102,32.4321821" id="Fill-1" fill="#FFFFFF"></path>
                        <path d="M16.3623068,17.338396 C20.8082446,17.338396 24.412167,13.6761184 24.412167,9.15819147 C24.412167,4.64026453 20.8082446,0.97798698 16.3623068,0.97798698 C11.916369,0.97798698 8.31244663,4.64026453 8.31244663,9.15819147 C8.31244663,13.6761184 11.916369,17.338396 16.3623068,17.338396" id="Fill-4" fill="#FFFFFF"></path>
                        <path d="M31.5022178,32.8354262 L29.810513,28.9963958 C27.434774,23.604104 22.1679083,20.1364867 16.3622666,20.1364867 C10.5567635,20.1364867 5.29019049,23.6039811 2.9139935,28.9964562 L1.22230997,32.8354384 C0.482274374,34.5147598 1.6877495,36.4053374 3.47806284,36.4053374 L29.2464703,36.4053374 C31.0370344,36.4053374 32.2423204,34.5148996 31.5022232,32.8354384 L32.4173102,32.4321821 L31.5022178,32.8354262 Z M33.3323973,32.0289257 C34.6506928,35.02046 32.4925973,38.4053374 29.2464703,38.4053374 L3.47806284,38.4053374 C0.232227076,38.4053374 -1.92611381,35.0203559 -0.607869548,32.028938 L1.08380558,28.1899748 C3.77826039,22.0752544 9.76062258,18.1364867 16.3622666,18.1364867 C22.9640611,18.1364867 28.9467646,22.0753997 31.6407246,28.189968 L33.3324027,32.028938 L32.4173102,32.4321821 L33.3323973,32.0289257 Z" id="Fill-1" fill="url(#linearGradient-3)" fill-rule="nonzero"></path>
                        <path d="M16.3623068,17.338396 L16.3623068,16.338396 C20.2523326,16.338396 23.412167,13.1273971 23.412167,9.15819147 C23.412167,5.18898585 20.2523326,1.97798698 16.3623068,1.97798698 C12.4722811,1.97798698 9.31244663,5.18898585 9.31244663,9.15819147 C9.31244663,13.1273971 12.4722811,16.338396 16.3623068,16.338396 L16.3623068,17.338396 Z M16.3623068,17.338396 L16.3623068,18.338396 C11.360457,18.338396 7.31244663,14.2248397 7.31244663,9.15819147 C7.31244663,4.09154321 11.360457,-0.02201302 16.3623068,-0.02201302 C21.3641567,-0.02201302 25.412167,4.09154321 25.412167,9.15819147 C25.412167,14.2248397 21.3641567,18.338396 16.3623068,18.338396 L16.3623068,17.338396 Z" id="Fill-4" fill="url(#linearGradient-3)" fill-rule="nonzero"></path>
                    </g>
                    <g id="Group-19" transform="translate(48.000000, 46.444237)">
                        <path d="M46.4357933,44.9641202 L44.0125689,39.5441008 C40.38148,31.4210011 32.3242446,26.1926977 23.4379356,26.1926977 C14.5516265,26.1926977 6.4949677,31.4210011 2.86330218,39.5441008 L0.440077836,44.9641202 C-1.0341512,48.2614046 1.37523603,51.9854303 4.98211005,51.9854303 L41.8937611,51.9854303 C45.5012116,51.9854303 47.9100223,48.2614046 46.4357933,44.9641202" id="Fill-1" fill="#FFFFFF"></path>
                        <path d="M23.4379932,23.6540775 C29.8065243,23.6540775 34.9689204,18.4835198 34.9689204,12.1049203 C34.9689204,5.72632084 29.8065243,0.555763197 23.4379932,0.555763197 C17.0694621,0.555763197 11.907066,5.72632084 11.907066,12.1049203 C11.907066,18.4835198 17.0694621,23.6540775 23.4379932,23.6540775" id="Fill-4" fill="#FFFFFF"></path>
                        <path d="M45.5228796,45.3722728 L43.099628,39.9521925 C39.6294872,32.1891495 31.9298095,27.1926977 23.4379356,27.1926977 C14.9462625,27.1926977 7.24701467,32.1889712 3.77621592,39.9522533 L1.35298605,45.3722851 C0.174356678,48.0084265 2.10025293,50.9854303 4.98211005,50.9854303 L41.8937611,50.9854303 C44.7759863,50.9854303 46.7015996,48.008617 45.5228851,45.3722851 L46.4357933,44.9641202 L45.5228796,45.3722728 Z M47.3487015,44.5559553 C49.1185074,48.5143315 46.2262846,52.9854303 41.8937611,52.9854303 L4.98211005,52.9854303 C0.649994837,52.9854303 -2.24256742,48.5141776 -0.4728359,44.5559677 L1.95038539,39.1359551 C5.74298071,30.6528969 14.1571373,25.1926977 23.4379356,25.1926977 C32.7189473,25.1926977 41.1335821,30.6530973 44.9254827,39.1359482 L47.348707,44.5559677 L46.4357933,44.9641202 L47.3487015,44.5559553 Z" id="Fill-1" fill="url(#linearGradient-3)" fill-rule="nonzero"></path>
                        <path d="M23.4379932,23.6540775 L23.4379932,22.6540775 C29.2538856,22.6540775 33.9689204,17.9315884 33.9689204,12.1049203 C33.9689204,6.27825227 29.2538856,1.5557632 23.4379932,1.5557632 C17.6221008,1.5557632 12.907066,6.27825227 12.907066,12.1049203 C12.907066,17.9315884 17.6221008,22.6540775 23.4379932,22.6540775 L23.4379932,23.6540775 Z M23.4379932,23.6540775 L23.4379932,24.6540775 C16.5168234,24.6540775 10.907066,19.0354512 10.907066,12.1049203 C10.907066,5.17438942 16.5168234,-0.444236803 23.4379932,-0.444236803 C30.359163,-0.444236803 35.9689204,5.17438942 35.9689204,12.1049203 C35.9689204,19.0354512 30.359163,24.6540775 23.4379932,24.6540775 L23.4379932,23.6540775 Z" id="Fill-4" fill="url(#linearGradient-3)" fill-rule="nonzero"></path>
                    </g>
                    <g id="idea-icon-white" transform="translate(10.000000, 27.000000)" fill="url(#linearGradient-3)" fill-rule="nonzero">
                        <path d="M11.4720418,17.8013542 C11.6209727,17.4212462 11.7881668,17.0604145 11.9692891,16.7337952 C12.0640313,16.562946 12.1612362,16.4041673 12.2606469,16.2584016 C12.3293448,16.1576616 12.4370849,16.0165445 12.5688298,15.8522536 C12.4298549,16.0249978 12.3162576,16.1733335 12.244978,16.2778594 C12.1461613,16.4227542 12.049349,16.5808046 11.9546616,16.7515552 C11.7743031,17.076797 11.6079618,17.4355447 11.4590321,17.8156497 C11.443496,17.8553015 11.4285583,17.8941003 11.4143174,17.9317229 L11.4211787,17.9337071 C11.4372895,17.8909294 11.4542974,17.8466423 11.4720418,17.8013542 Z M16.61885,8.59431351 C16.61885,6.88972985 16.0237317,5.31805638 15.0222083,4.06230959 C16.0170742,5.31836505 16.6084227,6.88911904 16.6084227,8.59431351 C16.6084227,10.2654569 16.0354157,11.8596823 15.0019924,13.1506428 C16.0432086,11.8593044 16.61885,10.2641301 16.61885,8.59431351 Z M1.15387727,8.59431351 C1.15387727,10.2608047 1.72700469,11.8513097 2.77324584,13.1508002 C1.73515663,11.8522624 1.16430455,10.2627218 1.16430455,8.59431351 C1.16430455,6.88910955 1.75566187,5.31834215 2.75053685,4.06227909 C1.74900438,5.31803327 1.15387727,6.88972005 1.15387727,8.59431351 Z M5.51545851,16.258148 C5.62958691,16.4154209 5.73951636,16.5892659 5.84495677,16.7783781 C6.02188177,17.0957014 6.18135173,17.4463161 6.31953415,17.8155294 C6.33429562,17.854971 6.34846485,17.8936392 6.36193823,17.9311767 L6.36910955,17.9292887 C6.35737054,17.8967738 6.3451021,17.8633905 6.33236369,17.8293543 C6.19421714,17.4602369 6.03568233,17.1119782 5.85961194,16.7961878 C5.75419486,16.6071173 5.64476663,16.4342175 5.53141748,16.2780184 C5.4187322,16.1226965 5.2782029,15.9411011 5.12270257,15.747959 C5.27204247,15.9339215 5.40684879,16.1084438 5.51545851,16.258148 Z M10.4421318,18.4441122 L10.5573653,18.0729299 C10.5989688,17.9389195 10.6667937,17.7480503 10.7492681,17.5375556 C10.9100405,17.127225 11.090502,16.7380243 11.2880033,16.3818688 C11.3937293,16.1912123 11.5027433,16.0132421 11.6151868,15.8483663 C11.961516,15.340502 13.1369796,13.9838642 13.6843172,13.4452586 C15.067223,12.1769564 15.8461227,10.437839 15.8461227,8.59431351 C15.8461227,4.89673342 12.7331588,1.89361675 8.88631557,1.89361675 C5.03955018,1.89361675 1.92660455,4.89675094 1.92660455,8.59431351 C1.92660455,10.461538 2.72527775,12.2186851 4.16101631,13.5127446 C4.7158308,14.0626768 5.66455,15.1633962 6.14841247,15.8303372 C6.28014222,16.0118654 6.40570684,16.2102612 6.52541624,16.4249656 C6.72094449,16.7756546 6.89524622,17.158549 7.04630055,17.5621551 C7.12391879,17.7695453 7.18665083,17.9578579 7.22432975,18.0911802 L7.32987248,18.4646302 L5.84707908,18.8549933 L5.7452708,18.4947572 C5.71915419,18.4023467 5.66887197,18.251794 5.60559729,18.0827287 C5.48029923,17.7479415 5.3365733,17.4319419 5.17915247,17.1496003 C5.08796262,16.9860471 4.99414431,16.8376807 4.89846352,16.7058292 C4.46562376,16.1092164 3.57065074,15.0699721 3.0972477,14.5994776 C1.37105593,13.045005 0.391577273,10.8847948 0.391577273,8.59431351 C0.391577273,4.05758364 4.19780222,0.385516667 8.88631557,0.385516667 C13.5749045,0.385516667 17.38115,4.05756368 17.38115,8.59431351 C17.38115,10.8566163 16.4252452,12.9946593 14.7516239,14.5289028 C14.2911554,14.9826394 13.1761762,16.2688825 12.8904381,16.6878947 C12.8046935,16.8136219 12.7196769,16.9524916 12.6359474,17.1034816 C12.4720048,17.3991205 12.3189132,17.7295169 12.1818058,18.0794484 C12.1124144,18.2565522 12.0561651,18.4145616 12.0256026,18.5130074 L11.9147782,18.8699874 L10.4421318,18.4441122 Z" id="Stroke-9"></path>
                        <path d="M10.0995345,22.6144833 L7.67309656,22.6144833 C6.64405749,22.6144833 5.80066818,21.8345797 5.80066818,20.8610994 L5.80066818,18.7061225 C5.80066818,18.318024 6.1364379,18.01885 6.53289006,18.01885 L11.2398372,18.01885 C11.6362359,18.01885 11.9720591,18.3180647 11.9720591,18.7061225 L11.9720591,20.8610994 C11.9720591,21.834561 11.1285936,22.6144833 10.0995345,22.6144833 Z M6.56296818,18.78115 L6.56296818,20.8610994 C6.56296818,21.3996702 7.05231676,21.8521833 7.67309656,21.8521833 L10.0995345,21.8521833 C10.7203446,21.8521833 11.2097591,21.3996393 11.2097591,20.8610994 L11.2097591,18.78115 L6.56296818,18.78115 Z M10.0995345,22.61885 C11.143077,22.61885 11.9824864,21.8284107 11.9824864,20.8610994 L11.9824864,18.7061225 C11.9824864,18.326988 11.6529992,18.0144833 11.2398372,18.0144833 L6.53289006,18.0144833 C6.11967614,18.0144833 5.79024091,18.3269475 5.79024091,18.7061225 L5.79024091,20.8610994 C5.79024091,21.8284354 6.62958092,22.61885 7.67309656,22.61885 L10.0995345,22.61885 Z M10.0995345,23.38115 L7.67309656,23.38115 C6.21846942,23.38115 5.02794091,22.2600178 5.02794091,20.8610994 L5.02794091,18.7061225 C5.02794091,17.8966606 5.70742197,17.2521833 6.53289006,17.2521833 L11.2398372,17.2521833 C12.0652488,17.2521833 12.7447864,17.8966959 12.7447864,18.7061225 L12.7447864,20.8610994 C12.7447864,22.2600024 11.5541804,23.38115 10.0995345,23.38115 Z" id="Stroke-1"></path>
                        <path d="M6.30028261,4.79190517 C6.78923298,4.42807087 7.3945651,4.23868299 8.11387103,4.21882563 C7.38523597,4.23459174 6.77882662,4.42770041 6.29173048,4.79015497 C5.80604397,5.15156059 5.38087645,5.72446048 5.01760369,6.51671838 C5.02319097,6.51970321 5.02721527,6.51820739 5.02802032,6.51645165 C5.38663785,5.73434631 5.80974743,5.15691875 6.30028261,4.79190517 Z M5.72094922,6.83417925 C5.54503837,7.21782146 5.09090759,7.38662033 4.70602295,7.21289944 C4.31953291,7.03845393 4.14802383,6.58424705 4.32467478,6.19899078 C4.73761035,5.29842378 5.23817259,4.62393188 5.83665794,4.17859117 C6.45534375,3.71821905 7.21365424,3.47673805 8.092379,3.45247973 C8.51536403,3.44080269 8.86899463,3.77266122 8.88084776,4.19531077 C8.89270457,4.61809153 8.55802192,4.9691547 8.13490729,4.98083532 C7.56507061,4.99656639 7.11146227,5.13848505 6.75535515,5.40346896 C6.3792544,5.6833304 6.0302542,6.15961916 5.72094922,6.83417925 Z" id="Line-16"></path>
                    </g>
                    <g id="idea-icon-white-copy" transform="translate(115.000000, 31.000000)" fill="url(#linearGradient-3)" fill-rule="nonzero">
                        <path d="M11.4720418,17.8013542 C11.6209727,17.4212462 11.7881668,17.0604145 11.9692891,16.7337952 C12.0640313,16.562946 12.1612362,16.4041673 12.2606469,16.2584016 C12.3293448,16.1576616 12.4370849,16.0165445 12.5688298,15.8522536 C12.4298549,16.0249978 12.3162576,16.1733335 12.244978,16.2778594 C12.1461613,16.4227542 12.049349,16.5808046 11.9546616,16.7515552 C11.7743031,17.076797 11.6079618,17.4355447 11.4590321,17.8156497 C11.443496,17.8553015 11.4285583,17.8941003 11.4143174,17.9317229 L11.4211787,17.9337071 C11.4372895,17.8909294 11.4542974,17.8466423 11.4720418,17.8013542 Z M16.61885,8.59431351 C16.61885,6.88972985 16.0237317,5.31805638 15.0222083,4.06230959 C16.0170742,5.31836505 16.6084227,6.88911904 16.6084227,8.59431351 C16.6084227,10.2654569 16.0354157,11.8596823 15.0019924,13.1506428 C16.0432086,11.8593044 16.61885,10.2641301 16.61885,8.59431351 Z M1.15387727,8.59431351 C1.15387727,10.2608047 1.72700469,11.8513097 2.77324584,13.1508002 C1.73515663,11.8522624 1.16430455,10.2627218 1.16430455,8.59431351 C1.16430455,6.88910955 1.75566187,5.31834215 2.75053685,4.06227909 C1.74900438,5.31803327 1.15387727,6.88972005 1.15387727,8.59431351 Z M5.51545851,16.258148 C5.62958691,16.4154209 5.73951636,16.5892659 5.84495677,16.7783781 C6.02188177,17.0957014 6.18135173,17.4463161 6.31953415,17.8155294 C6.33429562,17.854971 6.34846485,17.8936392 6.36193823,17.9311767 L6.36910955,17.9292887 C6.35737054,17.8967738 6.3451021,17.8633905 6.33236369,17.8293543 C6.19421714,17.4602369 6.03568233,17.1119782 5.85961194,16.7961878 C5.75419486,16.6071173 5.64476663,16.4342175 5.53141748,16.2780184 C5.4187322,16.1226965 5.2782029,15.9411011 5.12270257,15.747959 C5.27204247,15.9339215 5.40684879,16.1084438 5.51545851,16.258148 Z M10.4421318,18.4441122 L10.5573653,18.0729299 C10.5989688,17.9389195 10.6667937,17.7480503 10.7492681,17.5375556 C10.9100405,17.127225 11.090502,16.7380243 11.2880033,16.3818688 C11.3937293,16.1912123 11.5027433,16.0132421 11.6151868,15.8483663 C11.961516,15.340502 13.1369796,13.9838642 13.6843172,13.4452586 C15.067223,12.1769564 15.8461227,10.437839 15.8461227,8.59431351 C15.8461227,4.89673342 12.7331588,1.89361675 8.88631557,1.89361675 C5.03955018,1.89361675 1.92660455,4.89675094 1.92660455,8.59431351 C1.92660455,10.461538 2.72527775,12.2186851 4.16101631,13.5127446 C4.7158308,14.0626768 5.66455,15.1633962 6.14841247,15.8303372 C6.28014222,16.0118654 6.40570684,16.2102612 6.52541624,16.4249656 C6.72094449,16.7756546 6.89524622,17.158549 7.04630055,17.5621551 C7.12391879,17.7695453 7.18665083,17.9578579 7.22432975,18.0911802 L7.32987248,18.4646302 L5.84707908,18.8549933 L5.7452708,18.4947572 C5.71915419,18.4023467 5.66887197,18.251794 5.60559729,18.0827287 C5.48029923,17.7479415 5.3365733,17.4319419 5.17915247,17.1496003 C5.08796262,16.9860471 4.99414431,16.8376807 4.89846352,16.7058292 C4.46562376,16.1092164 3.57065074,15.0699721 3.0972477,14.5994776 C1.37105593,13.045005 0.391577273,10.8847948 0.391577273,8.59431351 C0.391577273,4.05758364 4.19780222,0.385516667 8.88631557,0.385516667 C13.5749045,0.385516667 17.38115,4.05756368 17.38115,8.59431351 C17.38115,10.8566163 16.4252452,12.9946593 14.7516239,14.5289028 C14.2911554,14.9826394 13.1761762,16.2688825 12.8904381,16.6878947 C12.8046935,16.8136219 12.7196769,16.9524916 12.6359474,17.1034816 C12.4720048,17.3991205 12.3189132,17.7295169 12.1818058,18.0794484 C12.1124144,18.2565522 12.0561651,18.4145616 12.0256026,18.5130074 L11.9147782,18.8699874 L10.4421318,18.4441122 Z" id="Stroke-9"></path>
                        <path d="M10.0995345,22.6144833 L7.67309656,22.6144833 C6.64405749,22.6144833 5.80066818,21.8345797 5.80066818,20.8610994 L5.80066818,18.7061225 C5.80066818,18.318024 6.1364379,18.01885 6.53289006,18.01885 L11.2398372,18.01885 C11.6362359,18.01885 11.9720591,18.3180647 11.9720591,18.7061225 L11.9720591,20.8610994 C11.9720591,21.834561 11.1285936,22.6144833 10.0995345,22.6144833 Z M6.56296818,18.78115 L6.56296818,20.8610994 C6.56296818,21.3996702 7.05231676,21.8521833 7.67309656,21.8521833 L10.0995345,21.8521833 C10.7203446,21.8521833 11.2097591,21.3996393 11.2097591,20.8610994 L11.2097591,18.78115 L6.56296818,18.78115 Z M10.0995345,22.61885 C11.143077,22.61885 11.9824864,21.8284107 11.9824864,20.8610994 L11.9824864,18.7061225 C11.9824864,18.326988 11.6529992,18.0144833 11.2398372,18.0144833 L6.53289006,18.0144833 C6.11967614,18.0144833 5.79024091,18.3269475 5.79024091,18.7061225 L5.79024091,20.8610994 C5.79024091,21.8284354 6.62958092,22.61885 7.67309656,22.61885 L10.0995345,22.61885 Z M10.0995345,23.38115 L7.67309656,23.38115 C6.21846942,23.38115 5.02794091,22.2600178 5.02794091,20.8610994 L5.02794091,18.7061225 C5.02794091,17.8966606 5.70742197,17.2521833 6.53289006,17.2521833 L11.2398372,17.2521833 C12.0652488,17.2521833 12.7447864,17.8966959 12.7447864,18.7061225 L12.7447864,20.8610994 C12.7447864,22.2600024 11.5541804,23.38115 10.0995345,23.38115 Z" id="Stroke-1"></path>
                        <path d="M6.30028261,4.79190517 C6.78923298,4.42807087 7.3945651,4.23868299 8.11387103,4.21882563 C7.38523597,4.23459174 6.77882662,4.42770041 6.29173048,4.79015497 C5.80604397,5.15156059 5.38087645,5.72446048 5.01760369,6.51671838 C5.02319097,6.51970321 5.02721527,6.51820739 5.02802032,6.51645165 C5.38663785,5.73434631 5.80974743,5.15691875 6.30028261,4.79190517 Z M5.72094922,6.83417925 C5.54503837,7.21782146 5.09090759,7.38662033 4.70602295,7.21289944 C4.31953291,7.03845393 4.14802383,6.58424705 4.32467478,6.19899078 C4.73761035,5.29842378 5.23817259,4.62393188 5.83665794,4.17859117 C6.45534375,3.71821905 7.21365424,3.47673805 8.092379,3.45247973 C8.51536403,3.44080269 8.86899463,3.77266122 8.88084776,4.19531077 C8.89270457,4.61809153 8.55802192,4.9691547 8.13490729,4.98083532 C7.56507061,4.99656639 7.11146227,5.13848505 6.75535515,5.40346896 C6.3792544,5.6833304 6.0302542,6.15961916 5.72094922,6.83417925 Z" id="Line-16"></path>
                    </g>
                    <g id="idea-icon-white-copy-2" transform="translate(61.000000, 120.647457)" fill="url(#linearGradient-3)" fill-rule="nonzero">
                        <path d="M11.4720418,17.8013542 C11.6209727,17.4212462 11.7881668,17.0604145 11.9692891,16.7337952 C12.0640313,16.562946 12.1612362,16.4041673 12.2606469,16.2584016 C12.3293448,16.1576616 12.4370849,16.0165445 12.5688298,15.8522536 C12.4298549,16.0249978 12.3162576,16.1733335 12.244978,16.2778594 C12.1461613,16.4227542 12.049349,16.5808046 11.9546616,16.7515552 C11.7743031,17.076797 11.6079618,17.4355447 11.4590321,17.8156497 C11.443496,17.8553015 11.4285583,17.8941003 11.4143174,17.9317229 L11.4211787,17.9337071 C11.4372895,17.8909294 11.4542974,17.8466423 11.4720418,17.8013542 Z M16.61885,8.59431351 C16.61885,6.88972985 16.0237317,5.31805638 15.0222083,4.06230959 C16.0170742,5.31836505 16.6084227,6.88911904 16.6084227,8.59431351 C16.6084227,10.2654569 16.0354157,11.8596823 15.0019924,13.1506428 C16.0432086,11.8593044 16.61885,10.2641301 16.61885,8.59431351 Z M1.15387727,8.59431351 C1.15387727,10.2608047 1.72700469,11.8513097 2.77324584,13.1508002 C1.73515663,11.8522624 1.16430455,10.2627218 1.16430455,8.59431351 C1.16430455,6.88910955 1.75566187,5.31834215 2.75053685,4.06227909 C1.74900438,5.31803327 1.15387727,6.88972005 1.15387727,8.59431351 Z M5.51545851,16.258148 C5.62958691,16.4154209 5.73951636,16.5892659 5.84495677,16.7783781 C6.02188177,17.0957014 6.18135173,17.4463161 6.31953415,17.8155294 C6.33429562,17.854971 6.34846485,17.8936392 6.36193823,17.9311767 L6.36910955,17.9292887 C6.35737054,17.8967738 6.3451021,17.8633905 6.33236369,17.8293543 C6.19421714,17.4602369 6.03568233,17.1119782 5.85961194,16.7961878 C5.75419486,16.6071173 5.64476663,16.4342175 5.53141748,16.2780184 C5.4187322,16.1226965 5.2782029,15.9411011 5.12270257,15.747959 C5.27204247,15.9339215 5.40684879,16.1084438 5.51545851,16.258148 Z M10.4421318,18.4441122 L10.5573653,18.0729299 C10.5989688,17.9389195 10.6667937,17.7480503 10.7492681,17.5375556 C10.9100405,17.127225 11.090502,16.7380243 11.2880033,16.3818688 C11.3937293,16.1912123 11.5027433,16.0132421 11.6151868,15.8483663 C11.961516,15.340502 13.1369796,13.9838642 13.6843172,13.4452586 C15.067223,12.1769564 15.8461227,10.437839 15.8461227,8.59431351 C15.8461227,4.89673342 12.7331588,1.89361675 8.88631557,1.89361675 C5.03955018,1.89361675 1.92660455,4.89675094 1.92660455,8.59431351 C1.92660455,10.461538 2.72527775,12.2186851 4.16101631,13.5127446 C4.7158308,14.0626768 5.66455,15.1633962 6.14841247,15.8303372 C6.28014222,16.0118654 6.40570684,16.2102612 6.52541624,16.4249656 C6.72094449,16.7756546 6.89524622,17.158549 7.04630055,17.5621551 C7.12391879,17.7695453 7.18665083,17.9578579 7.22432975,18.0911802 L7.32987248,18.4646302 L5.84707908,18.8549933 L5.7452708,18.4947572 C5.71915419,18.4023467 5.66887197,18.251794 5.60559729,18.0827287 C5.48029923,17.7479415 5.3365733,17.4319419 5.17915247,17.1496003 C5.08796262,16.9860471 4.99414431,16.8376807 4.89846352,16.7058292 C4.46562376,16.1092164 3.57065074,15.0699721 3.0972477,14.5994776 C1.37105593,13.045005 0.391577273,10.8847948 0.391577273,8.59431351 C0.391577273,4.05758364 4.19780222,0.385516667 8.88631557,0.385516667 C13.5749045,0.385516667 17.38115,4.05756368 17.38115,8.59431351 C17.38115,10.8566163 16.4252452,12.9946593 14.7516239,14.5289028 C14.2911554,14.9826394 13.1761762,16.2688825 12.8904381,16.6878947 C12.8046935,16.8136219 12.7196769,16.9524916 12.6359474,17.1034816 C12.4720048,17.3991205 12.3189132,17.7295169 12.1818058,18.0794484 C12.1124144,18.2565522 12.0561651,18.4145616 12.0256026,18.5130074 L11.9147782,18.8699874 L10.4421318,18.4441122 Z" id="Stroke-9"></path>
                        <path d="M10.0995345,22.6144833 L7.67309656,22.6144833 C6.64405749,22.6144833 5.80066818,21.8345797 5.80066818,20.8610994 L5.80066818,18.7061225 C5.80066818,18.318024 6.1364379,18.01885 6.53289006,18.01885 L11.2398372,18.01885 C11.6362359,18.01885 11.9720591,18.3180647 11.9720591,18.7061225 L11.9720591,20.8610994 C11.9720591,21.834561 11.1285936,22.6144833 10.0995345,22.6144833 Z M6.56296818,18.78115 L6.56296818,20.8610994 C6.56296818,21.3996702 7.05231676,21.8521833 7.67309656,21.8521833 L10.0995345,21.8521833 C10.7203446,21.8521833 11.2097591,21.3996393 11.2097591,20.8610994 L11.2097591,18.78115 L6.56296818,18.78115 Z M10.0995345,22.61885 C11.143077,22.61885 11.9824864,21.8284107 11.9824864,20.8610994 L11.9824864,18.7061225 C11.9824864,18.326988 11.6529992,18.0144833 11.2398372,18.0144833 L6.53289006,18.0144833 C6.11967614,18.0144833 5.79024091,18.3269475 5.79024091,18.7061225 L5.79024091,20.8610994 C5.79024091,21.8284354 6.62958092,22.61885 7.67309656,22.61885 L10.0995345,22.61885 Z M10.0995345,23.38115 L7.67309656,23.38115 C6.21846942,23.38115 5.02794091,22.2600178 5.02794091,20.8610994 L5.02794091,18.7061225 C5.02794091,17.8966606 5.70742197,17.2521833 6.53289006,17.2521833 L11.2398372,17.2521833 C12.0652488,17.2521833 12.7447864,17.8966959 12.7447864,18.7061225 L12.7447864,20.8610994 C12.7447864,22.2600024 11.5541804,23.38115 10.0995345,23.38115 Z" id="Stroke-1"></path>
                        <path d="M6.30028261,4.79190517 C6.78923298,4.42807087 7.3945651,4.23868299 8.11387103,4.21882563 C7.38523597,4.23459174 6.77882662,4.42770041 6.29173048,4.79015497 C5.80604397,5.15156059 5.38087645,5.72446048 5.01760369,6.51671838 C5.02319097,6.51970321 5.02721527,6.51820739 5.02802032,6.51645165 C5.38663785,5.73434631 5.80974743,5.15691875 6.30028261,4.79190517 Z M5.72094922,6.83417925 C5.54503837,7.21782146 5.09090759,7.38662033 4.70602295,7.21289944 C4.31953291,7.03845393 4.14802383,6.58424705 4.32467478,6.19899078 C4.73761035,5.29842378 5.23817259,4.62393188 5.83665794,4.17859117 C6.45534375,3.71821905 7.21365424,3.47673805 8.092379,3.45247973 C8.51536403,3.44080269 8.86899463,3.77266122 8.88084776,4.19531077 C8.89270457,4.61809153 8.55802192,4.9691547 8.13490729,4.98083532 C7.56507061,4.99656639 7.11146227,5.13848505 6.75535515,5.40346896 C6.3792544,5.6833304 6.0302542,6.15961916 5.72094922,6.83417925 Z" id="Line-16"></path>
                    </g>
                </g>
            </g>
        </g>
    </g>
</svg>