<?xml version="1.0" encoding="UTF-8"?>
<svg width="599px" height="386px" viewBox="0 0 599 386" version="1.1" xmlns="http://www.w3.org/2000/svg" xmlns:xlink="http://www.w3.org/1999/xlink">
    <!-- Generator: Sketch 52.3 (67297) - http://www.bohemiancoding.com/sketch -->
    <title>OUTSOURCING LAND VISUAL COMPUTER</title>
    <desc>Created with Sketch.</desc>
    <defs>
        <linearGradient x1="1.20662332%" y1="2.14292466%" x2="90.267142%" y2="79.7543246%" id="linearGradient-1">
            <stop stop-color="#0497F4" offset="0%"></stop>
            <stop stop-color="#0BCBF9" offset="100%"></stop>
        </linearGradient>
    </defs>
    <g id="Design" stroke="none" stroke-width="1" fill="none" fill-rule="evenodd">
        <g id="Index---V1-Outsource" transform="translate(-819.000000, -163.000000)">
            <g id="Group-77" transform="translate(819.000000, 163.000000)">
                <g id="Group-76">
                    <g id="OUTSOURCING-LAND-VISUAL-COMPUTER">
                        <ellipse id="Oval" fill="#000000" opacity="0.099999994" cx="235.5" cy="375.5" rx="90.5" ry="10.5"></ellipse>
                        <path d="M86.7697845,117 C70.0351087,117 56,103.50446 56,86.7697845 C56,70.0356827 70.0351087,56 86.7697845,56 C103.50446,56 117,70.0356827 117,86.7697845 C117,103.50446 103.50446,117 86.7697845,117 M168.119093,72.12889 L151.849597,69.4168267 C150.222243,63.4517867 148.0534,57.48617 144.79927,52.06262 L154.01844,39.0472533 C156.18786,36.3357667 155.645793,33.0816367 153.476373,30.9122167 L142.087783,19.5236267 C139.918363,17.3542067 136.664233,17.3542067 133.952747,18.98156 L120.93738,28.20073 C115.51383,25.4892433 109.548213,22.7777567 103.583173,21.1504033 L100.87111,5.42355 C100.329043,2.16942 97.6175567,0 94.3634267,0 L78.6359967,0 C75.3824433,0 73.2130233,2.16942 72.6709567,5.42355 L69.9588933,21.1504033 C63.45121,22.7777567 57.4855933,25.4892433 52.06262,28.7427967 L38.50461,19.5236267 C36.33519,17.89685 33.0816367,17.89685 30.9122167,20.0656933 L19.5236267,31.45486 C17.3542067,33.6237033 16.8115633,36.8778333 18.9809833,39.58932 L28.20073,52.6052633 C24.9466,58.57088 22.77718,64.53592 21.1504033,70.5015367 L5.42297333,72.6709567 C2.16942,73.2130233 0,75.9250867 0,78.6365733 L0,94.90607 C0,98.1602 2.16942,100.329043 5.42297333,100.871687 L21.1504033,103.583173 C22.77718,110.090857 25.4886667,115.514407 28.7427967,120.93738 L19.5236267,134.49539 C17.3542067,136.66481 17.8962733,139.918363 20.0656933,142.087783 L31.4542833,153.476373 C33.6237033,155.645793 36.8778333,156.188437 39.58932,154.561083 L52.6046867,144.79927 C58.5703033,148.0534 64.53592,150.22282 70.5015367,151.849597 L72.6709567,168.119093 C73.2130233,170.83058 75.92451,173 79.17864,173 L94.90607,173 C98.1596233,173 100.87111,170.83058 101.413753,168.119093 L104.12524,151.849597 C109.548213,150.22282 115.51383,148.0534 120.93738,144.79927 L133.952747,154.019017 C136.664233,155.645793 139.918363,155.645793 142.087783,153.476373 L153.476373,142.087783 C155.645793,139.918363 156.18786,136.66481 154.01844,133.953323 L144.79927,120.93738 C148.0534,115.514407 150.222243,109.54879 151.849597,103.583173 L168.119093,100.329043 C170.83058,100.329043 173,97.6175567 173,94.3640033 L173,78.09393 C173,75.3824433 170.83058,72.6709567 168.119093,72.12889" id="Fill-1-Copy-3" fill="#0497F4" fill-rule="nonzero"></path>
                        <path d="M463.920156,192 C437.857956,192 416,170.982356 416,144.920156 C416,118.85885 437.857956,97 463.920156,97 C489.982356,97 511,118.85885 511,144.920156 C511,170.982356 489.982356,192 463.920156,192 M591.354187,121.98803 L565.868443,117.739653 C563.319237,108.395573 559.9218,99.05059 554.82429,90.55474 L569.26588,70.1665067 C572.66422,65.9190333 571.815087,60.8215233 568.416747,57.4231833 L550.576817,39.5832533 C547.178477,36.1849133 542.080967,36.1849133 537.833493,38.73412 L517.44526,53.17571 C508.94941,48.9282367 499.604427,44.6807633 490.260347,42.1315567 L486.01197,17.49585 C485.162837,12.39834 480.915363,9 475.817853,9 L451.181243,9 C446.084637,9 442.686297,12.39834 441.837163,17.49585 L437.588787,42.1315567 C427.39467,44.6807633 418.049687,48.9282367 409.55474,54.0248433 L388.31647,39.5832533 C384.91813,37.03495 379.821523,37.03495 376.423183,40.4323867 L358.583253,58.27322 C355.184913,61.6706567 354.334877,66.7681667 357.733217,71.01564 L372.17571,91.4047767 C367.0782,100.74976 363.67986,110.09384 361.131557,119.438823 L336.494947,122.837163 C331.39834,123.686297 328,127.934673 328,132.182147 L328,157.66789 C328,162.7654 331.39834,166.162837 336.494947,167.012873 L361.131557,171.260347 C363.67986,181.454463 367.927333,189.950313 373.024843,198.44526 L358.583253,219.68353 C355.184913,223.08187 356.034047,228.178477 359.432387,231.576817 L377.272317,249.416747 C380.670657,252.815087 385.768167,253.665123 390.01564,251.115917 L410.403873,235.82429 C419.748857,240.9218 429.09384,244.32014 438.438823,246.868443 L441.837163,272.354187 C442.686297,276.60166 446.93377,280 452.03128,280 L476.66789,280 C481.764497,280 486.01197,276.60166 486.862007,272.354187 L491.10948,246.868443 C499.604427,244.32014 508.94941,240.9218 517.44526,235.82429 L537.833493,250.266783 C542.080967,252.815087 547.178477,252.815087 550.576817,249.416747 L568.416747,231.576817 C571.815087,228.178477 572.66422,223.08187 569.26588,218.834397 L554.82429,198.44526 C559.9218,189.950313 563.319237,180.60533 565.868443,171.260347 L591.354187,166.162837 C595.60166,166.162837 599,161.915363 599,156.818757 L599,131.33211 C599,127.084637 595.60166,122.837163 591.354187,121.98803" id="Fill-1-Copy-6" fill="#38D7FF" fill-rule="nonzero"></path>
                        <g id="computer" transform="translate(51.000000, 56.000000)">
                            <rect id="Rectangle" fill="#FFFFFF" x="0" y="0" width="375" height="261" rx="16"></rect>
                            <rect id="Rectangle" fill="url(#linearGradient-1)" x="11" y="10" width="354" height="210" rx="8"></rect>
                            <rect id="Rectangle" fill="#3B4B68" x="11" y="10" width="354" height="210" rx="8"></rect>
                            <g id="Group-79" transform="translate(38.000000, 33.000000)">
                                <rect id="Rectangle" fill="#FFFFFF" x="0" y="0" width="37.5" height="4.49261084"></rect>
                                <rect id="Rectangle-Copy-60" fill="#0497F4" x="0" y="14.9753695" width="18.75" height="4.49261084"></rect>
                                <rect id="Rectangle-Copy-68" fill="#02BDF3" x="0" y="29.2019704" width="27.75" height="4.49261084"></rect>
                                <rect id="Rectangle-Copy-76" fill="#02BDF3" x="0" y="44.1773399" width="38.25" height="4.49261084"></rect>
                                <rect id="Rectangle-Copy-81" fill="#0497F4" x="0" y="58.4039409" width="27" height="4.49261084"></rect>
                                <rect id="Rectangle-Copy-84" fill="#0497F4" x="0" y="74.1280788" width="15.75" height="4.49261084"></rect>
                                <rect id="Rectangle-Copy-87" fill="#FFFFFF" x="0" y="88.3546798" width="27.75" height="4.49261084"></rect>
                                <rect id="Rectangle-Copy-90" fill="#0497F4" x="0" y="103.330049" width="17.25" height="4.49261084"></rect>
                                <rect id="Rectangle-Copy-94" fill="#0497F4" x="0" y="117.55665" width="33.75" height="4.49261084"></rect>
                                <rect id="Rectangle-Copy-101" fill="#FFFFFF" x="0" y="131.783251" width="18.75" height="4.49261084"></rect>
                                <rect id="Rectangle-Copy-108" fill="#EF1C3B" x="0" y="147.507389" width="15.75" height="4.49261084"></rect>
                                <rect id="Rectangle-Copy-109" fill="#0497F4" x="21.75" y="147.507389" width="34.5" height="4.49261084"></rect>
                                <rect id="Rectangle-Copy-110" fill="#EF1C3B" x="62.25" y="147.507389" width="17.25" height="4.49261084"></rect>
                                <rect id="Rectangle-Copy-112" fill="#0497F4" x="118.5" y="147.507389" width="17.25" height="4.49261084"></rect>
                                <rect id="Rectangle-Copy-113" fill="#0497F4" x="143.25" y="147.507389" width="33.75" height="4.49261084"></rect>
                                <rect id="Rectangle-Copy-114" fill="#EF1C3B" x="183" y="147.507389" width="27.75" height="4.49261084"></rect>
                                <rect id="Rectangle-Copy-115" fill="#0497F4" x="216.75" y="147.507389" width="36" height="4.49261084"></rect>
                                <rect id="Rectangle-Copy-111" fill="#02BDF3" x="85.5" y="147.507389" width="27" height="4.49261084"></rect>
                                <rect id="Rectangle-Copy-103" fill="#EF1C3B" x="56.25" y="131.783251" width="9.75" height="4.49261084"></rect>
                                <rect id="Rectangle-Copy-102" fill="#02BDF3" x="24" y="131.783251" width="27" height="4.49261084"></rect>
                                <rect id="Rectangle-Copy-104" fill="#02BDF3" x="72" y="131.783251" width="27" height="4.49261084"></rect>
                                <rect id="Rectangle-Copy-106" fill="#EF1C3B" x="164.25" y="131.783251" width="36" height="4.49261084"></rect>
                                <rect id="Rectangle-Copy-107" fill="#EF1C3B" x="205.5" y="131.783251" width="12" height="4.49261084"></rect>
                                <rect id="Rectangle-Copy-105" fill="#FFFFFF" x="105" y="131.783251" width="53.25" height="4.49261084"></rect>
                                <rect id="Rectangle-Copy-95" fill="#FFFFFF" x="39.75" y="117.55665" width="16.5" height="4.49261084"></rect>
                                <rect id="Rectangle-Copy-97" fill="#FFFFFF" x="75.75" y="117.55665" width="29.25" height="4.49261084"></rect>
                                <rect id="Rectangle-Copy-99" fill="#0497F4" x="137.25" y="117.55665" width="33.75" height="4.49261084"></rect>
                                <rect id="Rectangle-Copy-100" fill="#EF1C3B" x="178.5" y="117.55665" width="36" height="4.49261084"></rect>
                                <rect id="Rectangle-Copy-96" fill="#EF1C3B" x="62.25" y="117.55665" width="7.5" height="4.49261084"></rect>
                                <rect id="Rectangle-Copy-98" fill="#EF1C3B" x="111" y="117.55665" width="18.75" height="4.49261084"></rect>
                                <rect id="Rectangle-Copy-91" fill="#02BDF3" x="24" y="103.330049" width="27" height="4.49261084"></rect>
                                <rect id="Rectangle-Copy-92" fill="#0497F4" x="57.75" y="103.330049" width="21.75" height="4.49261084"></rect>
                                <rect id="Rectangle-Copy-93" fill="#EF1C3B" x="84.75" y="103.330049" width="21.75" height="4.49261084"></rect>
                                <rect id="Rectangle-Copy-88" fill="#EF1C3B" x="33.75" y="88.3546798" width="12.75" height="4.49261084"></rect>
                                <rect id="Rectangle-Copy-89" fill="#0497F4" x="52.5" y="88.3546798" width="15.75" height="4.49261084"></rect>
                                <rect id="Rectangle-Copy-85" fill="#02BDF3" x="21.75" y="74.1280788" width="24" height="4.49261084"></rect>
                                <rect id="Rectangle-Copy-86" fill="#0497F4" x="51.75" y="74.1280788" width="33.75" height="4.49261084"></rect>
                                <rect id="Rectangle-Copy-83" fill="#EF1C3B" x="48" y="58.4039409" width="17.25" height="4.49261084"></rect>
                                <rect id="Rectangle-Copy-82" fill="#FFFFFF" x="31.5" y="58.4039409" width="11.25" height="4.49261084"></rect>
                                <rect id="Rectangle-Copy-77" fill="#0497F4" x="44.25" y="44.1773399" width="27" height="4.49261084"></rect>
                                <rect id="Rectangle-Copy-78" fill="#FFFFFF" x="80.25" y="44.1773399" width="15.75" height="4.49261084"></rect>
                                <rect id="Rectangle-Copy-80" fill="#0497F4" x="128.25" y="44.1773399" width="32.25" height="4.49261084"></rect>
                                <rect id="Rectangle-Copy-79" fill="#EF1C3B" x="100.5" y="44.1773399" width="18.75" height="4.49261084"></rect>
                                <rect id="Rectangle-Copy-70" fill="#FFFFFF" x="49.5" y="29.2019704" width="27.75" height="4.49261084"></rect>
                                <rect id="Rectangle-Copy-71" fill="#0497F4" x="84.75" y="29.2019704" width="14.25" height="4.49261084"></rect>
                                <rect id="Rectangle-Copy-72" fill="#FFFFFF" x="102.75" y="29.2019704" width="42.75" height="4.49261084"></rect>
                                <rect id="Rectangle-Copy-73" fill="#EF1C3B" x="151.5" y="29.2019704" width="15.75" height="4.49261084"></rect>
                                <rect id="Rectangle-Copy-75" fill="#02BDF3" x="210.75" y="29.2019704" width="24" height="4.49261084"></rect>
                                <rect id="Rectangle-Copy-74" fill="#0497F4" x="173.25" y="29.2019704" width="32.25" height="4.49261084"></rect>
                                <rect id="Rectangle-Copy-69" fill="#EF1C3B" x="31.5" y="29.2019704" width="12.75" height="4.49261084"></rect>
                                <rect id="Rectangle-Copy-64" fill="#0497F4" x="73.5" y="14.9753695" width="77.25" height="4.49261084"></rect>
                                <rect id="Rectangle-Copy-65" fill="#FFFFFF" x="156" y="14.9753695" width="51" height="4.49261084"></rect>
                                <rect id="Rectangle-Copy-66" fill="#EF1C3B" x="216.75" y="14.9753695" width="51" height="4.49261084"></rect>
                                <rect id="Rectangle-Copy-67" fill="#02BDF3" x="276.75" y="14.9753695" width="17.25" height="4.49261084"></rect>
                                <rect id="Rectangle-Copy-61" fill="#0497F4" x="24" y="14.9753695" width="6.75" height="4.49261084"></rect>
                                <rect id="Rectangle-Copy-62" fill="#EF1C3B" x="36" y="14.9753695" width="6.75" height="4.49261084"></rect>
                                <rect id="Rectangle-Copy-63" fill="#0497F4" x="48" y="14.9753695" width="20.25" height="4.49261084"></rect>
                                <rect id="Rectangle-Copy-56" fill="#FFFFFF" x="120.75" y="0" width="33.75" height="4.49261084"></rect>
                                <rect id="Rectangle-Copy-58" fill="#02BDF3" x="183.75" y="0" width="24" height="4.49261084"></rect>
                                <rect id="Rectangle-Copy-57" fill="#EF1C3B" x="159.75" y="0" width="18.75" height="4.49261084"></rect>
                                <rect id="Rectangle-Copy-59" fill="#02BDF3" x="213" y="0" width="18.75" height="4.49261084"></rect>
                                <rect id="Rectangle" fill="#02BDF3" x="45.75" y="0" width="68.25" height="4.49261084"></rect>
                            </g>
                            <path d="M187.5,252 C181.148725,252 176,246.851275 176,240.5 C176,234.148725 181.148725,229 187.5,229 C193.851275,229 199,234.148725 199,240.5 C199,246.851275 193.851275,252 187.5,252 Z M187.5,250 C192.746705,250 197,245.746705 197,240.5 C197,235.253295 192.746705,231 187.5,231 C182.253295,231 178,235.253295 178,240.5 C178,245.746705 182.253295,250 187.5,250 Z" id="Oval" fill="#02BDF3" fill-rule="nonzero"></path>
                            <rect id="Rectangle" fill="#FFFFFF" x="122" y="310" width="131" height="10" rx="2"></rect>
                            <rect id="Rectangle" fill="#B6EFFE" x="165" y="261" width="45" height="49"></rect>
                        </g>
                    </g>
                </g>
            </g>
        </g>
    </g>
</svg>