<?xml version="1.0" encoding="UTF-8"?>
<svg width="127px" height="102px" viewBox="0 0 127 102" version="1.1" xmlns="http://www.w3.org/2000/svg" xmlns:xlink="http://www.w3.org/1999/xlink">
    <!-- Generator: Sketch 52.3 (67297) - http://www.bohemiancoding.com/sketch -->
    <title>philosophy icon 3</title>
    <desc>Created with Sketch.</desc>
    <defs>
        <linearGradient x1="1.20662332%" y1="2.14292466%" x2="90.267142%" y2="79.7543246%" id="linearGradient-1">
            <stop stop-color="#0497F4" offset="0%"></stop>
            <stop stop-color="#0BCBF9" offset="100%"></stop>
        </linearGradient>
    </defs>
    <g id="Page-1" stroke="none" stroke-width="1" fill="none" fill-rule="evenodd">
        <g id="Index---V1" transform="translate(-1183.000000, -1777.000000)">
            <g id="philosophy-icon-3" transform="translate(1184.000000, 1778.000000)">
                <path d="M45.0241176,36.6470588 L45.0241176,38.6470588 L42.0241176,38.6470588 L42.0241176,36.6470588 L45.0241176,36.6470588 Z M40.0241176,36.6470588 L40.0241176,38.6470588 L37.0241176,38.6470588 L37.0241176,36.6470588 L40.0241176,36.6470588 Z M35.0241176,36.6470588 L35.0241176,38.6470588 L32.0241176,38.6470588 L32.0241176,36.6470588 L35.0241176,36.6470588 Z M30.0241176,36.6470588 L30.0241176,38.6470588 L27.0241176,38.6470588 L27.0241176,36.6470588 L30.0241176,36.6470588 Z M25.0241176,36.6470588 L25.0241176,38.6470588 L22.0241176,38.6470588 L22.0241176,36.6470588 L25.0241176,36.6470588 Z M20.0241176,36.6470588 L20.0241176,38.6470588 L17.0241176,38.6470588 L17.0241176,36.6470588 L20.0241176,36.6470588 Z M15.0241176,36.6470588 L15.0241176,38.6470588 L12.0241176,38.6470588 L12.0241176,36.6470588 L15.0241176,36.6470588 Z M10.0241176,36.6470588 L10.0241176,38.6470588 L7.02411765,38.6470588 L7.02411765,36.6470588 L10.0241176,36.6470588 Z M5.13190884,36.6239206 L4.91755308,38.6124003 C3.68532092,38.4795671 2.53854335,37.96854 1.61895248,37.1599577 L2.93960278,35.6579981 C3.55194708,36.1964231 4.31323554,36.5356685 5.13190884,36.6239206 Z M1.96972394,34.3743822 L0.163281267,35.2327323 C-0.195105898,34.4784878 -0.392284916,33.6545819 -0.411138303,32.7839001 L-0.412352253,31.7495038 L1.58764637,31.7471567 L1.58862128,32.7608315 C1.60102492,33.327201 1.73180897,33.8736777 1.96972394,34.3743822 Z M1.58764706,29.7483302 L-0.412352941,29.7483302 L-0.412352941,26.7483302 L1.58764706,26.7483302 L1.58764706,29.7483302 Z M1.58764706,24.7483302 L-0.412352941,24.7483302 L-0.412352941,21.7483302 L1.58764706,21.7483302 L1.58764706,24.7483302 Z M1.58764706,19.7483302 L-0.412352941,19.7483302 L-0.412352941,16.7483302 L1.58764706,16.7483302 L1.58764706,19.7483302 Z M1.58764706,14.7483302 L-0.412352941,14.7483302 L-0.412352941,11.7483302 L1.58764706,11.7483302 L1.58764706,14.7483302 Z M1.58764706,9.74833024 L-0.412352941,9.74833024 L-0.412352941,6.74833024 L1.58764706,6.74833024 L1.58764706,9.74833024 Z M1.6404916,4.91309929 L-0.33301407,4.58863764 C-0.132433916,3.36862885 0.441915704,2.25029258 1.30112081,1.37601616 L2.72757598,2.77788122 C2.1552136,3.3602834 1.77363485,4.10326876 1.6404916,4.91309929 Z M4.07098375,1.87783284 L3.31940465,0.0244227791 C3.98864963,-0.246963759 4.70457375,-0.39538007 5.45904222,-0.410693786 L6.76192958,-0.411764368 L6.76357298,1.58823496 L5.48041498,1.58909468 C4.99046355,1.59916583 4.51523329,1.69768454 4.07098375,1.87783284 Z M8.76275128,1.58823529 L8.76275128,-0.411764706 L11.7627513,-0.411764706 L11.7627513,1.58823529 L8.76275128,1.58823529 Z M13.7627513,1.58823529 L13.7627513,-0.411764706 L16.7627513,-0.411764706 L16.7627513,1.58823529 L13.7627513,1.58823529 Z M18.7627513,1.58823529 L18.7627513,-0.411764706 L21.7627513,-0.411764706 L21.7627513,1.58823529 L18.7627513,1.58823529 Z M23.7627513,1.58823529 L23.7627513,-0.411764706 L26.7627513,-0.411764706 L26.7627513,1.58823529 L23.7627513,1.58823529 Z M28.7627513,1.58823529 L28.7627513,-0.411764706 L31.7627513,-0.411764706 L31.7627513,1.58823529 L28.7627513,1.58823529 Z M33.7627513,1.58823529 L33.7627513,-0.411764706 L36.7627513,-0.411764706 L36.7627513,1.58823529 L33.7627513,1.58823529 Z M38.7627513,1.58823529 L38.7627513,-0.411764706 L41.7627513,-0.411764706 L41.7627513,1.58823529 L38.7627513,1.58823529 Z M43.7627513,1.58823529 L43.7627513,-0.411764706 L45.0241176,-0.411764706 C45.7332448,-0.411764706 46.4268056,-0.287767544 47.0801985,-0.0483052056 L46.3919807,1.82955428 C45.9582446,1.67059407 45.4975822,1.58823529 45.0241176,1.58823529 L43.7627513,1.58823529 Z M47.7922576,2.71048747 L49.1851582,1.27527744 C50.0648444,2.12903083 50.6656032,3.23387558 50.8951682,4.44751957 L48.9300149,4.81923514 C48.7776329,4.01363533 48.3783278,3.27928064 47.7922576,2.71048747 Z M48.9994118,6.6863661 L50.9994118,6.6863661 L50.9994118,9.6863661 L48.9994118,9.6863661 L48.9994118,6.6863661 Z M48.9994118,11.6863661 L50.9994118,11.6863661 L50.9994118,14.6863661 L48.9994118,14.6863661 L48.9994118,11.6863661 Z M48.9994118,16.6863661 L50.9994118,16.6863661 L50.9994118,19.6863661 L48.9994118,19.6863661 L48.9994118,16.6863661 Z M48.9994118,21.6863661 L50.9994118,21.6863661 L50.9994118,24.6863661 L48.9994118,24.6863661 L48.9994118,21.6863661 Z M48.9994118,26.6863661 L50.9994118,26.6863661 L50.9994118,29.6863661 L48.9994118,29.6863661 L48.9994118,26.6863661 Z M48.9994118,31.6863661 L50.9994118,31.6863661 L50.9994118,32.6717647 C50.9994118,33.4964766 50.8316238,34.2995385 50.5106071,35.0417879 L48.6749326,34.247874 C48.8880492,33.7551095 48.9994118,33.2221092 48.9994118,32.6717647 L48.9994118,31.6863661 Z M47.7050577,35.6069403 L49.0544268,37.0831528 C48.150243,37.9096447 47.0128937,38.4427752 45.7843541,38.5990435 L45.5319905,36.6150293 C46.3478555,36.5112525 47.1029697,36.157294 47.7050577,35.6069403 Z" id="Stroke-1" fill="url(#linearGradient-1)" fill-rule="nonzero"></path>
                <path d="M120.024118,61.3529412 L120.024118,63.3529412 L117.024118,63.3529412 L117.024118,61.3529412 L120.024118,61.3529412 Z M115.024118,61.3529412 L115.024118,63.3529412 L112.024118,63.3529412 L112.024118,61.3529412 L115.024118,61.3529412 Z M110.024118,61.3529412 L110.024118,63.3529412 L107.024118,63.3529412 L107.024118,61.3529412 L110.024118,61.3529412 Z M105.024118,61.3529412 L105.024118,63.3529412 L102.024118,63.3529412 L102.024118,61.3529412 L105.024118,61.3529412 Z M100.024118,61.3529412 L100.024118,63.3529412 L97.0241176,63.3529412 L97.0241176,61.3529412 L100.024118,61.3529412 Z M95.0241176,61.3529412 L95.0241176,63.3529412 L92.0241176,63.3529412 L92.0241176,61.3529412 L95.0241176,61.3529412 Z M90.0241176,61.3529412 L90.0241176,63.3529412 L87.0241176,63.3529412 L87.0241176,61.3529412 L90.0241176,61.3529412 Z M85.0241176,61.3529412 L85.0241176,63.3529412 L82.0241176,63.3529412 L82.0241176,61.3529412 L85.0241176,61.3529412 Z M80.1319088,61.3298029 L79.9175531,63.3182826 C78.6853209,63.1854495 77.5385434,62.6744224 76.6189525,61.8658401 L77.9396028,60.3638804 C78.5519471,60.9023055 79.3132355,61.2415509 80.1319088,61.3298029 Z M76.9697239,59.0802646 L75.1632813,59.9386146 C74.8048941,59.1843701 74.6077151,58.3604642 74.5888617,57.4897825 L74.5876477,56.4553862 L76.5876464,56.453039 L76.5886213,57.4667139 C76.6010249,58.0330833 76.731809,58.5795601 76.9697239,59.0802646 Z M76.5876471,54.4542126 L74.5876471,54.4542126 L74.5876471,51.4542126 L76.5876471,51.4542126 L76.5876471,54.4542126 Z M76.5876471,49.4542126 L74.5876471,49.4542126 L74.5876471,46.4542126 L76.5876471,46.4542126 L76.5876471,49.4542126 Z M76.5876471,44.4542126 L74.5876471,44.4542126 L74.5876471,41.4542126 L76.5876471,41.4542126 L76.5876471,44.4542126 Z M76.5876471,39.4542126 L74.5876471,39.4542126 L74.5876471,36.4542126 L76.5876471,36.4542126 L76.5876471,39.4542126 Z M76.5876471,34.4542126 L74.5876471,34.4542126 L74.5876471,31.4542126 L76.5876471,31.4542126 L76.5876471,34.4542126 Z M76.6404916,29.6189816 L74.6669859,29.29452 C74.8675661,28.0745112 75.4419157,26.9561749 76.3011208,26.0818985 L77.727576,27.4837636 C77.1552136,28.0661658 76.7736348,28.8091511 76.6404916,29.6189816 Z M79.0709837,26.5837152 L78.3194046,24.7303051 C78.9886496,24.4589186 79.7045738,24.3105023 80.4590422,24.2951886 L81.7619296,24.294118 L81.763573,26.2941173 L80.480415,26.294977 C79.9904635,26.3050482 79.5152333,26.4035669 79.0709837,26.5837152 Z M83.7627513,26.2941176 L83.7627513,24.2941176 L86.7627513,24.2941176 L86.7627513,26.2941176 L83.7627513,26.2941176 Z M88.7627513,26.2941176 L88.7627513,24.2941176 L91.7627513,24.2941176 L91.7627513,26.2941176 L88.7627513,26.2941176 Z M93.7627513,26.2941176 L93.7627513,24.2941176 L96.7627513,24.2941176 L96.7627513,26.2941176 L93.7627513,26.2941176 Z M98.7627513,26.2941176 L98.7627513,24.2941176 L101.762751,24.2941176 L101.762751,26.2941176 L98.7627513,26.2941176 Z M103.762751,26.2941176 L103.762751,24.2941176 L106.762751,24.2941176 L106.762751,26.2941176 L103.762751,26.2941176 Z M108.762751,26.2941176 L108.762751,24.2941176 L111.762751,24.2941176 L111.762751,26.2941176 L108.762751,26.2941176 Z M113.762751,26.2941176 L113.762751,24.2941176 L116.762751,24.2941176 L116.762751,26.2941176 L113.762751,26.2941176 Z M118.762751,26.2941176 L118.762751,24.2941176 L120.024118,24.2941176 C120.733245,24.2941176 121.426806,24.4181148 122.080199,24.6575771 L121.391981,26.5354366 C120.958245,26.3764764 120.497582,26.2941176 120.024118,26.2941176 L118.762751,26.2941176 Z M122.792258,27.4163698 L124.185158,25.9811598 C125.064844,26.8349132 125.665603,27.9397579 125.895168,29.1534019 L123.930015,29.5251175 C123.777633,28.7195177 123.378328,27.985163 122.792258,27.4163698 Z M123.999412,31.3922485 L125.999412,31.3922485 L125.999412,34.3922485 L123.999412,34.3922485 L123.999412,31.3922485 Z M123.999412,36.3922485 L125.999412,36.3922485 L125.999412,39.3922485 L123.999412,39.3922485 L123.999412,36.3922485 Z M123.999412,41.3922485 L125.999412,41.3922485 L125.999412,44.3922485 L123.999412,44.3922485 L123.999412,41.3922485 Z M123.999412,46.3922485 L125.999412,46.3922485 L125.999412,49.3922485 L123.999412,49.3922485 L123.999412,46.3922485 Z M123.999412,51.3922485 L125.999412,51.3922485 L125.999412,54.3922485 L123.999412,54.3922485 L123.999412,51.3922485 Z M123.999412,56.3922485 L125.999412,56.3922485 L125.999412,57.3776471 C125.999412,58.202359 125.831624,59.0054208 125.510607,59.7476703 L123.674933,58.9537564 C123.888049,58.4609918 123.999412,57.9279915 123.999412,57.3776471 L123.999412,56.3922485 Z M122.705058,60.3128227 L124.054427,61.7890351 C123.150243,62.615527 122.012894,63.1486575 120.784354,63.3049259 L120.53199,61.3209116 C121.347855,61.2171348 122.10297,60.8631764 122.705058,60.3128227 Z" id="Stroke-3" fill="url(#linearGradient-1)" fill-rule="nonzero"></path>
                <path d="M56.2005882,98.1176471 L56.2005882,100.117647 L53.2005882,100.117647 L53.2005882,98.1176471 L56.2005882,98.1176471 Z M51.2005882,98.1176471 L51.2005882,100.117647 L48.2005882,100.117647 L48.2005882,98.1176471 L51.2005882,98.1176471 Z M46.2005882,98.1176471 L46.2005882,100.117647 L43.2005882,100.117647 L43.2005882,98.1176471 L46.2005882,98.1176471 Z M41.2005882,98.1176471 L41.2005882,100.117647 L38.2005882,100.117647 L38.2005882,98.1176471 L41.2005882,98.1176471 Z M36.2005882,98.1176471 L36.2005882,100.117647 L33.2005882,100.117647 L33.2005882,98.1176471 L36.2005882,98.1176471 Z M31.2005882,98.1176471 L31.2005882,100.117647 L28.2005882,100.117647 L28.2005882,98.1176471 L31.2005882,98.1176471 Z M26.2005882,98.1176471 L26.2005882,100.117647 L23.2005882,100.117647 L23.2005882,98.1176471 L26.2005882,98.1176471 Z M21.2005882,98.1176471 L21.2005882,100.117647 L18.2005882,100.117647 L18.2005882,98.1176471 L21.2005882,98.1176471 Z M16.3083794,98.0945088 L16.0940237,100.082989 C14.8617915,99.9501553 13.7150139,99.4391283 12.7954231,98.630546 L14.1160734,97.1285863 C14.7284177,97.6670114 15.4897061,98.0062568 16.3083794,98.0945088 Z M13.1461945,95.8449704 L11.3397519,96.7033205 C10.9813647,95.949076 10.7841857,95.1251701 10.7653323,94.2544884 L10.7641183,93.2200921 L12.764117,93.2177449 L12.7650919,94.2314198 C12.7774955,94.7977892 12.9082796,95.3442659 13.1461945,95.8449704 Z M12.7641176,91.2189185 L10.7641176,91.2189185 L10.7641176,88.2189185 L12.7641176,88.2189185 L12.7641176,91.2189185 Z M12.7641176,86.2189185 L10.7641176,86.2189185 L10.7641176,83.2189185 L12.7641176,83.2189185 L12.7641176,86.2189185 Z M12.7641176,81.2189185 L10.7641176,81.2189185 L10.7641176,78.2189185 L12.7641176,78.2189185 L12.7641176,81.2189185 Z M12.7641176,76.2189185 L10.7641176,76.2189185 L10.7641176,73.2189185 L12.7641176,73.2189185 L12.7641176,76.2189185 Z M12.7641176,71.2189185 L10.7641176,71.2189185 L10.7641176,68.2189185 L12.7641176,68.2189185 L12.7641176,71.2189185 Z M12.8169622,66.3836875 L10.8434565,66.0592259 C11.0440367,64.8392171 11.6183863,63.7208808 12.4775914,62.8466044 L13.9040466,64.2484695 C13.3316842,64.8308716 12.9501054,65.573857 12.8169622,66.3836875 Z M15.2474543,63.3484211 L14.4958752,61.495011 C15.1651202,61.2236245 15.8810443,61.0752082 16.6355128,61.0598944 L17.9384002,61.0588239 L17.9400436,63.0588232 L16.6568856,63.0596829 C16.1669341,63.0697541 15.6917039,63.1682728 15.2474543,63.3484211 Z M19.9392219,63.0588235 L19.9392219,61.0588235 L22.9392219,61.0588235 L22.9392219,63.0588235 L19.9392219,63.0588235 Z M24.9392219,63.0588235 L24.9392219,61.0588235 L27.9392219,61.0588235 L27.9392219,63.0588235 L24.9392219,63.0588235 Z M29.9392219,63.0588235 L29.9392219,61.0588235 L32.9392219,61.0588235 L32.9392219,63.0588235 L29.9392219,63.0588235 Z M34.9392219,63.0588235 L34.9392219,61.0588235 L37.9392219,61.0588235 L37.9392219,63.0588235 L34.9392219,63.0588235 Z M39.9392219,63.0588235 L39.9392219,61.0588235 L42.9392219,61.0588235 L42.9392219,63.0588235 L39.9392219,63.0588235 Z M44.9392219,63.0588235 L44.9392219,61.0588235 L47.9392219,61.0588235 L47.9392219,63.0588235 L44.9392219,63.0588235 Z M49.9392219,63.0588235 L49.9392219,61.0588235 L52.9392219,61.0588235 L52.9392219,63.0588235 L49.9392219,63.0588235 Z M54.9392219,63.0588235 L54.9392219,61.0588235 L56.2005882,61.0588235 C56.9097154,61.0588235 57.6032762,61.1828207 58.2566691,61.422283 L57.5684513,63.3001425 C57.1347151,63.1411823 56.6740528,63.0588235 56.2005882,63.0588235 L54.9392219,63.0588235 Z M58.9687282,64.1810757 L60.3616288,62.7458657 C61.241315,63.5996191 61.8420738,64.7044638 62.0716388,65.9181078 L60.1064855,66.2898234 C59.9541035,65.4842236 59.5547984,64.7498689 58.9687282,64.1810757 Z M60.1758824,68.1569543 L62.1758824,68.1569543 L62.1758824,71.1569543 L60.1758824,71.1569543 L60.1758824,68.1569543 Z M60.1758824,73.1569543 L62.1758824,73.1569543 L62.1758824,76.1569543 L60.1758824,76.1569543 L60.1758824,73.1569543 Z M60.1758824,78.1569543 L62.1758824,78.1569543 L62.1758824,81.1569543 L60.1758824,81.1569543 L60.1758824,78.1569543 Z M60.1758824,83.1569543 L62.1758824,83.1569543 L62.1758824,86.1569543 L60.1758824,86.1569543 L60.1758824,83.1569543 Z M60.1758824,88.1569543 L62.1758824,88.1569543 L62.1758824,91.1569543 L60.1758824,91.1569543 L60.1758824,88.1569543 Z M60.1758824,93.1569543 L62.1758824,93.1569543 L62.1758824,94.1423529 C62.1758824,94.9670649 62.0080944,95.7701267 61.6870777,96.5123762 L59.8514032,95.7184622 C60.0645198,95.2256977 60.1758824,94.6926974 60.1758824,94.1423529 L60.1758824,93.1569543 Z M58.8815283,97.0775286 L60.2308974,98.553741 C59.3267136,99.3802329 58.1893643,99.9133634 56.9608247,100.069632 L56.7084611,98.0856175 C57.5243261,97.9818407 58.2794403,97.6278823 58.8815283,97.0775286 Z" id="Stroke-5" fill="url(#linearGradient-1)" fill-rule="nonzero"></path>
                <path d="M24.00555,17.637113 L103.654889,44.0338963 L36.1021221,83.5167918 L24.00555,17.637113 Z M26.5826853,20.5981811 L37.5543485,80.3514434 L98.8251113,44.5402213 L26.5826853,20.5981811 Z" id="Stroke-13" fill="url(#linearGradient-1)" fill-rule="nonzero"></path>
                <path d="M31.1661176,19.9747059 C31.1661176,23.3041176 28.4661176,26.0041176 25.1367059,26.0041176 C21.8072941,26.0041176 19.1072941,23.3041176 19.1072941,19.9747059 C19.1072941,16.6452941 21.8072941,13.9452941 25.1367059,13.9452941 C28.4661176,13.9452941 31.1661176,16.6452941 31.1661176,19.9747059" id="Fill-7" fill="#EF1C3B"></path>
                <path d="M107.269059,44.2865882 C107.269059,47.616 104.569059,50.316 101.239647,50.316 C97.9102353,50.316 95.2102353,47.616 95.2102353,44.2865882 C95.2102353,40.9571765 97.9102353,38.2571765 101.239647,38.2571765 C104.569059,38.2571765 107.269059,40.9571765 107.269059,44.2865882" id="Fill-9" fill="#EF1C3B"></path>
                <path d="M42.8572941,81.9336471 C42.8572941,85.2630588 40.1572941,87.9630588 36.8278824,87.9630588 C33.4984706,87.9630588 30.7984706,85.2630588 30.7984706,81.9336471 C30.7984706,78.6042353 33.4984706,75.9042353 36.8278824,75.9042353 C40.1572941,75.9042353 42.8572941,78.6042353 42.8572941,81.9336471" id="Fill-11" fill="#EF1C3B"></path>
            </g>
        </g>
    </g>
</svg>