<?xml version="1.0" encoding="UTF-8"?>
<svg width="132px" height="163px" viewBox="0 0 132 163" version="1.1" xmlns="http://www.w3.org/2000/svg" xmlns:xlink="http://www.w3.org/1999/xlink">
    <!-- Generator: Sketch 52.3 (67297) - http://www.bohemiancoding.com/sketch -->
    <title>sport land-IT solutions-icon 1</title>
    <desc>Created with Sketch.</desc>
    <defs>
        <polygon id="path-1" points="0 0.398077212 143.977517 0.398077212 143.977517 80.1161684 0 80.1161684"></polygon>
        <linearGradient x1="1.20662332%" y1="2.14292466%" x2="90.267142%" y2="79.7543246%" id="linearGradient-3">
            <stop stop-color="#0497F4" offset="0%"></stop>
            <stop stop-color="#0BCBF9" offset="100%"></stop>
        </linearGradient>
        <polygon id="path-4" points="0 0.398077212 143.977517 0.398077212 143.977517 80.1161684 0 80.1161684"></polygon>
        <polygon id="path-6" points="0 0.398077212 143.977517 0.398077212 143.977517 80.1161684 0 80.1161684"></polygon>
        <linearGradient x1="6.93118268%" y1="85.478884%" x2="84.5425827%" y2="-3.58163471%" id="linearGradient-8">
            <stop stop-color="#0497F4" offset="0%"></stop>
            <stop stop-color="#0BCBF9" offset="100%"></stop>
        </linearGradient>
    </defs>
    <g id="Page-1" stroke="none" stroke-width="1" fill="none" fill-rule="evenodd">
        <g id="Sport-1440---Design" transform="translate(-327.000000, -3769.000000)">
            <g id="Oval-Copy-23" transform="translate(150.000000, 3632.000000)">
                <g id="sport-land-IT-solutions-icon-1" transform="translate(177.000000, 137.000000)">
                    <g id="Group-3" transform="translate(0.000000, 117.897201)">
                        <mask id="mask-2" fill="white">
                            <use xlink:href="#path-1"></use>
                        </mask>
                        <g id="Clip-2"></g>
                        <path d="M41.0470182,4.26368234 C50.4231135,1.78571429 60.9195834,0.398077212 71.9918882,0.398077212 C83.0641931,0.398077212 93.5544039,1.78571429 102.930499,4.26368234 L143.977517,4.26368234 L143.977517,39.3220169 L143.95874,39.3220169 C143.971258,39.633093 143.977517,39.944795 143.977517,40.2571228 C143.977517,62.255896 111.718241,80.1161684 71.9918882,80.1161684 C32.259276,80.1161684 0,62.255896 0,40.2571228 C0,39.944795 0.00625907566,39.633093 0.0250363026,39.3220169 L0,39.3220169 L0,4.26368234 L41.0470182,4.26368234 Z" id="Fill-1" fill="url(#linearGradient-3)" mask="url(#mask-2)"></path>
                    </g>
                    <path d="M71.9856292,81.3679836 C111.742026,81.3679836 143.971258,99.2126083 143.971258,121.225777 C143.971258,143.238321 111.742026,161.083571 71.9856292,161.083571 C32.2292324,161.083571 0,143.238321 0,121.225777 C0,99.2126083 32.2292324,81.3679836 71.9856292,81.3679836" id="Fill-4" fill="#FFFFFF"></path>
                    <g id="Group-8" transform="translate(0.000000, 77.213209)">
                        <mask id="mask-5" fill="white">
                            <use xlink:href="#path-4"></use>
                        </mask>
                        <g id="Clip-7"></g>
                        <path d="M41.0470182,4.26368234 C50.4231135,1.78571429 60.9195834,0.398077212 71.9918882,0.398077212 C83.0641931,0.398077212 93.5544039,1.78571429 102.930499,4.26368234 L143.977517,4.26368234 L143.977517,39.3220169 L143.95874,39.3220169 C143.971258,39.633093 143.977517,39.944795 143.977517,40.2571228 C143.977517,62.255896 111.718241,80.1161684 71.9918882,80.1161684 C32.259276,80.1161684 0,62.255896 0,40.2571228 C0,39.944795 0.00625907566,39.633093 0.0250363026,39.3220169 L0,39.3220169 L0,4.26368234 L41.0470182,4.26368234 Z" id="Fill-6" fill="url(#linearGradient-3)" mask="url(#mask-5)"></path>
                    </g>
                    <path d="M71.9856292,40.6839918 C111.742026,40.6839918 143.971258,58.5286165 143.971258,80.5417856 C143.971258,102.554329 111.742026,120.399579 71.9856292,120.399579 C32.2292324,120.399579 0,102.554329 0,80.5417856 C0,58.5286165 32.2292324,40.6839918 71.9856292,40.6839918" id="Fill-9" fill="#FFFFFF"></path>
                    <g id="Group-13" transform="translate(0.000000, 36.529217)">
                        <mask id="mask-7" fill="white">
                            <use xlink:href="#path-6"></use>
                        </mask>
                        <g id="Clip-12"></g>
                        <path d="M41.0470182,4.26368234 C50.4231135,1.78571429 60.9195834,0.398077212 71.9918882,0.398077212 C83.0641931,0.398077212 93.5544039,1.78571429 102.930499,4.26368234 L143.977517,4.26368234 L143.977517,39.3220169 L143.95874,39.3220169 C143.971258,39.633093 143.977517,39.944795 143.977517,40.2571228 C143.977517,62.255896 111.718241,80.1161684 71.9918882,80.1161684 C32.259276,80.1161684 0,62.255896 0,40.2571228 C0,39.944795 0.00625907566,39.633093 0.0250363026,39.3220169 L0,39.3220169 L0,4.26368234 C0,4.26368234 41.0470182,4.26368234 41.0470182,4.26368234" id="Fill-11" fill="url(#linearGradient-3)" mask="url(#mask-7)"></path>
                    </g>
                    <path d="M71.9856292,0 C111.742026,0 143.971258,17.8446247 143.971258,39.8577938 C143.971258,61.870337 111.742026,79.7155876 71.9856292,79.7155876 C32.2292324,79.7155876 0,61.870337 0,39.8577938 C0,17.8446247 32.2292324,0 71.9856292,0" id="Fill-14" fill="#98E5FC"></path>
                    <path d="M83.0777088,25.1554175 L98.1055728,55.2111456 C99.0935298,57.1870596 98.2926324,59.5897518 96.3167184,60.5777088 C95.7612967,60.8554196 95.1488444,61 94.527864,61 L64.472136,61 C62.262997,61 60.472136,59.209139 60.472136,57 C60.472136,56.3790196 60.6167163,55.7665674 60.8944272,55.2111456 L75.9222912,25.1554175 C76.9102482,23.1795035 79.3129404,22.3786062 81.2888544,23.3665631 C82.062964,23.753618 82.690654,24.3813079 83.0777088,25.1554175 Z" id="Triangle" fill="url(#linearGradient-8)" transform="translate(79.500000, 39.500000) rotate(90.000000) translate(-79.500000, -39.500000) "></path>
                    <path d="M76.2148866,98.5971534 C76.2148866,101.227024 74.082852,103.359058 71.4529818,103.359058 C68.8231117,103.359058 66.6910771,101.227024 66.6910771,98.5971534 C66.6910771,95.9672832 68.8231117,93.8352486 71.4529818,93.8352486 C74.082852,93.8352486 76.2148866,95.9672832 76.2148866,98.5971534" id="Fill-16" fill="#EF1C3B"></path>
                    <path d="M76.2148866,138.736981 C76.2148866,141.366851 74.082852,143.498886 71.4529818,143.498886 C68.8231117,143.498886 66.6910771,141.366851 66.6910771,138.736981 C66.6910771,136.107111 68.8231117,133.975076 71.4529818,133.975076 C74.082852,133.975076 76.2148866,136.107111 76.2148866,138.736981" id="Fill-18" fill="#EF1C3B"></path>
                </g>
            </g>
        </g>
    </g>
</svg>