<?xml version="1.0" encoding="UTF-8"?>
<svg width="129px" height="170px" viewBox="0 0 129 170" version="1.1" xmlns="http://www.w3.org/2000/svg" xmlns:xlink="http://www.w3.org/1999/xlink">
    <!-- Generator: Sketch 52.3 (67297) - http://www.bohemiancoding.com/sketch -->
    <title>sport land-IT solutions-icon 4</title>
    <desc>Created with Sketch.</desc>
    <defs>
        <linearGradient x1="1.20662332%" y1="2.14292466%" x2="90.267142%" y2="79.7543246%" id="linearGradient-1">
            <stop stop-color="#0497F4" offset="0%"></stop>
            <stop stop-color="#0BCBF9" offset="100%"></stop>
        </linearGradient>
    </defs>
    <g id="Page-1" stroke="none" stroke-width="1" fill="none" fill-rule="evenodd">
        <g id="Sport-1440---Design" transform="translate(-1296.000000, -3749.000000)">
            <g id="sport-land-IT-solutions-icon-4" transform="translate(1296.000000, 3749.000000)">
                <path d="M119.685367,160.645201 L9.44201588,160.645201 C4.55864136,160.645201 0.6,156.68656 0.6,151.803185 L0.6,12.8420159 C0.6,7.95864136 4.55864136,4 9.44201588,4 L119.685367,4 C124.568741,4 128.527383,7.95864136 128.527383,12.8420159 L128.527383,151.803185 C128.527383,156.68656 124.568741,160.645201 119.685367,160.645201 Z" id="Stroke-1" fill="#98E5FC" opacity="0.5"></path>
                <path d="M119.867169,164.093973 C121.989119,164.093973 123.709185,162.373908 123.709185,160.251957 L123.709185,21.290788 C123.709185,19.1688372 121.989119,17.4487721 119.867169,17.4487721 L9.62381784,17.4487721 C7.50186707,17.4487721 5.78180196,19.1688372 5.78180196,21.290788 L5.78180196,160.251957 C5.78180196,162.373908 7.50186707,164.093973 9.62381784,164.093973 L119.867169,164.093973 Z" id="Stroke-1" stroke="url(#linearGradient-1)" stroke-width="10" fill="#FFFFFF"></path>
                <g id="Group-32" transform="translate(39.000000, 46.000000)" fill="url(#linearGradient-1)">
                    <path d="M50.6260619,48.7186857 L47.9841762,42.8189143 C44.0254333,33.9768 35.2411476,28.2857143 25.5529762,28.2857143 C15.8648047,28.2857143 7.0811476,33.9768 3.12177617,42.8189143 L0.479890459,48.7186857 C-1.12736668,52.3078286 1.49943332,56.3614857 5.43177617,56.3614857 L45.6741762,56.3614857 C49.6071476,56.3614857 52.233319,52.3078286 50.6260619,48.7186857" id="Fill-1"></path>
                    <path d="M26.7142857,25.1428571 C33.6574857,25.1428571 39.2857143,19.5146286 39.2857143,12.5714286 C39.2857143,5.62822857 33.6574857,0 26.7142857,0 C19.7710857,0 14.1428571,5.62822857 14.1428571,12.5714286 C14.1428571,19.5146286 19.7710857,25.1428571 26.7142857,25.1428571" id="Fill-4"></path>
                </g>
                <g id="Group-5" transform="translate(34.842126, 0.605236)" fill="#98E5FC">
                    <path d="M53.4224995,25 L5.51348737,25 C2.46850963,25 0,21.8543837 0,17.9730903 L0,7.02690972 C0,3.14670139 2.46850963,0 5.51348737,0 L53.4224995,0 C56.4674772,0 58.9368383,3.14670139 58.9368383,7.02690972 L58.9368383,17.9730903 C58.9368383,21.8543837 56.4674772,25 53.4224995,25" id="Fill-3"></path>
                </g>
                <g id="rows" transform="translate(25.000000, 121.000000)">
                    <rect id="Rectangle" fill="#EF1C3B" x="0" y="0" width="79" height="9" rx="4.5"></rect>
                    <rect id="Rectangle" fill="url(#linearGradient-1)" x="0" y="15" width="30" height="5" rx="2.5"></rect>
                    <rect id="Rectangle" fill="url(#linearGradient-1)" x="49" y="15" width="30" height="5" rx="2.5"></rect>
                </g>
            </g>
        </g>
    </g>
</svg>