<?xml version="1.0" encoding="UTF-8"?>
<svg width="124px" height="287px" viewBox="0 0 124 287" version="1.1" xmlns="http://www.w3.org/2000/svg" xmlns:xlink="http://www.w3.org/1999/xlink">
    <!-- Generator: Sketch 52.3 (67297) - http://www.bohemiancoding.com/sketch -->
    <title>sport-man1</title>
    <desc>Created with Sketch.</desc>
    <defs>
        <path d="M12.6941612,34.2989243 L30.3052127,10.3086841 C30.9588544,9.41827608 30.7669174,8.16657654 29.8765094,7.51293487 C29.6870759,7.37387317 29.4746169,7.26928473 29.2488803,7.20396825 L8.08577873,1.08046118 C5.96368768,0.46643778 3.74562868,1.68896816 3.13160529,3.8110592 C3.06447496,4.04306446 3.0184954,4.28067299 2.99423005,4.52097304 L0.222249284,31.9719269 C0.111274881,33.0709075 0.912212192,34.0517699 2.01119284,34.1627443 C2.07795963,34.1694864 2.14502344,34.1728638 2.21212977,34.1728638 L10.5,34.1728638 L10.5,34.1728638 C10.8585746,34.8013657 11.6587583,35.020185 12.2872603,34.6616104 C12.4468203,34.5705778 12.5854536,34.4470087 12.6941612,34.2989243 Z" id="path-1"></path>
    </defs>
    <g id="Page-1" stroke="none" stroke-width="1" fill="none" fill-rule="evenodd">
        <g id="Index---V1" transform="translate(-886.000000, -284.000000)">
            <g id="sport-man1" transform="translate(886.000000, 284.000000)">
                <ellipse id="Oval" fill="#000000" opacity="0.099999994" cx="62" cy="276.5" rx="62" ry="10.5"></ellipse>
                <g id="Group-41" transform="translate(6.000000, 0.000000)">
                    <path d="M63.1275,84.681 C60.3965,88.427 61.1925,94.748 62.0385,99.27 C62.8845,103.792 65.8145,111.523 67.3795,114.491 C68.9445,117.46 70.9935,119.242 78.2315,115.174 C85.4695,111.106 100.247,102.930595 104,100.113595 C107.754,97.2955949 107.7805,94.957 108.4075,94 C109.0345,93.043 109.809,92.333 109.5,90 C109.192,87.667 109.8945,87.882 106.2345,87.404 C102.5745,86.925 96.3465,87.123 97.3565,88.501 C98.3675,89.879 101.7145,90.799 99.6755,91.341 C97.6355,91.883 95.1035,91.286 95.5185,92.498 C95.9345,93.709 97.0305,94.715 95.8175,95.205 C94.6035,95.696 94.2765,96.661 95.2035,98.337 C96.1305,100.012 99.8565,100.793 93.3165,101.432 C86.7755,102.071 78.0135,106.996 77.7515,103.015 C77.4895,99.034 76.4635,84.985 73.8665,78.763 C73.8665,78.763 65.8575,80.935 63.1275,84.681 Z" id="Fill-1" fill="#FFD2B8"></path>
                    <path d="M91.8091031,110.248372 L117.262361,76.3164584 C117.925175,75.4328569 117.746191,74.1792396 116.862589,73.5164258 C116.669045,73.3712431 116.450764,73.262383 116.218353,73.1951352 L93.079314,66.4998941 C91.507364,66.045053 89.816896,66.5935872 88.8114984,67.8847428 L62.6189314,101.521865 C61.9403013,102.393378 62.0966638,103.650017 62.9681769,104.328647 C63.1662597,104.48289 63.391612,104.598461 63.6324583,104.669319 L87.4803246,111.685483 C89.0817655,112.156635 90.807408,111.583739 91.8091031,110.248372 Z" id="Path-2" fill="#343434"></path>
                    <g id="Group-22" transform="translate(87.000000, 66.000000)">
                        <mask id="mask-2" fill="white">
                            <use xlink:href="#path-1"></use>
                        </mask>
                        <use id="Path-2" fill="#343434" xlink:href="#path-1"></use>
                        <path d="M-13.1335,12.763 C-13.1335,12.763 -21.1425,14.935 -23.8725,18.681 C-26.6035,22.427 -25.8075,28.748 -24.9615,33.27 C-24.1155,37.792 -21.1855,45.523 -19.6205,48.491 C-18.0555,51.46 -16.0065,53.242 -8.7685,49.174 C-1.5305,45.106 11.0895,36.317 14.8425,33.5 C18.5965,30.682 19.4905,28.234 20.1175,27.277 C20.7445,26.32 21.7165,26.422 21.4075,24.089 C21.0995,21.756 22.8945,21.882 19.2345,21.404 C15.5745,20.925 9.3465,21.123 10.3565,22.501 C11.3675,23.879 14.7145,24.799 12.6755,25.341 C10.6355,25.883 8.1035,25.286 8.5185,26.498 C8.9345,27.709 10.0305,28.715 8.8175,29.205 C7.6035,29.696 7.2765,30.661 8.2035,32.337 C9.1305,34.012 12.8565,34.793 6.3165,35.432 C-0.2245,36.071 -8.9865,40.996 -9.2485,37.015 C-9.5105,33.034 -10.5365,18.985 -13.1335,12.763" id="Fill-1" fill="#FFD2B8" mask="url(#mask-2)"></path>
                    </g>
                    <path d="M57.0749,16.2507 L56.6839,26.2757 C56.6839,26.2757 56.2929,43.8057 51.4859,48.0047 C46.6779,52.2037 34.3249,46.3617 33.7769,38.3897 C33.2289,30.4177 33.0469,20.8637 33.0469,20.8637 L34.8109,9.6667 C34.8109,9.6667 56.1109,5.9537 57.0749,16.2507" id="Fill-4" fill="#FFD2B8"></path>
                    <path d="M23.2724,49.8918 C23.2724,49.8918 29.5654,46.3898 30.2314,41.0558 C30.9154,41.1418 26.3584,20.8448 27.0654,20.8058 C39.3154,20.1398 44.7314,44.2228 44.7314,44.2228 C44.7314,44.2228 45.4404,50.9308 48.9964,51.7348 C49.3294,59.2348 43.6904,59.4308 38.8154,59.5558 C33.9404,59.6808 26.4804,55.8088 23.2724,49.8918" id="Fill-6" fill="#FFD2B8"></path>
                    <path d="M11.7833,139.7228 C11.7833,139.7228 10.7713,147.4788 12.3153,165.5558 C13.7803,182.7158 13.2193,202.3898 12.4683,211.8898 C11.7173,221.3898 13.1613,238.3898 15.9123,248.3898 C18.6633,258.3898 18.2873,263.3898 18.2873,263.3898 C18.2873,263.3898 20.1643,260.2228 25.6083,261.2228 C31.0513,262.2228 36.2553,265.6808 36.8183,263.5148 C37.3813,261.3478 34.7533,256.8478 34.1903,245.6808 C33.6273,234.5148 33.6273,213.6808 34.3773,211.1808 C35.1283,208.6808 37.2463,199.8898 37.8093,184.8898 C38.3723,169.8898 41.0593,161.5148 45.9403,168.1808 C50.8203,174.8478 54.4693,201.6518 56.1583,203.9858 C57.8483,206.3188 59.7323,213.9728 59.9403,222.8058 C60.2143,234.4868 64.4643,248.3898 65.5903,254.0558 C66.7163,259.7228 66.9043,263.3898 66.9043,263.3898 C66.9043,263.3898 73.6613,264.8898 76.6653,262.0558 C79.6683,259.2228 81.5653,258.8058 82.4843,257.5558 C83.0783,256.7468 82.6713,239.0558 81.1703,226.5558 C79.6683,214.0558 78.9173,208.5558 78.7293,202.2228 C78.5423,195.8898 76.6863,174.4368 75.3983,167.5558 C73.9513,159.8228 71.7733,154.1398 69.8983,146.2228 C68.1433,138.8108 67.2313,139.7228 67.2313,139.7228 C67.2313,139.7228 21.4223,142.8898 11.7833,139.7228" id="Fill-8" fill="#0475BA"></path>
                    <path d="M60.5651,53.8404 C55.2481,54.2944 60.0201,59.8074 59.4861,68.1334 C58.9521,76.4594 61.8901,83.6154 61.8901,83.6154 C61.8901,83.6154 64.1941,82.6614 67.5721,82.1784 C70.9511,81.6954 73.9821,81.7224 75.7321,80.9724 C75.9941,76.5934 74.8521,70.5514 73.9821,66.3064 C72.6481,59.8064 70.3601,53.0044 60.5651,53.8404" id="Fill-10" fill="#ED1A3A"></path>
                    <path d="M5.5478,60.2228 C8.2148,53.4258 23.9398,49.7228 23.9398,49.7228 C23.9398,49.7228 31.3348,58.7228 38.7298,58.7228 C46.1248,58.7228 48.0208,54.7228 49.3478,50.7228 C59.0648,52.9308 61.9788,52.5898 63.0648,56.0678 C67.4398,70.0728 63.3798,89.0558 63.1898,93.7228 C62.9998,98.3898 66.2238,131.3898 66.2238,131.3898 C66.2238,131.3898 67.8148,137.5558 69.2318,139.8898 C69.8128,140.8468 66.7258,140.9548 65.3968,141.0008 C60.6568,141.1678 52.7608,141.0558 39.8678,142.7228 C26.9738,144.3898 11.4578,140.2228 11.4578,140.2228 C11.4578,140.2228 17.6828,120.8898 15.5968,103.0558 C13.5118,85.2228 3.6518,65.0558 5.5478,60.2228" id="Fill-12" fill="#FFFFFF"></path>
                    <path d="M2.7758,83.8809 C2.3058,94.6189 3.3018,104.0539 4.0568,108.7529 C4.8118,113.4519 6.7278,112.6189 9.9308,112.8149 C16.8228,113.2369 29.4518,109.3819 37.1488,105.2419 C44.6988,101.1809 46.8398,101.2479 50.2678,100.6099 C53.6958,99.9719 57.1518,98.7849 57.4238,97.9509 C57.6968,97.1169 57.9628,95.3599 57.6138,93.8719 C57.2648,92.3839 56.7568,91.4729 56.1048,90.5699 C55.7998,90.1489 56.0228,89.6989 57.9838,88.5289 C60.0638,87.2889 62.4358,85.6059 61.9148,84.7059 C61.2498,83.5589 59.8568,84.7019 56.0298,86.6229 C54.0848,87.5989 52.4948,88.4419 51.4338,88.1019 C50.3728,87.7619 48.4508,89.5639 46.3378,91.4329 C44.2248,93.3029 44.2668,93.4619 37.7218,95.1019 C31.1778,96.7429 19.2898,99.6039 19.1058,98.5609 C18.9208,97.5169 19.9618,94.6739 20.4618,90.8649 C21.0408,86.4489 20.9378,82.6539 20.4778,82.3699 C20.0188,82.0849 2.7758,83.8809 2.7758,83.8809" id="Fill-14" fill="#FFD2B8"></path>
                    <path d="M4.7138,59.3344 C9.2098,53.6554 20.5148,55.0004 21.2378,66.3884 C21.9618,77.7764 22.5808,83.9844 22.5808,83.9844 C22.5808,83.9844 16.4028,83.8744 10.3608,85.2544 C4.8728,86.5074 1.0928,88.1414 1.0928,88.1414 C1.0928,88.1414 -3.0212,69.1044 4.7138,59.3344" id="Fill-16" fill="#ED1A3A"></path>
                    <path d="M24.6453,259.327 C19.7403,260.404 19.1803,260.994 19.9893,264.494 C20.7993,267.994 18.9773,271.327 16.1433,275.16 C13.3103,278.994 15.3343,281.16 23.4303,281.327 C31.5273,281.494 38.0053,282.827 36.3853,276.494 C34.7663,270.16 35.3733,268.827 35.9803,266.16 C36.5883,263.494 33.7543,257.327 24.6453,259.327" id="Fill-19" fill="#000002"></path>
                    <path d="M69.2915,262.3116 C66.7495,258.5446 65.7485,270.6606 69.1215,271.8266 C72.4955,272.9936 81.7725,273.3266 85.9885,275.6606 C90.2055,277.9936 99.9885,277.4936 102.1805,276.3266 C104.3735,275.1606 108.2535,272.3266 101.1685,270.1606 C94.0845,267.9936 88.5185,263.8266 85.9885,260.6606 C83.4585,257.4936 80.9285,254.9936 79.5795,258.3266 C78.2305,261.6606 69.9665,263.3116 69.2915,262.3116" id="Fill-22" fill="#000002"></path>
                    <path d="M56.986,14.4234 C57.154,14.7434 57.61,14.7314 57.725,14.3884 C58.087,13.3034 58.729,11.6314 59.724,9.8564 C61.175,7.2654 61.169,3.3054 60.384,0.8344 C60.178,0.1864 59.468,-0.1546 58.825,0.0674 C55.395,1.2504 52.369,2.1904 48.344,1.0324 C43.901,-0.2456 34.956,-0.1236 32.704,0.9104 C30.452,1.9454 27.775,5.2924 27.592,9.3694 C21.811,13.2644 22.176,17.2204 25.036,24.3404 C26.825,28.7934 28.4,32.7944 29.329,35.1674 C29.577,35.8024 30.504,35.7084 30.62,35.0354 L31.304,31.0594 C31.414,30.4214 31.199,29.7754 30.727,29.3324 C29.575,28.2514 27.562,26.0454 27.957,24.1574 C28.505,21.5404 32.643,22.4534 32.947,24.0354 C33.252,25.6184 33.982,23.0624 34.347,21.0534 C34.712,19.0454 37.268,17.2804 37.268,17.2804 C37.268,17.2804 36.112,9.5524 38.424,11.3774 C40.737,13.2034 42.806,15.6984 48.952,14.4204 C54.074,13.3554 56.153,12.8404 56.986,14.4234" id="Fill-24" fill="#000002"></path>
                    <path d="M33.8281,26.9961 C34.2851,29.1261 35.7561,34.9681 38.7891,37.4501 C40.7981,39.0931 42.6231,39.3361 44.8751,37.9371 C47.1261,36.5371 50.1081,36.5371 51.3251,37.8761 C52.5431,39.2151 54.6161,38.7951 54.8771,37.6191 C56.5021,30.3061 56.2521,33.4941 55.4821,40.4731 C55.2341,42.7171 55.3421,51.6291 46.3961,50.8991 C37.4511,50.1691 34.2251,45.3921 33.6781,40.2951 C33.1301,35.1981 33.0691,29.9651 33.1301,28.3831 C33.1911,26.8001 33.6741,26.2791 33.8281,26.9961" id="Fill-27" fill="#000002"></path>
                    <path d="M22.3151,50.308 C22.3151,50.308 33.3151,71.806 39.3151,76.306 C45.3151,80.806 48.3151,69.806 49.8151,62.806 C51.3151,55.806 52.1131,51.325 52.1131,51.325" id="Stroke-29" stroke="#979797"></path>
                    <path d="M46.4518503,79.4192399 C46.4518503,82.4120732 44.5600487,84.8384798 42.2259252,84.8384798 C39.8918016,84.8384798 38,82.4120732 38,79.4192399 C38,76.4264066 39.8918016,74 42.2259252,74 C44.5600487,74 46.4518503,76.4264066 46.4518503,79.4192399" id="Fill-31" fill="#0BC9F9"></path>
                    <polygon id="Fill-33" fill="#0BC9F9" points="38.1320602 79 38 88.8949656 41.1821726 88.2171628 42.7732588 81.6682517"></polygon>
                    <path d="M50.9474,21.6015 L58.2824,21.6015 C59.0094,21.6015 59.5574,22.2605 59.4254,22.9755 L58.7924,26.4015 C58.6004,27.4415 57.6934,28.1955 56.6364,28.1955 L52.8034,28.1955 C51.1194,28.1955 49.7084,26.9185 49.5424,25.2425 L49.3544,23.3605 C49.2614,22.4185 50.0004,21.6015 50.9474,21.6015 Z" id="Stroke-35" stroke="#453B41"></path>
                    <path d="M45.4384,21.6015 L38.1034,21.6015 C37.3764,21.6015 36.8284,22.2605 36.9604,22.9755 L37.5934,26.4015 C37.7854,27.4415 38.6924,28.1955 39.7494,28.1955 L43.5824,28.1955 C45.2664,28.1955 46.6774,26.9185 46.8434,25.2425 L47.0314,23.3605 C47.1244,22.4185 46.3854,21.6015 45.4384,21.6015 Z" id="Stroke-37" stroke="#453B41"></path>
                    <path d="M47.0392,23.4312 C47.0392,23.4312 47.7422,22.9002 48.2112,22.9002 C48.6802,22.9002 49.3982,23.2752 49.3982,23.2752" id="Stroke-39" stroke="#453B41"></path>
                </g>
            </g>
        </g>
    </g>
</svg>