<?xml version="1.0" encoding="UTF-8"?>
<svg width="124px" height="308px" viewBox="0 0 124 308" version="1.1" xmlns="http://www.w3.org/2000/svg" xmlns:xlink="http://www.w3.org/1999/xlink">
    <!-- Generator: Sketch 52.3 (67297) - http://www.bohemiancoding.com/sketch -->
    <title>sport land visual-man right</title>
    <desc>Created with Sketch.</desc>
    <defs>
        <path d="M32.2179994,0.803986711 C32.2179994,0.803986711 37.1779785,9.59594727 50.6433061,13.6916981 C58.8042044,9 58.0366547,0.803986711 58.0366547,0.803986711 C58.0366547,0.803986711 76.7109635,2.71452179 76.7109635,18.3770128 L76.7109635,46.5638558 L68.2312678,46.5638558 L68.2312678,84.0870418 C68.2312678,84.0870418 61.2767056,85.4233849 49.5581023,85.5196566 C37.8394991,85.6147822 21.833602,82.1765067 21.833602,82.1765067 L21.833602,32.5129094 L13.639726,41.1085981 C13.639726,41.1085981 7.92333419,40.2490293 4.30257162,35.9511849 C0.682952319,31.6533405 0.96877191,25.0633125 0.96877191,25.0633125 L15.5798694,7.51893875 C17.3519509,5.38950013 19.7562652,3.88468155 22.4418261,3.21994829 L32.2179994,0.803986711 Z" id="path-1"></path>
    </defs>
    <g id="Page-1" stroke="none" stroke-width="1" fill="none" fill-rule="evenodd">
        <g id="Sport-1440---Design" transform="translate(-1170.000000, -248.000000)">
            <g id="sport-land-visual" transform="translate(869.000000, 125.000000)">
                <g id="sport-land-visual-man-right" transform="translate(301.000000, 123.000000)">
                    <path d="M84.4367684,103.637874 C84.4367684,103.637874 86.2640696,128.126557 86.3610332,141.186804 C86.4568424,154.248204 85.1097416,151.367182 87.2267792,156.264919 C89.3426623,161.162656 90.8813815,168.268407 88.4769164,168.941414 C86.0724512,169.613268 86.4568424,174.222903 85.1097416,175.279662 C83.7637952,176.335268 79.2422925,177.392027 79.2422925,177.392027 L76.7408638,137.345826 L76.7408638,103.637874 L84.4367684,103.637874 Z" id="Fill-1" fill="#FFD2B8"></path>
                    <path d="M34.6818725,200 L39.168465,211.713695 C39.168465,211.713695 31.3674881,219.427592 32.0412614,237.33069 C32.7150346,255.23493 36.8636475,273.12085 36.8636475,273.12085 L47.8005371,273.125977 C47.8005371,273.125977 51.110316,233.141186 52.0730144,225.045595 C53.0368684,216.951145 55.4441921,210.285196 55.8290403,207.046502 C56.2150442,203.808951 55.0368331,198.912109 55.0368331,198.912109 L34.6818725,200 Z" id="Fill-3" fill="#FFD2B8"></path>
                    <path d="M68.2257961,185.727158 C75.2181897,189.253527 80.8927497,191.525928 85.249476,192.54436 C88.0141985,193.190643 93.0218117,193.415316 100.272316,193.218379 C100.272316,193.218379 94.8631226,201.358921 97.2320687,210.074295 C99.6010147,218.789669 103.843685,239.80403 103.843685,239.80403 L113.873631,239.742308 C113.873631,239.742308 118.194015,200.187742 119.156714,192.09215 C120.120568,183.997701 116.733611,180.044884 112.084686,176.114599 C107.435761,172.184314 77.7483178,165.168317 77.7483178,165.168317 L68.2257961,185.727158 Z" id="Fill-3-Copy" fill="#FFD2B8" transform="translate(93.773561, 202.486173) rotate(20.000000) translate(-93.773561, -202.486173) "></path>
                    <path d="M30.4821216,139.531561 C28.4342256,149.189789 27.0507243,158.878724 26.3316178,168.598366 C25.5267834,179.476731 26.3863438,190.385802 28.910299,201.325581 L56.7928433,199.44043 L58.0639817,170.428571 L84.1017039,190.358398 L106,168 L76.866691,141.433284 L30.4821216,139.531561 Z" id="Fill-17" fill="#EF1C3B"></path>
                    <path d="M48.4954596,40.8604651 C48.4954596,40.8604651 48.2601887,49.3147173 47.5532448,52.1486714 C46.8463008,54.9826256 40.8604651,57.8641903 40.8604651,57.8641903 C40.8604651,57.8641903 46.2807457,66.8852332 48.9671326,68.5856057 C51.6535196,70.2859783 67.2062862,73.2616302 68.4787853,70.8527691 C69.7512844,68.443908 67.25,57.8641903 67.25,57.8641903 C67.25,57.8641903 61.9749011,56.1162073 61.5507347,53.1405554 C61.1265683,50.1649035 62.5404562,46.7641585 62.5404562,46.7641585 L48.4954596,40.8604651 Z" id="Fill-21" fill="#FCBD98"></path>
                    <path d="M75.2951131,11.805962 C75.2951131,11.805962 80.0409153,27.7814622 76.3017984,38.3833851 C72.5626816,48.985308 65.6596966,50.2923943 59.1881482,47.6782216 C52.7165998,45.0640488 51.0391745,44.5795555 48.9291621,40.1749648 C46.8203002,35.7692123 43.2249955,20.2294076 43.9440564,16.7438439 C44.6631174,13.2582802 53.1480364,5.12529827 53.1480364,5.12529827 L64.7968235,4.98006645 L74.2884278,7.15854375 L75.2951131,11.805962 Z" id="Fill-23" fill="#FFD2B8"></path>
                    <path d="M47.0811202,27.1620824 C47.8472169,28.1286691 49.8572158,31.2233708 49.7607358,27.6459559 C49.6654045,24.0673807 49.5700731,20.5862764 49.5700731,20.5862764 C49.5700731,20.5862764 53.8772135,22.7143915 53.3982595,16.912551 C52.9193055,11.1107106 53.9725449,11.3033317 54.6421616,10.8206185 C55.312927,10.336745 57.5135886,12.0772972 61.7253976,13.7215388 C65.9372067,15.36462 71.3929179,15.1719989 72.63682,12.7537918 C73.8807222,10.336745 73.9772021,10.9169291 74.6468189,13.5277573 C75.3164356,16.1385855 75.508247,14.8819069 75.508247,12.5611707 C75.508247,10.2404345 76.9439604,4.92130714 72.7321514,4.92130714 C68.5214909,4.92130714 65.650064,0.377305674 59.7153988,0.0872136499 C53.7807335,-0.202878374 50.6221639,-0.0102572702 47.9425483,4.53490456 C42.2950258,4.05103107 38.0843653,11.8835157 37.892554,17.0088616 C37.7007427,22.1342075 38.5621707,35.8648432 48.3250224,41.8604651 C48.0378797,31.9973363 47.0811202,27.1620824 47.0811202,27.1620824" id="Fill-25" fill="#000002"></path>
                    <g id="Fill-31" transform="translate(9.000000, 57.000000)">
                        <mask id="mask-2" fill="white">
                            <use xlink:href="#path-1"></use>
                        </mask>
                        <use id="Fill-27" fill="#FFFFFF" xlink:href="#path-1"></use>
                        <path d="M6,31.0236816 C12.6092164,22.6009928 16.7226625,17.3260091 18.3403383,15.1987305 C20.766852,12.0078125 23.7919984,8.5789056 28.687018,8.13348167 C31.9503643,7.83653238 35.9656607,7.45870516 40.7329072,7" id="Path-17" stroke="#0497F4" stroke-width="2" mask="url(#mask-2)"></path>
                        <path d="M4,27.0236816 C10.1277669,19.3537171 14.0004883,14.4550955 15.6181641,12.3278168 C18.0446777,9.13689886 22.1120097,4.96889982 27.0070293,4.52347589 C30.2703756,4.2265266 34.1790016,3.7187013 38.7329072,3" id="Path-17-Copy" stroke="#0497F4" stroke-width="2" mask="url(#mask-2)"></path>
                        <rect id="Rectangle" fill="#0497F4" mask="url(#mask-2)" x="27" y="8" width="6" height="78"></rect>
                        <rect id="Rectangle-Copy-23" fill="#0497F4" mask="url(#mask-2)" x="52" y="-1" width="6" height="89"></rect>
                        <rect id="Rectangle-Copy-24" fill="#0497F4" mask="url(#mask-2)" x="64.25" y="10" width="4" height="78"></rect>
                        <path d="M56.3428919,7.34814453 C60.9922951,7.8303887 65.053241,8.87138472 68.5257295,10.4711326 C71.4637671,11.8246631 73.480884,12.1303896 74.7228863,14.2101877 C75.6827817,15.817583 76.1796898,18.8873424 76.2809207,21.7988776 C76.4357293,26.2513786 76.4357293,32.6517527 76.2809207,41" id="Path-3" stroke="#0497F4" stroke-width="2" mask="url(#mask-2)"></path>
                        <path d="M56,3 C61.1130885,3.53956573 65.5790328,4.70429887 69.3978327,6.49419945 C75.1260327,9.17905031 77.6710781,11.6957918 77.9264495,19.1684075 C78.0966972,24.1501514 78.0966972,31.3113007 77.9264495,40.6518555" id="Path-3" stroke="#0497F4" stroke-width="2" mask="url(#mask-2)"></path>
                        <rect id="Rectangle-Copy-22" fill="#0497F4" mask="url(#mask-2)" x="39" y="6" width="6" height="86"></rect>
                    </g>
                    <rect id="Rectangle" fill="#2499E1" x="77" y="98" width="9" height="6"></rect>
                    <path d="M10.1716309,82 C7.07770914,86.7529003 4.07031887,91.4138847 1.14946005,95.9829533 C0.10456808,97.5874774 -0.246370718,99.5548744 0.172491718,101.434162 C1.03625398,105.316785 3.3796195,112.082683 9.67614077,117.953572 C18.8005495,126.460796 24.0159529,131.769406 26.987612,132.638909 C29.9592712,133.508413 29.9592712,130.175316 32.0818849,130.899902 C34.2044986,131.624488 34.9120365,132.05924 36.0440971,133.073661 C37.1761578,134.088082 39.2987715,133.363496 39.2987715,132.05924 C39.2987715,130.754985 41.9874155,131.624488 42.4119382,129.595647 C42.836461,127.566805 42.5534458,129.450729 42.836461,127.566805 C43.1194761,125.68288 40.4308321,122.784534 38.8742487,122.204865 C37.3176654,121.625196 43.1194761,122.639617 42.836461,121.625196 C42.5534458,120.610775 41.4213852,119.30652 38.3082184,118.002264 C35.1950517,116.698009 34.2044986,117.71243 32.5064076,119.741272 C30.8083167,121.770114 28.4026878,125.248128 22.1763543,117.857347 C15.9500208,110.466566 12.4123313,100.757108 12.4123313,100.757108 C12.4123313,100.757108 17.7896194,98.8731835 18.92168,96.8443416 C17.1760425,95.3464766 13.9213682,94.6705825 12.2232772,90.6128987 C10.5251862,86.5552149 10.5502806,84.817627 10.1716309,82 Z" id="Fill-29" fill="#FFD2B8"></path>
                    <path d="M9.96345515,82 C9.88432345,86.6298004 11.0922523,90.2964671 13.5872417,93 C17.3297257,97.0552994 20.300293,97.7263184 22.6057129,98.3190918 C23.7702637,97.1965332 25.062816,95.7422689 26.48337,93.9562988 C22.6427445,93.5135462 19.571058,91.9588365 17.2683105,89.2921698 C14.9655631,86.6255031 13.6852859,82.7473515 13.4274789,77.6577148 L9.96345515,82 Z" id="Path-2" fill="#2499E1"></path>
                    <g id="ball" transform="translate(71.000000, 265.000000)">
                        <path d="M17.5,0 C27.1648276,0 35,7.83517241 35,17.5 C35,27.1648276 27.1648276,35 17.5,35 C7.83517241,35 0,27.1648276 0,17.5 C0,7.83517241 7.83517241,0 17.5,0" id="Fill-1" fill="#FFFFFF"></path>
                        <polygon id="Fill-3" fill="#31343C" points="21.9431897 22.9310345 13.8593966 22.9310345 11.0811207 15.6896552 17.7190517 10.862069 24.3569828 15.6896552"></polygon>
                        <path d="M13.1823276,0.597413793 L11.6755172,2.7637931 L17.7190517,6.63793103 L23.1500862,2.485 L21.7826724,0.529827586 C20.4460345,0.193706897 19.0484483,0.0114655172 17.6098276,0.0024137931 C16.0788793,0.0120689655 14.5956034,0.219051724 13.1823276,0.597413793" id="Fill-5" fill="#31343C"></path>
                        <path d="M29.5647414,7.24137931 L28.5811207,13.8793103 L34.6198276,17.5464655 L34.9837069,16.8518966 C34.8575862,13.4007759 33.7339655,10.2055172 31.890431,7.54551724 L29.5647414,7.24137931 Z" id="Fill-7" fill="#31343C"></path>
                        <path d="M30.2725862,29.4567241 L30.3914655,26.5541379 L23.7535345,26.5517241 L20.8612069,32.9512931 L23.3631034,33.990431 C26.0218966,33.0448276 28.3825862,31.4746552 30.2725862,29.4567241" id="Fill-9" fill="#31343C"></path>
                        <path d="M12.2880172,26.5517241 L5.04663793,26.5541379 L5.17577586,29.6968966 C7.05491379,31.6291379 9.37577586,33.1275 11.9766379,34.0308621 L14.5768966,32.9512931 L12.2880172,26.5517241 Z" id="Fill-11" fill="#31343C"></path>
                        <path d="M6.85698276,13.8793103 L5.87336207,7.24137931 L3.3062931,7.57689655 C1.54422414,10.1312931 0.444137931,13.1756897 0.252241379,16.4650862 L0.81887931,17.5464655 L6.85698276,13.8793103 Z" id="Fill-13" fill="#31343C"></path>
                    </g>
                    <g id="Group-45" transform="translate(54.000000, 297.000000)" fill="#31343C">
                        <rect id="Rectangle" x="0" y="1" width="2" height="3" rx="1"></rect>
                        <rect id="Rectangle-Copy-30" x="6" y="1" width="2" height="3" rx="1"></rect>
                        <rect id="Rectangle-Copy-31" x="12" y="0" width="2" height="3" rx="1"></rect>
                    </g>
                    <ellipse id="Oval-Copy-3" fill="#000000" opacity="0.099999994" cx="78" cy="297.5" rx="44" ry="10.5"></ellipse>
                    <path d="M33.9073486,221 C31.7343878,225.477946 30.6479074,230.026286 30.6479074,234.64502 C30.6479074,241.57312 33.4375459,256.438207 35.0187729,263.535265 C36.0729243,268.266638 37.0057943,276.011393 37.8173828,286.769531 C38.0141245,288.09668 39.7272636,288.556478 42.9568,288.148926 C46.1863364,287.741374 47.5776895,286.781738 47.1308594,285.27002 C47.9101314,271.332194 48.6469783,260.786296 49.3414,253.632324 C50.3830326,242.901367 51.6766993,226.64088 52.8383496,222.136602 C45.2644759,222.359987 38.9541423,221.98112 33.9073486,221 Z" id="Path-16" fill="#FFFFFF"></path>
                    <path d="M63.1102077,291.780013 C67.0033428,292.15676 70.8330325,294.33599 70.9682061,295.881031 C71.1033797,297.426073 70.2075012,297.855505 64.4895927,298.722057 C60.6776536,299.299758 55.2682462,298.952477 48.2613705,297.680215 C39.0346576,299.647586 34.2615257,299.647586 33.9419749,297.680215 C33.4639473,294.729044 34.2748169,291.190467 35.3330796,289.421692 C36.3913424,287.652916 33.6552054,287.892297 42.1921607,287.14541 C50.7291161,286.398523 46.9449396,286.010823 46.9449396,286.010823 C52.9277433,288.839775 59.2169493,291.401856 63.1102077,291.780013 Z" id="Fill-51" fill="#31343C"></path>
                    <path d="M107.536431,268.928186 C111.065926,270.613743 113.919317,273.971381 113.517903,275.469477 C113.116489,276.967573 112.127764,277.064699 106.45831,275.923351 C100.788855,274.782004 95.4022723,272.132479 87.8092345,269.233572 C80.2161967,266.334666 77.550368,267.433465 78.1092698,264.496439 C78.6694307,261.559751 80.6416633,258.51191 82.2410619,257.211752 C83.8404606,255.911594 81.1874597,255.200724 89.465024,257.418691 C97.7425883,259.636657 94.3192268,257.978074 94.3192268,257.978074 C98.9736648,262.682658 104.007302,267.241262 107.536431,268.928186 Z" id="Fill-51-Copy" fill="#31343C"></path>
                    <path d="M102.80773,195.652352 C107.229561,198.259306 113.035532,200.757714 120.225641,203.147577 C118.243076,207.517468 111.785688,220.716149 107.300293,229.994141 C104.31003,236.179468 99.9539645,245.473643 94.2320974,257.876666 C94.1579924,259.386712 92.5369658,259.772402 89.3690175,259.033735 C86.2010693,258.295069 84.7414945,257.296334 84.9902932,256.037531 C87.7431119,246.101298 89.397273,238.828998 89.9527766,234.220632 C90.7860321,227.308083 92.1955105,213.737515 94.4594225,207.517468 C95.9686971,203.37077 98.7514662,199.415731 102.80773,195.652352 Z" id="Path-16" fill="#FFFFFF"></path>
                    <path d="M99.4928894,199.047729 C102.865979,200.915144 105.994861,202.519225 108.879536,203.859974 C111.764211,205.200722 114.898336,206.341451 118.281911,207.282158 L117.333984,209.280029 C113.920275,208.304195 110.636734,207.116295 107.483362,205.71633 C104.32999,204.316365 101.196834,202.690341 98.0838928,200.838257 L99.4928894,199.047729 Z" id="Path-18" fill="#0497F4"></path>
                    <path d="M32.2891846,224.865662 C35.68868,225.322408 38.9730632,225.687419 42.142334,225.960693 C45.3116048,226.233968 48.6468709,226.233968 52.1481323,225.960693 L51.8702393,228.182617 C48.3756104,228.419637 44.9072876,228.419637 41.465271,228.182617 C38.0232544,227.945597 34.7457275,227.563253 31.6326904,227.035583 L32.2891846,224.865662 Z" id="Path-18" fill="#0497F4"></path>
                </g>
            </g>
        </g>
    </g>
</svg>