<?xml version="1.0" encoding="UTF-8"?>
<svg width="258px" height="171px" viewBox="0 0 258 171" version="1.1" xmlns="http://www.w3.org/2000/svg" xmlns:xlink="http://www.w3.org/1999/xlink">
    <!-- Generator: Sketch 52.3 (67297) - http://www.bohemiancoding.com/sketch -->
    <title>sport land-IT solutions-icon 6</title>
    <desc>Created with Sketch.</desc>
    <defs>
        <linearGradient x1="1.20662332%" y1="2.14292466%" x2="90.267142%" y2="79.7543246%" id="linearGradient-1">
            <stop stop-color="#0497F4" offset="0%"></stop>
            <stop stop-color="#0BCBF9" offset="100%"></stop>
        </linearGradient>
    </defs>
    <g id="Page-1" stroke="none" stroke-width="1" fill="none" fill-rule="evenodd">
        <g id="Sport-1440---Design" transform="translate(-530.000000, -4096.000000)">
            <g id="Group-26" transform="translate(479.000000, 3967.000000)">
                <g id="sport-land-IT-solutions-icon-6" transform="translate(51.000000, 129.000000)">
                    <rect id="Rectangle" fill="url(#linearGradient-1)" x="138" y="11" width="120" height="200" rx="20"></rect>
                    <rect id="Rectangle" fill="url(#linearGradient-1)" opacity="0.199999988" x="145" y="0" width="106" height="211" rx="20"></rect>
                    <path d="M176.131933,26 C176.8404,29.9790164 180.317406,33 184.5,33 L212.5,33 C216.682594,33 220.1596,29.9790164 220.868067,26 L231,26 C238.179702,26 244,31.8202983 244,39 L244,185 C244,192.179702 238.179702,198 231,198 L165,198 C157.820298,198 152,192.179702 152,185 L152,39 C152,31.8202983 157.820298,26 165,26 L176.131933,26 Z" id="Combined-Shape" fill="#98E5FC"></path>
                    <g id="Group-28" transform="translate(0.000000, 33.000000)">
                        <path d="M118,28 C118,43.4636364 105.463636,56 90,56 C74.5363636,56 62,43.4636364 62,28 C62,12.5363636 74.5363636,0 90,0 C105.463636,0 118,12.5363636 118,28" id="Fill-16" fill="#98E5FC" opacity="0.5"></path>
                        <path d="M56,73 C56,88.4636364 43.4636364,101 28,101 C12.5363636,101 0,88.4636364 0,73 C0,57.5363636 12.5363636,45 28,45 C43.4636364,45 56,57.5363636 56,73" id="Fill-16-Copy-3" fill="#98E5FC" opacity="0.5"></path>
                        <path d="M149,95 C149,110.463636 136.463636,123 121,123 C105.536364,123 93,110.463636 93,95 C93,79.5363636 105.536364,67 121,67 C136.463636,67 149,79.5363636 149,95" id="Fill-16-Copy-5" fill="#98E5FC" opacity="0.5"></path>
                        <path d="M107,28 C107,37.3886364 99.3886364,45 90,45 C80.6113636,45 73,37.3886364 73,28 C73,18.6113636 80.6113636,11 90,11 C99.3886364,11 107,18.6113636 107,28" id="Fill-16" fill="#98E5FC" opacity="0.5"></path>
                        <path d="M45,73 C45,82.3886364 37.3886364,90 28,90 C18.6113636,90 11,82.3886364 11,73 C11,63.6113636 18.6113636,56 28,56 C37.3886364,56 45,63.6113636 45,73" id="Fill-16-Copy-4" fill="#98E5FC" opacity="0.5"></path>
                        <path d="M138,95 C138,104.388636 130.388636,112 121,112 C111.611364,112 104,104.388636 104,95 C104,85.6113636 111.611364,78 121,78 C130.388636,78 138,85.6113636 138,95" id="Fill-16-Copy-6" fill="#98E5FC" opacity="0.5"></path>
                        <path d="M96,28 C96,31.3136364 93.3136364,34 90,34 C86.6863636,34 84,31.3136364 84,28 C84,24.6863636 86.6863636,22 90,22 C93.3136364,22 96,24.6863636 96,28" id="Fill-16" fill="#EF1C3B"></path>
                        <path d="M34,73 C34,76.3136364 31.3136364,79 28,79 C24.6863636,79 22,76.3136364 22,73 C22,69.6863636 24.6863636,67 28,67 C31.3136364,67 34,69.6863636 34,73" id="Fill-16-Copy" fill="#EF1C3B"></path>
                        <path d="M127,95 C127,98.3136364 124.313636,101 121,101 C117.686364,101 115,98.3136364 115,95 C115,91.6863636 117.686364,89 121,89 C124.313636,89 127,91.6863636 127,95" id="Fill-16-Copy-2" fill="#EF1C3B"></path>
                    </g>
                    <g id="Group-27" transform="translate(23.000000, 90.000000)"></g>
                    <g id="diagram" transform="translate(162.000000, 82.000000)">
                        <path d="M46.3289009,22.254 C45.1347198,22.254 44.1224353,23.0285652 43.7517457,24.1057391 L33.0429095,24.1057391 L26.8168319,4.42747826 C26.6704957,3.96508696 26.2347198,3.66052174 25.7567026,3.6716087 C25.2756681,3.6866087 24.8627371,4.02182609 24.7452802,4.49247826 L16.3808405,37.9896522 L11.1922629,6.464 C11.1101509,5.96508696 10.6978664,5.58921739 10.1972198,5.55726087 C9.69549569,5.5263913 9.24075431,5.84595652 9.09700431,6.33052174 L3.86704741,23.9607391 L1.07760776,23.9607391 C0.482564655,23.9607391 2.15517241e-05,24.4474783 2.15517241e-05,25.0476957 C2.15517241e-05,25.6481304 0.482564655,26.1346522 1.07760776,26.1346522 L4.6694181,26.1346522 C5.14571121,26.1346522 5.56532328,25.8196522 5.70174569,25.3594348 L9.82803879,11.4492174 L15.1006681,43.4866087 C15.1842888,43.9946522 15.6097198,44.3735652 16.1194181,44.3948696 C16.1345043,44.3955217 16.149375,44.3957391 16.1642457,44.3957391 C16.6558405,44.3957391 17.0877371,44.0587826 17.2088578,43.5744348 L25.912306,8.719 L31.2291164,25.5231304 C31.3717888,25.974 31.786875,26.2798696 32.255625,26.2798696 L43.9092888,26.2798696 C44.3648922,27.1596522 45.2765302,27.7611739 46.3289009,27.7611739 C47.8366595,27.7611739 49.0588578,26.5283478 49.0588578,25.0076957 C49.0588578,23.4868261 47.8366595,22.254 46.3289009,22.254" id="Fill-1" fill="#EF1C3B"></path>
                        <path d="M60.69625,49.8045652 C60.3348276,49.8045652 59.9820259,49.621087 59.7781466,49.2882609 C59.4656466,48.7773913 59.6227586,48.1076087 60.1292241,47.7923913 C68.0565948,42.8571739 72.7891379,34.3093478 72.7891379,24.9267391 C72.7891379,15.5071739 68.0285776,6.94173913 60.0546552,2.01391304 C59.5471121,1.70043478 59.3878448,1.03108696 59.6988362,0.519130435 C60.0096121,0.00739130435 60.6729741,-0.15326087 61.1807328,0.160217391 C65.3050862,2.70913043 68.7550862,6.29326087 71.1574569,10.5247826 C73.6348276,14.8891304 74.9443103,19.8691304 74.9443103,24.9267391 C74.9443103,35.068913 69.8290086,44.3082609 61.2611207,49.6423913 C61.0848276,49.7521739 60.8893534,49.8045652 60.69625,49.8045652" id="Fill-3" fill="url(#linearGradient-1)"></path>
                        <path d="M54.2947198,39.3203261 C53.9332974,39.3203261 53.5804957,39.1368478 53.3766164,38.8040217 C53.0641164,38.2931522 53.2212284,37.6233696 53.727694,37.3081522 C58.0212284,34.6348913 60.5845905,30.006413 60.5845905,24.9266304 C60.5845905,19.826413 58.0063578,15.1881522 53.6876078,12.5192391 C53.1802802,12.2053261 53.0207974,11.5361957 53.3317888,11.0244565 C53.6427802,10.5127174 54.3059267,10.3520652 54.8136853,10.6655435 C59.7766164,13.7327174 62.7397629,19.0640217 62.7397629,24.9266304 C62.7397629,30.7657609 59.7938578,36.0859783 54.8595905,39.1581522 C54.6832974,39.2679348 54.4878233,39.3203261 54.2947198,39.3203261" id="Fill-5" fill="url(#linearGradient-1)"></path>
                    </g>
                </g>
            </g>
        </g>
    </g>
</svg>