<?xml version="1.0" encoding="UTF-8"?>
<svg width="193px" height="555px" viewBox="0 0 193 555" version="1.1" xmlns="http://www.w3.org/2000/svg" xmlns:xlink="http://www.w3.org/1999/xlink">
    <!-- Generator: Sketch 52.3 (67297) - http://www.bohemiancoding.com/sketch -->
    <title>startup graph unselected (2)</title>
    <desc>Created with Sketch.</desc>
    <g id="Design" stroke="none" stroke-width="1" fill="none" fill-rule="evenodd">
        <g id="Group-27" transform="translate(-192.000000, -3.000000)">
            <g id="startup-graph-unselected-(2)" transform="translate(192.000000, 0.000000)">
                <rect id="Rectangle-Copy-29" fill="#EAF8FF" x="6" y="31" width="185" height="527" rx="24"></rect>
                <text id="Angel-Round" font-family="Lato-Bold, Lato" font-size="16" font-weight="bold" letter-spacing="1" fill="#232323">
                    <tspan x="36" y="16">ANGEL ROUN</tspan>
                    <tspan x="148.176" y="16">D</tspan>
                </text>
                <path d="M193,412.64 L193,433.265 C183.296429,446.763571 173.789286,458.902857 164.407857,469.635714 C143.916429,493.081429 124.100714,509.691429 103.845,520.416429 C83.5578571,531.149286 62.1235714,536.374286 38.3242857,536.374286 C23.8907143,536.374286 11.4292857,535.250714 0.5,533.270714 L0.5,521.296429 C11.2407143,523.394286 23.655,524.588571 38.3242857,524.588571 C82.01,524.588571 117.037143,505.841429 155.427143,461.912143 C167.645,447.934286 180.114286,431.465714 193,412.64" id="Fill-3" fill="#0497F4"></path>
            </g>
        </g>
    </g>
</svg>