<?xml version="1.0" encoding="UTF-8"?>
<svg width="44px" height="35px" viewBox="0 0 44 35" version="1.1" xmlns="http://www.w3.org/2000/svg" xmlns:xlink="http://www.w3.org/1999/xlink">
    <!-- Generator: Sketch 52.3 (67297) - http://www.bohemiancoding.com/sketch -->
    <title>testimonials quote icon red</title>
    <desc>Created with Sketch.</desc>
    <g id="Page-1" stroke="none" stroke-width="1" fill="none" fill-rule="evenodd">
        <g id="Index---V1" transform="translate(-779.000000, -3740.000000)" fill="#EF1C3B">
            <g id="Group-9-Copy" transform="translate(149.000000, 3700.000000)">
                <path d="M672.872068,40 L672.872068,46.8141593 C669.974374,47.7433628 667.594126,49.3952802 665.731323,51.8731563 C663.86852,54.1445428 662.937118,56.6224189 663.040607,59.100295 C663.558052,58.7905605 664.385965,58.6873156 665.627834,58.6873156 C667.801104,58.6873156 669.663907,59.4100295 671.319732,60.9587021 C672.768579,62.5073746 673.596491,64.4690265 673.596491,66.8436578 C673.596491,69.2182891 672.768579,71.179941 671.112754,72.7286136 C669.456929,74.1740413 667.387148,75 664.90341,75 C662.005717,75 659.728957,73.7610619 657.866154,71.4896755 C656.003351,69.2182891 655.175439,66.2241888 655.175439,62.7138643 C655.175439,57.1386431 656.727774,52.3893805 659.935935,48.3628319 C663.040607,44.2330383 667.387148,41.4454277 672.872068,40 Z M647.696629,40 L647.696629,46.8141593 C644.798936,47.7433628 642.522176,49.3952802 640.659373,51.8731563 C638.693081,54.1445428 637.761679,56.6224189 637.865169,59.100295 C638.382614,58.7905605 639.210526,58.6873156 640.452395,58.6873156 C642.625665,58.6873156 644.488468,59.4100295 646.040804,60.9587021 C647.59314,62.5073746 648.421053,64.4690265 648.421053,66.8436578 C648.421053,69.2182891 647.59314,71.179941 646.040804,72.7286136 C644.384979,74.1740413 642.211709,75 639.727972,75 C636.830278,75 634.553519,73.7610619 632.794205,71.4896755 C630.931402,69.2182891 630,66.2241888 630,62.7138643 C630,57.1386431 631.552336,52.3893805 634.760497,48.3628319 C637.865169,44.2330383 642.211709,41.4454277 647.696629,40 Z" id="testimonials-quote-icon-red" transform="translate(651.798246, 57.500000) scale(-1, -1) translate(-651.798246, -57.500000) "></path>
            </g>
        </g>
    </g>
</svg>