<?xml version="1.0" encoding="UTF-8"?>
<svg width="3200px" height="915px" viewBox="0 0 3200 915" version="1.1" xmlns="http://www.w3.org/2000/svg" xmlns:xlink="http://www.w3.org/1999/xlink">
    <!-- Generator: Sketch 52.3 (67297) - http://www.bohemiancoding.com/sketch -->
    <title>Combined Shape</title>
    <desc>Created with Sketch.</desc>
    <g id="Design" stroke="none" stroke-width="1" fill="none" fill-rule="evenodd" opacity="0.199999988">
        <path d="M1600,0 L3200,0 L3200,781.6204 C3066.80109,748.879386 2952.83671,765.589484 2858.10684,831.750693 C2655.88097,972.989235 2455.52983,906.276503 2363.26148,837.887646 C2176.0075,699.095889 2054.05342,649.658335 1928.39738,757.228411 C1844.62668,828.941795 1735.16089,837.072458 1600,781.6204 C1466.80109,748.879386 1352.83671,765.589484 1258.10684,831.750693 C1055.88097,972.989235 855.529828,906.276503 763.261481,837.887646 C576.007498,699.095889 454.053421,649.658335 328.397376,757.228411 C244.626679,828.941795 135.160887,837.072458 0,781.6204 L0,3.63797881e-12 L1600,3.63797881e-12 Z" id="Combined-Shape" fill="#06A4F5" fill-rule="nonzero"></path>
    </g>
</svg>