<?xml version="1.0" encoding="UTF-8"?>
<svg width="120px" height="376px" viewBox="0 0 120 376" version="1.1" xmlns="http://www.w3.org/2000/svg" xmlns:xlink="http://www.w3.org/1999/xlink">
    <!-- Generator: Sketch 52.3 (67297) - http://www.bohemiancoding.com/sketch -->
    <title>3 steps-arrow 2 (320)</title>
    <desc>Created with Sketch.</desc>
    <g id="Page-1" stroke="none" stroke-width="1" fill="none" fill-rule="evenodd">
        <g id="Sport-320" transform="translate(-12.000000, -1687.000000)" fill="#EF1C3B" fill-rule="nonzero">
            <g id="3-steps-arrow-2-(320)" transform="translate(72.500000, 1875.500000) scale(-1, 1) translate(-72.500000, -1875.500000) translate(13.000000, 1688.000000)">
                <path d="M7.08339107,4.34258879 L6.91660893,3.35659502 C8.58253528,3.07480137 10.2293825,2.80844892 11.8571517,2.55753817 L12.0094963,3.5458656 C10.3865765,3.79602885 8.74454105,4.06160307 7.08339107,4.34258879 Z M16.9482884,2.82400461 L16.8116022,1.83339021 C18.488439,1.60201821 20.1440261,1.38785102 21.778365,1.19088951 L21.8980137,2.18370579 C20.2694005,2.37997729 18.6194916,2.59340994 16.9482884,2.82400461 Z M26.8658232,1.63152251 L26.7648116,0.636637259 C28.4507691,0.465460443 30.1128619,0.313615889 31.7510922,0.181105027 L31.8317154,1.17784967 C30.2003405,1.30980604 28.5450424,1.46102984 26.8658232,1.63152251 Z M36.8128962,0.830471122 L36.754753,-0.167837136 C38.4505459,-0.266602924 40.1191711,-0.343345198 41.7606314,-0.398061467 L41.7939468,0.601383421 C40.160838,0.655821303 38.5004868,0.732183039 36.8128962,0.830471122 Z M46.7884469,0.502742963 L46.7827677,-0.49724091 C48.4864522,-0.506916621 50.1587745,-0.491144175 51.7997382,-0.449919107 L51.7746236,0.549765473 C50.14402,0.508800677 48.48196,0.493125018 46.7884469,0.502742963 Z M56.7399457,0.758429593 L56.7994687,-0.239797343 C58.5037017,-0.138176149 60.1712928,-0.00678454199 61.8022459,0.154385602 L61.7039053,1.14953842 C60.0860056,0.989658212 58.4313511,0.859285897 56.7399457,0.758429593 Z M66.6576487,1.7477176 L66.7999636,0.75789617 C68.495608,1.00169318 70.1476859,1.2809452 71.7561995,1.59566693 L71.5641805,2.57705814 C69.9723492,2.26560046 68.3368379,1.98914871 66.6576487,1.7477176 Z M76.4268027,3.67207473 L76.6752783,2.70343656 C78.3386652,3.13012945 79.94972,3.59949003 81.508435,4.11154245 L81.1963349,5.0615917 C79.6588644,4.55651825 78.0690228,4.09333788 76.4268027,3.67207473 Z M85.8811376,6.79733066 L86.2650227,5.87394976 C87.8511212,6.53335203 89.3744497,7.24399209 90.8349719,8.00589708 L90.3724568,8.89250847 C88.937878,8.14413732 87.4407838,7.44573566 85.8811376,6.79733066 Z M94.6137385,11.368781 L95.1599997,10.5311661 C96.5930588,11.4657537 97.953167,12.459787 99.240245,13.5132599 L98.6068599,14.2870966 C97.3478567,13.2566029 96.0168427,12.2838331 94.6137385,11.368781 Z M102.264038,17.6508611 L102.983038,16.9558504 C104.159311,18.1727234 105.257132,19.4531047 106.276428,20.7969174 L105.479694,21.401248 C104.484501,20.0892116 103.412641,18.8391082 102.264038,17.6508611 Z M108.243531,25.5372016 L109.106382,25.0317421 C109.176501,25.1517311 109.176501,25.1517311 109.246167,25.2721142 C110.043852,26.6540458 110.791628,28.0509892 111.491385,29.4658994 L110.595015,29.9092074 C109.904761,28.5135129 109.167092,27.1354485 108.380107,25.772055 C108.312045,25.6544439 108.312045,25.6544439 108.243531,25.5372016 Z M112.643594,34.4384259 L113.56843,34.058061 C114.206018,35.6083205 114.79017,37.18063 115.321836,38.7764371 L114.373105,39.0925209 C113.848648,37.5183528 113.272462,35.9674838 112.643594,34.4384259 Z M115.785527,43.8606118 L116.753237,43.6085457 C117.172926,45.219778 117.543311,46.8557252 117.86521,48.5180319 L116.883448,48.7081461 C116.565551,47.0665056 116.199843,45.4512182 115.785527,43.8606118 Z M117.685115,53.6426593 L118.676468,53.5114399 C118.893601,55.1518593 119.067269,56.8186934 119.198097,58.5137338 L118.201063,58.5906877 C118.071622,56.9136216 117.899838,55.2648775 117.685115,53.6426593 Z M118.45837,63.5386465 L119.457986,63.510923 C119.503647,65.1572969 119.512006,66.8310126 119.483473,68.5339748 L118.483614,68.5172227 C118.5119,66.8289251 118.503615,65.170031 118.45837,63.5386465 Z M118.298673,73.5104567 L119.297077,73.5669232 C119.204377,75.2059922 119.080029,76.8728978 118.924238,78.5696606 L117.928427,78.4782288 C118.083162,76.7929652 118.206641,75.137709 118.298673,73.5104567 Z M117.391614,83.456555 L118.384108,83.57885 C118.183594,85.2061325 117.956149,86.861666 117.701784,88.5476333 L116.712974,88.3984499 C116.966007,86.7213135 117.192222,85.0747369 117.391614,83.456555 Z M115.904998,93.3441005 L116.889967,93.5168313 C116.607287,95.1287673 116.301522,96.7694067 115.972493,98.441168 L114.991316,98.248057 C115.319029,96.582984 115.623529,94.9491327 115.904998,93.3441005 Z M113.990079,103.09983 L114.967634,103.31051 C114.62319,104.908725 114.258595,106.536426 113.873463,108.196404 L112.899337,107.970396 C113.283303,106.315445 113.646754,104.692849 113.990079,103.09983 Z M111.741867,112.806571 L112.71284,113.045758 C112.322193,114.631583 111.913563,116.248178 111.486304,117.898933 L110.518206,117.648363 C110.944499,116.001339 111.352171,114.388533 111.741867,112.806571 Z M109.239419,122.485688 L110.204939,122.746016 C109.780388,124.32062 109.3393,125.928068 108.880655,127.572751 L107.917408,127.304135 C108.375296,125.662164 108.815627,124.057476 109.239419,122.485688 Z M106.553838,132.123935 L107.515102,132.399565 C107.066788,133.963066 106.60261,135.562743 106.120925,137.204826 L105.161357,136.923348 C105.642482,135.283175 106.106095,133.685444 106.553838,132.123935 Z M103.740682,141.720258 L104.698821,142.006563 C104.235267,143.557876 103.755503,145.15099 103.256627,146.796025 L102.299664,146.505815 C102.798155,144.862049 103.277528,143.270235 103.740682,141.720258 Z M100.840628,151.288031 L101.79665,151.581325 C101.326072,153.115226 100.837208,154.701309 100.323745,156.360487 L99.3684438,156.064851 C99.881674,154.406428 100.370298,152.821122 100.840628,151.288031 Z M97.8840604,160.845602 L98.8388406,161.142914 C98.3740224,162.635617 97.8854236,164.201193 97.3492081,165.916402 L96.3947619,165.618019 C96.930872,163.903147 97.4193613,162.337922 97.8840604,160.845602 Z M94.8966231,170.405131 L95.851346,170.702627 C95.3542628,172.297863 94.9027396,173.891353 94.4959485,175.483834 L93.5270601,175.236336 C93.9381419,173.627058 94.394389,172.016897 94.8966231,170.405131 Z M92.4127151,180.141406 L93.3934767,180.336616 C93.0684512,181.969594 92.7896817,183.602224 92.5562499,185.235556 L91.5663088,185.094076 C91.8023072,183.442786 92.0841358,181.792239 92.4127151,180.141406 Z M90.9912022,190.093538 L91.9874086,190.180559 C91.8430042,191.83367 91.7439771,193.488528 91.689381,195.146633 L90.6899226,195.113724 C90.7451108,193.437639 90.8452176,191.764739 90.9912022,190.093538 Z M90.6583923,200.163204 L91.6581898,200.143079 C91.691448,201.79534 91.7674849,203.452289 91.8854445,205.116117 L90.8879482,205.186836 C90.768804,203.506298 90.6919931,201.832484 90.6583923,200.163204 Z M91.3617783,210.168945 L92.3547845,210.050882 C92.5488994,211.683554 92.781864,213.324912 93.0531167,214.978283 L92.0663088,215.140179 C91.7926941,213.472411 91.5576565,211.816447 91.3617783,210.168945 Z M92.9848502,220.097453 L93.9642914,219.895723 C94.294526,221.499085 94.6592183,223.116858 95.0585199,224.75458 L94.08698,224.991456 C93.6848786,223.34225 93.317548,221.712774 92.9848502,220.097453 Z M95.3581281,229.861264 L96.3217044,229.59383 C96.7572512,231.163126 97.2234009,232.755877 97.7221972,234.383018 L96.7661112,234.676104 C96.2647622,233.040636 95.7961158,231.439354 95.3581281,229.861264 Z M98.2872046,239.445126 L99.2366837,239.131296 C99.7408079,240.656501 100.273874,242.221724 100.845089,243.85756 L99.9009915,244.187227 C99.3280054,242.546317 98.7931527,240.97585 98.2872046,239.445126 Z M101.574416,248.886311 L102.514681,248.545866 C103.028817,249.965839 103.566799,251.434624 104.231507,253.236612 L103.293302,253.582693 C102.627958,251.778981 102.089329,250.30843 101.574416,248.886311 Z M105.031404,258.285945 L105.969544,257.939687 C106.6519,259.788445 107.183961,261.239934 107.690276,262.637713 L106.750057,262.978286 C106.24454,261.582707 105.713121,260.13297 105.031404,258.285945 Z M108.424193,267.685594 L109.36871,267.357129 C109.947224,269.020678 110.477051,270.590761 110.969137,272.10432 L110.018135,272.413508 C109.528252,270.906721 109.000574,269.343006 108.424193,267.685594 Z M111.498889,277.188817 L112.458398,276.90714 C112.946702,278.570502 113.387804,280.179066 113.783967,281.747251 L112.814426,281.992181 C112.421473,280.4367 111.983717,278.840339 111.498889,277.188817 Z M113.92215,286.85339 L114.902455,286.655899 C115.242665,288.344633 115.526089,289.994087 115.752237,291.612376 L114.76186,291.750776 C114.538544,290.152744 114.258498,288.522952 113.92215,286.85339 Z M115.276814,296.690263 L116.274578,296.62342 C116.388993,298.331295 116.433358,300.009466 116.405801,301.663207 L115.40594,301.646546 C115.433025,300.021109 115.389396,298.370768 115.276814,296.690263 Z M115.093867,306.605263 L116.087768,306.715542 C115.901088,308.398016 115.63327,310.058632 115.281838,311.700865 L114.303978,311.491606 C114.648358,309.88233 114.910848,308.254745 115.093867,306.605263 Z M113.020411,316.274676 L113.971663,316.583092 C113.457032,318.170378 112.858455,319.742736 112.173545,321.302361 L111.257943,320.900274 C111.929424,319.371231 112.516099,317.830135 113.020411,316.274676 Z M109.052232,325.335809 L109.926024,325.822108 C109.705522,326.21831 109.479123,326.613799 109.246771,327.008629 C108.622132,328.069927 107.98027,329.109533 107.319518,330.130173 L106.480075,329.586726 C107.13309,328.578035 107.767497,327.550505 108.384945,326.501424 C108.613222,326.113519 108.835637,325.724991 109.052232,325.335809 Z M103.651993,333.679667 L104.457,334.272932 C103.457183,335.629593 102.420628,336.948229 101.34734,338.228827 L100.580924,337.586483 C101.640812,336.321873 102.664499,335.019606 103.651993,333.679667 Z M97.2667077,341.294589 L97.9906264,341.984474 C96.8329582,343.199252 95.6379197,344.375264 94.4055224,345.512497 L93.7273596,344.777585 C94.9440244,343.65487 96.1238033,342.493875 97.2667077,341.294589 Z M89.9521081,348.042729 L90.5816723,348.819678 C89.2830825,349.87193 87.9476706,350.885892 86.5754508,351.861558 L85.9959802,351.046565 C87.3511388,350.08303 88.6698434,349.081753 89.9521081,348.042729 Z M81.8722913,353.792111 L82.400987,354.640922 C80.9878619,355.52111 79.5395641,356.36465 78.0561063,357.171544 L77.5782881,356.293086 C79.0445609,355.495539 80.475891,354.661881 81.8722913,353.792111 Z M73.1225158,358.554763 L73.550005,359.458784 C72.0494767,360.168347 70.516147,360.843694 68.9500251,361.484828 L68.5711657,360.559373 C70.1209699,359.92492 71.6380836,359.256715 73.1225158,358.554763 Z M63.8972928,362.335606 L64.2292068,363.278915 C62.6673248,363.828481 61.0753695,364.346662 59.4533462,364.833464 L59.1658928,363.875669 C60.7730688,363.393323 62.3502004,362.879967 63.8972928,362.335606 Z M54.3306193,365.210385 L54.5757167,366.179884 C52.9723117,366.585238 51.3415594,366.962055 49.683462,367.310341 L49.4778969,366.331697 C51.1228357,365.986176 52.7404091,365.612404 54.3306193,365.210385 Z M44.6573754,367.249962 L44.8264418,368.235567 C43.1979453,368.514912 41.5446646,368.768405 39.8666003,368.99605 L39.7321726,368.005126 C41.3987312,367.779042 43.0404652,367.52732 44.6573754,367.249962 Z M34.7705779,368.594952 L34.8726145,369.589733 C33.22954,369.758266 31.5640151,369.903393 29.8760395,370.025118 L29.8041138,369.027708 C31.4821004,368.906704 33.1375885,368.762451 34.7705779,368.594952 Z M24.8180111,369.315946 L24.8618378,370.314985 C23.2119331,370.387364 21.541647,370.438506 19.8509787,370.468412 L19.8332926,369.468568 C21.5152952,369.438816 23.1768683,369.387941 24.8180111,369.315946 Z M14.8278024,369.495172 L14.8210308,370.495149 C13.1694867,370.483965 11.4993755,370.453444 9.81069639,370.403586 L9.84020804,369.404022 C11.5213515,369.453657 13.1838832,369.48404 14.8278024,369.495172 Z" id="Path-20"></path>
                <path d="M0.796627079,374.721476 L0.0896785322,374.347012 C0.772270677,373.058352 1.38191707,371.841932 1.98686448,370.57829 C2.21309906,370.10572 2.42578001,369.653993 2.68585803,369.095871 C2.75851552,368.93995 2.84030278,368.764077 2.98433073,368.454328 C3.09745617,368.211192 3.17761693,368.039512 3.25325769,367.878652 C4.14812654,365.975595 4.45639488,365.48745 5.0474415,365.48641 C5.65208203,365.485347 5.93533839,365.976923 6.72839274,367.890924 C6.79495737,368.051574 6.86542549,368.223019 6.96481959,368.465811 C7.09134167,368.775094 7.16318229,368.950684 7.22702121,369.106354 C7.45551722,369.663537 7.64262945,370.11448 7.84210924,370.586201 C8.37548729,371.84751 8.91622277,373.061562 9.52580091,374.347575 L8.80290067,374.690234 C8.18816745,373.393345 7.64286911,372.169049 7.10528245,370.897788 C6.90450892,370.423007 6.71635138,369.969545 6.48684357,369.409895 C6.42285861,369.253869 6.35086445,369.077904 6.22445666,368.7689 C6.12545584,368.527068 6.05536346,368.356538 5.98932315,368.197153 C5.41734636,366.816712 5.11171079,366.286299 5.0488486,366.286409 C4.97239249,366.286544 4.63389199,366.822562 3.97721335,368.219076 C3.9021302,368.37875 3.82236951,368.549573 3.70966301,368.791808 C3.56575683,369.101296 3.48380597,369.277521 3.41099292,369.433776 C3.14983763,369.994209 2.9360454,370.448297 2.70843921,370.923731 C2.09903705,372.196679 1.48459389,373.42267 0.796627079,374.721476 Z" id="Path-21" transform="translate(4.807740, 370.103943) rotate(-91.000000) translate(-4.807740, -370.103943) "></path>
            </g>
        </g>
    </g>
</svg>