<?xml version="1.0" encoding="UTF-8"?>
<svg width="153px" height="162px" viewBox="0 0 153 162" version="1.1" xmlns="http://www.w3.org/2000/svg" xmlns:xlink="http://www.w3.org/1999/xlink">
    <!-- Generator: Sketch 52.3 (67297) - http://www.bohemiancoding.com/sketch -->
    <title>3steps-step 3 icon</title>
    <desc>Created with Sketch.</desc>
    <defs>
        <linearGradient x1="1.20662332%" y1="2.14292466%" x2="90.267142%" y2="79.7543246%" id="linearGradient-1">
            <stop stop-color="#0497F4" offset="0%"></stop>
            <stop stop-color="#0BCBF9" offset="100%"></stop>
        </linearGradient>
        <polygon id="path-2" points="0.424046536 0.187433047 57.8274906 0.187433047 57.8274906 19.2953199 0.424046536 19.2953199"></polygon>
    </defs>
    <g id="Page-1" stroke="none" stroke-width="1" fill="none" fill-rule="evenodd">
        <g id="Sport-1440---Design" transform="translate(-1174.000000, -2343.000000)">
            <g id="3-step-icon-3" transform="translate(1051.000000, 2237.000000)">
                <g id="3steps-step-3-icon" transform="translate(123.000000, 106.000000)">
                    <path d="M117.816237,160.877072 L10.4411519,160.877072 C5.68483096,160.877072 1.8291839,157.021425 1.8291839,152.265104 L1.8291839,16.9193688 C1.8291839,12.1630479 5.68483096,8.30740079 10.4411519,8.30740079 L117.816237,8.30740079 C122.572558,8.30740079 126.428205,12.1630479 126.428205,16.9193688 L126.428205,152.265104 C126.428205,157.021425 122.572558,160.877072 117.816237,160.877072 Z" id="Stroke-1"></path>
                    <polygon id="Stroke-6" fill="#EF1C3B" fill-rule="nonzero" points="35.2824135 38.3052275 36.696627 39.7194411 25.7528561 50.663212 19.209615 44.1199709 20.6238285 42.7057574 25.7528561 47.8347849"></polygon>
                    <polygon id="Stroke-8" fill="#EF1C3B" fill-rule="nonzero" points="35.2824135 70.0684113 36.696627 71.4826248 25.7528561 82.4263958 19.209615 75.8831547 20.6238285 74.4689411 25.7528561 79.5979687"></polygon>
                    <polygon id="Stroke-10" fill="#EF1C3B" fill-rule="nonzero" points="35.2824135 99.5354573 36.696627 100.949671 25.7528561 111.893442 19.209615 105.350201 20.6238285 103.935987 25.7528561 109.065015"></polygon>
                    <polygon id="Stroke-12" fill="#EF1C3B" fill-rule="nonzero" points="35.2824135 126.897697 36.696627 128.31191 25.7528561 139.255681 19.209615 132.71244 20.6238285 131.298226 25.7528561 136.427254"></polygon>
                    <g id="Group-19">
                        <path d="M117.816237,159.877072 C122.020273,159.877072 125.428205,156.46914 125.428205,152.265104 L125.428205,16.9193688 C125.428205,12.7153326 122.020273,9.30740079 117.816237,9.30740079 L10.4411519,9.30740079 C6.23711571,9.30740079 2.8291839,12.7153326 2.8291839,16.9193688 L2.8291839,152.265104 C2.8291839,156.46914 6.23711571,159.877072 10.4411519,159.877072 L117.816237,159.877072 Z M117.816237,161.877072 L10.4411519,161.877072 C5.13254621,161.877072 0.829183897,157.57371 0.829183897,152.265104 L0.829183897,16.9193688 C0.829183897,11.6107631 5.13254621,7.30740079 10.4411519,7.30740079 L117.816237,7.30740079 C123.124842,7.30740079 127.428205,11.6107631 127.428205,16.9193688 L127.428205,152.265104 C127.428205,157.57371 123.124842,161.877072 117.816237,161.877072 Z" id="Stroke-1" fill="#0497F4" fill-rule="nonzero"></path>
                        <path d="M87.459962,20.9372367 L87.459962,21.9372367 L40.7974267,21.9372367 C37.2792351,21.9372367 34.427387,19.0850843 34.427387,15.5663676 L34.427387,7.19988712 C34.427387,3.68173716 37.2794976,0.829018027 40.7974267,0.829018027 L87.459962,0.829018027 C90.9780015,0.829018027 93.8308311,3.6818476 93.8308311,7.19988712 L93.8308311,15.5663676 C93.8308311,19.0849739 90.9782641,21.9372367 87.459962,21.9372367 L87.459962,20.9372367 Z M87.459962,20.9372367 L87.459962,19.9372367 C89.8737423,19.9372367 91.8308311,17.9803566 91.8308311,15.5663676 L91.8308311,7.19988712 C91.8308311,4.7864171 89.873432,2.82901803 87.459962,2.82901803 L40.7974267,2.82901803 C38.3841626,2.82901803 36.427387,4.78621116 36.427387,7.19988712 L36.427387,15.5663676 C36.427387,17.9805626 38.3838523,19.9372367 40.7974267,19.9372367 L87.459962,19.9372367 L87.459962,20.9372367 Z" id="Fill-3" fill="url(#linearGradient-1)" fill-rule="nonzero"></path>
                        <polygon id="Stroke-6" fill="#EF1C3B" fill-rule="nonzero" points="25.7528561 47.8347849 35.2824135 38.3052275 36.696627 39.7194411 25.7528561 50.663212 19.209615 44.1199709 20.6238285 42.7057574"></polygon>
                        <polygon id="Stroke-8" fill="#EF1C3B" fill-rule="nonzero" points="35.2824135 70.0684113 36.696627 71.4826248 25.7528561 82.4263958 19.209615 75.8831547 20.6238285 74.4689411 25.7528561 79.5979687"></polygon>
                        <polygon id="Stroke-10" fill="#EF1C3B" fill-rule="nonzero" points="35.2824135 99.5354573 36.696627 100.949671 25.7528561 111.893442 19.209615 105.350201 20.6238285 103.935987 25.7528561 109.065015"></polygon>
                        <polygon id="Stroke-12" fill="#EF1C3B" fill-rule="nonzero" points="35.2824135 126.897697 36.696627 128.31191 25.7528561 139.255681 19.209615 132.71244 20.6238285 131.298226 25.7528561 136.427254"></polygon>
                        <polygon id="Fill-14" fill="url(#linearGradient-1)" points="45.0247653 46.4330473 106.063249 46.4330473 106.063249 44.4330473 45.0247653 44.4330473"></polygon>
                        <polygon id="Fill-16" fill="url(#linearGradient-1)" points="45.0247653 76.8569141 106.063249 76.8569141 106.063249 74.8569141 45.0247653 74.8569141"></polygon>
                        <polygon id="Fill-17" fill="url(#linearGradient-1)" points="45.0247653 105.175891 106.063249 105.175891 106.063249 103.175891 45.0247653 103.175891"></polygon>
                        <polygon id="Fill-18" fill="url(#linearGradient-1)" points="45.0247653 133.494868 106.063249 133.494868 106.063249 131.494868 45.0247653 131.494868"></polygon>
                    </g>
                    <g id="Group-5" transform="translate(35.003340, 1.641917)">
                        <mask id="mask-3" fill="white">
                            <use xlink:href="#path-2"></use>
                        </mask>
                        <g id="Clip-4"></g>
                        <path d="M52.4566216,19.2953199 L5.79408628,19.2953199 C2.82833151,19.2953199 0.424046536,16.891035 0.424046536,13.9244508 L0.424046536,5.5579704 C0.424046536,2.59221563 2.82833151,0.187101307 5.79408628,0.187101307 L52.4566216,0.187101307 C55.4223763,0.187101307 57.8274906,2.59221563 57.8274906,5.5579704 L57.8274906,13.9244508 C57.8274906,16.891035 55.4223763,19.2953199 52.4566216,19.2953199" id="Fill-3" fill="url(#linearGradient-1)" mask="url(#mask-3)"></path>
                    </g>
                    <g id="timer" transform="translate(97.000000, 79.000000)">
                        <rect id="Rectangle" fill="#EF1C3B" x="25.0944968" y="1.7027027" width="6.00275913" height="7.23648649"></rect>
                        <polygon id="Rectangle-Copy-47" fill="#EF1C3B" transform="translate(48.789726, 15.862147) rotate(45.000000) translate(-48.789726, -15.862147) " points="44.1088404 10.7524923 53.5077264 10.7184711 53.4706124 20.9718013 44.0717264 21.0058225"></polygon>
                        <ellipse id="Oval" stroke="url(#linearGradient-1)" stroke-width="6.328125" fill="#FFFFFF" fill-rule="nonzero" cx="28.0958763" cy="35.3310811" rx="24.7058906" ry="24.5048564"></ellipse>
                        <ellipse id="Oval" fill="#EF1C3B" cx="28.0958763" cy="35.7567568" rx="6.43152764" ry="6.38513514"></ellipse>
                        <rect id="Rectangle" fill="#EF1C3B" x="26.8095708" y="18.3040541" width="2.57261105" height="17.4527027"></rect>
                        <rect id="Rectangle" fill="#EF1C3B" x="21.867194" y="0" width="12.8630553" height="5.10810811"></rect>
                    </g>
                </g>
            </g>
        </g>
    </g>
</svg>