<?xml version="1.0" encoding="UTF-8"?>
<svg width="384px" height="347px" viewBox="0 0 384 347" version="1.1" xmlns="http://www.w3.org/2000/svg" xmlns:xlink="http://www.w3.org/1999/xlink">
    <!-- Generator: Sketch 52.3 (67297) - http://www.bohemiancoding.com/sketch -->
    <title>about us slider-sport</title>
    <desc>Created with Sketch.</desc>
    <defs>
        <linearGradient x1="1.20662332%" y1="2.14292466%" x2="90.267142%" y2="79.7543246%" id="linearGradient-1">
            <stop stop-color="#0497F4" offset="0%"></stop>
            <stop stop-color="#0BCBF9" offset="100%"></stop>
        </linearGradient>
        <path d="M63.5,224 L59.37,219.891304 C44.03,206.391304 34,197.293478 34,186.141304 C34,177.043478 41.08,170 50.225,170 C55.24,170 60.255,172.347826 63.5,176.163043 C66.745,172.347826 71.76,170 76.775,170 C85.92,170 93,177.043478 93,186.141304 C93,197.293478 82.97,206.391304 67.63,219.891304 L63.5,224 Z" id="path-2"></path>
        <filter x="-84.7%" y="-74.1%" width="269.5%" height="285.2%" filterUnits="objectBoundingBox" id="filter-3">
            <feOffset dx="0" dy="10" in="SourceAlpha" result="shadowOffsetOuter1"></feOffset>
            <feGaussianBlur stdDeviation="15" in="shadowOffsetOuter1" result="shadowBlurOuter1"></feGaussianBlur>
            <feColorMatrix values="0 0 0 0 0   0 0 0 0 0   0 0 0 0 0  0 0 0 0.15 0" type="matrix" in="shadowBlurOuter1"></feColorMatrix>
        </filter>
        <filter x="-60.7%" y="-53.6%" width="221.4%" height="207.2%" filterUnits="objectBoundingBox" id="filter-4">
            <feOffset dx="0" dy="8" in="SourceAlpha" result="shadowOffsetOuter1"></feOffset>
            <feGaussianBlur stdDeviation="11.5" in="shadowOffsetOuter1" result="shadowBlurOuter1"></feGaussianBlur>
            <feColorMatrix values="0 0 0 0 0   0 0 0 0 0   0 0 0 0 0  0 0 0 0.15 0" type="matrix" in="shadowBlurOuter1" result="shadowMatrixOuter1"></feColorMatrix>
            <feMerge>
                <feMergeNode in="shadowMatrixOuter1"></feMergeNode>
                <feMergeNode in="SourceGraphic"></feMergeNode>
            </feMerge>
        </filter>
        <filter x="-91.7%" y="-71.3%" width="283.3%" height="242.6%" filterUnits="objectBoundingBox" id="filter-5">
            <feOffset dx="0" dy="10" in="SourceAlpha" result="shadowOffsetOuter1"></feOffset>
            <feGaussianBlur stdDeviation="15" in="shadowOffsetOuter1" result="shadowBlurOuter1"></feGaussianBlur>
            <feColorMatrix values="0 0 0 0 0   0 0 0 0 0   0 0 0 0 0  0 0 0 0.15 0" type="matrix" in="shadowBlurOuter1" result="shadowMatrixOuter1"></feColorMatrix>
            <feMerge>
                <feMergeNode in="shadowMatrixOuter1"></feMergeNode>
                <feMergeNode in="SourceGraphic"></feMergeNode>
            </feMerge>
        </filter>
        <circle id="path-6" cx="281" cy="61" r="18"></circle>
        <filter x="-138.9%" y="-111.1%" width="377.8%" height="377.8%" filterUnits="objectBoundingBox" id="filter-7">
            <feOffset dx="0" dy="10" in="SourceAlpha" result="shadowOffsetOuter1"></feOffset>
            <feGaussianBlur stdDeviation="15" in="shadowOffsetOuter1" result="shadowBlurOuter1"></feGaussianBlur>
            <feColorMatrix values="0 0 0 0 0   0 0 0 0 0   0 0 0 0 0  0 0 0 0.15 0" type="matrix" in="shadowBlurOuter1"></feColorMatrix>
        </filter>
        <circle id="path-8" cx="243" cy="70" r="5"></circle>
        <filter x="-500.0%" y="-400.0%" width="1100.0%" height="1100.0%" filterUnits="objectBoundingBox" id="filter-9">
            <feOffset dx="0" dy="10" in="SourceAlpha" result="shadowOffsetOuter1"></feOffset>
            <feGaussianBlur stdDeviation="15" in="shadowOffsetOuter1" result="shadowBlurOuter1"></feGaussianBlur>
            <feColorMatrix values="0 0 0 0 0   0 0 0 0 0   0 0 0 0 0  0 0 0 0.15 0" type="matrix" in="shadowBlurOuter1"></feColorMatrix>
        </filter>
        <polygon id="path-10" points="0.102644444 0.519101852 29.9372705 0.519101852 29.9372705 14 0.102644444 14"></polygon>
        <polygon id="path-12" points="0.5332 0.519101852 30.3673704 0.519101852 30.3673704 14 0.5332 14"></polygon>
    </defs>
    <g id="Page-1" stroke="none" stroke-width="1" fill="none" fill-rule="evenodd">
        <g id="Index---V1" transform="translate(-212.000000, -968.000000)">
            <g id="about-us-slider-sport" transform="translate(234.000000, 976.000000)">
                <path d="M128.302471,339 C161.619612,339 237.429725,312.026594 281.487226,274.864243 C337.03445,228.01035 357.132,165.115199 346.084641,121.396538 C326.275025,43.002249 248.386993,49.2438118 171.142904,32.0645911 C93.8988153,14.8853705 9,40.7116862 9,120.251257 C9,199.790828 52.9794382,339 128.302471,339 Z" id="Oval-Copy-15" fill="url(#linearGradient-1)" fill-rule="nonzero" opacity="0.169270833"></path>
                <g id="Path" fill-rule="nonzero">
                    <use fill="black" fill-opacity="1" filter="url(#filter-3)" xlink:href="#path-2"></use>
                    <use fill="#EF1C3B" xlink:href="#path-2"></use>
                </g>
                <g id="Group-23" filter="url(#filter-4)" transform="translate(0.000000, 7.000000)">
                    <rect id="Rectangle" fill="#EF1C3B" x="43.7834914" y="3" width="10.4732824" height="12.75"></rect>
                    <polygon id="Rectangle-Copy-47" fill="#EF1C3B" transform="translate(85.125619, 27.947592) rotate(45.000000) translate(-85.125619, -27.947592) " points="76.8746645 18.9485462 93.3536722 18.9695385 93.3765729 36.9466378 76.8975653 36.9256454"></polygon>
                    <ellipse id="Oval" stroke="#84E0FC" stroke-width="11.25" fill="#FFFFFF" fill-rule="nonzero" cx="49.0201326" cy="62.25" rx="43.0009542" ry="43.125"></ellipse>
                    <ellipse id="Oval" fill="#EF1C3B" cx="49.0201326" cy="63" rx="11.221374" ry="11.25"></ellipse>
                    <rect id="Rectangle" fill="#EF1C3B" x="46.7758578" y="32.25" width="4.48854962" height="30.75"></rect>
                    <rect id="Rectangle" fill="#EF1C3B" x="38.1526718" y="0" width="22.4427481" height="9"></rect>
                </g>
                <g id="Group-24" filter="url(#filter-5)" transform="translate(248.000000, 160.000000)">
                    <rect id="Rectangle" stroke="#5DD2F8" stroke-width="8" fill="#FFFFFF" x="4" y="13" width="76" height="91" rx="8"></rect>
                    <rect id="Rectangle" fill="#343434" x="21" y="0" width="42" height="14" rx="4"></rect>
                    <polyline id="Path-7" stroke="#EF1C3B" stroke-width="5" points="18 33 25.8150431 41 37.7981093 28"></polyline>
                    <polyline id="Path-7" stroke="#EF1C3B" stroke-width="5" points="18 54 25.8150431 62 37.7981093 49"></polyline>
                    <polyline id="Path-7" stroke="#EF1C3B" stroke-width="5" points="18 75 25.8150431 83 37.7981093 70"></polyline>
                </g>
                <g id="Oval" fill-rule="nonzero">
                    <use fill="black" fill-opacity="1" filter="url(#filter-7)" xlink:href="#path-6"></use>
                    <use fill="url(#linearGradient-1)" xlink:href="#path-6"></use>
                </g>
                <g id="Oval-Copy-19" fill-rule="nonzero">
                    <use fill="black" fill-opacity="1" filter="url(#filter-9)" xlink:href="#path-8"></use>
                    <use fill="url(#linearGradient-1)" xlink:href="#path-8"></use>
                </g>
                <g id="Group-31" transform="translate(110.000000, 0.000000)">
                    <path d="M85.7215577,109 C85.7215577,109 87.5549498,133.570312 87.6522366,146.674094 C87.7483652,159.779031 86.3967741,156.888406 88.5208684,161.802469 C90.6438045,166.716531 92.1876528,173.845969 89.7751727,174.521219 C87.3626927,175.195312 87.7483652,179.820312 86.3967741,180.880594 C85.0463412,181.939719 80.5097668,183 80.5097668,183 L78,142.820312 L78,109 L85.7215577,109 Z" id="Fill-1" fill="#FFD2B8"></path>
                    <path d="M35.9402805,203.241777 L40.1923599,213.752741 C40.1923599,213.752741 32.3653797,221.492351 33.0413989,239.455125 C33.7174181,257.419046 37.7758523,275 37.7758523,275 L48.7916021,275 C48.7916021,275 52.1740171,235.251657 53.1399244,227.12908 C54.1069913,219.007649 56.5223394,212.31948 56.9084704,209.06999 C57.295761,205.821647 56.3286941,202 56.3286941,202 L35.9402805,203.241777 Z" id="Fill-3" fill="#FFD2B8"></path>
                    <path d="M61,202 C61,202 64.8947416,210.975823 68.4985169,214.160793 C64.4086292,222.943201 64.505618,228.15497 67.8160899,241.860762 C71.1873258,255.814403 76.5801348,274 76.5801348,274 L87,273.613171 C87,273.613171 83.494382,227.769299 82.9101124,218.407805 C82.3258427,209.045153 82.1306966,202.964756 82.1306966,202.964756 L61,202 Z" id="Fill-5" fill="#FFD2B8"></path>
                    <g id="Group-9" transform="translate(37.000000, 287.000000)">
                        <mask id="mask-11" fill="white">
                            <use xlink:href="#path-10"></use>
                        </mask>
                        <g id="Clip-8"></g>
                        <path d="M2.1119037,1.67708333 C0.318496296,1.82291667 0.102644444,5.25058333 0.102644444,7.21875 L0.102644444,12.6215833 C0.102644444,13.3834167 0.710014815,14.0005833 1.45860741,14.0005833 L28.3953111,14.0005833 C29.076163,14.0005833 29.6663111,13.5059167 29.7765333,12.8234167 C30.0555333,11.10375 30.2162741,9.07258333 28.0887556,7.21875 C25.0748667,4.59375 17.3972,4.22975 16.7507926,2.91608333 C16.1055333,1.60475 15.6026444,0.72975 13.8804222,0.583916667 C12.1582,0.438083333 11.4406074,0.583916667 11.4406074,0.583916667 C11.4406074,0.583916667 10.0605333,3.02341667 7.42208889,3.35358333 C2.18308889,4.01041667 2.1119037,1.67708333 2.1119037,1.67708333" id="Fill-7" fill="#31343C" mask="url(#mask-11)"></path>
                    </g>
                    <path d="M38.9170526,289.199695 L38,275 L49,275 L48.3249474,288.131698 C48.3249474,288.131698 46.9493684,290.552644 44.2723158,290.837596 C41.5952632,291.122547 39.9302105,291.265023 38.9170526,289.199695" id="Fill-10" fill="#FFFFFF"></path>
                    <g id="Group-14" transform="translate(77.000000, 287.000000)">
                        <mask id="mask-13" fill="white">
                            <use xlink:href="#path-12"></use>
                        </mask>
                        <g id="Clip-13"></g>
                        <path d="M2.54245926,1.67708333 C0.749051852,1.82291667 0.5332,5.25058333 0.5332,7.21875 L0.5332,12.6215833 C0.5332,13.3834167 1.14057037,14.0005833 1.88916296,14.0005833 L28.8258667,14.0005833 C29.5067185,14.0005833 30.0968667,13.5059167 30.2070889,12.8234167 C30.4860889,11.10375 30.6468296,9.07258333 28.5193111,7.21875 C25.5054222,4.59375 17.8277556,4.22975 17.1813481,2.91608333 C16.5360889,1.60475 16.0332,0.72975 14.3109778,0.583916667 C12.5887556,0.438083333 11.871163,0.583916667 11.871163,0.583916667 C11.871163,0.583916667 10.4910889,3.02341667 7.85264444,3.35358333 C2.61364444,4.01041667 2.54245926,1.67708333 2.54245926,1.67708333" id="Fill-12" fill="#31343C" mask="url(#mask-13)"></path>
                    </g>
                    <path d="M79.9830759,289.219354 L77,274.351736 L86.7804495,274 L89,288.163018 C89,288.163018 87.681587,290.557529 85.1157866,290.839369 C82.5499861,291.121209 80.9541293,291.262129 79.9830759,289.219354" id="Fill-15" fill="#FFFFFF"></path>
                    <polygon id="Fill-17" fill="#2499E1" points="31.587062 141 27 203 83 203 78.1262466 142.908062"></polygon>
                    <polygon id="Fill-19" fill="#0475BA" points="56 202.855172 59.4716981 161 64 203"></polygon>
                    <path d="M49.6604445,42 C49.6604445,42 49.4243893,50.482433 48.7150889,53.3258337 C48.0057885,56.1692344 42,59.0604042 42,59.0604042 C42,59.0604042 47.4383482,68.1115173 50.1336897,69.8175578 C52.8290313,71.5235982 68.4336405,74.5091689 69.7103812,72.0922783 C70.987122,69.6753877 67.6290101,59.0604042 67.6290101,59.0604042 C67.6290101,59.0604042 63.1848174,57.3065947 62.7592371,54.3210239 C62.3336569,51.3354532 63.7522577,47.9233723 63.7522577,47.9233723 L49.6604445,42 Z" id="Fill-21" fill="#FCBD98"></path>
                    <path d="M76.5494301,12.8486485 C76.5494301,12.8486485 81.3110516,28.8774004 77.5594711,39.514663 C73.8078905,50.1519257 66.8818956,51.463369 60.3887754,48.8404823 C53.8956552,46.2175956 52.2126384,45.7314873 50.0955926,41.3122147 C47.9797012,36.8917764 44.3724122,21.3001723 45.09387,17.80299 C45.8153278,14.3058078 54.3285298,6.14571593 54.3285298,6.14571593 L66.0161462,6 L75.5393892,8.18573889 L76.5494301,12.8486485 Z" id="Fill-23" fill="#FFD2B8"></path>
                    <path d="M48.2413906,27.2526227 C49.010041,28.2224313 51.0267398,31.3274487 50.9299383,27.7381091 C50.8342891,24.1476053 50.73864,20.6548974 50.73864,20.6548974 C50.73864,20.6548974 55.0601375,22.7901062 54.579587,16.9689262 C54.0990365,11.1477463 55.1557867,11.3410094 55.8276355,10.8566873 C56.5006367,10.3712009 58.7086339,12.1175548 62.9344823,13.7672772 C67.1603307,15.4158354 72.6342276,15.2225722 73.8822761,12.7963044 C75.1303246,10.3712009 75.2271261,10.9533189 75.8989749,13.5728498 C76.5708238,16.1923808 76.7632744,14.9315132 76.7632744,12.6030413 C76.7632744,10.2745693 78.2037736,4.9377115 73.9779252,4.9377115 C69.7532292,4.9377115 66.8722309,0.37856336 60.9177834,0.0875043621 C54.963336,-0.203554635 51.7942378,-0.0102914611 49.1056901,4.55002091 C43.4393425,4.0645345 39.2146465,11.9231274 39.0221958,17.0655578 C38.8297451,22.2079882 39.6940446,35.9843926 49.4894391,42 C49.2013393,32.1039941 48.2413906,27.2526227 48.2413906,27.2526227" id="Fill-25" fill="#000002"></path>
                    <path d="M42.3587261,59 C42.3587261,59 47.329064,69.6366873 60.0434017,69.6366873 C72.7565923,69.6366873 68.2634435,59 68.2634435,59 C68.2634435,59 87,60.9169035 87,76.6316028 L87,108.925735 L78.4920387,108.925735 L78.4920387,142.560665 C78.4920387,142.560665 71.5142946,143.901463 59.7566293,143.998055 C47.9989641,144.093498 31.939714,140.643762 31.939714,140.643762 L31.939714,90.8146191 L23.7185251,99.4389601 C23.7185251,99.4389601 17.9830786,98.576526 14.3502469,94.2643555 C10.7185622,89.952185 11.0053345,83.3401902 11.0053345,83.3401902 L25.6651356,65.7373352 C27.443124,63.6007985 29.8554528,62.0909638 32.5499655,61.4240148 L42.3587261,59 Z" id="Fill-27" fill="#FFFFFF"></path>
                    <path d="M10.465996,83 L1.15329158,97.3062298 C0.10491664,98.9161024 -0.247191953,100.890057 0.173066691,102.775609 C1.03970816,106.671175 3.3908849,113.459626 9.70839457,119.350084 C18.863218,127.885665 24.096006,133.21197 27.0775707,134.084372 C30.0591354,134.956774 30.0591354,131.612567 32.1888245,132.339568 C34.3185136,133.06657 35.02841,133.502771 36.1642441,134.520573 C37.3000783,135.538376 39.4297674,134.811374 39.4297674,133.502771 C39.4297674,132.194168 42.1273735,133.06657 42.5533113,131.030965 C42.9792492,128.995361 42.6952906,130.885565 42.9792492,128.995361 C43.2632077,127.105156 40.5656015,124.19715 39.0038296,123.615548 C37.4420576,123.033947 43.2632077,124.051749 42.9792492,123.033947 C42.6952906,122.016145 41.5594564,120.707542 38.4359125,119.398938 C35.3123685,118.090335 34.3185136,119.108138 32.6147623,121.143743 C30.9110111,123.179347 28.4973635,126.668955 22.2502755,119.253538 C16.0031876,111.838121 12.4537058,102.096299 12.4537058,102.096299 C12.4537058,102.096299 17.8489181,100.206094 18.9847523,98.1704894 C17.233296,96.6676316 13.9677727,95.9894844 12.2640215,91.918275 C10.5602702,87.8470656 10.465996,83 10.465996,83" id="Fill-29" fill="#FFD2B8"></path>
                </g>
            </g>
        </g>
    </g>
</svg>