<?xml version="1.0" encoding="UTF-8"?>
<svg width="1600px" height="915px" viewBox="0 0 1600 915" version="1.1" xmlns="http://www.w3.org/2000/svg" xmlns:xlink="http://www.w3.org/1999/xlink">
    <!-- Generator: Sketch 52.3 (67297) - http://www.bohemiancoding.com/sketch -->
    <title>bg copy</title>
    <desc>Created with Sketch.</desc>
    <defs>
        <linearGradient x1="1.20662332%" y1="2.14292466%" x2="98.3392273%" y2="95.4933133%" id="linearGradient-1">
            <stop stop-color="#0497F4" offset="0%"></stop>
            <stop stop-color="#0BCBF9" offset="100%"></stop>
        </linearGradient>
        <linearGradient x1="1.20662332%" y1="2.14292466%" x2="90.267142%" y2="79.7543246%" id="linearGradient-2">
            <stop stop-color="#0497F4" offset="0%"></stop>
            <stop stop-color="#0BCBF9" offset="100%"></stop>
        </linearGradient>
    </defs>
    <g id="Page-1" stroke="none" stroke-width="1" fill="none" fill-rule="evenodd">
        <g id="Index---V1" fill-rule="nonzero">
            <g id="bg-copy" transform="translate(-1.000000, -1.000000)">
                <path d="M1,191 L1601,191 L1601,867 C1412.90706,825.874207 1285.90706,808.20754 1220,814 C1087.40645,825.653422 1052.97564,911.75646 879.213506,890.880971 C720.633255,871.829408 607.645424,712.573915 461,746 C371.7704,766.338829 218.437066,788.005495 1,811 L1,191 Z" id="Rectangle-Copy-2" fill-opacity="0.3" fill="url(#linearGradient-1)"></path>
                <path d="M0,78 L1600,78 L1600,769.59375 C1429.90722,822.342355 1303.24055,854.811105 1220,867 C1037.96568,893.655244 931.567692,835.614365 751.655351,814 C448.337692,777.559928 197.785908,811.559928 0,916 L0,78 Z" id="Rectangle-Copy" fill-opacity="0.5" fill="url(#linearGradient-1)"></path>
                <path d="M1,0 L1601,0 L1601,660.523458 C1437.65099,743.281224 1204.31766,766.440072 901,730 C754.201353,712.363858 540.788003,681.666413 404.216679,709 C307.14036,728.428999 172.7348,775.762332 1,851 L1,0 Z" id="Rectangle" fill="url(#linearGradient-2)"></path>
            </g>
        </g>
    </g>
</svg>