<?xml version="1.0" encoding="UTF-8"?>
<svg width="62px" height="27px" viewBox="0 0 62 27" version="1.1" xmlns="http://www.w3.org/2000/svg" xmlns:xlink="http://www.w3.org/1999/xlink">
    <!-- Generator: Sketch 52.3 (67297) - http://www.bohemiancoding.com/sketch -->
    <title>categories-rowing icon</title>
    <desc>Created with Sketch.</desc>
    <g id="Page-1" stroke="none" stroke-width="1" fill="none" fill-rule="evenodd">
        <g id="Sport-1440---Design" transform="translate(-172.000000, -3129.000000)" fill="#EF1C3B">
            <g id="categories-rowing-icon" transform="translate(172.000000, 3129.000000)">
                <path d="M42.1592,17.2864 L42.1812,17.2864 C42.4152,17.2864 42.6372,17.3744 42.7962,17.5254 L48.3702,23.0114 C48.7322,23.3564 48.7462,23.9324 48.4012,24.2954 C48.0552,24.6554 47.4802,24.6694 47.1302,24.3364 L41.5552,18.8494 C41.1932,18.5044 41.1802,17.9294 41.5242,17.5664 C41.6912,17.3914 41.9172,17.2924 42.1592,17.2864 M60.2742,14.2404 C58.1142,14.2404 56.1452,12.9634 55.2612,10.9854 C55.0992,10.6264 54.7422,10.3944 54.3472,10.3944 C53.9542,10.3944 53.5972,10.6264 53.4352,10.9854 C52.5492,12.9634 50.5802,14.2404 48.4202,14.2404 C46.2602,14.2404 44.2912,12.9634 43.4042,10.9854 C43.2432,10.6264 42.8862,10.3944 42.4922,10.3944 C42.0972,10.3944 41.7412,10.6264 41.5802,10.9854 C41.2662,11.6834 40.2372,12.9514 39.6142,13.4994 C39.4862,13.6124 39.4062,13.7544 39.3512,13.9034 L33.0032,7.2374 C36.0902,6.8734 38.5562,6.1504 39.8452,5.1874 L55.1422,5.1904 L45.6902,9.2694 C45.1832,9.4884 44.9502,10.0764 45.1692,10.5844 C45.3882,11.0924 45.9742,11.3224 46.4832,11.1054 L57.0822,6.5324 C57.8832,6.1864 58.3092,5.4164 58.1442,4.6164 C57.9702,3.7754 57.1972,3.1874 56.2632,3.1874 L39.4852,3.1874 C39.2302,3.1874 38.9852,3.2854 38.8002,3.4604 C37.9282,4.2814 35.1712,5.1104 31.2492,5.3954 L27.8462,1.8224 L27.8882,1.7894 C28.3242,1.4504 28.4032,0.8224 28.0632,0.3864 C27.7242,-0.0486 27.0972,-0.1296 26.6602,0.2114 L24.9722,1.5234 C24.5372,1.8624 24.4582,2.4904 24.7982,2.9274 C24.9952,3.1804 25.2902,3.3124 25.5882,3.3124 C25.8022,3.3124 26.0182,3.2444 26.2012,3.1014 L26.2602,3.0564 L28.5842,5.4974 C28.4902,5.4974 28.4002,5.5004 28.3052,5.5004 C22.8392,5.5004 18.8882,4.4734 17.8112,3.4594 C17.6262,3.2854 17.3812,3.1874 17.1262,3.1874 L7.4302,3.1874 C6.0762,3.1874 4.9742,4.1764 4.9742,5.3914 C4.9742,6.0714 5.3132,6.7024 5.9132,7.1284 L12.7662,11.8844 C12.9402,12.0054 13.1392,12.0624 13.3362,12.0624 C13.6522,12.0624 13.9642,11.9124 14.1582,11.6334 C14.4732,11.1794 14.3602,10.5564 13.9072,10.2414 L7.0622,5.4914 C6.9982,5.4454 6.9752,5.4024 6.9742,5.3914 C6.9742,5.3524 7.1262,5.1874 7.4302,5.1874 L16.7662,5.1874 C18.6602,6.6014 23.0922,7.5004 28.3052,7.5004 C29.0352,7.5004 29.7462,7.4814 30.4402,7.4464 L36.8352,14.1634 C34.1112,13.9754 32.2522,12.5524 31.5512,10.9854 C31.3892,10.6264 31.0322,10.3944 30.6382,10.3944 C30.2442,10.3944 29.8872,10.6264 29.7252,10.9854 C28.8392,12.9634 26.8702,14.2404 24.7102,14.2404 C22.5502,14.2404 20.5812,12.9634 19.6942,10.9854 C19.5332,10.6264 19.1762,10.3944 18.7822,10.3944 C18.3882,10.3944 18.0302,10.6264 17.8692,10.9854 C16.9842,12.9634 15.0152,14.2404 12.8542,14.2404 C10.6942,14.2404 8.7252,12.9634 7.8412,10.9854 C7.6802,10.6264 7.3222,10.3944 6.9282,10.3944 C6.5342,10.3944 6.1772,10.6264 6.0152,10.9854 C5.1292,12.9634 3.1602,14.2404 1.0002,14.2404 C0.4472,14.2404 0.0002,14.6874 0.0002,15.2404 C0.0002,15.7934 0.4472,16.2404 1.0002,16.2404 C3.3462,16.2404 5.5262,15.1374 6.9282,13.3264 C8.3282,15.1374 10.5082,16.2404 12.8542,16.2404 C15.2012,16.2404 17.3822,15.1374 18.7822,13.3264 C20.1832,15.1374 22.3632,16.2404 24.7102,16.2404 C27.0712,16.2404 29.2632,15.1224 30.6642,13.2924 C32.2162,15.1524 35.0072,16.5334 38.7042,16.1254 L39.5412,17.0044 C39.0502,18.0974 39.2582,19.4224 40.1652,20.2864 L45.7392,25.7724 C46.3012,26.3084 47.0222,26.5744 47.7442,26.5744 C48.5122,26.5744 49.2782,26.2724 49.8482,25.6754 L49.8482,25.6744 C50.9552,24.5144 50.9102,22.6694 49.7612,21.5744 L44.1862,16.0894 C43.2922,15.2354 41.9942,15.0744 40.9392,15.5724 L40.5842,15.1994 C40.7102,15.1584 40.8292,15.0934 40.9342,15.0014 C41.3882,14.6024 41.9692,13.9604 42.4702,13.2974 C43.8702,15.1244 46.0602,16.2404 48.4202,16.2404 C50.7662,16.2404 52.9462,15.1374 54.3472,13.3264 C55.7482,15.1374 57.9282,16.2404 60.2742,16.2404 C60.8272,16.2404 61.2742,15.7934 61.2742,15.2404 C61.2742,14.6874 60.8272,14.2404 60.2742,14.2404" id="Fill-1"></path>
            </g>
        </g>
    </g>
</svg>