<?xml version="1.0" encoding="UTF-8"?>
<svg width="45px" height="41px" viewBox="0 0 45 41" version="1.1" xmlns="http://www.w3.org/2000/svg" xmlns:xlink="http://www.w3.org/1999/xlink">
    <!-- Generator: Sketch 52.3 (67297) - http://www.bohemiancoding.com/sketch -->
    <title>categories-running icon</title>
    <desc>Created with Sketch.</desc>
    <g id="Page-1" stroke="none" stroke-width="1" fill="none" fill-rule="evenodd">
        <g id="Sport-1440---Design" transform="translate(-1168.000000, -3117.000000)">
            <g id="categories-running-icon" transform="translate(1168.000000, 3116.000000)">
                <g id="Group-3" transform="translate(8.111111, 0.134578)"></g>
                <path d="M37.0845422,6.61424328 C37.0845422,8.19748392 38.3730109,9.48595259 39.9571784,9.48595259 C41.5404191,9.48595259 42.8279608,8.19748392 42.8279608,6.61424328 C42.8279608,5.03100264 41.5404191,3.74253398 39.9571784,3.74253398 C38.3730109,3.74253398 37.0845422,5.03100264 37.0845422,6.61424328 Z M40.4642233,21.7023041 L36.9093475,18.7508766 C36.6785355,18.5589967 36.5543234,18.2679326 36.5765704,17.9694528 L36.8908084,13.699894 C36.9251058,13.2345622 36.8175789,12.7896233 36.5793512,12.4132792 C36.2929219,11.9599978 35.9916612,11.578092 35.6820579,11.2796122 C35.4206564,11.0265533 35.113834,10.801303 34.7708603,10.6084962 C34.3833928,10.3925154 33.9458696,10.3007468 33.4879534,10.3517294 L24.7652986,11.3027861 C24.5511718,11.32596 24.3537302,11.4260712 24.2072711,11.5845807 L19.650356,16.5530642 C19.4853579,16.7328936 19.4065667,16.9655596 19.4288136,17.209349 C19.4510605,17.4512844 19.5697109,17.6654112 19.7643716,17.8127972 C20.1175418,18.0797605 20.6097554,18.0343397 20.9091621,17.7099051 L24.8589211,13.4125377 C25.0109419,13.2466126 25.217653,13.1427935 25.4410494,13.1186927 L28.3414944,12.8053816 C28.8235114,12.7460564 29.2805007,12.9963345 29.503897,13.4292229 C29.7282203,13.8621113 29.6633334,14.3774988 29.3398258,14.7427194 L24.504824,20.1737538 L24.0876938,21.6800571 C24.0663738,21.7551406 24.0357843,21.8274431 23.9968522,21.8951109 L20.7923657,27.4466497 C20.6023397,27.775719 20.2315574,27.9536945 19.8515055,27.8999311 L10.953656,26.5632607 C10.2760513,26.4548069 9.65499083,26.9053074 9.52707092,27.5717887 C9.4603301,27.9110546 9.53355961,28.2521743 9.73100121,28.5339689 C9.92936977,28.8166904 10.2250687,29.0020816 10.5661885,29.056772 L20.3668929,30.6196196 C21.1177272,30.7354891 21.857438,30.3721224 22.2198777,29.709349 L24.5965926,25.3554372 C24.8014499,24.9790931 25.1629626,24.7186185 25.5875084,24.6435351 C25.6709345,24.6287038 25.7534335,24.6212881 25.8359326,24.6212881 C26.1751985,24.6212881 26.5042678,24.7436463 26.7638154,24.9726044 L31.6108677,29.2375284 C31.7962589,29.4015996 31.9093475,29.6333386 31.9232519,29.8817627 L32.4340045,38.8871391 C32.4534706,39.2143545 32.5980757,39.5128343 32.843719,39.729742 C33.0884354,39.9466497 33.4073082,40.0513957 33.7289619,40.0319296 C34.3935893,39.9874357 34.9015611,39.4108692 34.861702,38.7453148 L34.2573268,28.7453148 C34.2332259,28.342089 34.0524695,27.9740876 33.7502819,27.7080512 L29.3685615,23.8398643 C29.1831703,23.6748662 29.0700817,23.4431272 29.0571043,23.196557 C29.042273,22.9481328 29.1294068,22.7052703 29.2962589,22.5217331 L32.2995959,19.2125006 C32.8789434,18.574755 33.8420505,18.5182107 34.4899927,19.078092 L39.230445,23.1613326 C39.6234743,23.5005985 40.2278496,23.4598124 40.5717502,23.0677101 C40.743237,22.8711955 40.82759,22.6209174 40.807197,22.3613697 C40.785877,22.102749 40.6644458,21.8682292 40.4642233,21.7023041 Z M44.6818725,6.61424328 C44.6818725,9.21991625 42.5619245,11.3398643 39.9571784,11.3398643 C39.1117947,11.3398643 38.328517,11.0988558 37.6416427,10.7086074 C37.8149834,10.9320038 37.9855433,11.1665236 38.1468336,11.4223634 C38.5982611,12.1379734 38.8031184,12.9713067 38.7391584,13.8352296 L38.4601447,17.62926 L41.6488729,20.275719 C42.2374899,20.7642247 42.5943679,21.452953 42.655547,22.2149107 C42.7148722,22.9777954 42.4701558,23.7147253 41.9649649,24.2903649 C40.953656,25.4425711 39.1850242,25.5667831 38.0216946,24.5656708 L33.4870264,20.6613326 L31.3003375,23.0714179 L34.9784984,26.3176174 C35.6523954,26.9127231 36.0537672,27.7349329 36.1075307,28.6331532 L36.7119059,38.6340801 C36.8129441,40.3127972 35.5300372,41.7690449 33.852247,41.8821335 C33.7827253,41.8867683 33.7132037,41.8886222 33.6446089,41.8886222 C32.8947016,41.8886222 32.1818725,41.619805 31.6164295,41.1192488 C30.9981499,40.5723449 30.6310754,39.8168758 30.5838006,38.9928121 L30.0943679,30.3739763 L25.9573638,26.7319667 L23.8476123,30.5973727 C23.1097554,31.9470204 21.5923286,32.6932199 20.0749018,32.4503575 L10.2741974,30.8875099 C9.43344837,30.7531013 8.70115323,30.2951851 8.21357444,29.5981143 C7.72414174,28.9010434 7.5443123,28.0565866 7.70652958,27.2204724 C8.02169457,25.5741988 9.56878393,24.47761 11.228035,24.728815 L19.5020431,25.9727898 L22.3320394,21.0710471 L22.7751243,19.4701943 C22.8131295,19.3339318 22.8826512,19.2078658 22.9762737,19.1021929 L26.7703041,14.8391228 L25.9870264,14.9244027 L22.2736412,18.9640764 C21.3235114,19.9967053 19.7643716,20.1376026 18.6464628,19.2922188 C18.0402337,18.8333757 17.6518392,18.1353779 17.5823175,17.377128 C17.5137228,16.6188781 17.7686356,15.8615551 18.2840231,15.2998198 L22.8418651,10.3313363 C23.2923657,9.84097669 23.9032296,9.53137343 24.5632222,9.45907087 L33.286804,8.5089411 C34.1275529,8.41717246 34.9488358,8.58402452 35.6755692,8.9900312 C35.7951466,9.05677202 35.9008195,9.13556327 36.0139081,9.20879278 C35.5216946,8.4625933 35.2306304,7.57271566 35.2306304,6.61424328 C35.2306304,4.00857031 37.3505785,1.88862222 39.9571784,1.88862222 C42.5619245,1.88862222 44.6818725,4.00857031 44.6818725,6.61424328 Z M4.51891371,10.1382514 C4.00630711,10.1382514 3.59195783,9.72390216 3.59195783,9.21129556 C3.59195783,8.69868896 4.00630711,8.28433969 4.51891371,8.28433969 L18.3500223,8.28433969 C18.8626289,8.28433969 19.2769782,8.69868896 19.2769782,9.21129556 C19.2769782,9.72390216 18.8626289,10.1382514 18.3500223,10.1382514 L4.51891371,10.1382514 Z M1.50630711,15.3523782 C0.993700507,15.3523782 0.57935123,14.938029 0.57935123,14.4254224 C0.57935123,13.9128158 0.993700507,13.4984665 1.50630711,13.4984665 L15.3374157,13.4984665 C15.8500223,13.4984665 16.2643716,13.9128158 16.2643716,14.4254224 C16.2643716,14.938029 15.8500223,15.3523782 15.3374157,15.3523782 L1.50630711,15.3523782 Z M15.6849315,19.5236797 C15.6849315,20.0362863 15.2705822,20.4506356 14.7579756,20.4506356 L0.926866988,20.4506356 C0.414260388,20.4506356 -8.88888881e-05,20.0362863 -8.88888881e-05,19.5236797 C-8.88888881e-05,19.0110731 0.414260388,18.5967238 0.926866988,18.5967238 L14.7579756,18.5967238 C15.2705822,18.5967238 15.6849315,19.0110731 15.6849315,19.5236797 Z M25.8814462,35.0501906 C26.3940527,35.0501906 26.808402,35.4645399 26.808402,35.9771465 C26.808402,36.4897531 26.3940527,36.9041024 25.8814462,36.9041024 L12.0503375,36.9041024 C11.5377309,36.9041024 11.1233816,36.4897531 11.1233816,35.9771465 C11.1233816,35.4645399 11.5377309,35.0501906 12.0503375,35.0501906 L25.8814462,35.0501906 Z M23.9116649,39.916709 C24.4242715,39.916709 24.8386208,40.3310583 24.8386208,40.8436649 C24.8386208,41.3562715 24.4242715,41.7706207 23.9116649,41.7706207 L10.0805563,41.7706207 C9.56794967,41.7706207 9.1536004,41.3562715 9.1536004,40.8436649 C9.1536004,40.3310583 9.56794967,39.916709 10.0805563,39.916709 L23.9116649,39.916709 Z" id="Combined-Shape" fill="#EF1C3B"></path>
            </g>
        </g>
    </g>
</svg>