<?xml version="1.0" encoding="UTF-8"?>
<svg width="45px" height="45px" viewBox="0 0 45 45" version="1.1" xmlns="http://www.w3.org/2000/svg" xmlns:xlink="http://www.w3.org/1999/xlink">
    <!-- Generator: Sketch 52.3 (67297) - http://www.bohemiancoding.com/sketch -->
    <title>categories-baseball icon</title>
    <desc>Created with Sketch.</desc>
    <g id="Page-1" stroke="none" stroke-width="1" fill="none" fill-rule="evenodd">
        <g id="Sport-1440---Design" transform="translate(-512.000000, -3119.000000)" fill="#EF1C3B">
            <g id="categories-baseball-icon" transform="translate(512.000000, 3118.000000)">
                <g id="Group-3" transform="translate(0.000000, 0.409400)">
                    <path d="M41.1565,8.9375 L32.0165,18.0775 C31.3035,18.7905 30.5395,19.4715 29.7455,20.1025 L14.2105,32.4225 C13.3045,33.1405 12.4315,33.9185 11.6135,34.7375 L6.5355,39.8135 C5.9155,40.4365 5.9155,41.4515 6.5375,42.0755 C6.6435,42.1825 6.7015,42.3245 6.6995,42.4755 C6.6985,42.5625 6.6745,42.7295 6.5245,42.8695 C6.3115,43.0685 5.9405,43.0415 5.7105,42.8115 L2.1625,39.2625 C2.0555,39.1575 1.9985,39.0155 2.0005,38.8655 C2.0015,38.7775 2.0255,38.6095 2.1745,38.4695 C2.2655,38.3835 2.3875,38.3395 2.5185,38.3395 C2.6905,38.3395 2.8775,38.4155 3.0315,38.5695 C3.6545,39.1915 4.6715,39.1935 5.2945,38.5695 L10.3325,33.5315 C11.2795,32.5835 12.1725,31.5645 12.9845,30.5005 L24.7385,15.1145 C25.4475,14.1855 26.2275,13.2935 27.0585,12.4625 L27.2405,12.2815 L27.3445,12.3755 L28.0085,11.5435 C28.0895,11.4435 28.1755,11.3455 28.2715,11.2505 L35.7935,3.7285 C37.1815,2.3405 39.4185,2.1965 40.8825,3.4035 C41.7065,4.0825 42.1895,5.0425 42.2405,6.1115 C42.2925,7.1665 41.8965,8.1975 41.1565,8.9375 M42.1535,1.8585 C39.9035,0.0065 36.4885,0.2045 34.3795,2.3145 L26.8585,9.8345 L26.8325,9.8615 L25.6445,11.0485 C24.7515,11.9425 23.9115,12.9025 23.1485,13.9005 L11.3945,29.2865 C10.6355,30.2805 9.8025,31.2325 8.9185,32.1175 L4.1465,36.8875 C3.1515,36.1245 1.7175,36.1555 0.8035,37.0135 C0.2965,37.4925 0.0105,38.1385 0.0005,38.8355 C-0.0095,39.5325 0.2565,40.1865 0.7485,40.6775 L4.2955,44.2245 C4.8095,44.7405 5.4915,45.0005 6.1685,45.0005 C6.7955,45.0005 7.4175,44.7765 7.8955,44.3265 C8.4025,43.8485 8.6885,43.2025 8.6995,42.5055 C8.7085,41.9445 8.5365,41.4095 8.2135,40.9655 L13.0275,36.1515 C13.7925,35.3865 14.6075,34.6605 15.4525,33.9895 L30.9885,21.6685 C31.8435,20.9905 32.6645,20.2575 33.4305,19.4915 L42.5705,10.3515 C43.7095,9.2135 44.3165,7.6325 44.2385,6.0145 C44.1605,4.4005 43.4005,2.8855 42.1535,1.8585" id="Fill-1"></path>
                </g>
                <path d="M6.0752,6.0119 C5.7362,6.7159 5.2752,7.3909 4.6922,7.9739 C4.1102,8.5569 3.4362,9.0169 2.7322,9.3559 C2.8492,8.5369 3.2072,7.7459 3.8362,7.1169 C4.4502,6.5029 5.2322,6.1309 6.0752,6.0119 Z M7.4332,13.7569 C7.7612,13.1299 8.1852,12.5329 8.7192,11.9989 C9.2622,11.4569 9.8712,11.0269 10.5112,10.6969 C10.3632,11.4369 10.0062,12.1429 9.4342,12.7149 C8.8822,13.2669 8.1772,13.6129 7.4332,13.7569 Z M8.1632,6.2629 C8.1712,6.2669 8.1792,6.2719 8.1872,6.2759 C8.4132,6.3719 8.6322,6.4879 8.8372,6.6249 C9.0492,6.7679 9.2492,6.9319 9.4342,7.1169 C9.6322,7.3159 9.8042,7.5339 9.9542,7.7639 C10.0102,7.8499 10.0472,7.9439 10.0962,8.0329 C10.1772,8.1819 10.2592,8.3299 10.3202,8.4879 C10.3302,8.5129 10.3332,8.5389 10.3422,8.5639 C9.2372,9.0019 8.2002,9.6889 7.3052,10.5849 C6.4152,11.4759 5.7312,12.5049 5.2932,13.6019 C4.9992,13.5019 4.7132,13.3779 4.4492,13.2079 C4.2322,13.0639 4.0242,12.9039 3.8362,12.7149 C3.6462,12.5249 3.4812,12.3199 3.3372,12.1039 C3.2912,12.0339 3.2612,11.9559 3.2192,11.8829 C3.1352,11.7379 3.0502,11.5939 2.9872,11.4419 C4.1222,11.0069 5.1862,10.3089 6.1062,9.3879 C7.0282,8.4659 7.7282,7.4009 8.1632,6.2629 Z M0.7692,10.9539 C0.7732,10.9759 0.7812,10.9959 0.7852,11.0179 C0.7962,11.0799 0.8182,11.1389 0.8312,11.1999 C0.8942,11.4859 0.9752,11.7629 1.0782,12.0329 C1.1162,12.1329 1.1602,12.2289 1.2032,12.3269 C1.3092,12.5649 1.4302,12.7949 1.5662,13.0169 C1.6212,13.1069 1.6722,13.1969 1.7322,13.2849 C1.9382,13.5829 2.1622,13.8689 2.4222,14.1289 C2.6292,14.3369 2.8532,14.5209 3.0842,14.6929 C3.1272,14.7259 3.1702,14.7589 3.2152,14.7909 C3.4452,14.9529 3.6832,15.0979 3.9312,15.2239 C3.9702,15.2439 4.0102,15.2609 4.0492,15.2799 C4.3082,15.4049 4.5732,15.5149 4.8472,15.5999 C4.8522,15.6019 4.8562,15.6039 4.8612,15.6059 C5.1412,15.6919 5.4282,15.7529 5.7202,15.7979 C5.7472,15.8019 5.7732,15.8119 5.8002,15.8159 L6.6852,15.9409 L6.7032,15.8709 C8.2692,15.8539 9.7392,15.2389 10.8482,14.1289 C11.9922,12.9849 12.5672,11.4869 12.5842,9.9839 L12.6582,9.9639 L12.5342,9.0799 C12.5252,9.0159 12.5032,8.9559 12.4922,8.8919 C12.4742,8.7849 12.4462,8.6809 12.4212,8.5739 C12.3642,8.3239 12.2932,8.0789 12.2042,7.8399 C12.1652,7.7349 12.1242,7.6329 12.0792,7.5289 C11.9732,7.2869 11.8492,7.0549 11.7112,6.8279 C11.6572,6.7399 11.6092,6.6499 11.5512,6.5629 C11.3422,6.2599 11.1142,5.9679 10.8482,5.7019 C10.6522,5.5069 10.4422,5.3329 10.2262,5.1689 C10.1802,5.1339 10.1332,5.0979 10.0862,5.0639 C9.8642,4.9059 9.6352,4.7599 9.3962,4.6349 C9.3842,4.6289 9.3722,4.6239 9.3602,4.6179 C9.1212,4.4949 8.8722,4.3909 8.6182,4.3009 C8.5842,4.2889 8.5492,4.2759 8.5142,4.2639 C8.2492,4.1759 7.9782,4.1059 7.7002,4.0559 C7.6912,4.0539 7.6822,4.0509 7.6732,4.0489 L6.7472,3.8869 L6.7292,3.9619 C6.6982,3.9609 6.6672,3.9569 6.6352,3.9569 C5.0442,3.9569 3.5472,4.5769 2.4222,5.7019 C1.2372,6.8869 0.6642,8.4509 0.6882,10.0069 L0.6052,10.0269 L0.7692,10.9539 Z" id="Fill-4"></path>
            </g>
        </g>
    </g>
</svg>