<?xml version="1.0" encoding="UTF-8"?>
<svg width="14px" height="14px" viewBox="0 0 14 14" version="1.1" xmlns="http://www.w3.org/2000/svg" xmlns:xlink="http://www.w3.org/1999/xlink">
    <!-- Generator: Sketch 52.3 (67297) - http://www.bohemiancoding.com/sketch -->
    <title>close copy</title>
    <desc>Created with Sketch.</desc>
    <g id="Page-1" stroke="none" stroke-width="1" fill="none" fill-rule="evenodd">
        <g id="Apply-form-1-1440" transform="translate(-536.000000, -1657.000000)" fill="#EF1C3B" fill-rule="nonzero">
            <g id="close-copy" transform="translate(536.000000, 1657.000000)">
                <path d="M-1.27094475,6.16434937 L15.2467023,6.16434937 C15.6885301,6.16434937 16.0467023,6.52252157 16.0467023,6.96434937 L16.0467023,7.01140819 C16.0467023,7.45323599 15.6885301,7.81140819 15.2467023,7.81140819 L-1.27094475,7.81140819 C-1.71277255,7.81140819 -2.07094475,7.45323599 -2.07094475,7.01140819 L-2.07094475,6.96434937 C-2.07094475,6.52252157 -1.71277255,6.16434937 -1.27094475,6.16434937 Z" id="Rectangle" transform="translate(6.987879, 6.987879) rotate(-45.000000) translate(-6.987879, -6.987879) "></path>
                <path d="M-1.27094475,6.16434937 L15.2467023,6.16434937 C15.6885301,6.16434937 16.0467023,6.52252157 16.0467023,6.96434937 L16.0467023,7.01140819 C16.0467023,7.45323599 15.6885301,7.81140819 15.2467023,7.81140819 L-1.27094475,7.81140819 C-1.71277255,7.81140819 -2.07094475,7.45323599 -2.07094475,7.01140819 L-2.07094475,6.96434937 C-2.07094475,6.52252157 -1.71277255,6.16434937 -1.27094475,6.16434937 Z" id="Rectangle" transform="translate(6.987879, 6.987879) rotate(45.000000) translate(-6.987879, -6.987879) "></path>
            </g>
        </g>
    </g>
</svg>