<?xml version="1.0" encoding="UTF-8"?>
<svg width="38px" height="26px" viewBox="0 0 38 26" version="1.1" xmlns="http://www.w3.org/2000/svg" xmlns:xlink="http://www.w3.org/1999/xlink">
    <!-- Generator: Sketch 52.3 (67297) - http://www.bohemiancoding.com/sketch -->
    <title>Combined Shape</title>
    <desc>Created with Sketch.</desc>
    <g id="Design" stroke="none" stroke-width="1" fill="none" fill-rule="evenodd">
        <g id="Apply-form-768" transform="translate(-512.000000, -1230.000000)" fill="#FFFFFF" fill-rule="nonzero">
            <g id="Group-53" transform="translate(512.000000, 1230.000000)">
                <path d="M2.805,1 C1.80812603,1 1,1.80812603 1,2.805 L1,23.1632267 C1,24.1601007 1.80812603,24.9682267 2.805,24.9682267 L35.028187,24.9682267 C36.025061,24.9682267 36.833187,24.1601007 36.833187,23.1632267 L36.833187,2.805 C36.833187,1.80812603 36.025061,1 35.028187,1 L2.805,1 Z M2.805,-1.11022302e-13 L35.028187,-1.10578213e-13 C36.5773457,-1.10862789e-13 37.833187,1.25584128 37.833187,2.805 L37.833187,23.1632267 C37.833187,24.7123854 36.5773457,25.9682267 35.028187,25.9682267 L2.805,25.9682267 C1.25584128,25.9682267 1.89717227e-16,24.7123854 0,23.1632267 L8.8817842e-16,2.805 C6.98461193e-16,1.25584128 1.25584128,-1.10737727e-13 2.805,-1.11022302e-13 Z M13.4946562,7.45770706 C13.731404,7.31556256 14.038557,7.39225374 14.1807015,7.62900161 C14.322846,7.86574948 14.2461548,8.17290243 14.0094069,8.31504693 L7.28771876,12.3507791 C6.99320442,12.5276069 6.89780058,12.9097051 7.07462834,13.2042195 C7.12591857,13.2896456 7.19698121,13.3614994 7.28183422,13.4137323 L14.0141373,17.5579309 C14.2492968,17.7026879 14.3225826,18.0106712 14.1778256,18.2458307 C14.0330686,18.4809903 13.7250854,18.5542761 13.4899258,18.4095191 L6.75762276,14.2653205 C6.53635013,14.1291118 6.35103888,13.9417374 6.21728847,13.7189703 C5.75617172,12.9509602 6.00495792,11.954556 6.772968,11.4934392 L13.4946562,7.45770706 Z M25.1754461,7.45770706 L31.8971342,11.4934392 C32.6651443,11.954556 32.9139305,12.9509602 32.4528138,13.7189703 C32.3190634,13.9417374 32.1337521,14.1291118 31.9124795,14.2653205 L25.1801764,18.4095191 C24.9450168,18.5542761 24.6370336,18.4809903 24.4922766,18.2458307 C24.3475196,18.0106712 24.4208054,17.7026879 24.655965,17.5579309 L31.388268,13.4137323 C31.473121,13.3614994 31.5441837,13.2896456 31.5954739,13.2042195 C31.7723016,12.9097051 31.6768978,12.5276069 31.3823835,12.3507791 L24.6606953,8.31504693 C24.4239474,8.17290243 24.3472563,7.86574948 24.4894008,7.62900161 C24.6315453,7.39225374 24.9386982,7.31556256 25.1754461,7.45770706 Z M21.027944,5.29328061 C21.113993,5.03088743 21.3964612,4.88793221 21.6588544,4.9739812 C21.9212476,5.06003019 22.0642028,5.34249838 21.9781538,5.60489157 L17.0682724,20.5768214 C16.9822234,20.8392146 16.6997552,20.9821698 16.437362,20.8961208 C16.1749688,20.8100718 16.0320136,20.5276036 16.1180626,20.2652104 L21.027944,5.29328061 Z" id="Combined-Shape"></path>
            </g>
        </g>
    </g>
</svg>