<?xml version="1.0" encoding="UTF-8"?>
<svg width="21px" height="25px" viewBox="0 0 21 25" version="1.1" xmlns="http://www.w3.org/2000/svg" xmlns:xlink="http://www.w3.org/1999/xlink">
    <!-- Generator: Sketch 52.3 (67297) - http://www.bohemiancoding.com/sketch -->
    <title>Combined Shape</title>
    <desc>Created with Sketch.</desc>
    <g id="Design" stroke="none" stroke-width="1" fill="none" fill-rule="evenodd">
        <g id="Apply-form-768" transform="translate(-21.000000, -1449.000000)" fill="#0497F4" fill-rule="nonzero">
            <g id="file-icon" transform="translate(21.000000, 1449.000000)">
                <path d="M14,1.5 L2.31323176,1.5 C1.86281165,1.5 1.5,1.85867563 1.5,2.29826106 L1.5,22.7017389 C1.5,23.1413244 1.86281165,23.5 2.31323176,23.5 L18.6867682,23.5 C19.1371884,23.5 19.5,23.1413244 19.5,22.7017389 L19.5,7 L15.32,7 C14.5909841,7 14,6.40901587 14,5.68 L14,1.5 Z M20.5,6.127362 L20.5,22.7017389 C20.5,23.6961919 19.6869229,24.5 18.6867682,24.5 L2.31323176,24.5 C1.31307712,24.5 0.5,23.6961919 0.5,22.7017389 L0.5,2.29826106 C0.5,1.30380813 1.31307712,0.5 2.31323176,0.5 L14.8136556,0.5 L20.5,6.127362 Z M6,9 L6,8 L15,8 L15,9 L6,9 Z M6,12.3333333 L6,11.3333333 L15,11.3333333 L15,12.3333333 L6,12.3333333 Z M6,15.6666667 L6,14.6666667 L15,14.6666667 L15,15.6666667 L6,15.6666667 Z M6,19 L6,18 L15,18 L15,19 L6,19 Z" id="Combined-Shape"></path>
            </g>
        </g>
    </g>
</svg>