<?xml version="1.0" encoding="UTF-8"?>
<!DOCTYPE svg PUBLIC "-//W3C//DTD SVG 1.1//EN" "http://www.w3.org/Graphics/SVG/1.1/DTD/svg11.dtd">
<!-- Creator: CorelDRAW X6 -->
<svg xmlns="http://www.w3.org/2000/svg" xml:space="preserve" width="11.5146mm" height="9.2286mm" version="1.1" style="shape-rendering:geometricPrecision; text-rendering:geometricPrecision; image-rendering:optimizeQuality; fill-rule:evenodd; clip-rule:evenodd"
viewBox="0 0 1151 923"
 xmlns:xlink="http://www.w3.org/1999/xlink">
 <defs>
  <style type="text/css">
   <![CDATA[
    .fil0 {fill:#CFF3FE}
   ]]>
  </style>
 </defs>
 <g id="Слой_x0020_1">
  <metadata id="CorelCorpID_0Corel-Layer"/>
  <g id="_222172096">
   <g id="Page-1">
    <g id="Index---V1">
     <g id="Group-9-Copy">
      <path id="testimonials-quote-icon-red" class="fil0" d="M18 924l0 -180c77,-25 140,-68 189,-134 49,-60 74,-126 71,-191 -14,8 -36,11 -68,11 -58,0 -107,-19 -151,-60 -38,-41 -60,-93 -60,-156 0,-63 22,-115 66,-156 44,-38 99,-60 164,-60 77,0 137,33 186,93 49,60 71,139 71,232 0,148 -41,273 -126,380 -82,109 -197,183 -342,221zm666 0l0 -180c77,-25 137,-68 186,-134 52,-60 77,-126 74,-191 -14,8 -36,11 -68,11 -58,0 -107,-19 -148,-60 -41,-41 -63,-93 -63,-156 0,-63 22,-115 63,-156 44,-38 101,-60 167,-60 77,0 137,33 183,93 49,60 74,139 74,232 0,148 -41,273 -126,380 -82,109 -197,183 -342,221z"/>
     </g>
    </g>
   </g>
  </g>
 </g>
</svg>
