<?xml version="1.0" encoding="UTF-8"?>
<svg width="31px" height="30px" viewBox="0 0 31 30" version="1.1" xmlns="http://www.w3.org/2000/svg" xmlns:xlink="http://www.w3.org/1999/xlink">
    <!-- Generator: Sketch 52.3 (67297) - http://www.bohemiancoding.com/sketch -->
    <title>footer-skype icon</title>
    <desc>Created with Sketch.</desc>
    <g id="Page-1" stroke="none" stroke-width="1" fill="none" fill-rule="evenodd">
        <g id="Index---V1" transform="translate(-277.000000, -4760.000000)" fill="#FFFFFF">
            <g id="social-media" transform="translate(150.000000, 4760.000000)">
                <g id="footer-skype-icon" transform="translate(127.500000, 0.000000)">
                    <path d="M16.6662598,13.9313507 L14.6035767,13.4735871 C13.8189697,13.2948304 12.915802,13.0586243 12.915802,12.3188782 C12.915802,11.5775299 13.549347,11.0595703 14.6930695,11.0595703 C16.9981384,11.0595703 16.7875671,12.6436615 17.9319763,12.6436615 C18.5341644,12.6436615 19.0612793,12.2895813 19.0612793,11.6807556 C19.0612793,10.2600861 16.7875671,9.19395445 14.8587799,9.19395445 C12.7649689,9.19395445 10.535202,10.0831604 10.535202,12.4514007 C10.535202,13.5919189 10.9426117,14.8052215 13.187027,15.368042 L15.9738922,16.0638428 C16.8173218,16.2716675 17.0283509,16.7461395 17.0283509,17.1741486 C17.0283509,17.8859711 16.3213348,18.5813141 15.0405121,18.5813141 C12.5386048,18.5813141 12.8858185,16.6559601 11.5450287,16.6559601 C10.9426117,16.6559601 10.5054474,17.0709229 10.5054474,17.6630402 C10.5054474,18.8175202 11.9071198,20.3581238 15.0405121,20.3581238 C18.021698,20.3581238 19.4989014,18.9212036 19.4989014,16.9967651 C19.4989014,15.7541657 18.9260101,14.4348908 16.6662598,13.9313507 Z" id="Path"></path>
                    <path d="M15,0 C6.71699525,0 0,6.71699525 0,15 C0,23.2830047 6.71699525,30 15,30 C23.2830047,30 30,23.2830047 30,15 C30,6.71699525 23.2830047,0 15,0 Z M22.8096771,22.7874756 C21.8234253,23.7741852 20.5128479,24.3164062 19.1184997,24.3164062 C18.215332,24.3164062 17.3309326,24.0815735 16.5497589,23.6396027 C16.0427856,23.7295532 15.5234528,23.7769318 15.0052643,23.7769318 C13.814621,23.7769318 12.6592254,23.5434723 11.5722656,23.0827331 C10.5212402,22.6396179 9.57847594,22.0030975 8.76800537,21.1930847 C7.95845033,20.3833008 7.32261656,19.4405365 6.87881473,18.3899689 C6.41830441,17.3023224 6.18530273,16.1476136 6.18530273,14.9567413 C6.18530273,14.4467926 6.2310791,13.9361572 6.3180542,13.4365082 C5.88935854,12.6654053 5.66116336,11.7929077 5.66116336,10.9050751 C5.66116336,9.51049805 6.20452881,8.19923402 7.19032289,7.21321107 C8.17657471,6.22673033 9.48783873,5.68359375 10.8824157,5.68359375 C11.7366028,5.68359375 12.580719,5.89668275 13.3309937,6.29562375 C13.3323669,6.29539488 13.3339691,6.29539488 13.3351136,6.29493715 C13.8821411,6.19010924 14.444046,6.13723758 15.0052643,6.13723758 C16.1956787,6.13723758 17.3508454,6.37046812 18.4378052,6.83029172 C19.4876862,7.27455141 20.4315949,7.91038512 21.240921,8.72016908 C22.0513916,9.53018191 22.6869964,10.4734039 23.1312561,11.5237427 C23.5917663,12.6111603 23.8247681,13.766098 23.8247681,14.9567413 C23.8247681,15.4934692 23.7741852,16.0306549 23.6778259,16.555481 C24.1094971,17.3295593 24.3390656,18.2050324 24.3390656,19.0958405 C24.3388366,20.4904175 23.7961579,21.8019104 22.8096771,22.7874756 Z" id="Shape" fill-rule="nonzero"></path>
                </g>
            </g>
        </g>
    </g>
</svg>