<?xml version="1.0" encoding="UTF-8"?>
<svg width="20px" height="20px" viewBox="0 0 20 20" version="1.1" xmlns="http://www.w3.org/2000/svg" xmlns:xlink="http://www.w3.org/1999/xlink">
    <!-- Generator: Sketch 52.3 (67297) - http://www.bohemiancoding.com/sketch -->
    <title>footer-phone icon</title>
    <desc>Created with Sketch.</desc>
    <g id="Page-1" stroke="none" stroke-width="1" fill="none" fill-rule="evenodd">
        <g id="Index---V1" transform="translate(-1140.000000, -4726.000000)" fill="#FFFFFF" fill-rule="nonzero">
            <path d="M1150.00004,4726 C1144.47757,4726 1140,4730.47755 1140,4736 C1140,4741.52237 1144.47757,4746 1150.00004,4746 C1155.52252,4746 1160,4741.52233 1160,4736 C1160.00004,4730.47755 1155.52252,4726 1150.00004,4726 Z M1155.28072,4740.59111 L1154.48004,4741.39195 C1154.33709,4741.53469 1153.91851,4741.62377 1153.90507,4741.62377 C1151.37207,4741.64586 1148.93316,4740.65092 1147.1412,4738.85879 C1145.34433,4737.0609 1144.34822,4734.61331 1144.37497,4732.07178 C1144.37497,4732.07062 1144.46664,4731.66404 1144.60947,4731.52258 L1145.41011,4730.72181 C1145.7031,4730.42747 1146.26591,4730.29445 1146.66017,4730.42635 L1146.82859,4730.48254 C1147.2217,4730.61431 1147.63443,4731.04897 1147.74304,4731.44941 L1148.14579,4732.92761 C1148.25441,4733.32921 1148.10791,4733.90055 1147.81501,4734.19353 L1147.28039,4734.72823 C1147.80528,4736.67138 1149.32994,4738.19632 1151.27343,4738.72248 L1151.80784,4738.18766 C1152.10218,4737.89332 1152.67332,4737.74695 1153.07405,4737.8554 L1154.55205,4738.25959 C1154.95258,4738.36964 1155.38715,4738.77977 1155.51889,4739.17276 L1155.57507,4739.34361 C1155.70565,4739.73676 1155.57367,4740.29944 1155.28072,4740.59111 Z" id="footer-phone-icon"></path>
        </g>
    </g>
</svg>