<?xml version="1.0" encoding="UTF-8"?>
<svg width="16px" height="23px" viewBox="0 0 16 23" version="1.1" xmlns="http://www.w3.org/2000/svg" xmlns:xlink="http://www.w3.org/1999/xlink">
    <!-- Generator: Sketch 52.3 (67297) - http://www.bohemiancoding.com/sketch -->
    <title>footer-location icon</title>
    <desc>Created with Sketch.</desc>
    <g id="Page-1" stroke="none" stroke-width="1" fill="none" fill-rule="evenodd">
        <g id="Index---V1" transform="translate(-920.000000, -4695.000000)" fill="#FFFFFF" fill-rule="nonzero">
            <path d="M935.622009,4700.72448 C935.539336,4700.41764 935.371454,4700.0907 935.247257,4699.80445 C933.761103,4696.26756 930.513886,4695 927.891921,4695 C924.381947,4695 920.51612,4697.33073 920,4702.13492 L920,4703.11644 C920,4703.1574 920.014256,4703.52536 920.034505,4703.70942 C920.323831,4705.99897 922.148179,4708.43227 923.510677,4710.72182 C924.976527,4713.17485 926.497565,4715.58793 928.004509,4718 C928.93372,4716.42593 929.859583,4714.83117 930.767626,4713.29784 C931.015103,4712.84786 931.302376,4712.39814 931.550123,4711.96863 C931.715251,4711.68265 932.030712,4711.39667 932.174835,4711.13058 C933.640631,4708.47296 936,4705.79481 936,4703.15735 L936,4702.07385 C936.000054,4701.78792 935.64215,4700.78614 935.622009,4700.72448 Z M927.95618,4705.65171 C926.924425,4705.65171 925.795095,4705.14082 925.237665,4703.7299 C925.154615,4703.5053 925.161311,4703.05521 925.161311,4703.01398 L925.161311,4702.3802 C925.161311,4700.58154 926.703516,4699.7636 928.04517,4699.7636 C929.696885,4699.7636 930.974334,4701.07222 930.974334,4702.7079 C930.974334,4704.34351 929.607895,4705.65171 927.95618,4705.65171 Z" id="footer-location-icon"></path>
        </g>
    </g>
</svg>