<?xml version="1.0" encoding="UTF-8"?>
<svg width="30px" height="30px" viewBox="0 0 30 30" version="1.1" xmlns="http://www.w3.org/2000/svg" xmlns:xlink="http://www.w3.org/1999/xlink">
    <!-- Generator: Sketch 52.3 (67297) - http://www.bohemiancoding.com/sketch -->
    <title>footer-twitter icon</title>
    <desc>Created with Sketch.</desc>
    <g id="Page-1" stroke="none" stroke-width="1" fill="none" fill-rule="evenodd">
        <g id="Index---V1" transform="translate(-235.000000, -4760.000000)" fill="#FFFFFF" fill-rule="nonzero">
            <g id="social-media" transform="translate(150.000000, 4760.000000)">
                <g id="footer-twitter-icon" transform="translate(85.000000, 0.000000)">
                    <path d="M14.9617347,0 C6.69857143,0 0,6.69857143 0,14.9617347 C0,23.224898 6.69857143,29.9234694 14.9617347,29.9234694 C23.224898,29.9234694 29.9234694,23.224898 29.9234694,14.9617347 C29.9234694,6.69857143 23.224898,0 14.9617347,0 Z M24.0091837,10.9717347 C24.0162245,11.1483673 24.019898,11.3253061 24.019898,11.5031633 C24.019898,17.8943878 19.1565306,24.505102 11.0179592,24.505102 C8.53010204,24.505102 6.1077551,23.7952041 4.01295918,22.4516327 C3.96918367,22.4237755 3.95112245,22.3695918 3.96857143,22.3209184 C3.98602041,22.272551 4.03530612,22.242551 4.08581633,22.2483673 C4.4372449,22.2903061 4.79663265,22.3111224 5.15326531,22.3111224 C7.08887755,22.3111224 8.92132653,21.7126531 10.4712245,20.5772449 C8.61336735,20.4205102 7.01663265,19.1632653 6.44234694,17.3696939 C6.43040816,17.3323469 6.43897959,17.2916327 6.46469388,17.2622449 C6.49071429,17.2328571 6.5305102,17.22 6.56846939,17.2270408 C7.08336735,17.3246939 7.60683673,17.3311224 8.11132653,17.2490816 C6.19530612,16.6536735 4.84867347,14.8588776 4.84867347,12.8155102 L4.84928571,12.7561224 C4.85020408,12.7172449 4.87132653,12.6817347 4.905,12.662449 C4.93836735,12.6428571 4.98,12.642551 5.01367347,12.6615306 C5.51326531,12.9388776 6.06612245,13.1170408 6.63336735,13.1853061 C5.5322449,12.3076531 4.88571429,10.9772449 4.88571429,9.55408163 C4.88571429,8.73306122 5.10306122,7.92612245 5.5144898,7.2205102 C5.53285714,7.18897959 5.56530612,7.16877551 5.60142857,7.16602041 C5.63785714,7.16234694 5.67306122,7.17826531 5.69602041,7.20642857 C7.94969388,9.97071429 11.2646939,11.6727551 14.8095918,11.8916327 C14.7505102,11.5940816 14.7205102,11.2873469 14.7205102,10.9778571 C14.7205102,8.41836735 16.8027551,6.33642857 19.3619388,6.33642857 C20.620102,6.33642857 21.8360204,6.85346939 22.707551,7.75714286 C23.689898,7.55693878 24.6257143,7.19571429 25.4902041,6.68326531 C25.5296939,6.65969388 25.5792857,6.66336735 25.6157143,6.69183673 C25.6512245,6.72061224 25.6659184,6.76836735 25.6518367,6.81244898 C25.3588776,7.72867347 24.7876531,8.52795918 24.0202041,9.105 C24.7429592,8.97918367 25.4442857,8.76673469 26.1113265,8.47071429 C26.1560204,8.45020408 26.2089796,8.46306122 26.2411224,8.50071429 C26.2729592,8.53867347 26.2757143,8.59285714 26.2481633,8.63387755 C25.6405102,9.54336735 24.887449,10.3297959 24.0091837,10.9717347 Z" id="Shape"></path>
                </g>
            </g>
        </g>
    </g>
</svg>