<?xml version="1.0" encoding="UTF-8"?>
<svg width="41px" height="40px" viewBox="0 0 41 40" version="1.1" xmlns="http://www.w3.org/2000/svg" xmlns:xlink="http://www.w3.org/1999/xlink">
    <!-- Generator: Sketch 52.3 (67297) - http://www.bohemiancoding.com/sketch -->
    <title>Combined Shape</title>
    <desc>Created with Sketch.</desc>
    <g id="Design" stroke="none" stroke-width="1" fill="none" fill-rule="evenodd">
        <g id="Apply-form-768" transform="translate(-141.000000, -1217.000000)" fill="#FFFFFF" fill-rule="nonzero">
            <g id="Group-8" transform="translate(142.000000, 1218.000000)">
                <path d="M15.6335655,32.5189437 C15.6212395,32.483726 15.608181,32.4470219 15.5943924,32.4089429 C15.4471697,32.0023673 15.2712692,31.5961677 15.0685084,31.2202968 C14.955289,31.0104147 14.8367398,30.8160676 14.7133703,30.6403521 C14.1597464,29.8516331 13.0857665,28.577332 12.5429673,28.020423 C10.6154415,26.2263663 9.5,23.7236317 9.5,21.0436714 C9.5,15.7725265 13.7848082,11.5 19.069711,11.5 C24.3547083,11.5 28.6395349,15.7725082 28.6395349,21.0436714 C28.6395349,23.6927647 27.5493944,26.1691802 25.6728268,27.9475746 C25.1640745,28.4657207 23.8163167,30.0557201 23.4384308,30.6284649 C23.3294884,30.7935704 23.2232983,30.9732307 23.120311,31.1651841 C22.9108451,31.5555979 22.7245008,31.9771343 22.5645662,32.3990313 C22.4799333,32.6222873 22.4192847,32.800315 22.3841585,32.9124904 C22.614029,33.1466433 22.755814,33.4627502 22.755814,33.8136436 L22.755814,36.3567839 C22.755814,37.7843028 21.5384985,38.9285714 20.0518476,38.9285714 L17.2038534,38.9285714 C15.7172167,38.9285714 14.5,37.7843146 14.5,36.3567839 L14.5,33.8136436 C14.5,33.1583672 14.9943557,32.6244376 15.6335655,32.5189437 Z M16.6808464,32.5 L21.3902604,32.5 C21.4156512,32.5 21.4408928,32.5006705 21.4659661,32.5019946 C21.5063596,32.3803876 21.5610143,32.2252191 21.6294986,32.0445618 C21.8037614,31.584868 22.007133,31.1248135 22.2391278,30.6924092 C22.3558566,30.4748437 22.4773394,30.26931 22.6037478,30.0777343 C23.0222398,29.4434446 24.409155,27.8072498 24.9720762,27.2343939 C26.6644408,25.630166 27.6395349,23.4150954 27.6395349,21.0436714 C27.6395349,16.3254384 23.803067,12.5 19.069711,12.5 C14.3364514,12.5 10.5,16.3254549 10.5,21.0436714 C10.5,23.4427793 11.4977534,25.681455 13.2414243,27.3051724 C13.8373475,27.9156835 14.9457379,29.2308135 15.5318274,30.0657844 C15.6788506,30.2751898 15.8176148,30.5026771 15.9486188,30.7455276 C16.1769496,31.1687993 16.3718281,31.6188239 16.5346477,32.0684725 C16.5957295,32.2371583 16.6444473,32.3832644 16.6808464,32.5 Z M20.0518476,37.9285714 C20.9995736,37.9285714 21.755814,37.2177104 21.755814,36.3567839 L21.755814,33.8136436 C21.755814,33.6476004 21.5987826,33.5 21.3902604,33.5 L15.8655536,33.5 C15.6569668,33.5 15.5,33.647553 15.5,33.8136436 L15.5,36.3567839 C15.5,37.217739 16.2561563,37.9285714 17.2038534,37.9285714 L20.0518476,37.9285714 Z M38.8167064,16.6980481 C39.0886669,16.6501723 39.3479455,16.8318288 39.3958213,17.1037893 C39.4436972,17.3757498 39.2620407,17.6350284 38.9900802,17.6829042 L32.7378497,18.7835447 C32.4658891,18.8314205 32.2066106,18.649764 32.1587347,18.3778035 C32.1108589,18.105843 32.2925154,17.8465644 32.5644759,17.7986886 L38.8167064,16.6980481 Z M34.4256922,5.95331227 C34.6355721,5.77385457 34.9511925,5.79851659 35.1306502,6.00839643 C35.3101079,6.21827627 35.2854459,6.5338967 35.075566,6.7133544 L30.2551695,10.8350331 C30.0452896,11.0144908 29.7296692,10.9898288 29.5502115,10.7799489 C29.3707538,10.5700691 29.3954158,10.2544487 29.6052957,10.074991 L34.4256922,5.95331227 Z M-0.0866868606,17.6829042 C-0.358647365,17.6350284 -0.540303885,17.3757498 -0.492428054,17.1037893 C-0.444552223,16.8318288 -0.185273644,16.6501723 0.0866868606,16.6980481 L6.33891736,17.7986886 C6.61087787,17.8465644 6.79253439,18.105843 6.74465856,18.3778035 C6.69678272,18.649764 6.43750415,18.8314205 6.16554364,18.7835447 L-0.0866868606,17.6829042 Z M5.99343989,5.78027122 C5.79920146,5.5839907 5.8008569,5.26741254 5.99713741,5.07317411 C6.19341793,4.87893568 6.5099961,4.88059111 6.70423453,5.07687163 L11.1644843,9.58401332 C11.3587227,9.78029384 11.3570673,10.096872 11.1607868,10.2911104 C10.9645062,10.4853489 10.6479281,10.4836934 10.4536896,10.2874129 L5.99343989,5.78027122 Z M20.573939,0.0226991966 C20.592633,-0.25280969 20.8311315,-0.460999317 21.1066404,-0.44230535 C21.3821493,-0.423611382 21.5903389,-0.185112846 21.5716449,0.0903960415 L21.1469912,6.34887894 C21.1282973,6.62438783 20.8897987,6.83257745 20.6142898,6.81388349 C20.3387809,6.79518952 20.1305913,6.55669098 20.1492853,6.28118209 L20.573939,0.0226991966 Z M14.4549263,16.9217516 C14.340346,17.1730004 14.0437829,17.2837922 13.7925341,17.169212 C13.5412853,17.0546317 13.4304935,16.7580687 13.5450737,16.5068198 C14.0011507,15.5067452 14.5481184,14.761402 15.1948997,14.2775006 C15.8541876,13.7842422 16.6653267,13.5265255 17.614034,13.5001925 C17.89007,13.4925306 18.1200526,13.7100909 18.1277145,13.986127 C18.1353763,14.262163 17.9178161,14.4921456 17.64178,14.4998075 C16.8908152,14.5206518 16.2796364,14.7148367 15.7939607,15.078204 C15.2957783,15.4509284 14.8464592,16.0632075 14.4549263,16.9217516 Z" id="Combined-Shape"></path>
            </g>
        </g>
    </g>
</svg>