<?xml version="1.0" encoding="UTF-8"?>
<svg width="41px" height="40px" viewBox="0 0 41 40" version="1.1" xmlns="http://www.w3.org/2000/svg" xmlns:xlink="http://www.w3.org/1999/xlink">
    <!-- Generator: Sketch 52.3 (67297) - http://www.bohemiancoding.com/sketch -->
    <title>Combined Shape</title>
    <desc>Created with Sketch.</desc>
    <g id="Design" stroke="none" stroke-width="1" fill="none" fill-rule="evenodd">
        <g id="Apply-form-768" transform="translate(-141.000000, -1217.000000)" fill="#0497F4" fill-rule="nonzero">
            <g id="Group-8" transform="translate(141.000000, 1217.000000)">
                <path d="M16.6335655,33.5189437 C16.6212395,33.483726 16.608181,33.4470219 16.5943924,33.4089429 C16.4471697,33.0023673 16.2712692,32.5961677 16.0685084,32.2202968 C15.955289,32.0104147 15.8367398,31.8160676 15.7133703,31.6403521 C15.1597464,30.8516331 14.0857665,29.577332 13.5429673,29.020423 C11.6154415,27.2263663 10.5,24.7236317 10.5,22.0436714 C10.5,16.7725265 14.7848082,12.5 20.069711,12.5 C25.3547083,12.5 29.6395349,16.7725082 29.6395349,22.0436714 C29.6395349,24.6927647 28.5493944,27.1691802 26.6728268,28.9475746 C26.1640745,29.4657207 24.8163167,31.0557201 24.4384308,31.6284649 C24.3294884,31.7935704 24.2232983,31.9732307 24.120311,32.1651841 C23.9108451,32.5555979 23.7245008,32.9771343 23.5645662,33.3990313 C23.4799333,33.6222873 23.4192847,33.800315 23.3841585,33.9124904 C23.614029,34.1466433 23.755814,34.4627502 23.755814,34.8136436 L23.755814,37.3567839 C23.755814,38.7843028 22.5384985,39.9285714 21.0518476,39.9285714 L18.2038534,39.9285714 C16.7172167,39.9285714 15.5,38.7843146 15.5,37.3567839 L15.5,34.8136436 C15.5,34.1583672 15.9943557,33.6244376 16.6335655,33.5189437 Z M17.6808464,33.5 L22.3902604,33.5 C22.4156512,33.5 22.4408928,33.5006705 22.4659661,33.5019946 C22.5063596,33.3803876 22.5610143,33.2252191 22.6294986,33.0445618 C22.8037614,32.584868 23.007133,32.1248135 23.2391278,31.6924092 C23.3558566,31.4748437 23.4773394,31.26931 23.6037478,31.0777343 C24.0222398,30.4434446 25.409155,28.8072498 25.9720762,28.2343939 C27.6644408,26.630166 28.6395349,24.4150954 28.6395349,22.0436714 C28.6395349,17.3254384 24.803067,13.5 20.069711,13.5 C15.3364514,13.5 11.5,17.3254549 11.5,22.0436714 C11.5,24.4427793 12.4977534,26.681455 14.2414243,28.3051724 C14.8373475,28.9156835 15.9457379,30.2308135 16.5318274,31.0657844 C16.6788506,31.2751898 16.8176148,31.5026771 16.9486188,31.7455276 C17.1769496,32.1687993 17.3718281,32.6188239 17.5346477,33.0684725 C17.5957295,33.2371583 17.6444473,33.3832644 17.6808464,33.5 Z M21.0518476,38.9285714 C21.9995736,38.9285714 22.755814,38.2177104 22.755814,37.3567839 L22.755814,34.8136436 C22.755814,34.6476004 22.5987826,34.5 22.3902604,34.5 L16.8655536,34.5 C16.6569668,34.5 16.5,34.647553 16.5,34.8136436 L16.5,37.3567839 C16.5,38.217739 17.2561563,38.9285714 18.2038534,38.9285714 L21.0518476,38.9285714 Z M39.8167064,17.6980481 C40.0886669,17.6501723 40.3479455,17.8318288 40.3958213,18.1037893 C40.4436972,18.3757498 40.2620407,18.6350284 39.9900802,18.6829042 L33.7378497,19.7835447 C33.4658891,19.8314205 33.2066106,19.649764 33.1587347,19.3778035 C33.1108589,19.105843 33.2925154,18.8465644 33.5644759,18.7986886 L39.8167064,17.6980481 Z M35.4256922,6.95331227 C35.6355721,6.77385457 35.9511925,6.79851659 36.1306502,7.00839643 C36.3101079,7.21827627 36.2854459,7.5338967 36.075566,7.7133544 L31.2551695,11.8350331 C31.0452896,12.0144908 30.7296692,11.9898288 30.5502115,11.7799489 C30.3707538,11.5700691 30.3954158,11.2544487 30.6052957,11.074991 L35.4256922,6.95331227 Z M0.913313139,18.6829042 C0.641352635,18.6350284 0.459696115,18.3757498 0.507571946,18.1037893 C0.555447777,17.8318288 0.814726356,17.6501723 1.08668686,17.6980481 L7.33891736,18.7986886 C7.61087787,18.8465644 7.79253439,19.105843 7.74465856,19.3778035 C7.69678272,19.649764 7.43750415,19.8314205 7.16554364,19.7835447 L0.913313139,18.6829042 Z M6.99343989,6.78027122 C6.79920146,6.5839907 6.8008569,6.26741254 6.99713741,6.07317411 C7.19341793,5.87893568 7.5099961,5.88059111 7.70423453,6.07687163 L12.1644843,10.5840133 C12.3587227,10.7802938 12.3570673,11.096872 12.1607868,11.2911104 C11.9645062,11.4853489 11.6479281,11.4836934 11.4536896,11.2874129 L6.99343989,6.78027122 Z M21.573939,1.0226992 C21.592633,0.74719031 21.8311315,0.539000683 22.1066404,0.55769465 C22.3821493,0.576388618 22.5903389,0.814887154 22.5716449,1.09039604 L22.1469912,7.34887894 C22.1282973,7.62438783 21.8897987,7.83257745 21.6142898,7.81388349 C21.3387809,7.79518952 21.1305913,7.55669098 21.1492853,7.28118209 L21.573939,1.0226992 Z M15.4549263,17.9217516 C15.340346,18.1730004 15.0437829,18.2837922 14.7925341,18.169212 C14.5412853,18.0546317 14.4304935,17.7580687 14.5450737,17.5068198 C15.0011507,16.5067452 15.5481184,15.761402 16.1948997,15.2775006 C16.8541876,14.7842422 17.6653267,14.5265255 18.614034,14.5001925 C18.89007,14.4925306 19.1200526,14.7100909 19.1277145,14.986127 C19.1353763,15.262163 18.9178161,15.4921456 18.64178,15.4998075 C17.8908152,15.5206518 17.2796364,15.7148367 16.7939607,16.078204 C16.2957783,16.4509284 15.8464592,17.0632075 15.4549263,17.9217516 Z" id="Combined-Shape"></path>
            </g>
        </g>
    </g>
</svg>