<?xml version="1.0" encoding="UTF-8"?>
<svg width="45px" height="44px" viewBox="0 0 45 44" version="1.1" xmlns="http://www.w3.org/2000/svg" xmlns:xlink="http://www.w3.org/1999/xlink">
    <!-- Generator: Sketch 52.3 (67297) - http://www.bohemiancoding.com/sketch -->
    <title>idea icon white</title>
    <desc>Created with Sketch.</desc>
    <defs>
        <path d="M22.5699858,41.5 C23.6422974,41.5 24.5,40.6917915 24.5,39.7101296 L24.5,36.8992903 C24.5,36.6856565 24.3029632,36.5 24.0456717,36.5 L17.9543283,36.5 C17.6969647,36.5 17.5,36.6856053 17.5,36.8992903 L17.5,39.7101296 C17.5,40.6918222 18.3576092,41.5 19.4298897,41.5 L22.5699858,41.5 Z M22.5699858,42.5 L19.4298897,42.5 C17.8181611,42.5 16.5,41.257816 16.5,39.7101296 L16.5,36.8992903 C16.5,36.1196032 17.1575239,35.5 17.9543283,35.5 L24.0456717,35.5 C24.8423852,35.5 25.5,36.119633 25.5,36.8992903 L25.5,39.7101296 C25.5,41.257802 24.1817308,42.5 22.5699858,42.5 Z" id="path-1"></path>
        <path d="M24.5914703,36.1435121 L23.633547,35.8564879 C23.6756559,35.7159522 23.7550785,35.4776506 23.8700766,35.1735506 C24.0614506,34.6674824 24.2847762,34.1610524 24.5393714,33.6853627 C24.6673465,33.446252 24.8004819,33.220452 24.9389356,33.0101077 C25.3982193,32.3122877 26.9253387,30.5062786 27.5425108,29.876632 C29.4187847,28.0937187 30.5,25.6315655 30.5,22.9956368 C30.5,17.751372 26.2467823,13.5 20.9999378,13.5 C15.7531994,13.5 11.5,17.7513903 11.5,22.9956368 C11.5,25.6623326 12.6063375,28.1507169 14.537607,29.9534442 C15.1927762,30.6262948 16.4130514,32.0777228 17.0575537,32.9981593 C17.21841,33.2278281 17.3703405,33.4775096 17.5138418,33.7441783 C17.7642359,34.2094864 17.9780933,34.7045472 18.1567827,35.1992305 C18.2642164,35.4966495 18.3367248,35.7300391 18.3744715,35.8684234 L17.4097174,36.1315766 C17.3786284,36.0176001 17.3139328,35.8093582 17.2162615,35.5389655 C17.0531094,35.0872957 16.8581592,34.6360034 16.6332472,34.2180487 C16.5074765,33.9843288 16.3757024,33.7677722 16.2384368,33.5717859 C15.6263287,32.6976129 14.4404007,31.2870381 13.8382773,30.6678415 C11.7235954,28.6947697 10.5,25.942648 10.5,22.9956368 C10.5,17.1990102 15.2010098,12.5 20.9999378,12.5 C26.79897,12.5 31.5,17.1989901 31.5,22.9956368 C31.5,25.9087009 30.3041618,28.6318745 28.2441321,30.5889562 C27.6810426,31.1638466 26.1930096,32.9236312 25.7742368,33.5599002 C25.6532,33.7437842 25.5353115,33.943725 25.4210354,34.1572404 C25.1888918,34.5909812 24.9825307,35.0589412 24.8054308,35.5272629 C24.6993445,35.8077968 24.6272168,36.0242105 24.5914703,36.1435121 Z" id="path-2"></path>
        <path d="M42.8065922,18.5076082 C43.0785327,18.4596187 43.3378872,18.6411669 43.3858767,18.9131073 C43.4338662,19.1850478 43.252318,19.4444023 42.9803776,19.4923918 L36.0868927,20.7088891 C35.8149522,20.7568786 35.5555977,20.5753305 35.5076082,20.30339 C35.4596187,20.0314495 35.6411669,19.7720951 35.9131073,19.7241056 L42.8065922,18.5076082 Z" id="path-3"></path>
        <path d="M37.9894005,6.6203717 C38.1990635,6.44066062 38.5147134,6.46494139 38.6944245,6.67460431 C38.8741356,6.88426723 38.8498548,7.19991723 38.6401919,7.3796283 L33.3253957,11.9351679 C33.1157328,12.114879 32.8000828,12.0905982 32.6203717,11.8809353 C32.4406606,11.6712724 32.4649414,11.3556224 32.6746043,11.1759113 L37.9894005,6.6203717 Z" id="path-4"></path>
        <path d="M-0.086892667,19.4923918 C-0.358833138,19.4444023 -0.540381274,19.1850478 -0.492391779,18.9131073 C-0.444402285,18.6411669 -0.185047804,18.4596187 0.086892667,18.5076082 L6.98037758,19.7241056 C7.25231805,19.7720951 7.43386619,20.0314495 7.38587669,20.30339 C7.3378872,20.5753305 7.07853272,20.7568786 6.80659224,20.7088891 L-0.086892667,19.4923918 Z" id="path-5"></path>
        <path d="M6.64417303,6.35126509 C6.45017467,6.15474728 6.4522171,5.83817138 6.64873491,5.64417303 C6.84525272,5.45017467 7.16182862,5.4522171 7.35582697,5.64873491 L12.2735382,10.6303126 C12.4675366,10.8268304 12.4654942,11.1434063 12.2689764,11.3374046 C12.0724585,11.531403 11.7558826,11.5293606 11.5618843,11.3328427 L6.64417303,6.35126509 Z" id="path-6"></path>
        <path d="M22.7352454,0.0287338581 C22.753894,-0.246778109 22.9923582,-0.45500707 23.2678701,-0.436358545 C23.5433821,-0.417710019 23.751611,-0.179245825 23.7329625,0.0962661419 L23.2647546,7.01353671 C23.246106,7.28904868 23.0076418,7.49727764 22.7321299,7.47862912 C22.4566179,7.45998059 22.248389,7.2215164 22.2670375,6.94600443 L22.7352454,0.0287338581 Z" id="path-7"></path>
        <path d="M15.4551174,19.2070462 C15.3407689,19.4584006 15.0443082,19.5694659 14.7929538,19.4551174 C14.5415994,19.3407689 14.4305341,19.0443082 14.5448826,18.7929538 C15.0443399,17.6950746 15.642286,16.8782695 16.3477051,16.3492052 C17.0657701,15.8106564 17.9500244,15.5290217 18.986093,15.5001934 C19.2621286,15.4925128 19.492126,15.7100575 19.4998066,15.986093 C19.5074872,16.2621286 19.2899425,16.492126 19.013907,16.4998066 C18.1759783,16.5231217 17.4920359,16.7409571 16.9477051,17.1492052 C16.3907283,17.5669378 15.8902043,18.2506625 15.4551174,19.2070462 Z" id="path-8"></path>
    </defs>
    <g id="Page-1" stroke="none" stroke-width="1" fill="none" fill-rule="evenodd">
        <g id="Apply-form-1-1440" transform="translate(-510.000000, -1398.000000)" fill-rule="nonzero">
            <g id="idea-icon-white" transform="translate(511.000000, 1399.000000)">
                <g id="Stroke-1">
                    <use fill="#FFFFFF" xlink:href="#path-1"></use>
                    <use fill="#0497F4" xlink:href="#path-1"></use>
                </g>
                <g id="Stroke-9">
                    <use fill="#FFFFFF" xlink:href="#path-2"></use>
                    <use fill="#0497F4" xlink:href="#path-2"></use>
                </g>
                <g id="Stroke-33">
                    <use fill="#FFFFFF" xlink:href="#path-3"></use>
                    <use fill="#0497F4" xlink:href="#path-3"></use>
                </g>
                <g id="Stroke-39">
                    <use fill="#FFFFFF" xlink:href="#path-4"></use>
                    <use fill="#0497F4" xlink:href="#path-4"></use>
                </g>
                <g id="Stroke-49">
                    <use fill="#FFFFFF" xlink:href="#path-5"></use>
                    <use fill="#0497F4" xlink:href="#path-5"></use>
                </g>
                <g id="Stroke-55">
                    <use fill="#FFFFFF" xlink:href="#path-6"></use>
                    <use fill="#0497F4" xlink:href="#path-6"></use>
                </g>
                <g id="Stroke-55">
                    <use fill="#FFFFFF" xlink:href="#path-7"></use>
                    <use fill="#0497F4" xlink:href="#path-7"></use>
                </g>
                <g id="Line-16">
                    <use fill="#FFFFFF" xlink:href="#path-8"></use>
                    <use fill="#0497F4" xlink:href="#path-8"></use>
                </g>
            </g>
        </g>
    </g>
</svg>