<?xml version="1.0" encoding="UTF-8"?>
<svg width="26px" height="39px" viewBox="0 0 26 39" version="1.1" xmlns="http://www.w3.org/2000/svg" xmlns:xlink="http://www.w3.org/1999/xlink">
    <!-- Generator: Sketch 52.3 (67297) - http://www.bohemiancoding.com/sketch -->
    <title>investments icon blue</title>
    <desc>Created with Sketch.</desc>
    <g id="Page-1" stroke="none" stroke-width="1" fill="none" fill-rule="evenodd">
        <g id="Apply-form-1-1440" transform="translate(-749.000000, -1404.000000)" fill="#0497F4">
            <g id="investments-icon-blue" transform="translate(748.000000, 1401.000000)">
                <g id="graph" transform="translate(1.636364, 13.727273)" fill-rule="nonzero">
                    <path d="M1.27059659,14.5891573 L1.27059659,26.5108696 L5.73698101,26.5108696 L5.73698101,14.5891573 L1.27059659,14.5891573 Z M1.27059659,13.5891573 L5.73698101,13.5891573 C6.28926576,13.5891573 6.73698101,14.0368725 6.73698101,14.5891573 L6.73698101,26.5108696 C6.73698101,27.0631543 6.28926576,27.5108696 5.73698101,27.5108696 L1.27059659,27.5108696 C0.718311841,27.5108696 0.270596591,27.0631543 0.270596591,26.5108696 L0.270596591,14.5891573 C0.270596591,14.0368725 0.718311841,13.5891573 1.27059659,13.5891573 Z" id="Rectangle"></path>
                    <path d="M10.1140324,8.31289702 L10.1140324,26.5108696 L14.5804169,26.5108696 L14.5804169,8.31289702 L10.1140324,8.31289702 Z M10.1140324,7.31289702 L14.5804169,7.31289702 C15.1327016,7.31289702 15.5804169,7.76061227 15.5804169,8.31289702 L15.5804169,26.5108696 C15.5804169,27.0631543 15.1327016,27.5108696 14.5804169,27.5108696 L10.1140324,27.5108696 C9.56174769,27.5108696 9.11403244,27.0631543 9.11403244,26.5108696 L9.11403244,8.31289702 C9.11403244,7.76061227 9.56174769,7.31289702 10.1140324,7.31289702 Z" id="Rectangle"></path>
                    <path d="M19.2002932,0.559869648 L19.2002932,26.5108696 L23.6666776,26.5108696 L23.6666776,0.559869648 L19.2002932,0.559869648 Z M19.2002932,-0.440130352 L23.6666776,-0.440130352 C24.2189624,-0.440130352 24.6666776,0.00758489819 24.6666776,0.559869648 L24.6666776,26.5108696 C24.6666776,27.0631543 24.2189624,27.5108696 23.6666776,27.5108696 L19.2002932,27.5108696 C18.6480085,27.5108696 18.2002932,27.0631543 18.2002932,26.5108696 L18.2002932,0.559869648 C18.2002932,0.00758489819 18.6480085,-0.440130352 19.2002932,-0.440130352 Z" id="Rectangle"></path>
                </g>
                <g id="arrow" transform="translate(14.183286, 12.466126) scale(-1, -1) rotate(52.000000) translate(-14.183286, -12.466126) translate(11.183286, -2.533874)">
                    <polyline id="Path-22-Copy-6" transform="translate(3.046923, 26.755078) rotate(71.000000) translate(-3.046923, -26.755078) " points="0.700626276 25.0807511 5.39322009 26.7550782 0.700626276 28.4294054"></polyline>
                    <path d="M2.81854058,0.684282079 C2.91289371,0.424759251 3.19976685,0.290862754 3.45928968,0.385215882 C3.71881251,0.47956901 3.85270901,0.766442154 3.75835588,1.02596498 C2.05350676,5.71523468 1.20211147,9.89143246 1.19994345,13.5523511 C1.19776522,17.2305114 1.68784471,20.800668 2.67015982,24.2641488 C2.74550763,24.5298127 2.59122593,24.8062573 2.32556201,24.8816052 C2.05989809,24.956953 1.78345347,24.8026713 1.70810566,24.5370074 C0.700424239,20.9840892 0.197710928,17.321897 0.199943629,13.5517589 C0.20218654,9.764379 1.07646105,5.47595581 2.81854058,0.684282079 Z" id="Line-5-Copy-5" fill-rule="nonzero"></path>
                </g>
            </g>
        </g>
    </g>
</svg>