<?xml version="1.0" encoding="UTF-8"?>
<svg width="110px" height="100px" viewBox="0 0 110 100" version="1.1" xmlns="http://www.w3.org/2000/svg" xmlns:xlink="http://www.w3.org/1999/xlink">
    <!-- Generator: Sketch 52.3 (67297) - http://www.bohemiancoding.com/sketch -->
    <title>outsourcing icon red</title>
    <desc>Created with Sketch.</desc>
    <g id="Page-1" stroke="none" stroke-width="1" fill="none" fill-rule="evenodd">
        <g id="Index---V1" transform="translate(-1308.000000, -669.000000)" fill="#EF1C3B">
            <g id="outsourcing-icon-red" transform="translate(1309.000000, 670.000000)">
                <path d="M63,10.375 C63,5.197645 58.8020755,1 53.625,1 C48.4479245,1 44.25,5.197645 44.25,10.375 C44.25,15.552355 48.4479245,19.75 53.625,19.75 C58.8020755,19.75 63,15.552355 63,10.375 Z M65,10.375 C65,16.6569543 59.9066152,21.75 53.625,21.75 C47.3433848,21.75 42.25,16.6569543 42.25,10.375 C42.25,4.0930457 47.3433848,-1 53.625,-1 C59.9066152,-1 65,4.0930457 65,10.375 Z" id="Stroke-1" fill-rule="nonzero"></path>
                <path d="M74.25,34.0972 L74.25,42.2502 L33,42.2502 L33,34.0972 C33,26.3410813 39.3415491,20.0002 47.098,20.0002 L60.152,20.0002 C67.9084509,20.0002 74.25,26.3410813 74.25,34.0972 Z M72.25,34.0972 C72.25,27.445698 66.8039285,22.0002 60.152,22.0002 L47.098,22.0002 C40.4460715,22.0002 35,27.445698 35,34.0972 L35,40.2502 L72.25,40.2502 L72.25,34.0972 Z" id="Stroke-3" fill-rule="nonzero"></path>
                <path d="M29,66.875 C29,61.697645 24.8020755,57.5 19.625,57.5 C14.4479245,57.5 10.25,61.697645 10.25,66.875 C10.25,72.052355 14.4479245,76.25 19.625,76.25 C24.8020755,76.25 29,72.052355 29,66.875 Z M31,66.875 C31,73.1569543 25.9066152,78.25 19.625,78.25 C13.3433848,78.25 8.25,73.1569543 8.25,66.875 C8.25,60.5930457 13.3433848,55.5 19.625,55.5 C25.9066152,55.5 31,60.5930457 31,66.875 Z" id="Stroke-5" fill-rule="nonzero"></path>
                <path d="M40.25,90.5972 L40.25,98.7502 L-1,98.7502 L-1,90.5972 C-1,82.8410813 5.34154915,76.5002 13.098,76.5002 L26.152,76.5002 C33.9084509,76.5002 40.25,82.8410813 40.25,90.5972 Z M38.25,90.5972 C38.25,83.945698 32.8039285,78.5002 26.152,78.5002 L13.098,78.5002 C6.4460715,78.5002 1,83.945698 1,90.5972 L1,96.7502 L38.25,96.7502 L38.25,90.5972 Z" id="Stroke-7" fill-rule="nonzero"></path>
                <path d="M97,66.875 C97,61.697645 92.8020755,57.5 87.625,57.5 C82.4479245,57.5 78.25,61.697645 78.25,66.875 C78.25,72.052355 82.4479245,76.25 87.625,76.25 C92.8020755,76.25 97,72.052355 97,66.875 Z M99,66.875 C99,73.1569543 93.9066152,78.25 87.625,78.25 C81.3433848,78.25 76.25,73.1569543 76.25,66.875 C76.25,60.5930457 81.3433848,55.5 87.625,55.5 C93.9066152,55.5 99,60.5930457 99,66.875 Z" id="Stroke-9" fill-rule="nonzero"></path>
                <path d="M108.25,90.5972 L108.25,98.7502 L67,98.7502 L67,90.5972 C67,82.8410813 73.3415491,76.5002 81.098,76.5002 L94.152,76.5002 C101.908451,76.5002 108.25,82.8410813 108.25,90.5972 Z M106.25,90.5972 C106.25,83.945698 100.803929,78.5002 94.152,78.5002 L81.098,78.5002 C74.4460715,78.5002 69,83.945698 69,90.5972 L69,96.7502 L106.25,96.7502 L106.25,90.5972 Z" id="Stroke-11" fill-rule="nonzero"></path>
                <path d="M96.0059,52.1665 L94.0119,52.0215 C94.0829,51.0355 94.1189,50.0305 94.1189,49.0355 C94.1189,48.4025 94.1049,47.7675 94.0749,47.1295 L94.0689,46.9755 L96.0669,46.8955 L96.0719,47.0245 C96.1049,47.7065 96.1189,48.3725 96.1189,49.0355 C96.1189,50.0785 96.0809,51.1315 96.0059,52.1665" id="Fill-13"></path>
                <path d="M9.8408,51.0405 L10.8398,51.0045 L9.8388,50.9965 C9.8058,50.3005 9.7908,49.6325 9.7908,48.9695 C9.7908,47.9545 9.8268,46.9295 9.8988,45.9215 L11.8928,46.0625 C11.8248,47.0225 11.7908,48.0005 11.7908,48.9695 C11.7908,49.6025 11.8058,50.2385 11.8348,50.8775 L10.8398,51.0045 L9.8408,51.0405 Z" id="Fill-15"></path>
                <path d="M93.3691,41.1543 C93.0601,39.5573 92.6531,37.9623 92.1571,36.4143 L94.0611,35.8043 C94.5821,37.4273 95.0101,39.1003 95.3321,40.7753 L93.3691,41.1543 Z" id="Fill-17"></path>
                <path d="M12.7227,40.2505 L10.7677,39.8275 C11.1297,38.1565 11.5967,36.4925 12.1557,34.8825 L14.0437,35.5385 C13.5117,37.0725 13.0677,38.6585 12.7227,40.2505" id="Fill-19"></path>
                <path d="M89.9688,30.9678 C89.2568,29.5098 88.4478,28.0758 87.5658,26.7078 L89.2448,25.6228 C90.1718,27.0578 91.0198,28.5608 91.7658,30.0908 L89.9688,30.9678 Z" id="Fill-21"></path>
                <path d="M16.3584,30.1431 L14.5814,29.2251 C15.3634,27.7121 16.2454,26.2271 17.2044,24.8131 L18.8604,25.9351 C17.9454,27.2841 17.1034,28.7001 16.3584,30.1431" id="Fill-23"></path>
                <path d="M84.0371,22.0151 C82.9691,20.7871 81.8161,19.6101 80.6131,18.5171 L81.9571,17.0371 C83.2191,18.1821 84.4271,19.4151 85.5471,20.7031 L84.0371,22.0151 Z" id="Fill-25"></path>
                <path d="M22.4902,21.3208 L21.0102,19.9758 C22.1542,18.7168 23.3882,17.5098 24.6772,16.3898 L25.9892,17.8998 C24.7602,18.9678 23.5822,20.1188 22.4902,21.3208" id="Fill-27"></path>
                <path d="M75.998,14.8906 C74.646,13.9766 73.23,13.1366 71.788,12.3926 L72.704,10.6156 C74.217,11.3946 75.702,12.2756 77.119,13.2336 L75.998,14.8906 Z" id="Fill-29"></path>
                <path d="M30.6865,14.376 L29.6025,12.695 C31.0395,11.769 32.5435,10.922 34.0735,10.178 L34.9485,11.977 C33.4905,12.686 32.0555,13.494 30.6865,14.376" id="Fill-31"></path>
                <path d="M49.6914,92.0537 C47.9914,91.9257 46.2794,91.6927 44.6034,91.3627 L44.9914,89.3997 C46.5884,89.7157 48.2194,89.9367 49.8414,90.0587 L49.6914,92.0537 Z M58.9194,91.7537 C57.9004,91.8967 56.8664,92.0037 55.8464,92.0737 L55.7114,90.0777 C57.3104,89.9687 58.9204,89.7647 60.5234,89.4647 L60.7494,90.4397 L60.9094,91.4277 C60.2334,91.5537 59.5744,91.6617 58.9194,91.7537 Z" id="Fill-33"></path>
            </g>
        </g>
    </g>
</svg>