<?xml version="1.0" encoding="UTF-8"?>
<svg width="21px" height="25px" viewBox="0 0 21 25" version="1.1" xmlns="http://www.w3.org/2000/svg" xmlns:xlink="http://www.w3.org/1999/xlink">
    <!-- Generator: Sketch 52.3 (67297) - http://www.bohemiancoding.com/sketch -->
    <title>Combined Shape</title>
    <desc>Created with Sketch.</desc>
    <g id="Design" stroke="none" stroke-width="1" fill="none" fill-rule="evenodd">
        <g id="Showcase-1440-(Web/Tablet-project)" transform="translate(-710.000000, -2520.000000)" fill="#FFFFFF" fill-rule="nonzero">
            <g id="file-icon" transform="translate(710.000000, 2520.000000)">
                <path d="M14,2 L2.31323176,2 C2.13767891,2 2,2.13610939 2,2.29826106 L2,22.7017389 C2,22.8638906 2.13767891,23 2.31323176,23 L18.6867682,23 C18.8623211,23 19,22.8638906 19,22.7017389 L19,7 L15.32,7 C14.5909841,7 14,6.40901587 14,5.68 L14,2 Z M21,5.91872662 L21,22.7017389 C21,23.9736256 19.9617902,25 18.6867682,25 L2.31323176,25 C1.03820985,25 -1.77635684e-15,23.9736256 -1.77635684e-15,22.7017389 L-1.77635684e-15,2.29826106 C-1.77635684e-15,1.02637437 1.03820985,8.8817842e-16 2.31323176,8.8817842e-16 L15.019237,0 L21,5.91872662 Z M6,9 L6,8 L15,8 L15,9 L6,9 Z M6,12 L6,11 L15,11 L15,12 L6,12 Z M6,15 L6,14 L15,14 L15,15 L6,15 Z M6,19 L6,18 L15,18 L15,19 L6,19 Z" id="Combined-Shape"></path>
            </g>
        </g>
    </g>
</svg>