<?xml version="1.0" encoding="UTF-8"?>
<svg width="126px" height="101px" viewBox="0 0 126 101" version="1.1" xmlns="http://www.w3.org/2000/svg" xmlns:xlink="http://www.w3.org/1999/xlink">
    <!-- Generator: Sketch 52.3 (67297) - http://www.bohemiancoding.com/sketch -->
    <title>philosophy icon 2</title>
    <desc>Created with Sketch.</desc>
    <defs>
        <linearGradient x1="1.20662332%" y1="2.14292466%" x2="90.267142%" y2="79.7543246%" id="linearGradient-1">
            <stop stop-color="#0497F4" offset="0%"></stop>
            <stop stop-color="#0BCBF9" offset="100%"></stop>
        </linearGradient>
    </defs>
    <g id="Page-1" stroke="none" stroke-width="1" fill="none" fill-rule="evenodd">
        <g id="Index---V1" transform="translate(-737.000000, -1769.000000)">
            <g id="philosophy-icon-2" transform="translate(738.000000, 1770.000000)">
                <polygon id="Stroke-1" fill="url(#linearGradient-1)" fill-rule="nonzero" points="53.5 54.5096104 53.5 56.5096104 31.062165 56.5096104 31.062165 54.5096104"></polygon>
                <polygon id="Stroke-2" fill="url(#linearGradient-1)" fill-rule="nonzero" points="94.5022935 54.5096104 94.5022935 56.5096104 72.5 56.5096104 72.5 54.5096104"></polygon>
                <path d="M108.506196,17.037013 L108.506196,15.037013 L121.237614,15.037013 C122.968809,15.037013 124.377017,16.4303975 124.377017,18.1538961 L124.377017,48.9863636 C124.377017,53.1436284 120.975096,56.5097403 116.784243,56.5097403 L108.724074,56.5097403 L108.724074,54.5097403 L116.784243,54.5097403 C119.875236,54.5097403 122.377017,52.0342936 122.377017,48.9863636 L122.377017,18.1538961 C122.377017,17.5397323 121.86895,17.037013 121.237614,17.037013 L108.506196,17.037013 Z" id="Stroke-3" fill="url(#linearGradient-1)" fill-rule="nonzero"></path>
                <polygon id="Stroke-5" fill="url(#linearGradient-1)" fill-rule="nonzero" points="31.0655775 17.037013 31.0655775 15.037013 94.943168 15.037013 94.943168 17.037013"></polygon>
                <path d="M16.8491779,54.5096104 L16.8491779,56.5096104 L7.24942664,56.5096104 C3.05857391,56.5096104 -0.34334761,53.1434986 -0.34334761,48.9862338 L-0.34334761,18.1537662 C-0.34334761,16.4302117 1.06361029,15.0368831 2.79474302,15.0368831 L17.4975615,15.0368831 L17.4975615,17.0368831 L2.79474302,17.0368831 C2.1638452,17.0368831 1.65665239,17.5391627 1.65665239,18.1537662 L1.65665239,48.9862338 C1.65665239,52.0341638 4.15843355,54.5096104 7.24942664,54.5096104 L16.8491779,54.5096104 Z" id="Stroke-7" fill="url(#linearGradient-1)" fill-rule="nonzero"></path>
                <path d="M1.68475408,53.1287013 L3.68475408,53.1287013 L3.68475408,92.6598701 C3.68475408,95.3983934 5.93290244,97.6222078 8.71183338,97.6222078 L114.645102,97.6222078 C117.424033,97.6222078 119.672182,95.3983934 119.672182,92.6598701 L119.672182,53.4637662 L121.672182,53.4637662 L121.672182,92.6598701 C121.672182,96.5078645 118.52376,99.6222078 114.645102,99.6222078 L8.71183338,99.6222078 C4.83317589,99.6222078 1.68475408,96.5078645 1.68475408,92.6598701 L1.68475408,53.1287013 Z" id="Stroke-9" fill="url(#linearGradient-1)" fill-rule="nonzero"></path>
                <path d="M40.5345952,15.2902597 L38.5345952,15.2902597 L38.5345952,9.75909091 C38.5345952,4.17325468 43.1059696,-0.35 48.7405913,-0.35 L75.2915032,-0.35 C80.9263317,-0.35 85.4988118,4.17345777 85.4988118,9.75909091 L85.4988118,15.2902597 L83.4988118,15.2902597 L83.4988118,9.75909091 C83.4988118,5.28288178 79.8265592,1.65 75.2915032,1.65 L48.7405913,1.65 C44.2058292,1.65 40.5345952,5.28258948 40.5345952,9.75909091 L40.5345952,15.2902597 Z" id="Stroke-11" fill="url(#linearGradient-1)" fill-rule="nonzero"></path>
                <path d="M18.2218016,69.4702597 C18.2218016,71.3662417 19.7798828,72.9079221 21.7066731,72.9079221 L26.598425,72.9079221 C28.5252152,72.9079221 30.0832965,71.3662417 30.0832965,69.4702597 L30.0832965,14.0261039 L18.2218016,14.0261039 L18.2218016,69.4702597 Z M26.598425,74.9079221 L21.7066731,74.9079221 C18.6800232,74.9079221 16.2218016,72.4755765 16.2218016,69.4702597 L16.2218016,12.0261039 L32.0832965,12.0261039 L32.0832965,69.4702597 C32.0832965,72.4755765 29.6250749,74.9079221 26.598425,74.9079221 Z" id="Stroke-13" fill="url(#linearGradient-1)" fill-rule="nonzero"></path>
                <path d="M95.6403703,69.4702597 C95.6403703,71.3662417 97.1984515,72.9079221 99.1252418,72.9079221 L104.016994,72.9079221 C105.943784,72.9079221 107.501865,71.3662417 107.501865,69.4702597 L107.501865,14.0261039 L95.6403703,14.0261039 L95.6403703,69.4702597 Z M104.016994,74.9079221 L99.1252418,74.9079221 C96.0985919,74.9079221 93.6403703,72.4755765 93.6403703,69.4702597 L93.6403703,12.0261039 L109.501865,12.0261039 L109.501865,69.4702597 C109.501865,72.4755765 107.043644,74.9079221 104.016994,74.9079221 Z" id="Stroke-15" fill="url(#linearGradient-1)" fill-rule="nonzero"></path>
                <path d="M71.1677052,64.8761039 L54.8938035,64.8761039 C52.7596505,64.8761039 51.0284402,63.1644156 51.0284402,61.0527273 L51.0284402,50.6358442 C51.0284402,48.5241558 52.7596505,46.8124675 54.8938035,46.8124675 L71.1677052,46.8124675 C73.3018582,46.8124675 75.031756,48.5241558 75.031756,50.6358442 L75.031756,61.0527273 C75.031756,63.1644156 73.3018582,64.8761039 71.1677052,64.8761039" id="Fill-17" fill="#EF1C3B"></path>
            </g>
        </g>
    </g>
</svg>