<?xml version="1.0" encoding="UTF-8"?>
<svg width="20px" height="20px" viewBox="0 0 20 20" version="1.1" xmlns="http://www.w3.org/2000/svg" xmlns:xlink="http://www.w3.org/1999/xlink">
    <!-- Generator: Sketch 52.3 (67297) - http://www.bohemiancoding.com/sketch -->
    <title>radio button selected</title>
    <desc>Created with Sketch.</desc>
    <g id="Page-1" stroke="none" stroke-width="1" fill="none" fill-rule="evenodd">
        <g id="Apply-form-1-1440" transform="translate(-381.000000, -1389.000000)" fill="#FFFFFF" fill-rule="nonzero">
            <g id="radio-button-selected" transform="translate(382.000000, 1390.000000)">
                <path d="M9,19 C3.4771525,19 -1,14.5228475 -1,9 C-1,3.4771525 3.4771525,-1 9,-1 C14.5228475,-1 19,3.4771525 19,9 C19,14.5228475 14.5228475,19 9,19 Z M9,17 C13.418278,17 17,13.418278 17,9 C17,4.581722 13.418278,1 9,1 C4.581722,1 1,4.581722 1,9 C1,13.418278 4.581722,17 9,17 Z" id="Oval"></path>
                <circle id="Oval" cx="9" cy="9" r="5"></circle>
            </g>
        </g>
    </g>
</svg>