<?xml version="1.0" encoding="UTF-8"?>
<svg width="20px" height="23px" viewBox="0 0 20 23" version="1.1" xmlns="http://www.w3.org/2000/svg" xmlns:xlink="http://www.w3.org/1999/xlink">
    <!-- Generator: Sketch 52.3 (67297) - http://www.bohemiancoding.com/sketch -->
    <title>Combined Shape</title>
    <desc>Created with Sketch.</desc>
    <g id="Design" stroke="none" stroke-width="1" fill="none" fill-rule="evenodd">
        <g id="Showcase-1440-(Web/Tablet-project)" transform="translate(-1318.000000, -630.000000)" fill="#FFFFFF">
            <g id="BTN-share" transform="translate(1289.000000, 611.000000)">
                <path d="M34.8324815,33.1095531 C34.2133676,33.6633131 33.3960025,34 32.5,34 C30.5670034,34 29,32.4329966 29,30.5 C29,28.5670034 30.5670034,27 32.5,27 C33.3960025,27 34.2133676,27.3366869 34.8324815,27.8904469 L42.118582,23.4066928 C42.0412363,23.1175111 42,22.8135712 42,22.5 C42,20.5670034 43.5670034,19 45.5,19 C47.4329966,19 49,20.5670034 49,22.5 C49,24.4329966 47.4329966,26 45.5,26 C44.6039975,26 43.7866324,25.6633131 43.1675185,25.1095531 L35.881418,29.5933072 C35.9587637,29.8824889 36,30.1864288 36,30.5 C36,30.8135712 35.9587637,31.1175111 35.881418,31.4066928 L43.1675185,35.8904469 C43.7866324,35.3366869 44.6039975,35 45.5,35 C47.4329966,35 49,36.5670034 49,38.5 C49,40.4329966 47.4329966,42 45.5,42 C43.5670034,42 42,40.4329966 42,38.5 C42,38.1864288 42.0412363,37.8824889 42.118582,37.5933072 L34.8324815,33.1095531 Z" id="Combined-Shape"></path>
            </g>
        </g>
    </g>
</svg>