<?xml version="1.0" encoding="UTF-8"?>
<svg width="220px" height="311px" viewBox="0 0 220 311" version="1.1" xmlns="http://www.w3.org/2000/svg" xmlns:xlink="http://www.w3.org/1999/xlink">
    <!-- Generator: Sketch 52.3 (67297) - http://www.bohemiancoding.com/sketch -->
    <title>sport land visual-girl left</title>
    <desc>Created with Sketch.</desc>
    <defs>
        <circle id="path-1" cx="8" cy="8" r="8"></circle>
    </defs>
    <g id="Page-1" stroke="none" stroke-width="1" fill="none" fill-rule="evenodd">
        <g id="Sport-1440---Design" transform="translate(-869.000000, -245.000000)">
            <g id="sport-land-visual" transform="translate(869.000000, 125.000000)">
                <g id="sport-land-visual-girl-left" transform="translate(0.000000, 121.000000)">
                    <g id="Group-34">
                        <path d="M45.4639151,15.2929245 C54.0889151,28.4433962 52.7856132,44.5429245 42.5544811,51.2533019 C32.3233491,57.9650943 17.0360849,52.7448113 8.4125,39.5943396 C-0.2125,26.445283 1.08938679,10.3443396 11.321934,3.63396226 C21.553066,-3.07641509 36.8389151,2.14245283 45.4639151,15.2929245 Z" id="Stroke-1" stroke="#FFFFFF" stroke-width="2"></path>
                        <polyline id="Stroke-3" stroke="#FFFFFF" stroke-width="2" points="29.0325472 53.9650472 55.2018868 72.8126887 60.0287736 69.6471226 50.2122642 39.8862736"></polyline>
                        <polygon id="Fill-5" stroke="#FFFFFF" fill="#FFFFFF" points="76.8556604 93.8690566 71.6367925 97.2921698 55.0264151 73.1148113 60.245283 69.6916981"></polygon>
                        <path d="M11.3215094,3.63396226 L42.5540566,51.2533019" id="Stroke-7" stroke="#FFFFFF"></path>
                        <path d="M16.0182075,0.553443396 L47.2507547,48.172783" id="Stroke-9" stroke="#FFFFFF"></path>
                        <path d="M22.6830189,0.473632075 L49.9801887,42.0915566" id="Stroke-11" stroke="#FFFFFF"></path>
                        <path d="M30.2891509,1.82886792 L50.7400943,33.0104717" id="Stroke-13" stroke="#FFFFFF"></path>
                        <path d="M6.96698113,7.23636792 L37.5160377,53.812783" id="Stroke-15" stroke="#FFFFFF"></path>
                        <path d="M4.15278302,13.1869811 L30.9362736,54.0223585" id="Stroke-17" stroke="#FFFFFF"></path>
                        <path d="M2.70768868,21.225283 L22.9874057,52.1450943" id="Stroke-19" stroke="#FFFFFF"></path>
                        <path d="M8.41193396,39.5946226 L45.4633491,15.2932075" id="Stroke-21" stroke="#FFFFFF"></path>
                        <path d="M12.5192453,45.8569811 L49.5706604,21.555566" id="Stroke-23" stroke="#FFFFFF"></path>
                        <path d="M19.3664623,50.3223113 L50.9386321,29.6138208" id="Stroke-25" stroke="#FFFFFF"></path>
                        <g id="Group-40" transform="translate(0.000000, 56.000000)">
                            <mask id="mask-2" fill="white">
                                <use xlink:href="#path-1"></use>
                            </mask>
                            <use id="Oval" fill="#FFFFFF" xlink:href="#path-1"></use>
                            <circle id="Oval" stroke="#08B5F7" stroke-width="2" mask="url(#mask-2)" cx="1" cy="14" r="8"></circle>
                            <circle id="Oval" stroke="#08B5F7" stroke-width="2" mask="url(#mask-2)" cx="15" cy="-1" r="8"></circle>
                        </g>
                        <path d="M27.9095283,53.6752358 L50.6104717,38.7856132" id="Stroke-27" stroke="#FFFFFF"></path>
                        <path d="M4.30462264,33.3324057 L41.3560377,9.03099057" id="Stroke-29" stroke="#FFFFFF"></path>
                        <path d="M3.06754717,25.1875472 L34.3793396,4.65028302" id="Stroke-31" stroke="#FFFFFF"></path>
                        <path d="M3.78740566,15.7590566 L25.4440094,1.55433962" id="Stroke-33" stroke="#FFFFFF"></path>
                    </g>
                    <path d="M91.8349057,203.685755 C91.8349057,203.685755 82.4528302,214.181509 81.4990566,221.177736 C80.5438679,228.175377 81.4990566,237.079151 81.3391509,248.370189 C81.1806604,259.661226 82.929717,279.060755 82.929717,279.060755 L91.6919811,278.583868 C91.6919811,278.583868 97.8943396,251.709811 99.1665094,245.98434 C100.438679,240.260283 100.915566,232.150377 98.0528302,228.492358 C103.776887,224.358868 123.01934,208.137642 126.675943,202.890472 C130.333962,197.643302 133.338208,194.622075 133.338208,194.622075 L91.8349057,203.685755 Z" id="Fill-35" fill="#FFD2B8"></path>
                    <path d="M139.858821,202.731698 C139.858821,202.731698 149.240896,218.156226 153.694198,223.404811 C158.146085,228.651981 165.019198,235.412358 165.019198,235.412358 C165.019198,235.412358 164.120613,236.522736 167.14184,240.657642 C170.163066,244.792547 172.980991,244.666604 172.980991,244.666604 L198.745142,277.213774 L206.29184,271.789717 C206.29184,271.789717 202,252.790039 192.21684,238.761887 C189.866179,235.391256 183.625729,231.956986 181.573975,229.360382 C180.206138,227.629313 176.902502,217.428085 171.663066,198.756698 L139.858821,202.731698 Z" id="Fill-37" fill="#FFD2B8"></path>
                    <path d="M115.051792,158.160377 C115.051792,158.160377 99.6272642,182.013208 93.2664151,187.101887 C86.905566,192.190566 80.3862264,197.597642 80.3862264,197.597642 C80.3862264,197.597642 89.6083962,208.887264 113.461226,202.686321 C130.885283,198.155189 142.085755,204.752358 151.149434,207.296698 C160.213113,209.841038 177.865,201.731132 187.08717,192.667453 C172.776321,178.833491 156.078208,158.001887 156.078208,158.001887 C147.663926,160.029241 141.686548,161.049757 138.146074,161.063435 C132.569567,161.084978 124.871473,160.117292 115.051792,158.160377 Z" id="Fill-39" fill="#EF1C3B"></path>
                    <path d="M60.7140148,93.3989879 C62.9560148,93.3373724 76.9550525,124.182007 81.2484487,128.792384 C85.541845,133.404177 88.2460903,132.608894 92.2210903,128.315497 C96.1960903,124.022101 110.487128,107.711252 110.487128,107.711252 C110.487128,107.711252 130.602694,92.7598369 115.036656,84.6230445 C107.379581,80.6211577 98.2423167,93.3989879 93.4720336,100.873516 L85.7017506,116.346629 L68.5055242,87.5150256 L60.7140148,93.3989879 Z" id="Fill-41-Copy" fill="#FCBD98" transform="translate(90.829376, 107.887427) rotate(10.000000) translate(-90.829376, -107.887427) "></path>
                    <path d="M100.402496,89.7068077 C106.144358,87.7200262 110.830963,86.3517166 114.462311,85.6018787 C119.909332,84.4771218 125.64514,85.5489002 127.512328,92.3828845 C129.379515,99.2168689 122.730539,103.710033 118.417145,104.924877 C115.541548,105.734773 111.384484,106.974519 105.945953,108.644115 C104.209781,106.448151 102.740461,103.453278 101.537994,99.6594959 C100.335528,95.8657133 99.9570282,92.5481506 100.402496,89.7068077 Z" id="Path-4-Copy" fill="#EF1C3B" transform="translate(114.028640, 96.930253) rotate(-25.000000) translate(-114.028640, -96.930253) "></path>
                    <path d="M113.334375,85.5929687 C111,89 111,94 108.079805,101.172252 C108.818303,120.878296 115.051792,159.160377 115.051792,159.160377 C123.950077,161.792669 130.62379,163.100221 135.072932,163.083033 C139.740771,163.065001 146.74253,161.704618 156.078208,159.001887 C156.078208,159.001887 159,123 163.827264,99.5283019 C168.654528,76.0566038 165.41783,85.3759434 161.124434,83.6268868 C159.344709,82.9018571 152.423186,80.0710535 146.099446,79.3467514 C137.167839,78.323752 128.433868,79.5132075 128.433868,79.5132075 C121.277736,79.354717 115.304919,82.7169511 113.334375,85.5929687 Z" id="Fill-43" fill="#FFFFFF"></path>
                    <path d="M65,92.4702148 C88.8505664,104.924967 101.845623,111.608724 103.985169,112.521484 C107.194488,113.890625 113.838379,116.061035 124,112.521484 C130.774414,110.161784 141.107747,106.786349 155,102.39518 L153,88.4604492 C132.461263,94.080127 120.329915,97.3389161 116.605957,98.2368164 C111.02002,99.5836669 106.866883,100.175781 100.318848,97 C95.9534905,94.8828125 85.1805413,90.8828125 68,85 L65,92.4702148 Z" id="Path-5" fill="#FFD2B8"></path>
                    <rect id="Rectangle" fill="#FFFFFF" transform="translate(84.250000, 96.566987) rotate(25.000000) translate(-84.250000, -96.566987) " x="79.25" y="90.0669873" width="10" height="13" rx="2"></rect>
                    <path d="M139.180628,89.4904158 C146.92249,86.1703011 152.609094,84.1353247 156.240442,83.3854868 C161.687464,82.26073 167.423272,83.3325083 169.290459,90.1664927 C171.157647,97.0004771 167.501472,103.785156 163.188077,105 C160.312481,105.809896 154.157817,106.619137 144.724085,107.427723 C142.987912,105.23176 141.518592,102.236887 140.316126,98.443104 C139.113659,94.6493215 138.73516,91.6650921 139.180628,89.4904158 Z" id="Path-4" fill="#EF1C3B"></path>
                    <path d="M117.400661,53.0241509 C116.816391,52.5472642 113.159822,37.5996226 116.669347,30.6019811 C120.178872,23.6057547 127.490709,20.5845283 131.000234,21.8566981 C139.480611,18.3585849 153.37297,25.8316981 155.712653,31.5571698 C158.052337,37.2812264 158.052337,40.6208491 158.052337,40.6208491 C158.052337,40.6208491 167.995341,43.3236792 167.411071,56.0453774 C166.8255,68.7670755 166.972543,80.535 166.972543,80.535 L149.424917,79.1029245 C149.424917,79.1029245 148.547861,61.6109434 148.255075,55.5684906 C147.962289,49.5260377 141.236024,50.6383019 133.192874,47.1401887 C125.151025,43.6420755 118.716245,39.5071698 118.131975,43.6420755 C117.546403,47.7769811 117.400661,53.0241509 117.400661,53.0241509" id="Fill-45" fill="#170803"></path>
                    <path d="M128.228523,72.1574707 L127.614484,84.6445312 C127.614484,84.6445312 129.999905,90.5902023 134,90.5454102 C138.000095,90.5006181 144.783306,83.172235 143.753906,83.9055118 L144.190458,70.5112305 L128.228523,72.1574707 Z" id="Fill-49" fill="#FCBD98"></path>
                    <path d="M117.546793,50.4799528 C118.278107,56.9992925 121.202061,66.8582547 125.297158,71.153066 C129.390953,75.4464623 144.014626,77.0356132 146.792838,67.971934 C149.571049,58.9082547 152.203518,55.0917453 152.203518,55.0917453 L136.209608,41.257783 C136.209608,41.257783 121.732979,38.871934 121.29315,38.871934 C120.854622,38.871934 117.199354,39.667217 117.199354,39.667217 L117.546793,50.4799528 Z" id="Fill-47" fill="#FFD2B8"></path>
                    <path d="M67.153243,295.599245 C63.4114945,296.313868 59.8841038,298.818585 59.8841038,300.369528 C59.8841038,301.920472 60.7889156,302.270189 66.4048933,302.635094 C72.020871,303 77.7508014,301.834906 85.6173136,301 C93.4838257,300.165094 95.7126367,301.91642 95.9269945,298.934817 C96.1400839,295.953213 95.0540032,292.498774 93.8782063,290.828962 C92.7024093,289.159151 95.3749057,289.159151 87.0365142,289.159151 C78.6981227,289.159151 82.3333266,288.443113 82.3333266,288.443113 C76.7739761,291.782736 70.8949916,294.883208 67.153243,295.599245 Z" id="Fill-51" fill="#31343C"></path>
                    <path d="M114.910156,36.8121212 C118.513653,38.651892 124.294578,39.5717773 132.25293,39.5717773 C140.211282,39.5717773 148.46027,38.3810647 156.999895,35.9996393 C157.666492,38.9035256 157.999826,40.6188139 157.999895,41.1455043 C158,41.9355399 144.709473,45.0148309 132.25293,45.0148309 C123.948568,45.0148309 118.167643,44.0188391 114.910156,42.0268555 L114.910156,36.8121212 Z" id="Path-19" fill="#FFFFFF"></path>
                    <path d="M115.165981,41.2109968 C106.357285,46.1190112 101.906975,49.3499936 101.815049,50.9039439 C101.5932,54.6541601 108.458378,52.202479 111.004303,52.9426112 C116.891732,54.6541601 118.721421,55.2569946 124.2023,54.6015 C127.947243,54.1536174 129.76409,54.2493227 132.385742,52.9426112 C136.69144,50.7965196 141.589552,47.4746392 147.080078,42.97697 C138.509766,43.8051398 131.779948,44.2192247 126.890625,44.2192247 C122.001302,44.2192247 118.093087,43.2164821 115.165981,41.2109968 Z" id="Path-7" fill="#FFFFFF"></path>
                    <path d="M209.813868,277.120943 C200.869057,282.130377 201.227075,285.47 201.227075,285.47 C201.227075,285.47 196.217642,289.166226 195.263868,294.533679 C194.310094,299.901132 191.805377,300.378019 188.942642,300.496887 C186.079906,300.615755 185.484151,303.716226 188.465755,304.432264 C191.447358,305.148302 200.629906,301.212925 202.776604,300.138868 C204.924717,299.066226 211.12566,289.643113 213.511509,288.093585 C215.895943,286.542642 221.621415,285.230849 218.639811,281.176604 C215.658208,277.120943 209.813868,277.120943 209.813868,277.120943" id="Fill-53" fill="#31343C"></path>
                    <polygon id="Fill-55" fill="#FFFFFF" points="203.482028 283.198066 210.757028 277.592877 204.912689 268.648066 196.623066 274.148538"></polygon>
                    <path d="M63.6823199,88.6094618 C59.6934575,88.6094618 58.6370535,85.4167834 58.6370535,81.4769146 C58.6370535,77.5370459 59.6934575,74.3443675 63.6823199,74.3443675 C67.6696416,74.3443675 70.9035629,77.5370459 70.9035629,81.4769146 C70.9035629,85.4167834 67.6696416,88.6094618 63.6823199,88.6094618 Z" id="Fill-61" fill="#FCBD98" transform="translate(64.770308, 81.476915) rotate(-15.000000) translate(-64.770308, -81.476915) "></path>
                    <polygon id="Fill-57" fill="#FFFFFF" points="82.5721226 276.874434 83.5606602 289 90.902783 289.635755 92.1296698 275.92066"></polygon>
                    <path d="M67.9075912,96.6725452 C63.9187288,96.6725452 62.8623247,93.0322456 62.8623247,88.539998 C62.8623247,84.0477504 63.9187288,80.4074508 67.9075912,80.4074508 C71.8949129,80.4074508 75.1288342,84.0477504 75.1288342,88.539998 C75.1288342,93.0322456 71.8949129,96.6725452 67.9075912,96.6725452 Z" id="Fill-61" fill="#FFD2B8" transform="translate(68.995579, 88.539998) rotate(-25.000000) translate(-68.995579, -88.539998) "></path>
                    <path d="M78.8556604,97.8690566 L73.6367925,101.29217 L68.3882671,93.7704128 C68.9675052,92.607989 69.5781828,91.8161913 70.2203,91.3950195 C70.8624172,90.9738478 71.9913622,90.6246078 73.607135,90.3472996 L78.8556604,97.8690566 Z" id="Fill-5" stroke="#FFFFFF" fill="#FFFFFF"></path>
                    <ellipse id="Oval-Copy-6" fill="#000000" opacity="0.099999994" cx="121.5" cy="299.5" rx="82.5" ry="10.5"></ellipse>
                </g>
            </g>
        </g>
    </g>
</svg>