<?xml version="1.0" encoding="UTF-8"?>
<svg width="624px" height="231px" viewBox="0 0 624 231" version="1.1" xmlns="http://www.w3.org/2000/svg" xmlns:xlink="http://www.w3.org/1999/xlink">
    <!-- Generator: Sketch 52.3 (67297) - http://www.bohemiancoding.com/sketch -->
    <title>sport-running man</title>
    <desc>Created with Sketch.</desc>
    <g id="Page-1" stroke="none" stroke-width="1" fill="none" fill-rule="evenodd">
        <g id="Index---V1" transform="translate(-822.000000, -187.000000)">
            <g id="sport-running-man" transform="translate(822.000000, 181.000000)">
                <ellipse id="Oval" fill="#000000" opacity="0.099999994" cx="266.5" cy="232" rx="266.5" ry="5"></ellipse>
                <path d="M196.944287,53.9210889 C193.936023,50.2312624 189.833845,54.1944093 187.919494,57.4742551 C186.005144,60.7541009 184.637752,63.6239659 184.501012,60.7541009 C184.364273,57.8842358 181.492748,58.567537 181.356009,64.4439274 C181.219269,70.3203177 179.304919,70.1836575 173.972087,76.743349 C168.639255,83.3030405 154.28163,85.0796236 154.28163,85.0796236 C154.28163,85.0796236 153.466663,75.3461347 152.504019,71.2769394 C150.726408,63.7606262 151.273365,58.2942165 149.905972,50.9145636 C149.481534,48.6241379 148.752987,46.545809 147.719238,44.7014424 C149.636869,42.3082483 149.892845,42.5017592 155.082375,42.3333938 C158.400217,42.2262521 158.73933,40.7415753 160.345197,37.7263037 C161.842765,34.9143826 161.499276,35.1505315 163.760397,35.3768409 C167.840697,35.784635 165.897906,27.1214691 169.657689,21.0854596 C170.033996,21.0778066 170.444213,21.0625007 170.897094,21.0428216 C174.583585,20.8799226 176.116159,16.2236349 175.06272,13.9113436 C173.227131,14.7761296 171.674867,14.9149764 167.618633,11.7346193 C163.563492,8.55426219 158.030474,5.12573008 152.980965,6.40596321 C150.462775,4.91144683 144.292004,7.71790152 141.072614,11.9653018 C137.637723,16.4958621 136.741808,26.7748987 138.551142,31.7996224 C138.913228,32.8043485 139.041216,33.4078401 139.174673,33.7817426 L138.194526,36.8057604 C137.562243,36.5696115 136.914646,36.3465819 136.232044,36.1552576 C127.395404,33.6767875 105.739182,38.3418215 101.910482,39.0251227 C98.0817822,39.7084239 90.5611214,48.86466 86.8691606,59.2508382 C83.1771998,69.6370165 82.6302426,72.0969008 79.2117604,73.8734839 C75.7932782,75.6500671 72.9217532,80.159855 70.8706639,88.4961297 C68.8195745,96.8324043 70.3237067,98.4723272 72.374796,98.8823079 C74.4258854,99.2922886 78.2545854,97.5157055 79.7587176,93.4158983 C81.2628498,89.3160911 80.7158926,89.9993923 83.1771998,91.5026549 C85.638507,93.0059176 86.0487248,90.956014 85.0915498,87.1295273 C84.1343748,83.3030405 85.638507,79.7498743 87.0058999,75.6500671 C88.3732927,71.5502599 96.9878679,60.3441201 102.3207,55.9709925 C104.557755,54.1364654 105.41429,53.3186905 105.66589,52.9797731 L117.6355,53.3744479 C117.6355,53.3744479 109.704622,80.706496 106.422879,88.4961297 C103.141136,96.2857634 101.637004,95.0558212 96.57765,103.802077 C91.5182964,112.548332 90.9713392,117.878081 79.8954569,133.047368 C68.8195745,148.216655 74.5626246,153.136423 61.5723923,159.696115 C48.5821599,166.255806 37.9164954,182.381715 29.0284417,190.99131 C20.140388,199.600905 11.241787,199.446897 9.54893101,203.730195 C7.85607499,208.013492 10.5686378,208.620481 11.115595,217.503397 C11.6625521,226.386312 12.3462486,230.8961 17.8158201,231.852722 C23.2853916,232.809343 21.5803698,229.659281 19.5292805,228.565999 C17.4781912,227.472717 19.1913523,218.560905 19.8750487,213.367816 C20.5587452,208.174726 33.5408382,201.377488 37.232799,198.234303 C40.9247598,195.091117 59.6580422,180.605132 66.4950066,177.188626 C73.3319711,173.77212 88.2365535,163.932582 95.2102571,155.596308 C102.183961,147.260033 113.259843,136.327214 117.77224,135.097272 C122.284636,133.867329 123.37855,137.420496 135.821826,137.420496 C148.265101,137.420496 150.45293,138.513778 150.45293,138.513778 C150.45293,138.513778 132.813561,160.516076 125.019422,167.485749 C117.225283,174.455421 103.551354,178.418568 110.525057,184.568279 C117.498761,190.717989 126.386815,199.327585 133.08704,200.284206 C139.787265,201.240828 141.838354,199.054264 137.052479,195.364438 C132.266604,191.674611 125.42964,183.201676 125.292901,181.971734 C125.156161,180.741792 129.668558,178.281908 138.556611,170.492274 C147.444665,162.70264 168.092298,147.943334 173.151651,139.060419 C178.211005,130.177503 174.382305,132.227407 169.186212,126.897657 C163.990119,121.567908 145.667054,112.275011 131.446168,108.448525 C135.138129,100.24891 139.513786,91.9126357 139.513786,91.9126357 C139.513786,91.9126357 142.932269,95.8757826 145.120097,98.6089874 C147.307926,101.342192 147.991622,102.435474 153.734672,99.2922886 C159.477723,96.1491031 176.433394,86.7195465 181.08253,81.9364381 C185.731666,77.1533297 192.295152,72.780202 194.346241,70.1836575 C196.39733,67.5871129 197.303654,57.746022 194.29539,54.0561955" id="Fill-1-Copy" fill="#06A1F5"></path>
                <path d="M182.578776,87.7572496 C179.648541,91.0953268 172.062821,99.5274763 172.062821,99.5274763 C172.062821,99.5274763 174.131465,71.7709481 175.338519,70.0149529 C176.545574,68.2579038 189.12914,64.2178501 189.12914,64.2178501 C187.750388,71.0689716 185.509011,84.4191724 182.578776,87.7572496 Z M254.451948,219.301947 C251.623015,217.178344 244.630495,216.806068 240.916592,214.858724 C237.202688,212.912441 236.988111,205.530492 237.342523,194.736215 C237.695875,183.940877 239.995312,152.617724 234.86588,145.538691 C229.73751,138.460721 212.051901,113.861959 204.447948,109.968331 C209.045761,98.2885117 213.997986,89.2631965 213.997986,89.2631965 C213.997986,89.2631965 233.62862,82.5388058 239.640899,81.2996831 C245.65424,80.0616222 255.204278,81.477004 254.320369,73.1599106 C253.435398,64.8417554 246.007591,66.2581989 242.6481,70.6816652 C239.287548,75.1061932 223.548024,74.3979715 222.84026,74.5752924 C222.132496,74.7526133 227.615279,63.9572745 227.615279,55.2855393 C227.615279,46.6148658 224.962491,45.906644 222.84026,44.1366205 C222.823282,44.122817 222.808427,44.1100754 222.791449,44.096272 C224.474378,42.5778954 225.06648,42.8019356 229.627154,43.2425834 C232.832783,43.5526295 233.34318,42.1648545 235.263798,39.4604454 C237.054961,36.9386661 236.694182,37.1234196 238.841879,37.6224665 C242.716011,38.5239362 241.926541,29.9382069 246.295153,24.5930967 C246.658055,24.6313216 247.054912,24.6684847 247.493152,24.7056477 C251.0585,25.0082612 253.11388,20.7143348 252.389139,18.356073 C250.515209,18.9602382 249.004181,18.8997155 245.498256,15.3320615 C241.993392,11.7633457 237.097406,7.7720328 232.080452,8.37619801 C229.844682,6.62316326 223.558635,8.55776612 219.932804,12.2475273 C216.062916,16.1836266 213.921586,25.9713155 215.036818,31.0382336 C215.259652,32.0501307 215.307402,32.6468633 215.390169,33.0248647 L213.441962,37.1404085 C213.441962,37.1404085 213.614923,37.4769996 213.924769,38.0025915 C208.000562,35.3852501 203.108821,37.4610726 192.245122,43.7830405 C167.308912,58.2946855 165.893384,56.7019828 164.656123,68.5580616 C163.417802,80.4152022 165.362826,94.9268472 163.417802,98.2885117 C161.472777,101.651238 156.343346,107.844728 159.350547,110.145652 C162.356686,112.446577 166.247796,113.684638 165.540032,117.400944 C164.832268,121.11725 152.629442,150.8477 151.568327,153.679526 C150.507212,156.511351 149.976654,156.156709 139.542707,152.795045 C129.10876,149.432318 120.619837,151.378601 112.484266,151.909502 C104.348695,152.440403 100.458646,148.016937 96.2141847,147.131394 C91.9697234,146.246913 86.6641467,145.538691 84.3647098,148.724097 C82.0652729,151.909502 74.9918781,158.988535 71.2779745,165.712925 C67.5640709,172.438378 68.9785376,174.915561 72.3390898,174.738241 C75.698581,174.561981 75.3452295,171.907477 82.4196854,166.952048 C89.4930802,161.996619 98.3364154,162.52752 109.30092,164.297544 C120.265425,166.067567 146.793308,171.199255 150.331066,171.376576 C153.867764,171.552835 159.881104,174.915561 166.601148,163.235742 C173.321191,151.555922 187.646248,136.690697 188.176806,130.850787 C202.325717,144.831531 218.242447,153.679526 219.656914,156.156709 C221.071381,158.634955 219.126356,171.730156 222.486909,179.87099 C225.8464,188.010763 227.084721,201.637927 226.73137,208.362318 C226.376957,215.086709 221.739074,221.137235 227.615279,222.653739 C233.491484,224.170243 247.972782,224.764134 251.509479,223.348752 C255.047238,221.932308 257.281943,221.425551 254.451948,219.301947 Z" id="Stroke-1-Copy" fill="#07ADF6" transform="translate(162.406337, 115.937455) rotate(5.000000) translate(-162.406337, -115.937455) "></path>
                <path d="M375.215679,68.1035072 C372.680612,63.5147013 372.320604,69.4519839 370.039043,72.2562542 C367.757482,75.0605245 363.954881,80.9239986 363.954881,77.0999937 C363.954881,73.2759888 362.180334,75.5703918 360.659293,81.9437333 C359.138253,88.3170748 354.068118,92.1410797 348.490969,93.6706817 C342.913821,95.2002836 333.534071,97.4946866 333.027057,93.9256153 C332.520044,90.3565441 331.25251,75.5703918 330.238483,69.4519839 C329.881546,67.2983044 329.500271,65.4862359 329.090604,63.9392984 C331.39853,62.4484464 331.615532,62.707459 336.172569,64.071864 C339.122374,64.9559739 339.855515,63.7424897 342.1533,61.547001 C344.294925,59.5003936 343.922778,59.6084854 345.845373,60.4752599 C349.313345,62.0395328 350.146875,53.8021164 355.224109,49.5702176 C355.557723,49.6732108 355.922773,49.7813027 356.32737,49.8975524 C359.61586,50.840807 362.33041,47.1728215 362.082987,44.815195 C360.21515,45.0395366 358.808694,44.7040439 356.175266,40.6944473 C353.541838,36.6838309 349.682451,32.0185449 344.866837,31.6626576 C343.091275,29.5976949 336.840813,30.2615422 332.76341,33.0698914 C328.413234,36.0658717 324.609619,44.895754 324.727246,49.8771577 C324.750569,50.871399 324.685671,51.4434701 324.693783,51.8146536 L323.028751,54.0845829 C322.584607,53.7378731 322.122211,53.3911633 321.637506,53.027118 C317.581398,49.9679141 314.014051,49.0572911 304.634301,44.7234189 C295.254551,40.3895466 288.409869,36.8204754 275.734531,40.8994139 C263.059194,44.9783525 259.763606,52.6263623 251.65139,51.8615613 C243.539174,51.0967604 241.004106,52.3714287 233.65241,52.6263623 C226.300715,52.881296 226.554221,53.646097 232.638383,56.9602346 C238.722545,60.2743721 239.483066,63.8434434 247.848788,60.7842395 C256.214511,57.7250355 270.917903,52.6263623 277.762585,52.881296 C284.607268,53.1362296 288.156362,52.3714287 289.423896,53.646097 C290.69143,54.9207653 293.155515,57.4701019 293.155515,57.4701019 L264.326727,81.6887996 C264.326727,81.6887996 254.439964,85.7677382 243.285667,96.2200183 C232.13137,106.672298 237.708518,104.887763 227.568248,119.164048 C217.427978,133.440333 214.892911,140.323542 205.259654,146.187016 C195.626397,152.05049 191.063276,151.795556 182.19054,162.247836 C173.317803,172.700116 169.363879,178.014556 161.779299,182.05534 C154.174096,183.330009 151.257003,180.722711 152.017523,192.959527 C152.778044,205.196343 154.81181,211.450033 158.107398,212.469767 C161.402986,213.489502 162.417013,211.704967 160.642466,208.135895 C158.867918,204.566824 158.980132,194.430951 171.148456,187.292809 C183.31678,180.154666 199.428999,165.052107 209.315762,161.992903 C219.202525,158.933699 223.005127,159.188632 235.173451,148.991286 C247.341775,138.79394 254.439964,122.988053 264.580234,126.557124 C274.720504,130.126195 283.042624,131.315206 286.635322,132.165664 C295.254551,134.205134 295.508058,135.734736 287.142335,142.872878 C277.490826,151.108255 270.840837,161.628857 258.242565,166.071841 C252.480864,168.103153 249.623336,172.95505 259.003086,178.308657 C268.382835,183.662264 266.861795,186.721468 271.17141,189.525738 C275.481025,192.330008 277.002065,193.094809 277.762585,191.310274 C278.523106,189.525738 277.002065,184.427065 274.720504,180.093193 C272.438943,175.75932 271.17141,173.209984 271.424916,171.170514 C271.678423,169.131045 281.424237,165.015396 290.69143,158.423831 C301.085207,151.030755 320.858733,141.59821 319.337693,128.851527 C318.404788,121.0373 297.029098,110.24137 291.45195,107.692033 C285.874801,105.142696 281.31168,104.414606 286.635322,101.59198 C291.958963,98.7693549 314.014051,89.3368094 314.521064,90.3565441 C315.028078,91.3762787 318.323666,102.338426 321.365747,107.182166 C324.407828,112.025905 326.435882,115.085109 346.969929,103.613094 C360.057975,96.3015971 370.039043,89.8466768 374.602165,86.7874728 C379.165286,83.7282689 377.750747,72.6923131 375.215679,68.1035072 Z" id="Stroke-1" fill="#07B4F6" transform="translate(264.739887, 121.605643) rotate(-10.000000) translate(-264.739887, -121.605643) "></path>
                <g id="Group-3" transform="translate(357.594836, 127.029340) rotate(5.000000) translate(-357.594836, -127.029340) translate(263.094836, 13.529340)" fill="#28CEFE">
                    <path d="M188.906234,48.0495314 C185.89797,44.3597049 181.795791,48.3228519 179.881441,51.6026977 C177.967091,54.8825434 176.599699,57.7524085 176.462959,54.8825434 C176.32622,52.0126784 173.454695,52.6959796 173.317956,58.5723699 C173.181216,64.4487603 171.266866,64.3121 165.934034,70.8717916 C160.601202,77.4314831 146.243577,79.2080662 146.243577,79.2080662 C146.243577,79.2080662 145.42861,69.4745773 144.465966,65.4053819 C142.688355,57.8890687 143.235312,52.4226591 141.867919,45.0430061 C141.443481,42.7525805 140.714934,40.6742516 139.681185,38.829885 C141.598816,36.4366908 141.854792,36.6302017 147.044322,36.4618363 C150.362164,36.3546947 150.701277,34.8700178 152.307144,31.8547463 C153.804712,29.0428252 153.461223,29.2789741 155.722344,29.5052835 C159.802644,29.9130776 157.859853,21.2499117 161.619636,15.2139022 C161.995943,15.2062492 162.40616,15.1909432 162.859041,15.1712642 C166.545532,15.0083652 168.078106,10.3520775 167.024667,8.03978619 C165.189078,8.90457219 163.636814,9.04341899 159.58058,5.86306188 C155.525439,2.68270476 149.992421,-0.745827345 144.942912,0.534405787 C142.424722,-0.960110602 136.253951,1.84634409 133.034561,6.09374436 C129.59967,10.6243047 128.703755,20.9033413 130.513089,25.928065 C130.875175,26.9327911 131.003162,27.5362827 131.13662,27.9101851 L130.156473,30.9342029 C129.52419,30.698054 128.876593,30.4750245 128.193991,30.2837002 C119.357351,27.8052301 97.7011293,32.470264 93.8724292,33.1535652 C90.0437292,33.8368664 82.5230683,42.9931025 78.8311076,53.3792808 C75.1391468,63.7654591 74.5921896,66.2253434 71.1737074,68.0019265 C67.7552252,69.7785096 64.8837002,74.2882976 62.8326108,82.6245722 C60.7815215,90.9608469 62.2856537,92.6007698 64.336743,93.0107505 C66.3878323,93.4207312 70.2165324,91.6441481 71.7206646,87.5443409 C73.2247967,83.4445337 72.6778396,84.1278349 75.1391468,85.6310975 C77.600454,87.1343602 78.0106718,85.0844566 77.0534968,81.2579698 C76.0963218,77.4314831 77.600454,73.8783168 78.9678468,69.7785096 C80.3352397,65.6787024 88.9498149,54.4725627 94.2826471,50.099435 C96.5197019,48.264908 97.3762368,47.4471331 97.6278371,47.1082157 L109.597447,47.5028905 C109.597447,47.5028905 101.666569,74.8349385 98.3848258,82.6245722 C95.1030828,90.4142059 93.5989507,89.1842638 88.539597,97.9305191 C83.4802434,106.676775 82.9332862,112.006524 71.8574039,127.175811 C60.7815215,142.345097 66.5245716,147.264866 53.5343393,153.824557 C40.5441069,160.384249 29.8784424,176.510157 20.9903887,185.119752 C12.102335,193.729348 3.20373402,193.57534 1.51087799,197.858637 C-0.181978031,202.141935 2.53058479,202.748923 3.07754195,211.631839 C3.6244991,220.514755 4.30819554,225.024543 9.77776706,225.981164 C15.2473386,226.937786 13.5423168,223.787723 11.4912275,222.694441 C9.44013817,221.601159 11.1532993,212.689347 11.8369957,207.496258 C12.5206922,202.303169 25.5027852,195.505931 29.194746,192.362745 C32.8867068,189.21956 51.6199892,174.733574 58.4569536,171.317068 C65.293918,167.900562 80.1985004,158.061025 87.1722041,149.72475 C94.1459078,141.388476 105.22179,130.455656 109.734187,129.225714 C114.246583,127.995772 115.340497,131.548938 127.783773,131.548938 C140.227048,131.548938 142.414877,132.64222 142.414877,132.64222 C142.414877,132.64222 124.775508,154.644519 116.981369,161.614191 C109.18723,168.583863 95.5133007,172.54701 102.487004,178.696721 C109.460708,184.846432 118.348762,193.456027 125.048987,194.412649 C131.749212,195.36927 133.800301,193.182707 129.014426,189.49288 C124.228551,185.803054 117.391587,177.330119 117.254848,176.100177 C117.118108,174.870234 121.630505,172.41035 130.518558,164.620716 C139.406612,156.831083 160.054245,142.071777 165.113598,133.188861 C170.172952,124.305946 166.344252,126.355849 161.148159,121.0261 C155.952066,115.69635 137.629001,106.403454 123.408115,102.576967 C127.100076,94.3773529 131.475733,86.0410782 131.475733,86.0410782 C131.475733,86.0410782 134.894216,90.0042252 137.082044,92.73743 C139.269873,95.4706348 139.953569,96.5639167 145.696619,93.4207312 C151.43967,90.2775457 168.395341,80.8479891 173.044477,76.0648807 C177.693613,71.2817723 184.257099,66.9086446 186.308188,64.3121 C188.359277,61.7155555 189.265601,51.8744645 186.257337,48.184638" id="Fill-1"></path>
                </g>
                <path d="M450.578776,87.7572496 C447.648541,91.0953268 440.062821,99.5274763 440.062821,99.5274763 C440.062821,99.5274763 442.131465,71.7709481 443.338519,70.0149529 C444.545574,68.2579038 457.12914,64.2178501 457.12914,64.2178501 C455.750388,71.0689716 453.509011,84.4191724 450.578776,87.7572496 Z M522.451948,219.301947 C519.623015,217.178344 512.630495,216.806068 508.916592,214.858724 C505.202688,212.912441 504.988111,205.530492 505.342523,194.736215 C505.695875,183.940877 507.995312,152.617724 502.86588,145.538691 C497.73751,138.460721 480.051901,113.861959 472.447948,109.968331 C477.045761,98.2885117 481.997986,89.2631965 481.997986,89.2631965 C481.997986,89.2631965 501.62862,82.5388058 507.640899,81.2996831 C513.65424,80.0616222 523.204278,81.477004 522.320369,73.1599106 C521.435398,64.8417554 514.007591,66.2581989 510.6481,70.6816652 C507.287548,75.1061932 491.548024,74.3979715 490.84026,74.5752924 C490.132496,74.7526133 495.615279,63.9572745 495.615279,55.2855393 C495.615279,46.6148658 492.962491,45.906644 490.84026,44.1366205 C490.823282,44.122817 490.808427,44.1100754 490.791449,44.096272 C492.474378,42.5778954 493.06648,42.8019356 497.627154,43.2425834 C500.832783,43.5526295 501.34318,42.1648545 503.263798,39.4604454 C505.054961,36.9386661 504.694182,37.1234196 506.841879,37.6224665 C510.716011,38.5239362 509.926541,29.9382069 514.295153,24.5930967 C514.658055,24.6313216 515.054912,24.6684847 515.493152,24.7056477 C519.0585,25.0082612 521.11388,20.7143348 520.389139,18.356073 C518.515209,18.9602382 517.004181,18.8997155 513.498256,15.3320615 C509.993392,11.7633457 505.097406,7.7720328 500.080452,8.37619801 C497.844682,6.62316326 491.558635,8.55776612 487.932804,12.2475273 C484.062916,16.1836266 481.921586,25.9713155 483.036818,31.0382336 C483.259652,32.0501307 483.307402,32.6468633 483.390169,33.0248647 L481.441962,37.1404085 C481.441962,37.1404085 481.614923,37.4769996 481.924769,38.0025915 C476.000562,35.3852501 471.108821,37.4610726 460.245122,43.7830405 C435.308912,58.2946855 433.893384,56.7019828 432.656123,68.5580616 C431.417802,80.4152022 433.362826,94.9268472 431.417802,98.2885117 C429.472777,101.651238 424.343346,107.844728 427.350547,110.145652 C430.356686,112.446577 434.247796,113.684638 433.540032,117.400944 C432.832268,121.11725 420.629442,150.8477 419.568327,153.679526 C418.507212,156.511351 417.976654,156.156709 407.542707,152.795045 C397.10876,149.432318 388.619837,151.378601 380.484266,151.909502 C372.348695,152.440403 368.458646,148.016937 364.214185,147.131394 C359.969723,146.246913 354.664147,145.538691 352.36471,148.724097 C350.065273,151.909502 342.991878,158.988535 339.277974,165.712925 C335.564071,172.438378 336.978538,174.915561 340.33909,174.738241 C343.698581,174.561981 343.34523,171.907477 350.419685,166.952048 C357.49308,161.996619 366.336415,162.52752 377.30092,164.297544 C388.265425,166.067567 414.793308,171.199255 418.331066,171.376576 C421.867764,171.552835 427.881104,174.915561 434.601148,163.235742 C441.321191,151.555922 455.646248,136.690697 456.176806,130.850787 C470.325717,144.831531 486.242447,153.679526 487.656914,156.156709 C489.071381,158.634955 487.126356,171.730156 490.486909,179.87099 C493.8464,188.010763 495.084721,201.637927 494.73137,208.362318 C494.376957,215.086709 489.739074,221.137235 495.615279,222.653739 C501.491484,224.170243 515.972782,224.764134 519.509479,223.348752 C523.047238,221.932308 525.281943,221.425551 522.451948,219.301947 Z" id="Stroke-1" fill="#38D7FF" transform="translate(430.406337, 115.937455) rotate(5.000000) translate(-430.406337, -115.937455) "></path>
                <g id="Group-3" transform="translate(405.973510, 29.629139)">
                    <g id="Group-31" transform="translate(0.819968, 0.000000)">
                        <path d="M144.43499,26.4804102 L130.699917,27.2616864 L126.575726,41.8478765 C126.575726,41.8478765 148.43252,50.1743869 154.837801,44.9848189 C157.975927,42.4433037 162.10367,26.0388708 144.43499,26.4804102" id="Fill-1" fill="#B6EFFE"></path>
                        <path d="M134.136822,38.2688028 C134.136822,38.2688028 130.289629,45.3713139 120.227738,56.4689873 C110.165848,67.5666608 100.695833,75.8529236 100.695833,75.8529236 L129.845722,91.6856044 C129.845722,91.6856044 174.532354,72.3016681 175.716106,67.4186918 C176.899857,62.5357155 176.899857,53.0657008 170.389222,45.3713139 C163.878587,37.6769269 158.795557,32.3038773 155.296386,29.6132094 C148.56439,24.4331114 137.466716,31.9807131 134.136822,38.2688028" id="Fill-3" fill="#FFFFFF"></path>
                        <polygon id="Fill-5" fill="#0475BA" points="94.9081321 84.1763901 67.0899639 113.17831 80.4071721 128.271146 111.014495 107.369077"></polygon>
                        <path d="M100.695833,75.8529236 C100.695833,75.8529236 86.046904,87.98638 92.8534771,103.227185 C99.6600501,118.46799 134.43276,127.346128 134.43276,127.346128 L150.117472,111.809386 L127.114654,94.2720502 L129.845722,91.6856044 L100.695833,75.8529236 Z" id="Fill-7" fill="#2499E1"></path>
                        <path d="M130.70773,27.242628 L107.138047,30.7346959 C103.345306,31.5100534 97.6905238,34.8091697 95.0945561,37.1731222 C88.6691511,43.0255912 80.398277,49.5480638 77.3619536,50.7507557 C73.1986984,52.399722 66.7780284,53.4958762 65.9884659,55.8278673 C65.1977197,58.1598584 65.5043114,63.2712989 67.3864768,64.7379674 C70.5399917,67.19662 70.6725719,66.3810149 72.8956579,64.1188652 C73.0744044,63.9365674 73.8651506,63.3790203 74.1752936,63.8181922 C74.6795719,64.5308108 74.5635642,64.6894336 75.1436026,64.8776501 C76.2137143,65.2244894 78.2426649,63.9093411 79.3684129,60.6196948 C79.9993527,58.7754094 81.2328221,55.4360455 84.3105768,53.539675 C90.4791077,49.7410154 97.6159475,46.2915625 100.954128,44.4543797 C107.45766,40.8735304 107.8045,41.2085322 110.214618,41.3055998 C114.754307,41.4855301 127.114654,40.9417225 127.114654,40.9417225 L130.70773,27.242628 Z" id="Fill-9" fill="#FFD2B8"></path>
                        <path d="M158.699673,65.4950951 L163.138742,78.5163653 L177.047826,73.6333889 C177.047826,73.6333889 180.451113,55.2852355 173.733321,50.5076131 C170.442491,48.1661519 156.332169,49.6624143 158.699673,65.4950951" id="Fill-11" fill="#B6EFFE"></path>
                        <path d="M163.138742,78.5163653 L168.628983,94.7586242 C169.799714,97.6505299 173.333213,98.7348466 175.924446,96.9970989 L193.072275,84.9417702 L207.263092,74.9651098 C207.263092,74.9651098 211.306788,74.3235163 214.266168,72.8438265 C217.225547,71.3641367 217.177014,69.3422885 215.549355,64.3113432 C213.921696,59.2803979 212.096351,58.2446151 207.706999,60.3161808 C202.728139,62.6659282 203.859805,66.23494 202.528085,68.8983816 C201.196364,71.5618232 192.12409,75.9641963 187.093144,78.3317 C182.062199,80.6992037 177.705992,82.4618101 177.705992,82.4618101 L177.047826,73.6333889 L163.138742,78.5163653 Z" id="Fill-13" fill="#FFD2B8"></path>
                        <path d="M67.0899639,113.17831 C67.0899639,113.17831 52.8849419,128.271146 49.6296243,134.92975 C41.1953925,136.853347 35.1286644,143.216013 18.5561387,162.895887 C20.1837974,170.590274 21.0716113,173.697623 21.0716113,173.697623 C21.0716113,173.697623 53.9207247,148.394927 62.9468325,142.920075 C71.9729402,137.445223 80.4071721,128.271146 80.4071721,128.271146 L67.0899639,113.17831 Z" id="Fill-15" fill="#FFD2B8"></path>
                        <path d="M134.43276,127.346128 C138.057408,128.598538 141.528169,129.318654 144.845041,129.506476 C145.683138,129.553826 146.007486,130.635775 145.326828,131.127032 C136.291251,137.648321 121.196064,157.024005 113.285051,166.543737 C117.72412,169.799054 120.641223,172.300405 120.641223,172.300405 C120.641223,172.300405 135.513763,159.631459 165.258842,134.293568 C169.896782,130.382452 169.716851,124.840126 164.91437,121.131431 C160.732175,117.900973 156.014924,114.419558 150.117472,111.809386 L134.43276,127.346128 Z" id="Fill-17" fill="#FFD2B8"></path>
                        <path d="M113.293489,166.537615 L106.437199,173.541875 L113.072128,179.781431 L120.839907,172.308405 C120.839907,172.308405 117.659166,169.275633 113.293489,166.537615" id="Fill-19" fill="#E4EEF4"></path>
                        <path d="M106.486916,173.418173 L113.070944,179.780839 C113.070944,179.780839 113.293489,189.029492 115.069117,192.802109 C116.844745,196.574726 117.659166,197.018633 118.694949,197.537116 C119.730732,198.054416 121.654328,201.828217 116.252869,200.569889 C110.852593,199.312744 112.109737,200.125982 109.150358,195.021644 C106.190978,189.917306 103.527537,185.255691 100.790702,183.702609 C98.0526843,182.148343 99.0150745,178.522511 101.678516,176.008222 C104.341958,173.491565 106.486916,173.418173 106.486916,173.418173" id="Fill-21" fill="#000002"></path>
                        <path d="M11.4084083,169.8773 L12.8289105,178.922348 C12.8289105,178.922348 7.43336965,186.436805 6.57633332,190.518381 C5.71929699,194.598774 6.10164884,195.443973 6.61658089,196.480939 C7.13032918,197.51909 6.39166804,201.689447 2.83922878,197.430308 C-0.712026729,193.172353 -0.199462184,194.579834 0.515523925,188.72263 C1.23051003,182.865426 1.91353484,177.54091 0.664676656,174.651372 C-0.582997779,171.761833 2.3692793,169.448782 6.01049995,169.046307 C9.65172059,168.643831 11.4084083,169.8773 11.4084083,169.8773" id="Fill-23" fill="#000002"></path>
                        <path d="M196.431763,17.8490837 C190.576926,23.6695915 191.816314,34.3955668 187.254135,33.3349252 C184.858221,32.7785618 185.259513,32.572589 183.262524,35.3839996 C181.119933,38.3990156 180.549364,39.9461792 176.974434,39.6005237 C170.766839,39.0015452 171.153926,38.7553249 167.87375,41.9680273 C162.522008,39.9284229 158.918667,32.7963181 158.918667,32.7963181 L165.506246,18.8848665 L187.997531,9.34145924 L196.431763,17.8490837 Z" id="Fill-25" fill="#FFD2B8"></path>
                        <path d="M18.5561387,162.895887 L11.4453414,170.113222 C11.4453414,170.113222 11.1576897,174.881375 11.676173,176.95294 C12.1934725,179.024506 12.1200799,180.282834 12.1200799,180.282834 L21.0716113,173.697623 L18.5561387,162.895887 Z" id="Fill-27" fill="#E4EEF4"></path>
                        <path d="M166.15873,5.04503195 C161.842771,9.4332 159.452776,20.3462082 160.696899,25.9938882 C161.51132,29.6860102 160.230501,28.4572758 165.062576,29.7179715 C168.465862,30.6057853 172.018302,25.5890451 172.429064,21.5642888 C173.126293,14.7411432 179.163428,15.5993633 179.119629,18.3669751 C179.045053,22.9540135 181.221972,19.5755857 182.30037,17.5525538 C183.379952,15.5307057 188.322116,15.9627751 190.142726,17.1086469 C191.963336,18.2557024 192.92691,18.5978067 196.904316,18.935176 C200.882906,19.2713615 203.175834,14.4842691 202.366147,11.8551563 C200.275642,12.5287111 198.589979,12.462421 194.680047,8.48383103 C190.768931,4.50524111 185.3071,0.0555179611 179.711505,0.730256508 C177.216156,-1.22530153 170.204794,0.93149432 166.15873,5.04503195" id="Fill-29" fill="#000002"></path>
                    </g>
                </g>
            </g>
        </g>
    </g>
</svg>