<?xml version="1.0" encoding="UTF-8"?>
<svg width="135px" height="355px" viewBox="0 0 135 355" version="1.1" xmlns="http://www.w3.org/2000/svg" xmlns:xlink="http://www.w3.org/1999/xlink">
    <!-- Generator: Sketch 52.3 (67297) - http://www.bohemiancoding.com/sketch -->
    <title>sport land visual-man center</title>
    <desc>Created with Sketch.</desc>
    <g id="Page-1" stroke="none" stroke-width="1" fill="none" fill-rule="evenodd">
        <g id="Sport-1440---Design" transform="translate(-1053.000000, -201.000000)">
            <g id="sport-land-visual" transform="translate(869.000000, 125.000000)">
                <g id="sport-land-visual-man-center" transform="translate(184.540880, 71.000000)">
                    <path d="M34.2889675,229.739394 C34.2889675,229.739394 33.5425054,256.039032 40.8168736,270.96044 C41.003769,274.691632 40.2573069,279.540838 39.8846354,287.002101 C39.5119639,294.462245 40.6310975,305.467805 45.4803032,334.937949 C47.5316751,335.310621 55.7394007,334.565278 55.7394007,334.565278 C55.7394007,334.565278 60.215935,304.908238 60.215935,289.240368 C60.215935,274.074989 57.7907726,273.94517 57.9776679,269.841307 C58.163444,265.738563 61.5208448,248.95156 59.2825776,232.909899 C49.3972708,231.045422 34.2889675,229.739394 34.2889675,229.739394" id="Fill-1" fill="#FFD2B8"></path>
                    <path d="M89.1265126,229.739394 C89.1265126,229.739394 89.4991841,254.360332 82.5986065,270.96044 C82.4117112,274.691632 83.1581733,279.540838 83.5308448,287.002101 C83.9035162,294.462245 82.4117112,309.944339 77.9351769,334.937949 C75.8838051,335.310621 67.6760794,334.565278 67.6760794,334.565278 C67.6760794,334.565278 63.1995451,306.027372 63.1995451,290.359502 C63.1995451,275.194123 66.7438412,273.94517 66.5569458,269.841307 C66.3711697,265.738563 64.1329025,249.696903 64.1329025,232.909899 C74.0182094,231.045422 89.1265126,229.739394 89.1265126,229.739394" id="Fill-3" fill="#FFD2B8"></path>
                    <g id="Group-7" transform="translate(26.693141, 327.551913)" fill="#31343C">
                        <path d="M13.0258094,12.0127503 C10.670565,14.8095844 8.60360441,19.9894278 6.73455158,23.1376524 C5.6678342,24.9344265 1.50183599,32.2437954 12.9004788,29.8179448 C19.1634426,28.4849399 21.6962757,21.6792868 24.7495927,18.3437422 C27.8029096,15.0081976 29.4309382,13.8959451 28.9216449,9.65070643 C28.413573,5.40546782 26.7437262,4.26257214 23.2824861,4.46391774 C19.8224673,4.66647627 19.7616941,5.00156369 16.9123387,6.92162447 C14.435488,8.5906097 15.3810538,9.2159161 13.0258094,12.0127503 Z" id="Fill-5" transform="translate(17.062750, 17.374100) rotate(25.000000) translate(-17.062750, -17.374100) "></path>
                        <path d="M49.0258094,12.0127503 C46.670565,14.8095844 44.6036044,19.9894278 42.7345516,23.1376524 C41.6678342,24.9344265 37.501836,32.2437954 48.9004788,29.8179448 C55.1634426,28.4849399 57.6962757,21.6792868 60.7495927,18.3437422 C63.8029096,15.0081976 65.4309382,13.8959451 64.9216449,9.65070643 C64.413573,5.40546782 62.7437262,4.26257214 59.2824861,4.46391774 C55.8224673,4.66647627 55.7616941,5.00156369 52.9123387,6.92162447 C50.435488,8.5906097 51.3810538,9.2159161 49.0258094,12.0127503 Z" id="Fill-5-Copy" transform="translate(53.062750, 17.374100) scale(-1, 1) rotate(25.000000) translate(-53.062750, -17.374100) "></path>
                    </g>
                    <path d="M46.3458989,340.739414 C46.3458989,340.739414 49.1211079,341.551724 51.359375,341.551724 C53.5976421,341.551724 55.5525054,339.505595 55.5525054,339.505595 L56.7394007,327.174805 C56.7394007,327.174805 48.1158275,330.961765 44.291748,327.724609 L46.3458989,340.739414 Z" id="Fill-8" fill="#FFFFFF"></path>
                    <path d="M77.0383574,340.739414 C77.0383574,340.739414 73.8940975,342.051668 71.6558303,342.051668 C69.4175632,342.051668 67.8317509,339.505595 67.8317509,339.505595 L66.6448556,327.174805 C66.6448556,327.174805 75.6394404,330.027945 79.4635199,326.790789 L77.0383574,340.739414 Z" id="Fill-13" fill="#FFFFFF"></path>
                    <path d="M34.2293405,212.76352 C33.1380147,219.29262 32.0906532,226.291257 31.916296,230.018841 C37.8768014,232.444004 56.4142383,233.376242 60.0670903,233.190466 C60.6445632,227.967469 61.6058989,221.625339 61.6058989,221.625339 L63.5285704,233.376242 C63.5285704,233.376242 67.9513863,233.750032 78.9121805,232.071332 L89.8729747,230.392632 C90.8729747,230.392632 89.3341661,221.065773 87.9878484,212.859166 C86.6426498,204.65256 83.9113502,197.563968 83.9113502,197.563968 C83.9113502,197.563968 69.105213,199.242668 60.2595812,199.056892 C51.4139495,198.869996 38.9154657,197.750863 38.9154657,197.750863 C38.9154657,197.750863 35.5406649,204.918229 34.2293405,212.76352 Z" id="Fill-15" fill="#000002"></path>
                    <g id="Group-19" transform="translate(26.978339, 0.768520)">
                        <path d="M22.6935632,113.840007 C28.0216606,112.730975 25.7495167,104.651351 28.1276756,104.091785 C30.5058344,103.532218 39.5586082,99.3885433 41.0216606,109.23148 C42.2473017,117.477191 54.314574,115.238924 55.9932744,115.938383 C57.6719747,116.637841 60.3232022,113.822101 65.7856931,112.021415 C74.272083,109.223581 77.7486173,103.18748 92.8569206,97.731704 C92.1574621,88.3589603 88.2165429,78.9667696 86.7532329,74.4190273 C84.1407523,66.2998395 80.3957292,58.2614874 81.3957292,58.2614874 L89.5302058,57.8418123 C89.5302058,57.8418123 102.84609,80.6507591 106.021661,93.442477 C109.197231,106.234195 100.43183,111.042173 87.8415776,119.155892 C75.2513249,127.26961 66.9977148,128.435747 65.3190144,134.776758 C64.2356931,138.870549 64.4796643,144.336397 62.9408556,149.932065 C44.6150433,159.025025 6.28471841,152.450116 6.28471841,152.450116 C6.28471841,152.450116 -0.709866426,139.859863 0.129483755,134.404087 C0.968833935,128.94831 0.269375451,118.736217 4.18634296,117.477191 C4.18634296,117.477191 20.9483581,114.203268 22.6935632,113.840007 Z" id="Fill-17" fill="#FFD2B8"></path>
                        <g id="Group-41" transform="translate(76.711760, 42.676004) rotate(-25.000000) translate(-76.711760, -42.676004) translate(44.211760, 11.176004)">
                            <path d="M50.4102654,30.6389665 C50.1054469,30.6389665 49.8048184,30.6180168 49.5062849,30.5928771 C51.0125698,27.7238128 51.8673184,24.4650838 51.8673184,21.0146648 L51.8673184,9.27653631 C57.0995112,9.99092179 61.1469972,14.4773045 61.1469972,19.9022346 C61.1469972,25.8226257 56.3306564,30.6389665 50.4102654,30.6389665 M3.1424581,19.9022346 C3.1424581,15.2157821 6.16550279,11.2311453 10.3606844,9.76990223 L10.3606844,21.0146648 C10.3606844,24.4567039 11.211243,27.7081006 12.7101955,30.5719274 C7.33763966,29.9874302 3.1424581,25.4277235 3.1424581,19.9022346 M51.8673184,6.10055866 L51.8673184,4.45181564 L54.6651536,4.45181564 C55.8949022,4.45181564 56.8910615,3.45565642 56.8910615,2.22590782 C56.8910615,0.996159218 55.8949022,-3.19744231e-13 54.6651536,-3.19744231e-13 L9.62325419,-3.19744231e-13 C8.39455307,-3.19744231e-13 7.39734637,0.996159218 7.39734637,2.22590782 C7.39734637,3.45565642 8.39455307,4.45181564 9.62325419,4.45181564 L10.3606844,4.45181564 L10.3606844,6.49231844 C4.40886872,8.05621508 -3.05533376e-13,13.4675279 -3.05533376e-13,19.9022346 C-3.05533376e-13,27.5551676 6.22625698,33.7814246 13.8791899,33.7814246 C14.1735335,33.7814246 14.4626397,33.7552374 14.7527933,33.7374302 C15.9773045,35.3065642 17.4217877,36.6976257 19.0391061,37.8613827 C22.7566341,40.5356145 27.9710196,44.9465782 27.9710196,49.5261872 L24.8285615,58.3973464 L21.6211592,58.3973464 C20.5359637,58.3973464 19.6571229,59.2761872 19.6571229,60.3613827 C19.6571229,61.4465782 20.5359637,62.325419 21.6211592,62.325419 L40.6068436,62.325419 C41.6909916,62.325419 42.5708799,61.4465782 42.5708799,60.3613827 C42.5708799,59.2761872 41.6909916,58.3973464 40.6068436,58.3973464 L37.3983939,58.3973464 L34.2559358,49.5261872 C34.2559358,44.9465782 39.4713687,40.5356145 43.1878492,37.8613827 C44.8847765,36.6410615 46.387919,35.1682961 47.6501397,33.5038408 C48.5425978,33.6850559 49.465433,33.7814246 50.4102654,33.7814246 C58.0631983,33.7814246 64.2894553,27.5551676 64.2894553,19.9022346 C64.2894553,12.7416201 58.8372905,6.83170391 51.8673184,6.10055866" id="Fill-1" fill="#FFFFFF"></path>
                            <path d="M30.5438442,26.9834632 L25.6137131,30.2279406 C25.1523667,30.5315487 24.5322484,30.4036766 24.2286403,29.9423302 C24.0705098,29.7020436 24.0235101,29.4052993 24.0996485,29.1279083 L25.6618355,23.4364763 C25.7675443,23.0513533 25.6339727,22.6402624 25.322083,22.3908254 L20.7129073,18.7045907 C20.2815949,18.3596443 20.2115815,17.7303621 20.5565279,17.2990497 C20.736189,17.074406 21.0038859,16.9380077 21.2912286,16.9247011 L27.1868444,16.65168 C27.5857838,16.6332054 27.9354787,16.3791373 28.0763281,16.0054322 L30.1578321,10.4827365 C30.3526128,9.96593974 30.9294603,9.70489412 31.4462571,9.89967483 C31.7154242,10.0011239 31.9278697,10.2135694 32.0293188,10.4827365 L34.1108227,16.0054322 C34.2516721,16.3791373 34.601367,16.6332054 35.0003065,16.65168 L40.8959223,16.9247011 C41.4476158,16.9502495 41.8741406,17.4181966 41.8485921,17.9698901 C41.8352855,18.2572327 41.6988872,18.5249297 41.4742435,18.7045907 L36.8650679,22.3908254 C36.5531781,22.6402624 36.4196066,23.0513533 36.5253153,23.4364763 L38.0875023,29.1279083 C38.233687,29.6604949 37.9204463,30.2107477 37.3878596,30.3569323 C37.1104686,30.4330707 36.8137243,30.3860711 36.5734377,30.2279406 L31.6433066,26.9834632 C31.3096987,26.7639187 30.8774521,26.7639187 30.5438442,26.9834632 Z" id="Star" fill="#2499E1"></path>
                        </g>
                        <path d="M82.7651597,53.9219098 C82.7651597,55.1136575 79.9497228,59.1163489 85.120065,62.68086 C90.2904072,66.245371 91.0874842,66.1557828 93.0411877,64.4183214 C94.9948912,62.68086 93.7260619,57.7448367 93.3836248,55.2424211 C93.0411877,52.7400055 91.204187,51.3455549 86.8601983,52.3045985 C82.5162096,53.2636421 82.7651597,52.7301622 82.7651597,53.9219098 Z" id="Path-8" fill="#FFD2B8"></path>
                    </g>
                    <path d="M39.5913105,198.019343 C39.5913105,198.019343 39.0317437,189.625841 38.0995054,178.434505 C37.8141264,175.008838 31.4809495,155.01104 31.1978087,148.777466 C38.4721769,138.145697 37.3989278,124.518007 36.2339097,116.882159 C39.0317437,116.322592 40.1508773,116.322592 40.1508773,116.322592 C40.1508773,116.322592 40.2370505,116.644903 40.4284224,117.205588 C41.6952816,120.930065 45.3402996,135.160968 61.2275199,135.160968 C79.5074477,135.160968 80.6265812,115.763025 80.6265812,115.763025 L84.7293249,116.695264 C84.7293249,116.695264 81.931491,125.835227 83.2375199,133.109596 C84.5435487,140.383964 91.0714549,149.896599 91.0714549,149.896599 C91.0714549,149.896599 82.4910578,179.553639 83.2375199,197.832448 C72.9784224,199.511148 56.1914188,200.25761 39.5913105,198.019343" id="Fill-20" fill="#0497F4"></path>
                    <g id="Group-37" transform="translate(46.000000, 142.000000)">
                        <polygon id="Fill-22" fill="#FFFFFF" points="0.745595668 23.1876534 29.6628881 23.1876534 29.6628881 0.384187726 0.745595668 0.384187726"></polygon>
                        <polygon id="Fill-24" fill="#000002" points="7.52844043 16.7046245 10.2904621 16.7046245 10.2904621 8.22271119 10.2054079 7.83325271 9.70963177 8.01790975 7.54634657 9.47166426 6.78309747 8.3995343 11.1633863 5.25700722 11.9624477 5.25700722 11.9624477 16.7046245 14.688657 16.7046245 14.688657 18.1953105 7.52844043 18.1953105"></polygon>
                        <polygon id="Fill-25" fill="#000002" points="18.3230433 16.7046245 21.085065 16.7046245 21.085065 8.22271119 21.0000108 7.83325271 20.5042347 8.01790975 18.3409495 9.47166426 17.5777004 8.3995343 21.9579892 5.25700722 22.7570505 5.25700722 22.7570505 16.7046245 25.4832599 16.7046245 25.4832599 18.1953105 18.3230433 18.1953105"></polygon>
                    </g>
                    <path d="M31.2074492,140.183066 C27.4674559,146.427035 19.4655129,159.954771 14.5329222,164.230183 C20.9897915,166.024403 31.7533198,168.670592 35.662793,170.278023 C39.573306,171.886491 47.7624046,172.616009 50.5354272,172.072243 C53.3094896,171.529515 53.269979,169.717653 56.2831846,169.048323 C59.2953505,168.378993 61.7730832,168.144468 59.7268482,171.511873 C57.6806133,174.879279 61.1897814,171.963282 63.4533248,173.063267 C65.717908,174.162214 65.9393755,176.03115 64.8819461,177.503677 C63.8234771,178.977241 66.4280596,178.981392 64.6646377,181.43664 C62.9012157,183.891889 65.7574186,184.373392 61.6732668,185.912333 C57.589115,187.450236 53.3011716,185.12574 51.5159148,183.774627 C49.730658,182.423513 46.2558018,181.35051 41.7807027,181.567393 C37.3045638,181.784277 19.0652077,179.070636 12.4253418,177.219341 C5.78547592,175.368046 -0.249253445,173.504298 0.00756567203,171.384234 C0.264384789,169.263131 4.53465245,157.300279 9.43709025,146.01506 C14.3384883,134.72984 23.434252,111.261513 33.3701365,119.930637 C35.7334963,121.99259 34.9474426,133.938059 31.2074492,140.183066 Z" id="Fill-26" fill="#FFD2B8"></path>
                    <rect id="Rectangle" stroke="#979797" fill="#D8D8D8" transform="translate(41.913176, 176.492404) rotate(10.000000) translate(-41.913176, -176.492404) " x="41.4131759" y="171.492404" width="1" height="10"></rect>
                    <circle id="Oval" stroke="#2499E1" fill="#FFFFFF" cx="42" cy="177" r="4"></circle>
                    <path d="M43.5577359,78.7703822 C43.5577359,78.7703822 43.7569785,82.4848275 43.9562211,83.8263191 C44.1554638,85.1678106 41.4647304,82.6915137 41.0652873,84.3420502 C40.666802,85.993571 42.1620796,91.8752682 43.6573572,92.4943424 C45.1526348,93.1134166 45.6507414,92.0819543 45.6507414,92.0819543 C45.6507414,92.0819543 49.1039609,110.193566 60.1695898,110.193566 C71.2352186,110.193566 75.7574515,92.8033874 75.7574515,92.8033874 C75.7574515,92.8033874 78.6483854,91.565239 79.3457345,90.2237475 C80.0440416,88.8822559 81.2845186,82.2879836 79.4894191,82.7013559 C77.6952776,83.113744 77.9558257,83.4887317 77.8562043,81.7348521 C77.756583,79.9809725 77.4519717,71.4438504 77.4519717,71.4438504 L47.5454621,70 L43.5577359,78.7703822 Z" id="Fill-27" fill="#FFD2B8"></path>
                    <path d="M43.5115651,83.8669855 L45.5049493,85.105134 C45.5049493,85.105134 44.6083575,80.5649283 45.8047711,76.7471398 C47.0002269,72.9293514 50.8883317,73.2383964 50.8883317,73.2383964 C50.8883317,73.2383964 54.9756793,77.0561848 63.5488595,76.7471398 C72.1220398,76.4371106 73.5176961,74.9932602 73.5176961,74.9932602 L77.9096549,83.0185881 C77.9096549,83.0185881 81.655991,77.8583239 80.359956,71.6665975 C79.0639211,65.4758553 78.5016354,59.9278085 78.5016354,59.9278085 C78.5016354,59.9278085 79.5984277,62.5074485 68.932242,57.7605566 C58.2650984,53.0136648 51.4870175,58.9987051 51.5866388,62.4041054 C45.0068427,60.5468827 42.2155302,67.1509973 42.0162875,72.3102772 C41.8170449,77.4695571 43.5115651,83.8669855 43.5115651,83.8669855" id="Fill-28" fill="#000002"></path>
                    <ellipse id="Oval" fill="#000000" opacity="0.099999994" cx="64.9591202" cy="349.5" rx="64.5" ry="10.5"></ellipse>
                </g>
            </g>
        </g>
    </g>
</svg>