<?xml version="1.0" encoding="UTF-8"?>
<svg width="207px" height="167px" viewBox="0 0 207 167" version="1.1" xmlns="http://www.w3.org/2000/svg" xmlns:xlink="http://www.w3.org/1999/xlink">
    <!-- Generator: Sketch 52.3 (67297) - http://www.bohemiancoding.com/sketch -->
    <title>sport land-IT solutions-icon 8</title>
    <desc>Created with Sketch.</desc>
    <defs>
        <linearGradient x1="1.20662332%" y1="2.14292466%" x2="90.267142%" y2="79.7543246%" id="linearGradient-1">
            <stop stop-color="#0497F4" offset="0%"></stop>
            <stop stop-color="#0BCBF9" offset="100%"></stop>
        </linearGradient>
    </defs>
    <g id="Page-1" stroke="none" stroke-width="1" fill="none" fill-rule="evenodd">
        <g id="Sport-1440---Design" transform="translate(-1241.000000, -4099.000000)">
            <g id="Group-44" transform="translate(1139.000000, 3966.000000)">
                <g id="sport-land-IT-solutions-icon-8" transform="translate(105.000000, 133.000000)">
                    <path d="M221.988664,46.9268907 C217.408482,22.344467 197.067861,3.21593602 172.443617,0.385897794 C156.043929,-1.49968584 140.863426,3.64493123 129.406381,13.1892435 C125.36989,16.5480432 119.63972,16.5613454 115.606524,13.1992201 C104.742596,4.14708843 90.5308509,-0.950971025 75.1065114,0.149784147 C47.4804353,2.11850639 24.8035917,24.4561876 22.2531882,52.2843426 C20.9582159,66.3879761 24.7014438,79.5604571 31.8616851,90.1988734 C40.4651781,104.638387 68.5064362,147.73079 114.25883,180.334427 C119.395883,183.995851 126.315582,183.876132 131.320831,180.031802 C184.193925,139.433557 218.057616,82.7230498 218.057616,82.7230498 L217.418368,82.5401448 C222.374191,72.0247737 224.390789,59.8266771 221.988664,46.9268907" id="Fill-1" fill="#C1E7FD"></path>
                    <path d="M221.988664,59.9268907 C217.408482,35.344467 197.067861,16.215936 172.443617,13.3858978 C156.043929,11.5003142 140.863426,16.6449312 129.406381,26.1892435 C125.36989,29.5480432 119.63972,29.5613454 115.606524,26.1992201 C104.742596,17.1470884 90.5308509,12.049029 75.1065114,13.1497841 C47.4804353,15.1185064 24.8035917,37.4561876 22.2531882,65.2843426 C20.9582159,79.3879761 24.7014438,92.5604571 31.8616851,103.198873 C40.4651781,117.638387 68.5064362,160.73079 114.25883,193.334427 C119.395883,196.995851 126.315582,196.876132 131.320831,193.031802 C184.193925,152.433557 218.057616,95.7230498 218.057616,95.7230498 L217.418368,95.5401448 C222.374191,85.0247737 224.390789,72.8266771 221.988664,59.9268907" id="Fill-1" fill="url(#linearGradient-1)"></path>
                    <polyline id="Stroke-5" stroke="#FFFFFF" stroke-width="2" stroke-linecap="round" stroke-linejoin="round" points="64 97.2447683 91.8938617 97.2447683 106.599302 57 112.631727 120 125.639269 80.1306002 132.238101 105.331654 142.606373 67.1547049 150.146575 116.991784 157.499295 97.433111 182 97.433111"></polyline>
                    <circle id="Oval" stroke="url(#linearGradient-1)" stroke-width="5" fill="#FFFFFF" cx="25" cy="56" r="25"></circle>
                    <path d="M28.5,52.5 L36,52.5 L36,59.5 L28.5,59.5 L28.5,67 L21.5,67 L21.5,59.5 L14,59.5 L14,52.5 L21.5,52.5 L21.5,45 L28.5,45 L28.5,52.5 Z" id="Combined-Shape" fill="#EF1C3B"></path>
                </g>
            </g>
        </g>
    </g>
</svg>