<?xml version="1.0" encoding="UTF-8"?>
<svg width="136px" height="184px" viewBox="0 0 136 184" version="1.1" xmlns="http://www.w3.org/2000/svg" xmlns:xlink="http://www.w3.org/1999/xlink">
    <!-- Generator: Sketch 52.3 (67297) - http://www.bohemiancoding.com/sketch -->
    <title>vilnius gedimino icon</title>
    <desc>Created with Sketch.</desc>
    <g id="Page-1" stroke="none" stroke-width="1" fill="none" fill-rule="evenodd">
        <g id="Contacts-1440" transform="translate(-296.000000, -1414.000000)">
            <g id="vilnius-gedimino-icon" transform="translate(297.000000, 1415.000000)">
                <path d="M71.5868493,55.8868687 C71.5868493,53.5107429 69.6698841,51.5674747 67.2753425,51.5674747 C64.9041663,51.5674747 62.9638356,53.487318 62.9638356,55.8868687 L62.9638356,66.0890909 L71.5868493,66.0890909 L71.5868493,55.8868687 Z M72.5986301,66.0890909 L72.5068493,66.0890909 L72.5068493,67.0090909 L72.5986301,67.0090909 L72.5986301,66.0890909 Z M72.5986301,67.9290909 L61.1238356,67.9290909 L61.1238356,55.8868687 C61.1238356,52.4667163 63.8923088,49.7274747 67.2753425,49.7274747 C70.6917432,49.7274747 73.4268493,52.5001095 73.4268493,55.8868687 L73.4268493,67.0090909 L72.5986301,67.0090909 L72.5986301,67.9290909 Z" id="Path" fill="#FFFFFF" fill-rule="nonzero"></path>
                <path d="M40.289589,59.1040404 C40.289589,57.7734485 39.1409026,56.6230303 37.8136986,56.6230303 C36.4864947,56.6230303 35.3378082,57.7734485 35.3378082,59.1040404 L35.3378082,67.7026564 L40.289589,67.032488 L40.289589,59.1040404 Z M33.4978082,69.8084547 L33.4978082,59.1040404 C33.4978082,56.7578646 35.4696697,54.7830303 37.8136986,54.7830303 C40.1577276,54.7830303 42.129589,56.7578646 42.129589,59.1040404 L42.129589,68.6402393 L33.4978082,69.8084547 Z" id="Path" fill="#FFFFFF" fill-rule="nonzero"></path>
                <path d="M92.6046575,68.6402393 L92.6046575,59.1040404 C92.6046575,56.7578646 94.576519,54.7830303 96.9205479,54.7830303 C99.2645769,54.7830303 101.236438,56.7578646 101.236438,59.1040404 L101.236438,69.8084547 L92.6046575,68.6402393 Z M99.3964384,67.7026564 L99.3964384,59.1040404 C99.3964384,57.7734485 98.2477519,56.6230303 96.9205479,56.6230303 C95.593344,56.6230303 94.4446575,57.7734485 94.4446575,59.1040404 L94.4446575,67.032488 L99.3964384,67.7026564 Z" id="Path" fill="#FFFFFF" fill-rule="nonzero"></path>
                <path d="M100.130685,104.764482 L100.130685,91.2757576 C100.130685,88.9295818 102.102546,86.9547475 104.446575,86.9547475 C106.790604,86.9547475 108.762466,88.9295818 108.762466,91.2757576 L108.762466,105.932697 L100.130685,104.764482 Z M106.922466,103.826899 L106.922466,91.2757576 C106.922466,89.9451657 105.773779,88.7947475 104.446575,88.7947475 C103.119371,88.7947475 101.970685,89.9451657 101.970685,91.2757576 L101.970685,103.15673 L106.922466,103.826899 Z" id="Path" fill="#FFFFFF" fill-rule="nonzero"></path>
                <path d="M33.6813699,91.2757576 C33.6813699,89.9451657 32.5326834,88.7947475 31.2054795,88.7947475 C29.8782755,88.7947475 28.729589,89.9451657 28.729589,91.2757576 L28.729589,103.826899 L33.6813699,103.15673 L33.6813699,91.2757576 Z M26.889589,105.932697 L26.889589,91.2757576 C26.889589,88.9295818 28.8614505,86.9547475 31.2054795,86.9547475 C33.5495084,86.9547475 35.5213699,88.9295818 35.5213699,91.2757576 L35.5213699,104.764482 L26.889589,105.932697 Z" id="Path" fill="#FFFFFF" fill-rule="nonzero"></path>
                <path d="M71.5868493,87.8747475 C71.5868493,85.4986217 69.6698841,83.5553535 67.2753425,83.5553535 C64.9041663,83.5553535 62.9638356,85.4751968 62.9638356,87.8747475 L62.9638356,102.489091 L71.5868493,102.489091 L71.5868493,87.8747475 Z M72.5986301,102.489091 L72.5068493,102.489091 L72.5068493,103.409091 L72.5986301,103.409091 L72.5986301,102.489091 Z M72.5986301,104.329091 L61.1238356,104.329091 L61.1238356,87.8747475 C61.1238356,84.4545951 63.8923088,81.7153535 67.2753425,81.7153535 C70.6917432,81.7153535 73.4268493,84.4879883 73.4268493,87.8747475 L73.4268493,103.409091 L72.5986301,103.409091 L72.5986301,104.329091 Z" id="Path" fill="#FFFFFF" fill-rule="nonzero"></path>
                <path d="M28.1745205,139.625253 C28.1745205,137.249127 26.2575553,135.305859 23.8630137,135.305859 C21.4918376,135.305859 19.5515068,137.225702 19.5515068,139.625253 L19.5515068,150.011313 L28.1745205,150.011313 L28.1745205,139.625253 Z M29.1863014,150.011313 L29.0945205,150.011313 L29.0945205,150.931313 L29.1863014,150.931313 L29.1863014,150.011313 Z M29.1863014,151.851313 L17.7115068,151.851313 L17.7115068,139.625253 C17.7115068,136.2051 20.47998,133.465859 23.8630137,133.465859 C27.2794145,133.465859 30.0145205,136.238493 30.0145205,139.625253 L30.0145205,150.931313 L29.1863014,150.931313 L29.1863014,151.851313 Z" id="Path" fill="#FFFFFF" fill-rule="nonzero"></path>
                <path d="M112.796438,139.625253 C112.796438,137.249127 110.879473,135.305859 108.484932,135.305859 C106.113755,135.305859 104.173425,137.225702 104.173425,139.625253 L104.173425,150.011313 L112.796438,150.011313 L112.796438,139.625253 Z M113.808219,150.011313 L113.716438,150.011313 L113.716438,150.931313 L113.808219,150.931313 L113.808219,150.011313 Z M113.808219,151.851313 L102.333425,151.851313 L102.333425,139.625253 C102.333425,136.2051 105.101898,133.465859 108.484932,133.465859 C111.901332,133.465859 114.636438,136.238493 114.636438,139.625253 L114.636438,150.931313 L113.808219,150.931313 L113.808219,151.851313 Z" id="Path" fill="#FFFFFF" fill-rule="nonzero"></path>
                <path d="M75.7169863,133.558586 C75.7169863,128.918903 71.9984368,125.194747 67.3671233,125.194747 C62.7358097,125.194747 59.0172603,128.918903 59.0172603,133.558586 L59.0172603,164.534545 L75.7169863,164.534545 L75.7169863,133.558586 Z M57.1772603,166.374545 L57.1772603,133.558586 C57.1772603,127.903319 61.7189848,123.354747 67.3671233,123.354747 C73.0152618,123.354747 77.5569863,127.903319 77.5569863,133.558586 L77.5569863,166.374545 L57.1772603,166.374545 Z" id="Path" fill="#FFFFFF" fill-rule="nonzero"></path>
                <path d="M1.7460274,180.344646 L132.621096,180.344646 L132.621096,176.761414 L1.7460274,176.761414 L1.7460274,180.344646 Z M134.461096,174.921414 L134.461096,182.184646 L-0.0939726027,182.184646 L-0.0939726027,174.921414 L134.461096,174.921414 Z" id="Rectangle" fill="#FFFFFF" fill-rule="nonzero"></path>
                <path d="M42.4967123,114.899798 L42.4967123,118.115354 L92.1457534,118.115354 L92.1457534,114.899798 L42.4967123,114.899798 Z M93.9857534,113.059798 L93.9857534,119.955354 L40.6567123,119.955354 L40.6567123,113.059798 L93.9857534,113.059798 Z" id="Rectangle" fill="#FFFFFF" fill-rule="nonzero"></path>
                <path d="M47.7282192,75.8325253 L86.8224658,75.8325253 L86.8224658,73.260404 L47.7282192,73.260404 L47.7282192,75.8325253 Z M88.6624658,71.420404 L88.6624658,77.6725253 L45.8882192,77.6725253 L45.8882192,71.420404 L88.6624658,71.420404 Z" id="Rectangle" fill="#FFFFFF" fill-rule="nonzero"></path>
                <path d="M52.5926027,37.32 L52.5926027,38.7890909 L81.9580822,38.7890909 L81.9580822,37.32 L52.5926027,37.32 Z M83.7980822,35.48 L83.7980822,40.6290909 L50.7526027,40.6290909 L50.7526027,35.48 L83.7980822,35.48 Z" id="Rectangle" fill="#FFFFFF" fill-rule="nonzero"></path>
                <path d="M47.7282192,77.6725253 L47.7282192,113.059798 L86.8224658,113.059798 L86.8224658,77.6725253 L47.7282192,77.6725253 Z M88.6624658,75.8325253 L88.6624658,114.899798 L45.8882192,114.899798 L45.8882192,75.8325253 L88.6624658,75.8325253 Z" id="Rectangle" fill="#FFFFFF" fill-rule="nonzero"></path>
                <path d="M45.7964384,73.4629555 L21.3937266,78.3508558 L21.159705,80.3196006 L45.7964384,75.9804017 L45.7964384,73.4629555 Z M19.040295,82.5612075 L19.7240817,76.8087402 L47.6364384,71.2178526 L47.6364384,77.5246488 L19.040295,82.5612075 Z" id="Path" fill="#FFFFFF" fill-rule="nonzero"></path>
                <path d="M40.6567123,115.05806 L11.8652373,119.647395 L11.5776923,122.815158 L40.6567123,118.248556 L40.6567123,115.05806 Z M9.53189674,124.998983 L10.16216,118.055635 L42.4967123,112.901536 L42.4967123,119.822151 L9.53189674,124.998983 Z" id="Path" fill="#FFFFFF" fill-rule="nonzero"></path>
                <path d="M40.6567123,174.921414 L40.6567123,120.111107 L11.407928,124.704369 L6.97063145,174.921414 L40.6567123,174.921414 Z M4.9608754,176.761414 L9.70166103,123.109772 L42.4967123,117.9596 L42.4967123,176.761414 L4.9608754,176.761414 Z" id="Path" fill="#FFFFFF" fill-rule="nonzero"></path>
                <path d="M92.1457534,119.821789 L92.1457534,112.901536 L124.493548,118.057746 L124.9974,124.996158 L92.1457534,119.821789 Z M122.994381,122.817984 L122.763986,119.645284 L93.9857534,115.05806 L93.9857534,118.248918 L122.994381,122.817984 Z" id="Path" fill="#FFFFFF" fill-rule="nonzero"></path>
                <path d="M92.1457534,176.761414 L92.1457534,117.959105 L124.847771,123.109906 L129.683361,176.761414 L92.1457534,176.761414 Z M127.670064,174.921414 L123.144009,124.704235 L93.9857534,120.111602 L93.9857534,174.921414 L127.670064,174.921414 Z" id="Path" fill="#FFFFFF" fill-rule="nonzero"></path>
                <path d="M42.4967123,119.955354 L42.4967123,174.921414 L92.1457534,174.921414 L92.1457534,119.955354 L42.4967123,119.955354 Z M93.9857534,118.115354 L93.9857534,176.761414 L40.6567123,176.761414 L40.6567123,118.115354 L93.9857534,118.115354 Z" id="Rectangle" fill="#FFFFFF" fill-rule="nonzero"></path>
                <polygon id="Path" fill="#FFFFFF" fill-rule="nonzero" points="14.6739026 118.547326 12.860344 118.236512 19.3026169 80.6466843 47.6364384 75.6563276 47.6364384 113.887879 45.7964384 113.887879 45.7964384 77.8487229 20.8973831 82.2341238"></polygon>
                <path d="M86.9142466,77.5246488 L86.9142466,71.2178526 L114.826603,76.8087402 L115.51039,82.5612075 L86.9142466,77.5246488 Z M113.39098,80.3196006 L113.156958,78.3508558 L88.7542466,73.4629555 L88.7542466,75.9804017 L113.39098,80.3196006 Z" id="Path" fill="#FFFFFF" fill-rule="nonzero"></path>
                <polygon id="Path" fill="#FFFFFF" fill-rule="nonzero" points="88.7542466 113.887879 86.9142466 113.887879 86.9142466 75.6563276 115.248068 80.6466843 121.690341 118.236512 119.876782 118.547326 113.653302 82.2341238 88.7542466 77.8487229"></polygon>
                <path d="M52.5926027,37.32 L52.5926027,38.7890909 L81.9580822,38.7890909 L81.9580822,37.32 L52.5926027,37.32 Z M83.7980822,35.48 L83.7980822,40.6290909 L50.7526027,40.6290909 L50.7526027,35.48 L83.7980822,35.48 Z" id="Rectangle" fill="#FFFFFF" fill-rule="nonzero"></path>
                <path d="M104.082463,41.9426193 L83.7980822,37.5410443 L83.7980822,38.9640957 L104.27297,43.3163377 L104.082463,41.9426193 Z M81.9580822,40.4540862 L81.9580822,35.2589557 L105.728496,40.4169766 L106.455797,45.6614401 L81.9580822,40.4540862 Z" id="Path" fill="#FFFFFF" fill-rule="nonzero"></path>
                <path d="M52.5926027,71.420404 L81.9580822,71.420404 L81.9580822,40.6290909 L52.5926027,40.6290909 L52.5926027,71.420404 Z M83.7980822,38.7890909 L83.7980822,73.260404 L50.7526027,73.260404 L50.7526027,38.7890909 L83.7980822,38.7890909 Z" id="Rectangle" fill="#FFFFFF" fill-rule="nonzero"></path>
                <polygon id="Path" fill="#FFFFFF" fill-rule="nonzero" points="82.6867963 40.6089852 83.0693681 38.8091966 106.168368 43.7192329 111.686832 76.6925841 109.872072 76.9963048 104.560399 45.2585449"></polygon>
                <path d="M28.0571843,45.6694545 L28.9318324,40.4136541 L52.5926027,35.2579429 L52.5926027,40.4540862 L28.0571843,45.6694545 Z M50.7526027,38.9640957 L50.7526027,37.5420571 L30.5421402,41.9459419 L30.3154184,43.3083233 L50.7526027,38.9640957 Z" id="Path" fill="#FFFFFF" fill-rule="nonzero"></path>
                <polygon id="Path" fill="#FFFFFF" fill-rule="nonzero" points="24.7708095 76.9937993 22.9552179 76.6950896 28.3804968 43.7196197 51.4813168 38.8091966 51.8638887 40.6089852 29.9921059 45.2581581"></polygon>
                <polygon id="Path" fill="#FFFFFF" fill-rule="nonzero" points="52.5926027 36.4 50.7526027 36.4 50.7526027 28.4941414 63.1473973 28.4941414 63.1473973 32.9981818 71.3115068 32.9981818 71.3115068 28.4941414 83.7980822 28.4941414 83.7980822 36.4 81.9580822 36.4 81.9580822 30.3341414 73.1515068 30.3341414 73.1515068 34.8381818 61.3073973 34.8381818 61.3073973 30.3341414 52.5926027 30.3341414"></polygon>
                <polygon id="Path" fill="#FFFFFF" fill-rule="nonzero" points="30.653986 41.2540374 28.8199866 41.1055586 29.4261209 33.6186319 36.8980822 32.0495683 36.8980822 35.2918233 44.970411 33.1209857 44.970411 30.066513 51.4592079 28.5192321 51.8859976 30.3090507 46.810411 31.5193456 46.810411 34.5315396 35.0580822 37.6920151 35.0580822 34.3160883 31.1492216 35.1369237"></polygon>
                <polygon id="Path" fill="#FFFFFF" fill-rule="nonzero" points="97.7443836 32.0495683 105.216345 33.6186319 105.822479 41.1055586 103.98848 41.2540374 103.493244 35.1369237 99.5843836 34.3160883 99.5843836 37.6920151 87.8320548 34.5315396 87.8320548 31.5219842 82.6678462 30.3097981 83.0883182 28.5184848 89.6720548 30.0638744 89.6720548 33.1209857 97.7443836 35.2918233"></polygon>
                <polygon id="Path" fill="#FFFFFF" fill-rule="nonzero" points="66.6350685 0.92 66.6350685 33.9181818 64.7950685 33.9181818 64.7950685 -0.92 70.0309589 -0.92 70.0309589 33.9181818 68.1909589 33.9181818 68.1909589 0.92"></polygon>
                <rect id="Rectangle" fill="#EF1C3B" x="69.2027397" y="2.66565657" width="18.4479452" height="12.3171717"></rect>
                <polyline id="Path" fill="#EF1C3B" points="87.6506849 6.61818182 100.132877 6.61818182 94.9931507 12.6848485 100.132877 18.8434343 81.6849315 18.8434343 81.6849315 14.9828283"></polyline>
            </g>
        </g>
    </g>
</svg>